<svg width="858" height="1245" viewBox="0 0 858 1245" fill="none" xmlns="http://www.w3.org/2000/svg">
<g clip-path="url(#clip0_2162_2359)">
<path d="M147.251 2.56235C153.31 7.93321 155.257 15.2096 157.556 22.7264C157.89 23.7955 158.225 24.8646 158.569 25.9661C159.679 29.5168 160.777 33.0708 161.876 36.6249C163.263 41.0757 164.654 45.5253 166.046 49.9748C166.68 52.0048 167.314 54.0351 167.947 56.0655C171.28 66.7416 174.669 77.3989 178.079 88.0506C178.589 89.6436 179.098 91.2365 179.608 92.8295C181.611 99.0898 183.616 105.35 185.625 111.608C186.806 115.289 187.985 118.971 189.162 122.654C189.598 124.018 190.036 125.382 190.475 126.745C191.075 128.611 191.671 130.477 192.267 132.343C192.604 133.393 192.94 134.442 193.287 135.523C194.001 138 194.001 138 194.001 140C194.507 139.664 195.014 139.327 195.535 138.981C212.151 127.982 228.978 117.622 246.955 108.99C249.071 107.966 251.17 106.914 253.27 105.859C299.581 82.8861 355.259 68.878 407.048 68.8319C408.389 68.8287 409.731 68.8253 411.073 68.8218C413.876 68.8159 416.68 68.814 419.484 68.8146C422.307 68.8146 425.13 68.8078 427.954 68.794C445.06 68.7121 461.984 69.0627 479.001 70.9999C480.24 71.1353 481.479 71.2707 482.756 71.4103C535.155 77.6075 587.092 95.1565 633.001 121C633.233 120.437 633.465 119.873 633.704 119.293C640.648 107.016 660.022 96.1747 673.095 92.3944C677.729 91.4352 681.02 91.4907 685.251 93.6874C688.108 96.0902 689.657 97.522 691.001 101C691.001 107.804 691.001 107.804 687.872 111.547C684.723 114.237 681.872 115.64 678.063 117.25C672.477 119.705 667.303 122.483 662.188 125.812C661.3 126.39 661.3 126.39 660.394 126.979C658.064 128.525 655.983 130.018 654.001 132C658.426 135.144 662.86 138.269 667.407 141.234C687.742 154.505 707.185 169.849 724.187 187.22C725.982 188.982 727.843 190.609 729.759 192.238C733.845 195.795 737.574 199.589 741.251 203.562C742.221 204.607 742.221 204.607 743.211 205.672C754.21 217.576 764.32 230.004 774.001 243C774.539 243.717 775.076 244.433 775.63 245.172C791.26 266.068 804.633 288.515 816.021 311.983C816.67 313.319 817.323 314.653 817.98 315.985C835.374 351.274 846.588 389.251 853.001 428C853.198 429.107 853.396 430.213 853.6 431.354C857.188 452.084 857.427 472.909 857.492 493.889C857.501 496.081 857.516 498.272 857.533 500.464C857.724 529.49 854.754 557.702 848.001 586C847.755 587.049 847.509 588.098 847.256 589.179C839.651 621.25 828.211 651.898 812.974 681.124C811.966 683.067 810.983 685.021 810.001 686.976C794.857 716.759 774.394 744.652 751.681 769.101C749.293 771.684 746.955 774.302 744.626 776.937C737.315 785.075 729.599 793.021 721.243 800.094C719.432 801.633 717.655 803.196 715.884 804.781C696.581 821.951 675.38 837.103 653.001 850C652.058 850.544 652.058 850.544 651.097 851.1C646.427 853.787 641.723 856.407 637.001 859C636.29 859.393 635.579 859.786 634.847 860.191C605.814 876.166 574.97 887.458 543.001 896C542.013 896.264 541.025 896.528 540.007 896.8C523.231 901.184 506.299 903.769 489.134 906.019C488.076 906.162 488.076 906.162 486.998 906.308C482.757 906.857 478.607 907.054 474.337 907.137C471.218 907.382 469.547 907.583 467.052 909.487C465.3 911.564 463.904 913.674 462.501 916C461.407 917.656 460.313 919.312 459.22 920.969C458.683 921.812 458.147 922.655 457.595 923.523C455.184 927.269 452.591 930.877 450.001 934.5C449.011 935.906 448.021 937.312 447.032 938.719C443.351 943.934 439.602 949.1 435.856 954.269C432.201 959.321 428.587 964.399 425.001 969.5C419.283 977.628 413.473 985.687 407.642 993.734C404.924 997.486 402.213 1001.24 399.501 1005C398.418 1006.5 397.334 1008 396.251 1009.5C395.715 1010.24 395.178 1010.98 394.626 1011.75C389.751 1018.5 389.751 1018.5 388.126 1020.75C387.043 1022.25 385.96 1023.75 384.878 1025.25C382.16 1029.01 379.44 1032.78 376.716 1036.54C371.435 1043.83 366.181 1051.14 361.001 1058.5C355.283 1066.63 349.473 1074.69 343.642 1082.73C340.924 1086.49 338.213 1090.24 335.501 1094C334.418 1095.5 333.334 1097 332.251 1098.5C331.715 1099.24 331.178 1099.98 330.626 1100.75C324.668 1109 318.709 1117.25 312.751 1125.5C312.215 1126.24 311.679 1126.98 311.126 1127.75C310.042 1129.25 308.958 1130.75 307.874 1132.25C305.175 1135.99 302.478 1139.72 299.786 1143.46C293.653 1151.98 287.468 1160.45 281.232 1168.89C277.287 1174.24 273.381 1179.61 269.501 1185C264.348 1192.16 259.141 1199.27 253.893 1206.36C251.441 1209.68 248.993 1212.99 246.622 1216.36C236.141 1231.21 224.099 1240.11 205.985 1243.58C190.16 1245.82 175.931 1241.18 163.001 1232C155.091 1225.71 150.488 1217.87 146.001 1209C145.64 1208.29 145.279 1207.58 144.907 1206.85C139.863 1195.3 140.414 1180.03 139.427 1167.62C139.006 1162.33 138.571 1157.05 138.138 1151.77C138.047 1150.66 137.955 1149.55 137.862 1148.4C136.79 1135.35 135.648 1122.3 134.501 1109.25C134.394 1108.04 134.288 1106.82 134.178 1105.57C133.141 1093.77 132.098 1081.97 131.005 1070.17C128.854 1046.95 126.892 1023.72 124.999 1000.48C122.902 974.752 120.733 949.03 118.501 923.312C118.353 921.61 118.206 919.909 118.058 918.207C117.472 911.448 116.885 904.69 116.298 897.931C114.838 881.136 113.386 864.34 111.943 847.543C111.815 846.061 111.688 844.579 111.56 843.097C109.855 823.265 108.191 803.431 106.694 783.582C106.553 781.745 106.402 779.91 106.25 778.074C106.099 776.214 105.967 774.352 105.869 772.488C105.501 767.437 103.987 765.223 100.376 761.75C92.3066 753.578 85.7436 744.267 79.0009 735C78.4629 734.266 77.9249 733.532 77.3705 732.775C43.4977 686.435 19.8827 632.49 8.45695 576.244C8.14314 574.7 7.82313 573.157 7.49797 571.615C2.52957 547.994 0.507555 524.632 0.664715 500.502C0.688507 496.607 0.685217 492.712 0.678631 488.816C0.693264 474.766 1.10201 460.929 3.0009 447C3.10113 446.264 3.20137 445.528 3.30464 444.77C4.01628 439.687 4.83031 434.623 5.6884 429.562C5.81617 428.8 5.94395 428.038 6.0756 427.252C9.10745 409.288 12.8619 391.442 18.5248 374.104C21.5241 364.911 22.7027 356.303 23.3256 346.657C25.0008 321.721 35.7024 299.009 54.1728 282C55.4626 280.875 56.7629 279.762 58.079 278.668C62.9551 274.436 66.3173 270.192 69.5634 264.687C74.4212 256.69 79.8522 249.258 85.5678 241.858C86.8971 240.134 88.2148 238.403 89.5282 236.668C98.1707 225.308 107.179 214.237 116.438 203.375C117.146 202.542 117.146 202.542 117.868 201.691C118.323 201.162 118.778 200.632 119.247 200.086C119.689 199.57 120.131 199.054 120.586 198.522C122.001 197 122.001 197 123.716 195.516C125.67 193.887 125.67 193.887 128.001 191C127.695 185.99 126.332 181.49 124.755 176.747C124.526 176.054 124.298 175.362 124.063 174.649C123.307 172.362 122.542 170.077 121.778 167.793C121.239 166.167 120.701 164.541 120.163 162.915C119.021 159.462 117.874 156.01 116.725 152.558C114.034 144.474 111.361 136.384 108.688 128.294C108.094 126.497 107.499 124.699 106.905 122.902C101.749 107.315 96.6744 91.7045 91.6884 76.0624C91.3731 75.0742 91.0577 74.086 90.7328 73.0678C89.0608 67.8257 87.3974 62.581 85.7413 57.3338C85.002 55.0033 84.253 52.6762 83.5019 50.3495C83.0418 48.9113 82.5819 47.4732 82.122 46.035C81.7255 44.8053 81.3291 43.5756 80.9206 42.3087C79.7069 37.9421 78.6733 33.4201 80.0009 28.9999C83.2654 24.2986 86.4276 21.7844 91.6884 19.4999C92.3825 19.1873 93.0766 18.8747 93.7917 18.5526C96.5177 17.3434 99.2585 16.1717 102.001 14.9999C103.331 14.4246 104.662 13.8491 105.992 13.2733C109.741 11.6542 113.499 10.0566 117.263 8.47129C118.788 7.82715 120.312 7.17892 121.834 6.52647C124.01 5.59679 126.194 4.68676 128.38 3.7811C129.028 3.50025 129.677 3.2194 130.345 2.93003C136.194 0.549045 141.431 -0.23587 147.251 2.56235Z" fill="#2E1F15"/>
<path d="M587 665C590.823 667.851 593.685 670.878 596.625 674.625C599.022 677.677 600.76 679.84 604 682C602.418 686.746 599.782 690.371 596.875 694.375C595.786 695.894 594.699 697.413 593.613 698.934C593.03 699.748 592.447 700.563 591.846 701.402C588.542 706.051 585.308 710.748 582.062 715.438C576.702 723.168 571.259 730.829 565.722 738.433C561.884 743.725 558.171 749.092 554.5 754.5C549.717 761.544 544.811 768.484 539.804 775.371C536.16 780.385 532.563 785.429 529 790.5C524.338 797.129 519.61 803.707 514.855 810.27C511.2 815.321 507.586 820.4 504 825.5C499.338 832.129 494.61 838.707 489.855 845.27C486.2 850.321 482.586 855.4 479 860.5C474.338 867.129 469.61 873.707 464.855 880.27C461.2 885.321 457.586 890.4 454 895.5C447.207 905.155 440.281 914.712 433.354 924.271C427.525 932.316 421.716 940.374 416 948.5C410.282 956.628 404.471 964.687 398.641 972.734C395.923 976.486 393.212 980.243 390.5 984C387.241 988.514 383.981 993.027 380.714 997.535C375.434 1004.83 370.18 1012.14 365 1019.5C359.282 1027.63 353.471 1035.69 347.641 1043.73C344.923 1047.49 342.212 1051.24 339.5 1055C338.416 1056.5 337.333 1058 336.25 1059.5C335.713 1060.24 335.177 1060.99 334.625 1061.75C293.187 1119.12 293.187 1119.12 251.75 1176.5C251.213 1177.24 250.676 1177.99 250.123 1178.75C249.045 1180.24 247.967 1181.74 246.888 1183.23C244.092 1187.09 241.307 1190.97 238.539 1194.85C237.967 1195.65 237.395 1196.45 236.806 1197.27C235.726 1198.78 234.649 1200.3 233.576 1201.81C223.73 1215.55 223.73 1215.55 216.937 1219.38C216.142 1219.84 215.346 1220.3 214.527 1220.77C205.717 1225.05 194.537 1225.65 185.062 1222.94C176.085 1219.27 168.836 1212.18 164.816 1203.42C158.623 1186.82 159.116 1167.07 157.724 1149.59C157.285 1144.09 156.837 1138.59 156.391 1133.09C156.281 1131.74 156.171 1130.38 156.062 1129.02C155.23 1118.74 154.362 1108.46 153.437 1098.19C152.619 1089.09 151.825 1079.98 151.07 1070.88C150.987 1069.87 150.904 1068.87 150.818 1067.84C150.417 1062.99 150.017 1058.14 149.62 1053.29C147.286 1024.89 144.677 996.509 142.122 968.128C137.63 918.201 133.266 868.269 129.337 818.295C128.992 813.899 128.644 809.504 128.296 805.109C127.611 796.448 126.929 787.786 126.25 779.125C126.098 777.191 126.098 777.191 125.943 775.218C124.881 761.666 123.846 748.112 122.859 734.555C122.772 733.382 122.685 732.208 122.596 731C122.478 729.36 122.478 729.36 122.358 727.687C122.288 726.731 122.219 725.775 122.147 724.789C121.992 721.854 121.975 718.938 122 716C130.218 716.457 138.431 716.947 146.639 717.556C209.801 722.222 273.601 721.655 336.455 713.46C339.628 713.048 342.802 712.662 345.98 712.289C381.39 708.046 416.533 701.098 451.312 693.312C452.174 693.12 453.037 692.928 453.925 692.73C456.405 692.175 458.885 691.615 461.363 691.051C462.137 690.875 462.912 690.699 463.71 690.518C467.788 689.573 471.753 688.489 475.73 687.168C482.69 684.999 487.646 687.066 493.937 690.312C511.192 698.734 529.668 700.828 548.175 695C564.577 689.141 576.658 678.837 587 665Z" fill="#ED9129"/>
<path d="M73.0004 293C73.0262 294.258 73.052 295.516 73.0785 296.812C73.7476 319.674 79.3105 338.527 96.0004 355C113.614 371.08 132.395 378.83 156.211 378.391C165.139 377.971 173.711 375.75 182.359 373.628C186.197 372.715 190.058 371.964 193.938 371.25C195.123 371.028 196.307 370.807 197.528 370.578C219.134 366.981 239.458 368.877 257.821 381.633C268.265 389.408 277.509 398.299 286.608 407.593C291.226 412.3 295.989 416.718 301 421C302.034 421.911 303.067 422.824 304.098 423.738C329.742 446.004 354.84 454.648 389 453C403.303 451.735 417.298 446.721 430.962 442.53C451.507 436.253 470.943 433.536 490.813 443.75C504.676 451.944 514.915 463.53 524.584 476.152C531.401 485.049 538.206 493.924 546 502C546.682 502.708 547.364 503.415 548.067 504.145C554.207 510.058 561.246 513.656 569 517C569.996 517.437 570.991 517.874 572.016 518.324C584.5 522.981 599.692 522.3 612.571 519.461C622.468 517.583 631.401 519.142 640.079 524.215C648.339 530.007 655.371 537.828 661.625 545.688C667.27 552.724 672.94 557.933 680.938 562.125C684.418 564.244 685.752 565.193 686.965 569.129C687.244 571.549 687.47 573.976 687.649 576.406C688.457 584.666 692.848 591.76 696.723 598.951C705.839 615.868 711.388 632.975 705.965 652.191C702.09 663.473 694.638 672.658 683.938 678C676.206 681.684 669.212 683.365 660.688 683.25C659.945 683.243 659.202 683.235 658.437 683.227C637.936 682.829 621.465 673.472 607.442 658.898C602.482 653.011 599.105 646.351 595.813 639.438C593.71 635.342 593.71 635.342 590 633C586.5 632.333 586.5 632.333 583 633C579.875 636.278 578.237 639.469 576.688 643.688C570.49 659.033 559.173 670.431 544 677C528.808 682.34 513.015 679.164 498.868 672.531C487.255 666.346 478.377 656.899 470.09 646.868C459.199 633.73 446.85 621.039 429 619C412.086 617.832 397.545 620.868 381.633 626.487C370.7 630.305 360.646 631.413 349.063 631.375C348.035 631.373 348.035 631.373 346.986 631.371C315.36 631.22 286.267 619.076 262 599C260.929 598.142 259.856 597.285 258.782 596.43C252.927 591.721 247.683 586.881 243 581C242.333 580.172 241.665 579.345 240.977 578.492C235.299 571.421 235.299 571.421 233.629 569.066C231.435 566.066 230.088 565.028 226.5 563.875C222.975 563.736 222.975 563.736 220.188 565.562C214.931 571.421 215.692 578.753 215.563 586.188C213.827 645.782 213.827 645.782 195.313 663.875C187.257 670.292 178.578 672.913 168.329 672.473C159.805 671.262 154.099 667.015 148.692 660.473C140.24 648.117 140.512 632.132 143.077 617.913C143.949 613.582 144.949 609.29 146 605C146.247 603.983 146.494 602.966 146.748 601.918C150.704 585.868 155.071 569.465 162.704 554.707C164.611 550.726 164.834 547.316 164 543C162.124 539.79 162.124 539.79 159 538C155.018 537.36 152.931 537.455 149.438 539.5C147.45 541.539 145.9 543.454 144.25 545.75C134.831 558.618 119.573 567.178 105 573C104.169 573.34 103.338 573.681 102.481 574.031C88.1933 578.891 71.5216 577.205 58.0004 571C45.4522 564.76 36.2391 555.804 31.1254 542.562C26.9452 529.325 27.717 515.444 34.0004 503C48.1774 479.008 77.2053 461.802 103.469 453.992C106.087 452.966 107.381 452.284 109 450C109.473 447.825 109.473 447.825 109.375 445.5C109.383 444.727 109.391 443.953 109.399 443.156C108.9 440.458 108.081 439.745 106 438C104.175 437.244 104.175 437.244 102.157 436.824C101.41 436.639 100.664 436.455 99.8949 436.264C99.1047 436.074 98.3145 435.884 97.5004 435.688C79.9302 431.101 65.2836 420.702 55.8512 404.986C43.3935 383.404 38.0828 359.297 44.5873 334.789C47.6961 324.021 58.8517 293 73.0004 293Z" fill="#F7C961"/>
<path d="M494 230C493.948 231.943 493.948 231.943 493.895 233.926C493.327 264.169 500.144 292.21 521 315C521.82 315.913 522.64 316.825 523.484 317.766C541.468 336.813 568.448 349.074 594.671 350.105C619.853 350.77 640.782 346.939 663 335C664.331 334.33 665.664 333.662 667 333C695.336 365.586 716.553 404.026 730 445C730.347 446.052 730.347 446.052 730.702 447.126C735.224 461.095 738.524 476.3 739 491C739.04 492.03 739.08 493.06 739.121 494.121C739.475 511.458 736.649 528.786 724.379 541.707C718.462 547.323 712.113 549.117 704.062 549.437C691.133 549.011 683.708 542.061 675.172 533.027C671.15 528.707 667.252 524.308 663.5 519.75C655.006 509.999 641.712 501.775 628.613 500.827C626.072 500.768 623.541 500.776 621 500.812C620.149 500.813 619.298 500.814 618.422 500.814C614.547 500.841 610.757 500.973 606.914 501.488C590.857 503.587 576.645 502.117 563.352 491.984C555.631 485.469 549.487 478.225 543.543 470.113C538.665 463.466 533.395 457.229 528 451C527.082 449.878 527.082 449.878 526.145 448.734C512.737 432.556 492.942 421.335 472 419C452.695 417.491 435.873 421.886 417.438 427.062C390.814 434.53 364.031 438.817 338.312 425.621C329.133 420.357 321.272 413.375 313.488 406.269C311.872 404.796 310.245 403.334 308.605 401.887C303.688 397.541 298.99 393.036 294.375 388.375C289.745 383.704 285.069 379.199 280 375C279.269 374.368 278.538 373.737 277.785 373.086C267.45 364.409 255.846 358.106 243 354C242.018 353.68 241.035 353.361 240.023 353.031C221.322 348.019 200.494 350.14 182 355C180.869 355.296 179.739 355.593 178.574 355.898C176.839 356.373 175.108 356.864 173.387 357.387C166.384 359.186 159.369 359.214 152.188 359.25C150.644 359.281 150.644 359.281 149.068 359.312C140.324 359.357 132.577 357.86 124.938 353.437C123.837 352.817 123.837 352.817 122.715 352.184C121 351 121 351 120 349C125.766 340.799 131.586 332.713 138 325C138.409 324.501 138.818 324.002 139.239 323.488C150.822 309.383 163.531 296.16 178 285C179.506 283.768 179.506 283.768 181.043 282.512C255.382 221.926 356.656 198.884 494 230Z" fill="#F37480"/>
<path d="M653.328 132.965C656.849 134.329 659.958 136.16 663.125 138.188C663.813 138.623 664.501 139.059 665.21 139.508C678.075 147.789 690.342 157.098 702 167C703.14 167.955 704.281 168.909 705.422 169.863C711.735 175.177 717.802 180.59 723.523 186.551C725.572 188.577 727.653 190.446 729.836 192.32C733.9 195.846 737.598 199.616 741.25 203.562C741.897 204.259 742.544 204.955 743.21 205.672C754.21 217.576 764.319 230.004 774 243C774.538 243.717 775.075 244.433 775.629 245.172C791.259 266.068 804.632 288.515 816.021 311.983C816.669 313.319 817.322 314.653 817.979 315.985C835.373 351.274 846.587 389.251 853 428C853.198 429.107 853.395 430.214 853.599 431.354C857.187 452.084 857.426 472.909 857.491 493.889C857.5 496.081 857.515 498.272 857.532 500.464C857.723 529.49 854.754 557.702 848 586C847.754 587.049 847.508 588.098 847.255 589.179C839.65 621.25 828.21 651.898 812.973 681.124C811.965 683.067 810.982 685.021 810 686.977C794.856 716.759 774.393 744.652 751.68 769.102C749.292 771.684 746.954 774.302 744.625 776.938C737.314 785.075 729.598 793.021 721.242 800.094C719.431 801.633 717.654 803.196 715.883 804.781C696.581 821.951 675.38 837.103 653 850C652.057 850.545 652.057 850.545 651.096 851.1C646.426 853.787 641.722 856.407 637 859C636.289 859.393 635.578 859.786 634.846 860.191C605.813 876.166 574.969 887.458 543 896C542.012 896.264 541.024 896.528 540.006 896.8C526.072 900.441 512.063 902.899 497.812 904.875C497.025 904.985 496.238 905.094 495.427 905.207C476.451 907.817 476.451 907.817 471 906C472.629 900.891 475.721 897.003 478.875 892.75C480.061 891.131 481.246 889.511 482.43 887.891C483.029 887.073 483.628 886.255 484.245 885.412C486.871 881.803 489.437 878.154 492 874.5C498.791 864.844 505.718 855.288 512.646 845.729C518.978 836.989 525.272 828.224 531.481 819.394C535.653 813.47 539.893 807.598 544.145 801.73C548.304 795.983 552.403 790.195 556.483 784.39C560.088 779.268 563.754 774.192 567.438 769.125C572.462 762.206 577.319 755.187 582.12 748.113C585.866 742.612 589.71 737.194 593.625 731.812C602.835 719.141 611.624 706.237 620 693C623.729 694.221 627.401 695.528 631.062 696.938C651.498 704.252 670.731 704.127 690.594 695.426C707.026 687.191 717.008 673.904 722.791 656.638C724.92 649.604 725.511 643.077 725.438 635.75C725.428 634.65 725.418 633.551 725.408 632.417C725.022 614.631 718.099 599.477 709.266 584.277C707.396 580.95 706.351 578.311 706.188 574.438C706.116 573.167 706.116 573.167 706.043 571.871C706.029 571.254 706.015 570.636 706 570C707.29 569.905 707.29 569.905 708.605 569.809C718.128 568.822 724.906 566.236 733 561C734.015 560.356 734.015 560.356 735.051 559.699C747.982 550.097 755.26 529.863 757.531 514.551C759.456 498.329 758.251 481.954 755 466C754.844 465.234 754.689 464.468 754.528 463.679C743.137 409.859 715.264 363.028 682 320C683.49 316.882 685.257 314.207 687.325 311.434C696.352 299.304 703.07 286.647 707 272C707.26 271.054 707.519 270.108 707.787 269.133C709.847 261.052 710.512 253.45 710.438 245.125C710.428 243.895 710.418 242.665 710.408 241.397C710.023 221.662 702.941 203.831 689.02 189.656C676.096 177.844 659.834 171.545 642.375 171.812C641.165 171.813 641.165 171.813 639.93 171.814C635.191 171.849 630.674 172.217 626 173C628.862 161.427 634.36 152.066 642 143C642.749 142.071 643.498 141.141 644.27 140.184C645.047 139.257 645.824 138.33 646.625 137.375C647.339 136.516 648.053 135.658 648.789 134.773C651 133 651 133 653.328 132.965Z" fill="#703F74"/>
<path d="M407.047 68.8318C408.389 68.8286 409.73 68.8253 411.072 68.8218C413.876 68.8158 416.679 68.8139 419.483 68.8145C422.306 68.8146 425.129 68.8077 427.953 68.794C445.059 68.7121 461.983 69.0627 479 70.9998C480.239 71.1352 481.479 71.2707 482.755 71.4102C534.6 77.5419 585.371 94.8947 631 120C630.151 124.1 628.087 126.689 625.562 129.937C617.837 140.272 611.74 152.643 608 165C604.766 163.925 601.535 162.842 598.309 161.746C597.018 161.31 595.728 160.873 594.438 160.437C593.791 160.216 593.145 159.995 592.479 159.767C575.682 154.112 557.416 156.884 541.688 164.625C521.83 174.992 510.86 190.917 500 210C499.252 209.784 498.505 209.567 497.735 209.345C466.173 200.277 434.066 192.981 401.074 192.762C399.861 192.752 398.648 192.742 397.397 192.732C393.494 192.707 389.591 192.694 385.688 192.687C385.023 192.686 384.359 192.685 383.675 192.684C363.778 192.66 344.576 193.139 325 197C322.565 197.44 320.13 197.88 317.695 198.32C287.119 204.058 257.476 213.972 229.941 228.539C227.521 229.741 225.595 230.416 223 231C219.267 221.19 216.149 211.195 213 201.187C212.433 199.391 211.866 197.595 211.298 195.799C210.124 192.082 208.951 188.364 207.78 184.646C206.016 179.05 204.249 173.454 202.48 167.859C199.651 158.907 196.825 149.954 194 141C210.018 128.06 228.438 117.881 246.955 108.99C249.07 107.966 251.17 106.914 253.27 105.859C299.58 82.8861 355.258 68.878 407.047 68.8318Z" fill="#703F74"/>
<path d="M596 181C597.127 181.605 597.127 181.605 598.277 182.223C599.876 183.106 601.443 184.045 603 185C603.185 194.41 603.185 194.41 602 199C598.636 197.844 595.967 196.319 593.062 194.312C590.162 192.457 589.25 192 585.688 192C582.179 193.212 582.179 193.212 580 196C579.463 201.545 579.652 204.395 583 209C596.159 219.492 611.336 224.346 628 223C633.258 221.723 639.009 219.758 642 215C642.623 210.264 642.623 210.264 640.625 206.125C636.761 203.45 633.375 204.099 628.875 204.437C628.121 204.49 627.367 204.542 626.59 204.596C624.726 204.725 622.863 204.862 621 205C621.092 201.687 621.48 198.968 623 196C626.479 193.929 630.082 192.943 634 192C634.63 191.811 635.261 191.621 635.91 191.426C648.031 188.956 659.06 191.554 669.25 198.25C681.016 207.014 688.83 220.434 691 235C692.592 259.801 686.143 282.794 670 302C669.406 302.74 668.811 303.48 668.199 304.242C654.515 320.618 635.191 329.335 614.173 331.259C587.214 332.743 561.421 325.974 541.004 307.781C526.447 294.455 515.497 276.586 513.694 256.613C513.564 253.092 513.541 249.586 513.562 246.062C513.543 244.89 513.523 243.718 513.502 242.51C513.512 224.618 521.234 209.858 532 196C532.419 195.415 532.838 194.83 533.27 194.227C539.277 186.202 548.9 181.594 558 178C558.9 177.634 559.8 177.268 560.727 176.891C572.434 173.705 585.508 175.055 596 181Z" fill="#E0382A"/>
<path d="M473 741C475.997 742.977 477.518 744.488 478.621 747.949C479.238 753.235 477.475 756.271 474.25 760.375C470.465 764.628 466.423 768.519 462.165 772.295C456.014 777.775 450.278 783.673 444.499 789.539C443.715 790.331 442.932 791.122 442.125 791.938C441.077 793.003 441.077 793.003 440.008 794.09C438.1 795.905 436.14 797.47 434 799C435.32 802.564 437.482 804.383 440.418 806.711C442.784 808.639 444.872 810.816 447 813C447.763 813.722 448.526 814.444 449.312 815.188C451 817 451 817 451 819C451.566 819.23 452.132 819.459 452.715 819.695C455.603 821.345 457.372 823.377 459.562 825.875C460.327 826.739 461.091 827.602 461.879 828.492C466.92 834.453 466.92 834.453 467.5 838.438C467 842 467 842 464.938 844.875C461.283 847.519 459.53 848.307 455 848C451.893 846.124 449.521 843.59 447 841C446.013 840.011 445.025 839.022 444.035 838.035C442.478 836.482 440.925 834.926 439.388 833.353C436.905 830.824 434.401 828.474 431.633 826.258C430.764 825.513 429.895 824.768 429 824C429 823.34 429 822.68 429 822C428.443 821.773 427.886 821.546 427.312 821.313C424.368 819.641 422.318 817.447 420 815C415.818 816.633 413.055 819.709 409.984 822.856C409.41 823.435 408.835 824.015 408.243 824.613C406.407 826.466 404.578 828.326 402.75 830.188C400.352 832.622 397.952 835.053 395.547 837.481C394.971 838.062 394.395 838.643 393.802 839.242C390.199 842.858 386.522 846.331 382.608 849.613C380.814 851.161 379.159 852.808 377.5 854.5C375.109 856.934 372.65 859.214 370.062 861.438C365.828 865.084 361.903 869.004 358 873C362.248 878.072 366.684 882.838 371.375 887.5C371.996 888.125 372.618 888.751 373.258 889.395C377.032 893.161 380.926 896.725 384.956 900.214C388.538 903.344 392.006 906.581 395.438 909.875C396.515 910.859 396.515 910.859 397.615 911.863C401.906 916.02 403.848 919.005 404.291 925.018C403.87 927.887 402.26 929.462 400.031 931.223C396.662 932.512 394.602 932.552 391 932C387.877 929.894 385.324 927.303 382.688 924.625C381.941 923.894 381.194 923.164 380.424 922.411C378.265 920.291 376.129 918.15 374 916C372.985 914.985 371.969 913.971 370.953 912.957C369.334 911.335 367.719 909.709 366.109 908.078C364.194 906.192 362.234 904.429 360.188 902.688C354.112 897.502 348.605 891.682 343 886C339.328 888.346 336.124 890.653 333.125 893.813C329.914 897.109 326.596 900.172 323.109 903.172C320.833 905.144 318.604 907.162 316.375 909.188C309.403 915.477 302.241 921.545 295.087 927.626C293.816 928.707 292.545 929.789 291.274 930.872C290.087 931.884 288.897 932.895 287.706 933.904C286.891 934.599 286.891 934.599 286.059 935.309C285.587 935.709 285.116 936.109 284.631 936.521C282.338 938.6 280.177 940.802 278 943C282.55 947.575 287.103 952.146 291.66 956.715C293.206 958.267 294.752 959.819 296.297 961.373C298.529 963.617 300.764 965.858 303 968.098C303.681 968.783 304.361 969.469 305.062 970.176C309.543 974.657 314.202 978.862 319 983C321.757 985.492 324.473 988.025 327.188 990.563C327.873 991.196 328.558 991.83 329.264 992.483C340.684 1003.16 340.684 1003.16 341.312 1008.81C340.916 1012.85 340.012 1014.3 337 1017C333.75 1018.19 333.75 1018.19 330 1018C324.375 1015.09 319.992 1010.16 315.664 1005.64C314.082 1003.91 314.082 1003.91 312 1003C312 1002.34 312 1001.68 312 1001C311.435 1000.76 310.871 1000.53 310.289 1000.29C307.479 998.708 305.604 996.76 303.375 994.438C300.489 991.31 300.489 991.31 297 989C297 988.34 297 987.68 297 987C296.138 986.628 296.138 986.628 295.26 986.247C292.661 984.813 290.93 983.157 288.848 981.043C288.071 980.26 287.294 979.477 286.494 978.67C285.692 977.851 284.889 977.032 284.062 976.188C283.264 975.38 282.465 974.572 281.643 973.74C280.101 972.181 278.561 970.619 277.023 969.055C274.695 966.69 272.351 964.342 270 962C268 960 266 958 264 956C260.027 957.348 257.58 959.046 254.562 961.938C248.961 967.119 243.049 971.777 237.017 976.438C234.835 978.128 232.661 979.829 230.488 981.531C222.429 987.838 214.349 994.079 206 1000C207.647 1004.32 210.858 1007.01 214.125 1010.13C216.138 1012.05 218.078 1013.98 220 1016C220 1016.66 220 1017.32 220 1018C220.58 1018.24 221.16 1018.49 221.758 1018.74C224.417 1020.24 225.891 1021.91 227.871 1024.24C233.395 1030.53 239.275 1036.43 245.202 1042.33C247.066 1044.19 248.925 1046.06 250.783 1047.92C256.688 1053.83 262.627 1059.59 269 1065C271.208 1066.94 273.365 1068.92 275.5 1070.94C276.036 1071.41 276.572 1071.89 277.125 1072.37C280.044 1075.17 281.36 1077.21 281.469 1081.19C281 1085 281 1085 279 1088C275.892 1090.07 273.929 1090.64 270.207 1090.54C265.636 1089.43 262.686 1085.77 259.5 1082.5C258.438 1081.46 258.438 1081.46 257.355 1080.39C255.217 1078.28 253.106 1076.14 251 1074C249.547 1072.53 248.093 1071.07 246.637 1069.61C246.002 1068.97 245.367 1068.32 244.714 1067.66C242.599 1065.61 240.319 1063.82 238 1062C236.323 1060.34 234.658 1058.68 233 1057C232.023 1056.03 231.044 1055.05 230.065 1054.08C227.198 1051.23 224.334 1048.38 221.472 1045.53C220.245 1044.31 219.018 1043.08 217.789 1041.86C205.892 1030.05 205.892 1030.05 200.57 1023.79C197.616 1020.42 194.386 1017.32 191.188 1014.19C189.866 1012.89 188.547 1011.59 187.23 1010.29C186.657 1009.73 186.084 1009.17 185.493 1008.59C183.032 1005.97 182.037 1004.28 181.562 1000.69C182.171 995.558 184.828 992.736 188.747 989.604C190.744 988.175 192.77 986.801 194.812 985.438C202.924 979.872 210.508 973.828 218.084 967.564C221.138 965.071 224.259 962.664 227.375 960.25C232.382 956.356 237.162 952.289 241.816 947.973C244.136 945.877 246.543 943.931 249 942C248.433 938.239 246.908 936.566 244.211 933.953C243.434 933.19 242.656 932.427 241.855 931.641C241.037 930.852 240.218 930.063 239.375 929.25C233.657 923.69 228.167 918.077 223 912C221.954 910.797 220.908 909.595 219.859 908.395C209.488 896.458 199.242 884.483 189.548 871.986C187.82 869.77 186.079 867.564 184.336 865.36C183.078 863.761 181.82 862.162 180.562 860.563C179.971 859.817 179.38 859.072 178.77 858.304C170.424 847.65 170.424 847.65 169.5 841.875C170.147 838.157 171.229 836.552 174 834C177.586 832.753 179.323 832.739 182.871 834.106C186.511 836.31 188.712 838.94 191.188 842.313C192.153 843.584 193.12 844.854 194.086 846.125C194.572 846.772 195.057 847.419 195.558 848.086C197.772 851.024 200.039 853.92 202.312 856.813C202.757 857.379 203.201 857.946 203.658 858.53C208.58 864.784 213.653 870.912 218.73 877.039C221.336 880.185 223.891 883.368 226.438 886.563C230.872 892.004 235.673 897.085 240.51 902.168C244.242 906.093 247.864 910.085 251.392 914.195C253.005 916.006 254.694 917.691 256.438 919.375C259 922 259 922 259 924C259.66 924 260.32 924 261 924C262.373 925.292 263.71 926.625 265 928C277.159 918.38 289.291 908.69 300.668 898.149C302.7 896.277 304.769 894.475 306.875 892.688C311.289 888.869 315.353 884.7 319.433 880.53C322.15 877.77 324.797 875.208 328 873C326.634 869.963 325.069 867.791 322.77 865.391C322.131 864.718 321.492 864.045 320.834 863.352C320.167 862.658 319.5 861.965 318.812 861.25C314.275 856.501 309.836 851.705 305.534 846.741C303.769 844.738 301.92 842.854 300 841C296.872 837.914 293.966 834.719 291.105 831.387C288.894 828.88 286.62 826.442 284.332 824.006C279.037 818.366 273.962 812.648 269.133 806.598C266.221 803.052 263.1 799.717 259.945 796.387C256.787 792.512 254.976 789.42 255.062 784.375C256.116 780.583 256.687 779.124 260 777C263.395 776.321 264.814 776.048 268 777C271.105 779.295 273.51 782.065 276 785C276.552 785.624 277.103 786.248 277.672 786.891C278.798 788.168 279.917 789.452 281.027 790.742C283.432 793.495 285.9 796.186 288.375 798.875C293.288 804.217 298.162 809.59 303 815C304.046 816.153 304.046 816.153 305.113 817.328C306.078 818.403 306.078 818.403 307.062 819.5C307.915 820.444 307.915 820.444 308.785 821.406C310 823 310 823 310 825C310.66 825 311.32 825 312 825C313.34 826.363 313.34 826.363 314.938 828.313C318.537 832.575 322.419 836.462 326.443 840.318C327.665 841.509 328.837 842.751 330 844C330 844.66 330 845.32 330 846C330.66 846 331.32 846 332 846C333.516 847.574 333.516 847.574 335.25 849.688C338.204 853.285 341.389 856.088 345 859C349.558 854.731 354.114 850.459 358.668 846.186C360.943 844.054 363.219 841.923 365.496 839.793C372.392 833.332 379.224 826.843 385.855 820.11C387.96 818.04 390.133 816.106 392.375 814.188C395.307 811.679 397.653 809.076 400 806C401.648 804.315 403.31 802.643 405 801C401.587 796.187 398.022 791.879 393.781 787.777C391.943 785.943 390.253 784.033 388.562 782.063C386.172 779.282 383.694 776.679 381.062 774.125C367.399 760.675 367.399 760.675 366.688 754.125C367.038 750.618 367.913 748.81 370 746C373.44 744.28 376.357 743.964 380 745C383.776 747.94 386.86 751.402 390 755C390.642 755.726 391.284 756.452 391.945 757.199C393.082 758.496 394.21 759.801 395.328 761.113C397.654 763.738 400.167 766.147 402.715 768.555C404 770 404 770 404 772C404.531 772.204 405.062 772.407 405.609 772.617C409.029 774.595 411.513 777.303 414.25 780.125C414.804 780.688 415.359 781.252 415.93 781.832C417.291 783.217 418.646 784.608 420 786C423.856 784.429 426.143 781.986 429 779C430.099 777.907 431.2 776.818 432.305 775.731C437.745 770.34 443.15 764.982 448.129 759.157C451.111 755.719 454.215 752.396 457.312 749.063C457.936 748.387 458.56 747.711 459.203 747.014C459.792 746.382 460.381 745.749 460.988 745.098C461.786 744.239 461.786 744.239 462.599 743.364C465.738 740.309 468.791 740.572 473 741Z" fill="#D36C19"/>
<path d="M131.999 580C132.659 580.33 133.319 580.66 133.999 581C133.769 581.648 133.538 582.297 133.3 582.965C124.789 608.566 117.948 640.256 130.374 665.625C132.728 670.236 135.315 673.391 138.999 677C138.999 677.66 138.999 678.32 138.999 679C139.515 679.227 140.031 679.454 140.562 679.688C142.999 681 142.999 681 146.062 683.375C157.1 691.157 170.061 691.552 183.095 689.703C196.173 687.231 207.343 679.924 215.027 669.16C220.031 661.472 223.363 653.764 225.999 645C226.358 643.871 226.716 642.742 227.085 641.578C230.943 628.063 231.772 613.95 232.999 600C234.999 600 234.999 600 237.324 602.211C238.207 603.131 239.09 604.052 239.999 605C260.469 625.092 286.998 639.862 314.897 646.496C316.816 646.956 318.725 647.46 320.632 647.969C329.796 650.106 338.81 650.287 348.187 650.312C349.446 650.318 350.705 650.324 352.002 650.329C363.193 650.244 373.929 648.97 384.624 645.625C385.343 645.408 386.062 645.191 386.802 644.968C390.901 643.713 394.926 642.327 398.937 640.812C411.004 636.31 422.816 635.317 434.999 640C443.335 644.02 449.044 651.145 454.999 658C455.708 658.797 456.417 659.593 457.148 660.414C459.908 663.524 462.514 666.665 464.999 670C393.262 687.86 319.584 700.022 245.513 700.967C243.773 700.99 242.034 701.014 240.294 701.04C215.421 701.411 190.65 701.14 165.812 699.688C164.258 699.599 164.258 699.599 162.672 699.509C151.632 698.866 140.623 697.978 129.636 696.707C128.715 696.613 127.793 696.518 126.844 696.421C118.95 695.431 111.979 693.132 106.398 687.265C104.542 682.932 104.487 679.422 104.628 674.758C104.643 673.816 104.657 672.875 104.672 671.905C104.97 657.966 105.912 644.04 106.795 630.127C106.986 627.087 107.169 624.046 107.353 621.005C107.531 618.059 107.713 615.113 107.896 612.167C107.982 610.769 108.068 609.371 108.153 607.973C108.271 606.037 108.395 604.1 108.519 602.164C108.587 601.066 108.656 599.969 108.727 598.839C108.958 596.429 109.225 594.29 109.999 592C111.594 590.875 111.594 590.875 113.64 590C114.381 589.67 115.122 589.34 115.886 589C116.666 588.67 117.446 588.34 118.249 588C123.365 585.792 127.795 583.767 131.999 580Z" fill="#EC9129"/>
<path d="M22.0009 362C22.6609 362.33 23.3209 362.66 24.0009 363C24.5502 365.737 24.9904 368.426 25.3759 371.188C29.3104 396.652 40.0089 420.995 60.0009 438C64.1749 440.922 68.4385 443.719 73.0009 446C73.0009 446.66 73.0009 447.32 73.0009 448C72.1643 448.389 71.3277 448.779 70.4657 449.18C45.3797 461.237 25.0946 477.667 14.079 503.848C8.31717 520.695 9.45912 539.727 16.2861 556.078C25.1953 573.847 41.6626 585.35 59.9736 591.746C69.3349 594.804 79.2323 595.331 89.0009 596C89.135 602.766 88.9285 609.495 88.5634 616.25C88.5242 617.006 88.4849 617.762 88.4445 618.541C88.4025 619.275 88.3606 620.009 88.3173 620.766C88.2806 621.413 88.244 622.06 88.2062 622.728C88.0382 624.587 87.788 626.438 87.5146 628.285C86.9889 632.087 86.6957 635.841 86.4657 639.672C86.4009 640.746 86.4009 640.746 86.3347 641.842C82.3967 672.729 82.3967 672.729 92.3759 700.375C94.565 702.813 95.9765 703.989 99.0331 705.308C101.403 706.889 101.939 707.77 102.685 710.563C103.086 713.998 103.303 717.404 103.462 720.859C103.542 722.119 103.622 723.378 103.705 724.676C103.913 728.016 104.096 731.356 104.267 734.698C104.448 738.111 104.661 741.522 104.872 744.934C105.278 751.621 105.652 758.309 106.001 765C101.457 764.151 99.4707 761.566 96.6259 758.125C96.1062 757.506 95.5866 756.886 95.0512 756.248C82.9569 741.634 72.2719 725.929 62.0009 710C61.5853 709.357 61.1698 708.714 60.7416 708.052C35.2955 668.268 17.8386 622.428 8.45695 576.244C8.14314 574.7 7.82313 573.157 7.49797 571.615C2.52957 547.994 0.507555 524.632 0.664715 500.502C0.688507 496.607 0.685217 492.712 0.678631 488.816C0.693264 474.767 1.10201 460.929 3.0009 447C3.10113 446.264 3.20137 445.529 3.30464 444.771C4.01628 439.687 4.83031 434.623 5.6884 429.562C5.81617 428.8 5.94395 428.038 6.0756 427.252C9.81463 405.098 15.1947 383.416 22.0009 362Z" fill="#703F74"/>
<path d="M314.001 500C318 501.901 321.448 504.374 325.001 507C342.406 519.088 357.64 521.516 378.363 520.863C380.659 520.797 382.954 520.755 385.251 520.715C386.287 520.67 386.287 520.67 387.344 520.624C392.381 520.547 395.14 521.828 399.001 525C401.919 529.377 401.63 532.856 401.001 538C397.374 552.65 390.802 565.354 380.001 576C379.437 576.574 378.874 577.147 378.294 577.738C367.628 587.781 354.459 590.465 340.309 590.176C327.608 589.501 314.903 583.56 306.278 574.113C294.735 558.599 291.038 540.049 293.235 520.964C294.301 514.006 295.834 507.728 300.001 502C304.545 498.97 308.683 499.105 314.001 500Z" fill="#2F1F14"/>
<path d="M130 191C130.443 192.337 130.443 192.337 130.895 193.702C132.324 198.01 133.755 202.318 135.188 206.625C135.584 207.817 135.584 207.817 135.988 209.033C139.145 218.525 142.332 228.006 145.586 237.465C145.878 238.314 146.17 239.164 146.471 240.04C147.883 244.143 149.299 248.245 150.721 252.344C153.425 260.167 155.994 267.962 158 276C157.26 276.73 156.519 277.46 155.756 278.212C152.961 280.971 150.172 283.736 147.386 286.504C146.188 287.692 144.989 288.878 143.787 290.062C136.376 297.368 129.39 304.761 123 313C122.391 313.776 121.783 314.552 121.156 315.351C119.486 317.495 117.834 319.651 116.188 321.812C115.642 322.523 115.096 323.234 114.533 323.967C111.537 327.891 108.686 331.857 106 336C101.633 332.988 99.4516 329.719 97.25 325C96.9471 324.384 96.6441 323.768 96.332 323.133C93.5672 317.407 92.883 313.399 93.0078 307.039C93.0253 305.667 93.0422 304.294 93.0586 302.922C93.0895 300.774 93.125 298.626 93.1714 296.478C93.214 294.394 93.2372 292.311 93.2578 290.227C93.2799 288.985 93.302 287.743 93.3247 286.463C92.9685 282.664 91.8361 280.308 90 277C90 276.34 90 275.68 90 275C88.8244 274.536 88.8244 274.536 87.625 274.062C85 273 85 273 83 272C76.9608 271.525 71.7094 272.014 66 274C66.2518 267.559 69.8467 263.388 73.5 258.375C74.1378 257.483 74.7757 256.592 75.4329 255.673C77.2759 253.106 79.1342 250.551 81 248C81.4504 247.382 81.9007 246.764 82.3647 246.127C93.0391 231.529 104.467 217.453 116.188 203.688C116.675 203.113 117.162 202.538 117.664 201.945C127.036 191 127.036 191 130 191Z" fill="#703F74"/>
<path d="M213.999 431C216.499 432.563 216.499 432.563 217.999 435C218.382 439.02 218.524 441.72 216.999 445.438C214.364 452.191 216.072 458.83 218.675 465.352C222.294 472.589 227.432 477.215 234.999 480C243.425 482.528 250.348 480.813 257.999 477C265.373 472.985 269.122 467.182 271.562 459.25C272.732 455.549 273.538 453.095 276.999 451C280.868 450.232 284.376 450.087 287.882 452.059C290.63 454.296 292.765 456.217 293.238 459.813C293.651 472.012 286.831 481.834 278.937 490.625C269.039 500.052 257.055 504.407 243.624 504.313C242.786 504.307 241.947 504.301 241.083 504.295C234.953 504.175 229.63 503.571 223.999 501C223.112 500.609 222.226 500.219 221.312 499.816C207.634 493.11 200.74 482.579 194.999 469C192.381 460.165 192.187 447.299 196.249 439C200.878 431.587 205.129 428.751 213.999 431Z" fill="#2E1E14"/>
<path d="M437 493C439.87 494.794 441.491 495.983 443 499C443.139 503.309 443.072 506.844 442 511C441.179 519.041 444.164 526.659 448.562 533.312C453.372 539.115 459.257 542.49 466.73 543.508C475.952 543.785 482.097 542.12 489.75 537.25C494.073 532.926 496.702 527.845 499.062 522.25C501.812 515.981 501.812 515.981 505 514C508.987 513.07 512.366 512.988 515.917 515.187C519.208 518.438 520.462 521.532 520.812 526.125C520.127 537.467 512.148 547.618 504 555C491.103 564.818 477.98 568.345 462 567C447.999 564.212 436.622 555.896 428.179 544.555C422.249 535.286 419.662 526.247 419.562 515.312C419.552 514.529 419.542 513.745 419.531 512.938C419.631 506.236 420.764 499.696 425.125 494.437C429.143 492.428 432.591 492.185 437 493Z" fill="#2F1F14"/>
<path d="M146 57C147.738 59.6066 148.575 61.3855 149.512 64.3003C149.932 65.5971 149.932 65.5971 150.361 66.9201C150.657 67.8514 150.953 68.7827 151.258 69.7422C151.566 70.7027 151.873 71.6632 152.191 72.6529C152.84 74.6846 153.487 76.7172 154.132 78.7505C155.12 81.8587 156.12 84.9626 157.121 88.0664C157.751 90.0414 158.38 92.0167 159.008 93.9922C159.308 94.9194 159.608 95.8466 159.917 96.802C160.327 98.1083 160.327 98.1083 160.746 99.4409C160.989 100.202 161.232 100.964 161.482 101.749C162.389 105.691 162.443 108.189 160.488 111.77C159.77 112.774 159.052 113.778 158.312 114.812C157.919 115.363 157.527 115.913 157.122 116.48C150.372 125.791 143.192 134.922 135 143C133.362 138.112 131.726 133.223 130.093 128.333C129.538 126.676 128.984 125.019 128.429 123.362C126.845 118.634 125.271 113.904 123.714 109.168C123.253 107.768 122.789 106.37 122.32 104.973C121.719 103.177 121.132 101.376 120.547 99.5742C120.22 98.5838 119.894 97.5934 119.557 96.573C118.969 93.8598 118.969 92.5504 120 90C121.721 87.8379 123.463 85.7956 125.312 83.75C129.995 78.4407 134.399 72.9925 138.625 67.3125C139.133 66.6296 139.641 65.9467 140.165 65.2432C142.173 62.5279 144.126 59.8109 146 57Z" fill="#F6B640"/>
<path d="M186 184C188.616 186.616 189.059 188.915 190.137 192.457C190.337 193.108 190.538 193.76 190.744 194.431C191.397 196.556 192.042 198.684 192.687 200.812C193.581 203.73 194.48 206.646 195.379 209.562C195.601 210.286 195.824 211.009 196.053 211.754C198.243 218.845 200.59 225.88 203.018 232.892C205 238.69 205 238.69 205 242C202.908 243.746 202.908 243.746 199.996 245.652C198.945 246.347 197.894 247.041 196.811 247.756C195.686 248.483 194.562 249.21 193.437 249.938C192.351 250.654 191.265 251.37 190.146 252.107C184.849 255.582 179.518 258.89 174 262C172.32 257.059 170.648 252.115 168.983 247.168C168.417 245.49 167.848 243.812 167.278 242.135C159.881 220.384 159.881 220.384 160 216C161.789 212.961 161.789 212.961 164.625 210.375C165.655 209.379 166.678 208.376 167.695 207.367C168.236 206.836 168.776 206.304 169.333 205.757C172.355 202.572 174.908 199.036 177.5 195.5C178.004 194.817 178.507 194.135 179.026 193.431C179.955 192.168 180.881 190.903 181.805 189.637C183.186 187.745 184.588 185.869 186 184Z" fill="#EBA03E"/>
<path d="M167 124C169.398 127.597 170.549 131.317 171.855 135.395C172.121 136.22 172.387 137.044 172.661 137.894C173.221 139.639 173.778 141.385 174.333 143.132C175.182 145.796 176.051 148.454 176.92 151.111C177.462 152.81 178.003 154.508 178.543 156.207C178.804 156.998 179.066 157.789 179.335 158.603C180.733 163.091 181.404 166.358 180 171C178.868 173.02 178.868 173.02 177.445 174.812C176.918 175.489 176.39 176.166 175.846 176.864C175.278 177.569 174.71 178.274 174.125 179C173.547 179.735 172.97 180.471 172.374 181.228C171.181 182.744 169.983 184.257 168.781 185.765C167.073 187.909 165.379 190.063 163.691 192.223C161.137 195.49 158.572 198.747 156 202C152.461 198.16 151.361 193.52 149.863 188.641C149.579 187.736 149.295 186.832 149.002 185.9C148.098 183.019 147.205 180.135 146.312 177.25C145.701 175.293 145.088 173.336 144.475 171.379C142.975 166.588 141.485 161.795 140 157C140.803 156.141 141.606 155.283 142.434 154.398C143.509 153.242 144.585 152.086 145.66 150.93C146.187 150.367 146.714 149.805 147.256 149.225C154.54 141.379 160.88 132.773 167 124Z" fill="#FBE69F"/>
<path d="M136 23C136.872 25.2027 137.722 27.4101 138.562 29.625C139.038 30.8548 139.514 32.0845 140.004 33.3516C141.245 37.8972 141.318 40.6739 138.96 44.8345C137.579 46.9427 136.122 48.9725 134.625 51C134.091 51.7368 133.558 52.4736 133.008 53.2327C131.354 55.5004 129.681 57.7525 128 60C127.479 60.6998 126.958 61.3996 126.421 62.1206C124.96 64.0699 123.485 66.0066 122 67.9375C121.556 68.5221 121.112 69.1067 120.655 69.709C118.321 72.6831 116.426 74.4573 113 76C111.287 70.7685 109.578 65.5357 107.873 60.3018C107.292 58.5205 106.71 56.7396 106.127 54.959C105.29 52.4032 104.457 49.8463 103.625 47.2891C103.231 46.0906 103.231 46.0906 102.83 44.8678C101 39.2277 101 39.2277 101 37C107.997 33.9923 114.997 30.9932 122 28C122.706 27.6974 123.412 27.3948 124.14 27.083C125.821 26.364 127.504 25.6504 129.188 24.9375C130.539 24.3632 130.539 24.3632 131.918 23.7773C134 23 134 23 136 23Z" fill="#FCEBA9"/>
<path d="M364 550C367.516 552.127 370.798 554.427 374 557C367.482 565.346 360.65 571.107 350 573C340.818 573.946 332.296 572.616 324.688 567.188C320.186 563.515 316.197 559.873 315 554C317.27 552.852 319.541 551.706 321.812 550.563C322.455 550.237 323.098 549.912 323.76 549.576C335.821 543.514 351.802 544.28 364 550Z" fill="#F27581"/>
<path d="M562.999 404C567.034 405.524 570.734 407.532 574.499 409.625C575.971 410.408 575.971 410.408 577.472 411.207C593.604 419.906 593.604 419.906 596.999 425C597.568 429.959 597.5 432.064 595.124 436.5C592.805 438.841 591.042 439.464 587.769 439.644C580.596 439.458 574.691 435.757 568.592 432.329C566.552 431.182 564.498 430.064 562.439 428.951C561.126 428.233 559.814 427.514 558.503 426.793C557.894 426.458 557.285 426.124 556.657 425.779C549.519 421.758 549.519 421.758 548.382 417.914C547.951 414.085 547.714 411.67 549.249 408.062C553.168 403.444 557.293 403.086 562.999 404Z" fill="#6B3C70"/>
<path d="M388.001 306C390.763 306.939 393.331 308.198 395.938 309.5C396.674 309.859 397.41 310.218 398.168 310.587C400.453 311.711 402.727 312.854 405.001 314C405.722 314.358 406.444 314.715 407.187 315.084C409.238 316.103 411.277 317.141 413.313 318.188C413.929 318.496 414.544 318.804 415.178 319.121C419.074 321.175 421.601 323.301 424.001 327C424.625 331.99 424.081 335.008 421.001 339C417.267 341.49 414.325 341.507 410.001 341C406.51 339.794 406.51 339.794 403.052 338.113C402.431 337.815 401.811 337.516 401.171 337.208C399.871 336.577 398.575 335.939 397.282 335.293C395.317 334.314 393.339 333.364 391.358 332.416C377.93 325.858 377.93 325.858 375.001 320C374.324 314.136 374.324 314.136 376.048 311.242C379.86 306.6 382.068 305.505 388.001 306Z" fill="#1FA2DB"/>
<path d="M324.507 241.012C325.54 241.327 325.54 241.327 326.594 241.648C328.039 242.093 329.483 242.543 330.925 242.998C333.12 243.686 335.323 244.347 337.527 245.006C338.938 245.444 340.348 245.883 341.757 246.324C342.41 246.517 343.062 246.71 343.734 246.909C348.266 248.375 350.973 250.339 354 254C355.118 257.913 355.435 259.993 353.812 263.75C350.7 267.613 350.7 267.613 348 269C342.378 269.305 338.029 268.7 332.613 266.988C331.948 266.778 331.283 266.568 330.598 266.352C329.206 265.908 327.815 265.458 326.426 265.002C324.313 264.313 322.191 263.653 320.068 262.994C318.707 262.556 317.347 262.117 315.988 261.676C314.766 261.283 313.545 260.89 312.286 260.486C308.109 258.597 305.074 256.149 303 252C302.595 249.036 302.436 246.911 304.046 244.309C309.971 237.077 316.173 238.401 324.507 241.012Z" fill="#1FA2DB"/>
<path d="M407.001 393.875C410.082 397.149 410.176 399.377 410.426 403.832C409.779 407.13 408.385 408.653 406.001 411C403.497 412.073 401.288 412.862 398.688 413.562C397.635 413.865 397.635 413.865 396.561 414.174C395.1 414.591 393.638 415 392.173 415.4C390.095 415.974 388.03 416.583 385.965 417.203C369.3 422.018 369.3 422.018 361.938 418.562C359.235 414.987 358.519 411.458 359.001 407C360.302 404.182 361.24 402.455 363.926 400.848C366.942 399.855 369.955 398.899 373.001 398C374.249 397.625 374.249 397.625 375.523 397.244C378.385 396.393 381.254 395.567 384.126 394.75C385.52 394.344 385.52 394.344 386.943 393.93C400.927 390.079 400.927 390.079 407.001 393.875Z" fill="#1FA2DB"/>
<path d="M240.999 274C244.538 275.651 245.81 276.716 247.999 280C248.784 285.323 248.362 288.033 245.183 292.402C243.954 293.93 242.704 295.441 241.437 296.937C240.828 297.684 240.219 298.432 239.591 299.201C238.361 300.709 237.124 302.211 235.88 303.707C233.346 306.796 230.924 309.967 228.507 313.148C226.053 316.161 223.948 317.689 220.089 318.305C216.215 318.551 214.408 318.261 211.062 316.125C207.933 312.901 207.625 310.604 207.691 306.104C208.202 302.612 210.199 300.27 212.437 297.687C213.112 296.863 213.112 296.863 213.801 296.021C214.73 294.89 215.668 293.764 216.613 292.646C218.727 290.136 220.759 287.56 222.812 285C232.232 273.406 232.232 273.406 240.999 274Z" fill="#F5B93C"/>
<path d="M415.001 232C417.637 232.937 420.007 233.9 422.509 235.106C423.197 235.427 423.886 235.748 424.595 236.079C426.042 236.757 427.485 237.443 428.926 238.134C431.118 239.184 433.322 240.208 435.528 241.229C436.939 241.894 438.349 242.562 439.759 243.231C440.411 243.533 441.063 243.835 441.735 244.147C445.926 246.182 448.948 248.483 452.001 252C452.907 255.114 452.691 257.844 452.001 261C450.063 264.063 450.063 264.063 447.001 266C438.407 267.333 431.765 263.574 424.297 259.811C422.185 258.748 420.06 257.714 417.932 256.684C416.573 256.015 415.214 255.344 413.856 254.672C413.227 254.365 412.598 254.057 411.949 253.74C408.375 251.927 405.593 250.074 403.001 247C402.017 243.267 402.265 239.598 403.884 236.082C407.12 231.57 409.775 231.522 415.001 232Z" fill="#6B3C71"/>
<path d="M669 457C672.083 459.133 674.693 461.665 677.331 464.32C679.333 466.335 681.36 468.322 683.387 470.312C686.446 473.333 689.501 476.357 692.535 479.402C693.178 480.047 693.822 480.691 694.485 481.355C696.736 483.799 696.992 484.919 697.312 488.312C696.948 492.619 696.06 494.025 693 497C689.711 499.302 686.949 499.607 683 499C676.371 495.039 671 489.272 665.625 483.812C664.819 483.006 664.014 482.2 663.184 481.369C654.713 472.835 654.713 472.835 654.438 467.687C654.502 464.875 654.718 463.41 656.32 461.078C660.278 457.351 663.531 455.609 669 457Z" fill="#F4BA3D"/>
<path d="M500.91 332.527C504.623 333.367 505.994 334.829 508 338C508.849 341.214 508.826 343.778 508 347C506.14 350.174 503.677 352.499 501 355C500.081 355.879 499.162 356.758 498.215 357.664C495.688 360.05 493.112 362.373 490.503 364.67C489.084 365.925 487.684 367.202 486.285 368.48C479.396 374.478 479.396 374.478 474.687 374.812C470.12 373.806 468.615 372.882 466 369C464.825 365.863 464.482 363.319 465 360C466.724 356.73 469.308 354.495 472 352C473.188 350.855 474.376 349.709 475.562 348.562C492.9 331.993 492.9 331.993 500.91 332.527Z" fill="#F4BA3D"/>
<path d="M643 370C644.867 371.292 644.867 371.292 646.723 373.02C647.415 373.655 648.106 374.291 648.819 374.946C649.899 375.963 649.899 375.963 651 377C651.722 377.664 652.444 378.327 653.188 379.011C655.409 381.057 657.613 383.12 659.812 385.188C660.562 385.886 661.312 386.584 662.084 387.303C662.805 387.98 663.526 388.658 664.27 389.355C664.915 389.96 665.561 390.565 666.226 391.188C669.416 394.446 671.435 396.776 671.5 401.438C671.366 404.98 671.036 405.947 668.938 409C665.382 411.421 663.304 412.076 659 412C653.496 408.897 649.118 404.584 644.562 400.25C643.837 399.572 643.112 398.894 642.365 398.195C628.601 385.186 628.601 385.186 628.312 379.813C629.06 375.666 630.005 373.907 633 371C636.304 369.348 639.455 369.24 643 370Z" fill="#1FA1DB"/>
<path d="M299 319C302.286 320.465 302.286 320.465 305.633 322.508C306.233 322.871 306.833 323.234 307.451 323.608C308.71 324.376 309.966 325.151 311.217 325.933C313.116 327.119 315.031 328.276 316.95 329.429C330.735 337.882 330.735 337.882 332.664 344.16C332.59 347.773 332.041 349.935 330.125 353C325.736 355.809 322.098 355.723 317 355C313.759 353.721 311.002 351.951 308.125 350C307.354 349.501 306.584 349.002 305.789 348.488C304.242 347.482 302.7 346.466 301.165 345.441C299.209 344.139 297.234 342.876 295.243 341.629C286.477 336.042 286.477 336.042 285 332C284.541 328.979 284.4 326.962 286.051 324.316C290.174 319.244 292.539 318.519 299 319Z" fill="#6A3B70"/>
<path d="M555.001 200C557.501 201.562 557.501 201.562 559.001 204C560.293 211.181 556.623 216.952 552.837 222.797C549.226 227.562 544.122 231.445 538.188 232.5C535.49 231.883 534.7 231.165 533.001 229C531.414 221.719 533.372 215.732 537.165 209.527C542.058 202.791 546.365 198.417 555.001 200Z" fill="#FDCBC5"/>
<path d="M161 691C165.29 691 169.58 691 174 691C174 691.33 174 691.66 174 692C175.65 692.33 177.3 692.66 179 693C178.34 694.32 177.68 695.64 177 697C177.835 696.983 177.835 696.983 178.688 696.965C183.898 696.903 188.844 697.25 194 698C194 698.33 194 698.66 194 699C176.205 701.738 176.205 701.738 170 698C170.33 697.01 170.66 696.02 171 695C169.907 694.711 168.814 694.423 167.688 694.125C164 693 164 693 161 691Z" fill="#E18B28"/>
<path d="M163 694C165.97 694 168.94 694 172 694C171.34 695.32 170.68 696.64 170 698C174.95 698 179.9 698 185 698C185 698.33 185 698.66 185 699C180.729 699.029 176.458 699.047 172.188 699.062C170.992 699.071 169.796 699.079 168.564 699.088C161.315 699.108 154.205 698.818 147 698C147 697.67 147 697.34 147 697C152.28 697 157.56 697 163 697C163 696.01 163 695.02 163 694Z" fill="#F4A02B"/>
<path d="M155.5 536.438C159.505 537.081 161.159 538.159 164 541C165.74 544.481 165.464 548.195 165 552C163.908 554.895 162.565 557.31 161 560C160.34 559.67 159.68 559.34 159 559C159.516 558.072 160.031 557.144 160.562 556.188C162.647 551.344 162.522 546.015 161 541C158.364 539.113 157.278 538.977 154 539.25C151.378 539.906 149.328 540.657 147 542C149.748 538.669 151.162 537.135 155.5 536.438Z" fill="#1E140F"/>
<path d="M126.999 602C127.989 602.33 128.979 602.66 129.999 603C129.339 606.96 128.679 610.92 127.999 615C127.339 615 126.679 615 125.999 615C125.669 620.61 125.339 626.22 124.999 632C124.669 632 124.339 632 123.999 632C123.512 621.62 124.959 612.138 126.999 602Z" fill="#231614"/>
<path d="M232 600C232.33 600 232.66 600 233 600C233.224 607.278 232.996 614.401 232.125 621.625C232.047 622.311 231.968 622.998 231.887 623.705C231.438 627.161 230.97 629.045 229 632C229.138 628.354 229.287 624.708 229.438 621.062C229.477 620.022 229.516 618.981 229.557 617.908C229.599 616.919 229.64 615.929 229.684 614.91C229.72 613.994 229.757 613.077 229.795 612.133C230 610 230 610 231 609C231.232 607.485 231.412 605.962 231.562 604.438C231.646 603.611 231.73 602.785 231.816 601.934C231.877 601.296 231.938 600.657 232 600Z" fill="#160E12"/>
<path d="M187 718C195.726 717.902 204.33 717.833 213 719C213 719.33 213 719.66 213 720C207.544 720.909 202.146 721.166 196.625 721.25C195.911 721.271 195.197 721.292 194.461 721.314C192.414 721.328 192.414 721.328 189 721C188.34 720.01 187.68 719.02 187 718Z" fill="#392417"/>
<path d="M123.001 625C123.991 625 124.981 625 126.001 625C126.001 631.93 126.001 638.86 126.001 646C123.001 643 123.001 643 122.66 641.007C122.676 640.269 122.692 639.53 122.708 638.77C122.717 637.967 122.727 637.165 122.737 636.338C122.762 635.505 122.787 634.671 122.813 633.812C122.827 632.968 122.84 632.123 122.854 631.252C122.89 629.168 122.943 627.084 123.001 625Z" fill="#3D2717"/>
<path d="M328.359 548.316C329.171 548.655 329.171 548.655 330 549C328.35 549.33 326.7 549.66 325 550C325 550.66 325 551.32 325 552C323.577 552.928 323.577 552.928 322.125 553.875C319.178 555.879 318.161 556.748 317 560C316.34 558.02 315.68 556.04 315 554C316.741 552.964 318.493 551.947 320.25 550.937C321.712 550.085 321.712 550.085 323.203 549.215C326 548 326 548 328.359 548.316Z" fill="#EF7C8A"/>
<path d="M293 523C293.99 523 294.98 523 296 523C296 528.94 296 534.88 296 541C295.01 540.67 294.02 540.34 293 540C293 534.39 293 528.78 293 523Z" fill="#402C1A"/>
<path d="M240 718C247.59 718 255.18 718 263 718C263 718.33 263 718.66 263 719C258.545 719.495 258.545 719.495 254 720C254 720.33 254 720.66 254 721C252.23 721.081 250.459 721.139 248.688 721.188C247.701 721.222 246.715 721.257 245.699 721.293C243 721 243 721 240 718Z" fill="#3C2517"/>
<path d="M528 172C528.66 172.33 529.32 172.66 530 173C525.38 177.62 520.76 182.24 516 187C515.34 186.67 514.68 186.34 514 186C515.391 184.412 516.788 182.83 518.188 181.25C519.353 179.927 519.353 179.927 520.543 178.578C522.885 176.121 525.302 174.051 528 172Z" fill="#261B0E"/>
<path d="M480 858C480.66 858.33 481.32 858.66 482 859C480.63 862.995 478.907 865.922 476 869C473.867 869.641 473.867 869.641 472 870C473.144 868.187 474.29 866.374 475.438 864.562C476.395 863.048 476.395 863.048 477.371 861.504C479 859 479 859 480 858Z" fill="#211614"/>
<path d="M22.0001 362C22.9901 362.495 22.9901 362.495 24.0001 363C24.6329 365.949 24.6329 365.949 25.1251 369.688C25.3764 371.519 25.3764 371.519 25.6329 373.387C25.9621 376.626 26.07 379.748 26.0001 383C23.8716 379.807 23.4676 377.926 22.8751 374.188C22.7075 373.17 22.5399 372.153 22.3672 371.105C22.0045 368.038 21.9355 365.086 22.0001 362Z" fill="#794480"/>
<path d="M551 480C556.032 484.298 561.027 488.634 566 493C565.01 493.495 565.01 493.495 564 494C558.928 490.451 554.656 487.027 551 482C551 481.34 551 480.68 551 480Z" fill="#231910"/>
<path d="M393 212C397.62 212 402.24 212 407 212C407.33 212.99 407.66 213.98 408 215C406.251 215.081 404.5 215.139 402.75 215.188C401.288 215.24 401.288 215.24 399.797 215.293C397 215 397 215 393 212Z" fill="#E3707A"/>
<path d="M91 20C91.66 20.33 92.32 20.66 93 21C92.2163 21.2475 91.4325 21.495 90.625 21.75C87.6094 23.186 87.2179 24.0022 86 27C85.34 27.66 84.68 28.32 84 29C83.01 29 82.02 29 81 29C82.3994 25.5964 83.87 24.0919 87 22.1875C87.7013 21.7479 88.4025 21.3084 89.125 20.8555C89.7437 20.5732 90.3625 20.2909 91 20Z" fill="#1B110C"/>
<path d="M213 612C213.99 612 214.98 612 216 612C216 613.65 216 615.3 216 617C215.34 617 214.68 617 214 617C214.33 619.31 214.66 621.62 215 624C214.01 624 213.02 624 212 624C212.33 620.04 212.66 616.08 213 612Z" fill="#392718"/>
<path d="M168.043 698.707C170.029 698.805 172.014 698.902 174 699C174 699.33 174 699.66 174 700C175.65 700.33 177.3 700.66 179 701C179 701.33 179 701.66 179 702C173.72 702 168.44 702 163 702C166 699 166 699 168.043 698.707Z" fill="#3A2616"/>
<path d="M690 260C691.267 263.8 691.712 266.326 690.105 270.102C689.11 272.092 688.081 274.055 687 276C685.707 272.371 686.313 269.961 687.375 266.312C687.651 265.339 687.927 264.366 688.211 263.363C689 261 689 261 690 260Z" fill="#211A13"/>
<path d="M186 184C186.33 184 186.66 184 187 184C187 186.31 187 188.62 187 191C184.69 191.66 182.38 192.32 180 193C180.975 191.497 181.955 189.998 182.938 188.5C183.483 187.665 184.028 186.829 184.59 185.969C185.055 185.319 185.521 184.669 186 184Z" fill="#F0AE43"/>
<path d="M294 516C294.99 516 295.98 516 297 516C297.235 520.819 296.452 524.463 295 529C294.67 529 294.34 529 294 529C294 524.71 294 520.42 294 516Z" fill="#261911"/>
<path d="M62 302C62 305.413 61.3313 306.395 59.5 309.188C59.0359 309.903 58.5719 310.618 58.0938 311.355C57.7328 311.898 57.3719 312.441 57 313C56.01 312.67 55.02 312.34 54 312C55.145 310.52 56.291 309.041 57.4375 307.562C58.3946 306.327 58.3946 306.327 59.3711 305.066C61 303 61 303 62 302Z" fill="#F6DA6B"/>
<path d="M592 192C594.97 192.99 597.94 193.98 601 195C601.33 194.01 601.66 193.02 602 192C602 194.31 602 196.62 602 199C597.565 197.606 595.126 195.394 592 192Z" fill="#EF3E2C"/>
<path d="M131 75C131 78.7791 130.003 79.4611 127.5 82.1875C126.525 83.2606 126.525 83.2606 125.531 84.3555C125.026 84.8982 124.521 85.4409 124 86C124 83 124 83 126 80C126.633 77.8872 126.633 77.8872 127 76C127.99 76 128.98 76 130 76C130.33 75.67 130.66 75.34 131 75Z" fill="#190F0F"/>
<path d="M585 499C594.41 498.815 594.41 498.815 599 500C599 500.33 599 500.66 599 501C594.38 501.33 589.76 501.66 585 502C585 501.01 585 500.02 585 499Z" fill="#EA707A"/>
<path d="M132 580C132.66 580.33 133.32 580.66 134 581C132.35 586.28 130.7 591.56 129 597C128.012 593.049 128.083 591.267 128.813 587.375C128.984 586.413 129.155 585.452 129.332 584.461C130 582 130 582 132 580Z" fill="#F3A72C"/>
<path d="M398 528C398.99 528 399.98 528 401 528C401 531.3 401 534.6 401 538C400.01 538 399.02 538 398 538C398 534.7 398 531.4 398 528Z" fill="#3C2719"/>
<path d="M128 191C128.33 192.32 128.66 193.64 129 195C128.278 195.412 127.556 195.825 126.812 196.25C124.02 197.987 121.53 199.904 119 202C120.408 198.785 122.103 196.678 124.625 194.25C125.257 193.636 125.888 193.023 126.539 192.391C127.262 191.702 127.262 191.702 128 191Z" fill="#54215D"/>
<path d="M689 100C689.66 100.33 690.32 100.66 691 101C690.67 103.64 690.34 106.28 690 109C689.01 109 688.02 109 687 109C687.875 101.125 687.875 101.125 689 100Z" fill="#392D25"/>
<path d="M146 57C147.945 59.9176 148.453 61.6254 149 65C148.01 65 147.02 65 146 65C145.34 64.01 144.68 63.02 144 62C144.875 59.3125 144.875 59.3125 146 57Z" fill="#F1BE46"/>
<path d="M369 690C367.5 691.562 367.5 691.562 365 693C362.226 692.968 359.747 692.503 357 692C360.9 689.4 364.474 689.849 369 690Z" fill="#1D1414"/>
<path d="M5.00086 550C6.76925 553.348 7.66984 556.193 8.00086 560C7.34086 560.66 6.68086 561.32 6.00086 562C5.04015 559.118 4.89504 557.301 4.93836 554.312C4.94738 553.504 4.9564 552.696 4.9657 551.863C4.9773 551.248 4.9889 550.634 5.00086 550Z" fill="#5D2B65"/>
<path d="M197 368C200.96 368.33 204.92 368.66 209 369C209 369.33 209 369.66 209 370C203.06 370.495 203.06 370.495 197 371C197 370.01 197 369.02 197 368Z" fill="#382618"/>
<path d="M135 136C135.33 136.66 135.66 137.32 136 138C137.32 137.34 138.64 136.68 140 136C138.707 138.884 137.341 140.872 135 143C134.619 141.009 134.287 139.007 134 137C134.33 136.67 134.66 136.34 135 136Z" fill="#ECC145"/>
<path d="M123 760C126 763 126 763 126.188 766.688C126.126 767.781 126.064 768.874 126 770C125.01 769.67 124.02 769.34 123 769C123 766.03 123 763.06 123 760Z" fill="#3A2416"/>
<path d="M586 709C586.66 710.32 587.32 711.64 588 713C584.25 716 584.25 716 582 716C583.074 713.085 583.778 711.222 586 709Z" fill="#231614"/>
<path d="M428 545C428.66 545 429.32 545 430 545C431.727 546.75 431.727 546.75 433.625 549C434.257 549.743 434.888 550.485 435.539 551.25C436.021 551.827 436.503 552.405 437 553C436.34 553.66 435.68 554.32 435 555C433.827 553.714 432.662 552.421 431.5 551.125C430.85 550.406 430.201 549.686 429.531 548.945C428 547 428 547 428 545Z" fill="#DFC962"/>
<path d="M134 1085C136 1087 136 1087 136.195 1088.95C136.13 1090.96 136.065 1092.98 136 1095C135.01 1094.67 134.02 1094.34 133 1094C132.875 1087.25 132.875 1087.25 134 1085Z" fill="#413124"/>
<path d="M131 861C131.99 861 132.98 861 134 861C134 863.31 134 865.62 134 868C133.01 868.33 132.02 868.66 131 869C131 866.36 131 863.72 131 861Z" fill="#3E2817"/>
<path d="M129 837C129.99 837 130.98 837 132 837C132.125 840.375 132.125 840.375 132 844C131.34 844.66 130.68 845.32 130 846C129 845 129 845 128.902 843.152C128.935 841.102 128.967 839.051 129 837Z" fill="#442818"/>
<path d="M2 456C2.99 456 3.98 456 5 456C5.125 459.375 5.125 459.375 5 463C4.34 463.66 3.68 464.32 3 465C2 464 2 464 1.90234 462.152C1.9349 460.102 1.96745 458.051 2 456Z" fill="#7A4B78"/>
<path d="M382 70C384.64 70 387.28 70 390 70C389.67 70.99 389.34 71.98 389 73C386.69 73 384.38 73 382 73C382 72.01 382 71.02 382 70Z" fill="#794977"/>
<path d="M148 1058C148.99 1058 149.98 1058 151 1058C151 1060.31 151 1062.62 151 1065C150.01 1065.33 149.02 1065.66 148 1066C148 1063.36 148 1060.72 148 1058Z" fill="#402A18"/>
<path d="M140 965C141.485 965.99 141.485 965.99 143 967C143.188 970.125 143.188 970.125 143 973C142.01 973.33 141.02 973.66 140 974C140 971.03 140 968.06 140 965Z" fill="#3F2916"/>
<path d="M541 695C541.33 695.99 541.66 696.98 542 698C537.71 697.67 533.42 697.34 529 697C529 696.67 529 696.34 529 696C530.437 695.831 531.875 695.665 533.312 695.5C534.113 695.407 534.914 695.314 535.738 695.219C538 695 538 695 541 695Z" fill="#3C2616"/>
<path d="M307.688 499.812C308.9 499.853 308.9 499.853 310.137 499.894C310.752 499.929 311.366 499.964 312 500C312 500.33 312 500.66 312 501C309.69 501 307.38 501 305 501C305 501.66 305 502.32 305 503C303.35 503 301.7 503 300 503C302.419 500.017 303.898 499.648 307.688 499.812Z" fill="#1D130D"/>
<path d="M101 457C97.5555 459.296 95.0619 459.54 91 460C91 459.34 91 458.68 91 458C97.2857 455.571 97.2857 455.571 101 457Z" fill="#EFD868"/>
<path d="M408 411C406.312 413.063 406.312 413.063 404 415C401.25 414.75 401.25 414.75 399 414C401.592 411.408 404.457 409.229 408 411Z" fill="#F36E73"/>
<path d="M107 36C106.688 37.9375 106.688 37.9375 106 40C105.01 40.33 104.02 40.66 103 41C103 40.01 103 39.02 103 38C102.34 37.67 101.68 37.34 101 37C104 36 104 36 107 36Z" fill="#EFE0A7"/>
<path d="M145 1197C145.667 1199.67 146.333 1202.33 147 1205C146.01 1204.67 145.02 1204.34 144 1204C143.67 1202.02 143.34 1200.04 143 1198C143.66 1197.67 144.32 1197.34 145 1197Z" fill="#36281C"/>
<path d="M150 1082C150.99 1082 151.98 1082 153 1082C153 1084.31 153 1086.62 153 1089C152.01 1089 151.02 1089 150 1089C150 1086.69 150 1084.38 150 1082Z" fill="#3E2818"/>
<path d="M138 944C138.99 944 139.98 944 141 944C141 945.98 141 947.96 141 950C140.01 950.33 139.02 950.66 138 951C138 948.69 138 946.38 138 944Z" fill="#3A2618"/>
<path d="M139 715C141.64 715 144.28 715 147 715C146.01 715.495 146.01 715.495 145 716C145 716.66 145 717.32 145 718C143.02 718 141.04 718 139 718C139 717.01 139 716.02 139 715Z" fill="#3E281A"/>
<path d="M622 202C624.64 202.33 627.28 202.66 630 203C628 205 628 205 624.375 205.125C623.261 205.084 622.148 205.043 621 205C621.33 204.01 621.66 203.02 622 202Z" fill="#E83F2B"/>
</g>
<defs>
<clipPath id="clip0_2162_2359">
<rect width="858" height="1245" fill="white"/>
</clipPath>
</defs>
</svg>
