<svg width="234" height="94" viewBox="0 0 234 94" fill="none" xmlns="http://www.w3.org/2000/svg">
<path fill-rule="evenodd" clip-rule="evenodd" d="M92.1706 43.5559C89.1092 43.5559 84.2336 45.4079 84.0069 48.3559C83.8179 50.2079 85.9344 51.3039 87.6352 50.5858C88.958 50.0189 90.0919 48.5071 91.9439 48.5071C94.0604 48.5071 95.7612 49.7165 95.8368 51.6819C95.8746 52.4378 95.3832 52.211 94.6651 52.211C93.3423 52.211 90.8478 52.1732 89.7517 52.3244C79.358 53.874 81.6636 65.326 89.4494 65.326C92.5108 65.326 95.2699 64.9858 98.1045 64.9858C101.733 64.948 101.657 62.8693 101.657 60.2236V53.7984C101.657 50.1701 101.166 48.3181 99.2384 46.3905C97.7643 44.8787 95.1943 43.5559 92.1706 43.5559ZM92.7754 60.9417C90.7722 60.9417 88.5045 60.6393 88.5045 58.5606C88.5045 56.5197 90.8478 56.2929 92.8888 56.2929C96.4793 56.2929 95.8746 55.348 95.8368 60.4504C95.1187 61.0551 93.8714 60.9417 92.7754 60.9417ZM149.997 52.1354C149.997 49.9811 151.698 48.3937 153.928 48.4693C156.876 48.5827 158.426 51.9464 157.367 52.1354H149.997ZM149.997 56.5197C152.341 56.5197 154.684 56.5197 157.027 56.5197C159.219 56.5197 161.714 56.8598 162.848 55.4614C163.868 54.1764 163.528 51.1149 162.961 49.5275C160.542 42.7622 150.149 41.0992 145.613 47.7512C144.517 49.3008 144.215 50.8504 144.177 53.2315C144.177 55.6504 144.026 57.6535 144.819 59.6189C146.898 64.7968 153.588 66.5354 159.03 64.4945C165.191 62.1512 162.319 56.9732 158.577 58.9386C157.065 59.7323 155.516 60.7527 153.172 60.2992C151.32 59.9212 149.997 58.6362 149.997 56.5197ZM110.464 53.4582C110.464 50.4724 111.03 48.8472 114.13 48.8472C116.435 48.8472 117.72 49.6787 117.834 52.022C117.947 54.1764 117.834 56.4063 117.834 58.4472C117.834 61.5086 117.342 64.3433 119.799 65.137C121.462 65.6661 123.654 64.759 123.654 62.1134V52.8535C123.654 47.6 120.668 44.085 115.339 44.085H113.071C108.687 44.085 104.756 46.3527 104.756 50.8504V62.4913C104.756 66.1575 110.728 66.2708 110.501 62.1134C110.388 59.8079 110.464 55.9149 110.464 53.4582ZM134.728 49.4519C136.24 49.3386 137.979 49.5275 139.453 49.4142C142.476 49.1118 142.401 44.7275 139.339 44.5386C137.827 44.463 136.24 44.5008 134.728 44.5008C134.577 43.2913 135.446 39.2094 131.856 39.1716C128.379 39.1716 128.945 42.6866 128.945 44.3874C128.001 44.6519 127.32 44.5008 126.602 44.9921C125.355 45.8992 125.317 47.9779 126.527 48.885C127.396 49.5653 128.038 49.2252 128.756 49.5275C129.172 50.1323 128.945 51.7197 128.945 52.6267C128.945 55.8016 128.605 59.2031 129.966 61.4708C132.309 65.326 135.749 65.0236 139.566 65.0236C142.438 65.0236 142.816 62.7181 142.212 61.4708C141.342 59.6945 139.377 60.1102 137.071 60.1102C134.464 60.1102 134.69 58.296 134.69 55.9527C134.69 53.9118 134.577 51.4551 134.728 49.4519ZM170.104 44.3496H170.142C171.427 44.3496 172.486 45.1811 172.901 46.3149C173.166 46.4661 173.468 46.3527 173.695 46.0126C175.245 43.7827 179.591 43.2535 181.141 44.9543C182.312 46.3149 181.972 48.4693 179.856 48.9984C177.701 49.4519 175.849 48.5071 174.224 50.0567C173.619 50.5858 173.166 51.1905 173.053 52.211V62.2645C173.053 63.8897 171.73 65.1748 170.142 65.1748H170.104C168.479 65.1748 167.194 63.8897 167.194 62.2645V47.2598C167.194 45.6724 168.479 44.3496 170.104 44.3496Z" fill="#ED0677"/>
<path fill-rule="evenodd" clip-rule="evenodd" d="M191.572 56.3684C192.479 56.255 193.575 56.3306 194.557 56.2928C195.313 56.2928 195.502 56.1417 195.502 56.8976C195.54 57.9936 195.729 60.4503 195.162 60.7149C195.011 60.8283 188.699 61.811 188.246 59.0141C187.83 56.3684 190.551 56.5196 191.572 56.3684ZM195.389 52.1732C193.499 52.6645 187.83 51.0393 184.164 54.7054C180.8 58.0692 181.972 65.7417 190.627 65.3259C192.743 65.2125 194.935 65.0613 197.052 64.9858C198.261 64.948 199.131 65.0236 200 64.4944C200.718 64.0787 201.209 63.4361 201.285 62.3401C201.474 60.4125 201.323 57.6157 201.323 55.5747C201.323 51.3795 201.587 48.0535 197.732 45.4078C191.609 41.2125 183.899 45.0676 183.71 48.3558C183.597 50.4724 185.902 51.3795 187.603 50.4346C189.039 49.6409 190.135 48.2047 192.403 48.5826C193.575 48.7338 194.104 49.0739 194.709 49.7543C195.087 50.17 195.427 50.8503 195.502 51.455C195.578 52.1732 195.389 52.1732 195.389 52.1732ZM223.282 56.4062C224.227 56.255 225.247 56.3306 226.268 56.2928C226.91 56.2928 227.213 56.1795 227.288 56.7842C227.326 57.1621 227.288 57.8047 227.288 58.2204C227.288 59.0141 227.553 60.4125 226.872 60.7149C226.646 60.8283 220.485 61.811 219.994 59.0141C219.464 56.2928 222.715 56.4818 223.282 56.4062ZM227.175 52.211C222.224 52.211 218.671 51.9464 215.874 54.7432C213.115 57.5023 213.871 62.0377 216.743 64.0031C218.331 65.1369 219.805 65.4393 222.337 65.3259C224.416 65.2503 226.608 65.0613 228.762 64.9858C230.161 64.948 232.92 65.0613 233.033 62.3779C233.109 60.1858 233.033 57.8047 233.033 55.5747C233.033 53.3826 233.222 51.0771 232.504 49.2251C230.539 44.1228 224.34 42.233 218.709 44.6897C217.461 45.2566 215.534 46.7306 215.42 48.3558C215.307 50.4346 217.575 51.3795 219.313 50.4346C220.75 49.7165 221.808 48.2047 224.113 48.5826C225.89 48.8472 227.477 50.1322 227.175 52.211ZM210.696 67.5936C211.036 65.7039 210.809 49.1117 210.809 46.8062C210.809 43.2535 206.009 43.0267 205.216 45.9747C204.724 47.8645 205.405 63.0204 205.102 66.6487C204.913 68.5763 204.006 68.7653 202.041 68.7653C198.601 68.7653 198.45 71.5999 199.546 72.885C200.718 74.2834 204.724 73.6787 206.009 73.2251C208.466 72.318 210.205 70.5039 210.696 67.5936ZM207.975 35.1653H207.861C203.931 35.1653 203.931 40.9102 207.975 40.8724C212.057 40.8346 212.17 35.1653 207.975 35.1653Z" fill="#FFCB08"/>
<path fill-rule="evenodd" clip-rule="evenodd" d="M29.997 20.3874C24.4033 21.2189 19.6033 24.1291 14.9167 27.5685C4.52296 36.1858 -4.24554 21.748 3.72926 14.8692C19.6789 2.54799 36.2332 -0.929176 51.956 9.12437C53.1655 9.99366 55.5466 11.4299 56.6804 12.4126L38.3497 21.2944C35.2505 20.4252 32.5293 20.1228 29.997 20.3874Z" fill="url(#paint0_linear_1914_22)"/>
<path fill-rule="evenodd" clip-rule="evenodd" d="M56.454 12.2614C63.5973 9.72912 69.7202 7.12124 77.2414 5.00471C76.4099 3.94644 75.5784 2.88817 74.7469 1.8299C73.991 0.771635 74.6335 0.469273 76.0698 0.696045C83.969 1.98108 91.8682 3.26612 99.7674 4.51337C101.808 4.92912 102.224 5.72282 100.637 7.53699C95.1942 13.7354 89.7895 19.896 84.3469 26.0945C83.7044 26.8504 83.0619 26.6992 83.0241 25.1118C82.8729 23.789 82.7595 22.5039 82.6461 21.1811C77.2792 22.5417 66.5832 26.359 66.6209 26.3212L51.5784 33.1622C51.5784 33.1244 41.9028 38.3023 37.2162 41.0614C19.3013 51.3795 13.1784 68.4252 25.1973 75.0771C35.78 81.2 52.8635 74.2079 55.6603 53.7984C56.3784 48.2803 55.4713 39.5874 51.5784 33.1622L66.6209 26.3212C70.665 34.674 73.0839 45.5968 71.9501 57.0866C68.2084 89.326 36.6871 101.005 16.391 89.6661C-5.15228 77.7984 -2.24205 49.6031 19.9438 32.3307C25.5753 28.4378 31.2824 24.885 37.065 21.6724L56.454 12.2614Z" fill="url(#paint1_linear_1914_22)"/>
<defs>
<linearGradient id="paint0_linear_1914_22" x1="43.5519" y1="1.31208" x2="-2.40831" y2="41.5716" gradientUnits="userSpaceOnUse">
<stop stop-color="#ED1A77"/>
<stop offset="0.658824" stop-color="#F5757E"/>
<stop offset="1" stop-color="#FFCA0D"/>
</linearGradient>
<linearGradient id="paint1_linear_1914_22" x1="62.7704" y1="19.4387" x2="13.5537" y2="89.4998" gradientUnits="userSpaceOnUse">
<stop stop-color="#ED1A77"/>
<stop offset="0.290196" stop-color="#F24D58"/>
<stop offset="1" stop-color="#FFCA0D"/>
</linearGradient>
</defs>
</svg>
