<svg width="269" height="38" viewBox="0 0 269 38" fill="none" xmlns="http://www.w3.org/2000/svg">
<path fill-rule="evenodd" clip-rule="evenodd" d="M53.1745 7.65672C50.5666 7.73231 47.9965 7.7701 45.4264 7.8079C48.4123 5.99373 51.3981 4.21735 54.3839 2.40318C57.8989 1.60947 61.1871 1.34491 63.6438 2.85672C60.9603 13.9685 58.2768 25.0803 55.5934 36.1922C52.4564 36.1922 49.3572 36.1922 46.2201 36.1922L46.7871 33.8866L49.5083 33.7733L47.0138 32.904L47.543 30.7874L51.4737 30.6362L47.7698 29.767L48.2611 27.8016L52.9477 27.3481L48.5635 26.5922L48.9036 25.1181L55.102 24.2111L49.3572 23.3418L49.6217 22.2079L57.2186 21.0362L50.0753 20.3181L53.1745 7.65672ZM20.7083 13.0992C16.7398 13.0992 12.7335 13.0992 8.76503 13.0992C9.93668 9.92443 11.1083 6.71184 12.2422 3.53703C22.7115 1.4205 33.4453 0.664593 44.8595 3.57483C44.4438 9.3953 42.932 14.2331 40.4753 18.1638L22.8249 26.5166L8.72723 25.6851C8.76503 25.6473 8.80282 25.6095 8.84062 25.5717L25.5083 24.4378L11.2973 23.6441C11.4107 23.5685 11.5241 23.4929 11.6375 23.4173L27.8516 22.2457L14.4343 21.6032C14.6989 21.4142 15.0012 21.263 15.2658 21.1118L30.2705 20.0914L18.2138 19.4866C18.6296 19.2599 19.0453 19.0331 19.4989 18.8441L32.8406 18.0504L22.5603 17.4079C23.354 17.0299 24.1855 16.6898 25.017 16.3496L35.6753 15.9339L27.2469 15.4803C27.7005 15.2914 28.154 15.1402 28.6075 14.989C36.3556 11.1339 22.4091 6.48506 20.7083 13.0992ZM21.502 27.1591L19.6123 28.0284C25.9997 27.9528 32.3493 27.915 38.7367 27.8394C38.0942 30.674 37.4516 33.5087 36.8091 36.3433L0.941406 36.5323L14.9635 35.2095L1.43274 34.4914C1.43274 34.4158 1.47054 34.378 1.50834 34.3024L17.1178 33.2819L2.75558 32.2236C2.75558 32.1859 2.79337 32.1481 2.83117 32.1103L18.932 30.9764L4.30519 30.1071C4.34298 30.0693 4.38078 30.0315 4.38078 29.9937L21.502 28.7465L6.30834 27.8772C6.38393 27.8394 6.42172 27.7638 6.45952 27.726L21.502 27.1591Z" fill="#144B9E"/>
<path fill-rule="evenodd" clip-rule="evenodd" d="M178.541 15.7071L183.228 15.6694C184.74 10.7182 186.025 8.14809 186.327 1.94967C176.198 0.513445 167.581 1.04258 157.414 1.04258C158.245 2.21423 157.905 2.13864 159.077 3.46148C159.719 4.21738 159.908 4.14179 159.757 5.35124C159.53 7.241 156.204 17.3701 155.562 21.1497L162.516 21.0741L166.296 5.99376L178.655 6.10715C178.504 13.704 174.082 11.0583 166.522 11.2095C167.392 12.7213 169.093 14.7623 170.189 16.1607C171.36 17.6347 173.174 19.7134 173.93 21.1497H182.472C181.225 18.9953 179.675 17.6725 178.541 15.7071ZM77.2878 9.58431C77.4012 8.63943 77.6658 7.73234 77.9303 6.78746C79.6311 1.19376 80.8784 8.29927 83.1461 8.29927L94.598 8.26148L96.0721 1.19376C84.4311 0.702421 80.9162 0.815807 69.0862 1.23155C71.8453 5.72919 72.6768 1.08037 70.2579 10.2268C69.313 13.7418 68.2925 17.219 67.3477 20.7339C78.0815 21.3008 81.1429 21.2631 91.9146 20.7717L93.2752 13.4394C72.2232 12.23 82.0122 17.03 75.0201 17.1434L76.3051 12.3812C77.7792 12.1544 79.6311 11.9276 80.7272 11.2095C80.0847 9.77329 78.8752 10.4914 77.2878 9.58431ZM201.067 13.3638C196.948 13.515 197.779 17.0678 193.773 17.1434L195.058 12.3812C199.215 11.7008 198.913 11.9654 199.518 10.6426L196.041 9.58431C197.439 -0.507028 199.896 8.29927 201.861 8.29927L213.313 8.26148L214.825 1.19376C203.108 0.702421 199.631 0.815807 187.801 1.23155C188.482 2.59218 189.237 3.00793 190.409 3.87722C190.447 7.39218 186.97 16.5008 186.1 20.7717C196.683 21.3008 200.047 21.2631 210.667 20.7717L212.028 13.4016C208.437 13.4016 204.582 13.2505 201.067 13.3638ZM241.886 1.23155C235.348 0.929193 224.765 0.248878 218.604 1.60951C217.017 3.83943 215.883 9.31974 215.581 12.419C221.363 13.2505 226.239 13.704 232.324 13.7796C232.74 16.0095 231.946 15.7827 229.716 15.8961C213.653 16.9166 214.938 13.0237 213.578 20.2048C220.91 21.3764 229.111 21.5276 236.784 20.6205C238.447 18.0882 240.11 13.2882 239.732 9.58431C235.31 7.88352 227.108 9.13077 223.367 7.99691C223.026 5.54022 223.82 5.95596 226.315 5.84258L240.979 5.61581L241.886 1.23155ZM245.174 1.49612C244.267 5.04888 242.793 8.0347 242.453 12.3812C248.311 13.2505 252.885 13.5528 259.121 13.7796C259.763 16.5386 256.324 16.0851 251.259 16.0851C249.521 16.0851 247.782 16.0095 246.044 15.9339C245.326 15.8961 244.532 15.8583 243.776 15.8205C242.264 15.7449 240.904 15.4048 240.526 19.978C244.456 21.9812 258.63 21.1119 263.619 20.6583C265.508 17.9371 266.604 13.6662 266.68 9.62211C262.069 7.95911 253.565 9.13077 250.126 7.99691V6.22053C255.266 4.70872 262.371 6.29612 267.852 5.46463L268.759 1.26935C260.633 0.664626 253.187 0.815807 245.174 1.49612ZM137.949 6.29612L148.796 6.4473C148.645 7.241 148.456 8.18589 148.23 8.904C147.738 10.4914 147.965 10.3402 146.907 10.9071L136.664 10.8694L137.949 6.29612ZM128.236 0.929193C131.675 5.72919 131.713 2.66778 129.861 10.1134C129.105 13.0237 127.48 18.315 127.329 21.0741H133.754C136.022 14.8379 132.658 15.367 140.519 15.367C152.954 15.4048 153.067 16.3875 154.466 12.0032C155.373 9.24415 156.771 4.48195 156.28 1.6851C146.756 1.00478 137.911 0.437854 128.236 0.929193ZM98.3398 0.853602C98.6421 1.79848 102.119 8.0725 102.648 8.45045C104.992 10.0379 110.321 8.52604 112.135 10.7938C109.414 13.326 103.064 11.2851 100.607 13.515L93.5776 20.8095L99.5114 20.8473C103.178 20.8473 105.899 12.419 110.245 13.4772C111.304 13.7418 113.76 19.5623 114.252 20.8095H123.436C122.68 19.6379 118.749 17.03 116.859 10.7938C118.409 8.48825 125.968 2.93234 127.14 0.853602C120.488 0.853602 121.319 0.0221062 117.918 2.93234C114.63 5.80478 113.874 7.69455 111.455 7.69455C108.658 7.69455 109.149 7.35439 107.637 4.25518C105.748 0.248878 106.957 0.702421 98.3398 0.853602Z" fill="#144B9E"/>
<path fill-rule="evenodd" clip-rule="evenodd" d="M72.5254 33.1686H70.9758C70.7868 33.1686 70.6357 33.0552 70.6357 32.8663V28.8978C70.6357 28.7088 70.7868 28.6332 70.9758 28.6332H72.5254H72.5632V28.5954V27.0458V27.008H72.5254H70.9758C70.7868 27.008 70.6357 26.8946 70.6357 26.7056V24.7781H70.5979H68.6703C68.6325 24.7781 68.5947 24.7781 68.5947 24.7781V26.7056C68.5947 26.8946 68.4435 27.008 68.2924 27.008H67.2719C67.2719 27.008 67.2341 27.008 67.1963 27.008V27.0458V28.5954V28.6332C67.2341 28.6332 67.2719 28.6332 67.2719 28.6332H68.2924C68.4435 28.6332 68.5947 28.7088 68.5947 28.8978V33.7356C68.5947 34.0379 68.7837 34.2647 69.0105 34.4537C69.3506 34.7182 69.7286 34.7938 70.1443 34.7938H72.5254H72.5632V34.756V33.2064C72.5632 33.1686 72.5632 33.1686 72.5632 33.1686C72.5632 33.1686 72.5632 33.1686 72.5254 33.1686ZM76.4183 27.008C76.0782 27.008 75.7758 27.0458 75.4735 27.1592C75.2089 27.2726 74.9443 27.3859 74.7175 27.5749C74.5286 27.7639 74.3396 27.9529 74.2262 28.1797C74.1128 28.4064 74.0372 28.6332 74.0372 28.8978V34.756V34.7938C74.0372 34.7938 74.075 34.7938 74.1128 34.7938H76.2294H76.2672C76.305 34.7938 76.2672 34.756 76.2672 34.756V29.4269C76.2672 29.3513 76.305 29.2757 76.3427 29.1623C76.4183 29.0867 76.4561 29.0111 76.5317 28.9356C76.6073 28.86 76.7207 28.7844 76.7963 28.7466C76.9097 28.671 77.0231 28.6332 77.1742 28.6332H78.9884C78.9884 28.6332 79.0262 28.6332 79.064 28.6332V28.5954V27.0458V27.008C79.0262 27.008 78.9884 27.008 78.9884 27.008H76.4183ZM86.3207 27.0458V32.4505C86.3207 32.6017 86.2451 32.7151 86.1317 32.8285C85.9805 32.9041 85.8294 32.9797 85.6782 33.0552C85.4514 33.1308 85.2624 33.1686 85.0357 33.2064C84.8089 33.2064 84.5821 33.2442 84.3553 33.2442C84.0908 33.2442 83.864 33.2064 83.6372 33.2064C83.4105 33.1686 83.1837 33.1308 82.9947 33.0552C82.8435 32.9797 82.6924 32.9041 82.5412 32.8285C82.4278 32.7151 82.3522 32.6017 82.3522 32.4505V27.0458V27.008C82.3144 27.008 82.2766 27.008 82.2766 27.008H80.349C80.349 27.008 80.3112 27.008 80.2735 27.008V27.0458V33.1308C80.2735 33.3954 80.3868 33.66 80.6136 33.8867C80.8782 34.1135 81.1805 34.3025 81.5207 34.4159C81.9364 34.6048 82.39 34.6804 82.8435 34.756C83.3349 34.8316 83.8262 34.8694 84.3553 34.8694C84.8467 34.8694 85.338 34.8316 85.8294 34.756C86.2829 34.6804 86.7364 34.6048 87.1522 34.4159C87.4924 34.3025 87.7947 34.1135 88.0593 33.8867C88.2861 33.66 88.3994 33.3954 88.3994 33.1308V27.0458V27.008C88.3994 27.008 88.3616 27.008 88.3238 27.008H86.3963H86.3585C86.3207 27.008 86.3207 27.0458 86.3207 27.0458ZM97.3191 34.5671C97.5459 34.3781 97.7727 34.1891 97.9238 33.9623C98.0372 33.7356 98.1506 33.5088 98.2262 33.2442C98.264 33.093 98.3018 32.8663 98.3018 32.6773C98.3018 32.2615 98.264 31.808 98.1506 31.3922C98.0372 31.0899 97.9238 30.8253 97.6971 30.5985C97.4703 30.3718 97.1679 30.2584 96.8656 30.1828C96.4876 30.0694 96.0341 30.0694 95.6561 30.0694H92.8593C92.6703 30.0694 92.4813 29.9938 92.3301 29.8048C92.2546 29.6537 92.179 29.5025 92.179 29.3135C92.179 29.1623 92.2546 29.0111 92.3301 28.86C92.4813 28.7088 92.6703 28.6332 92.8593 28.6332H97.8483H97.8861V28.5954V27.0458V27.008H97.8483H93.7286C93.1994 27.008 92.6325 27.008 92.1034 27.0836C91.7254 27.1592 91.3475 27.2348 91.0073 27.4237C90.7427 27.6127 90.5538 27.8395 90.4026 28.1041C90.2514 28.482 90.2136 28.9356 90.2136 29.3135C90.2136 29.6159 90.2514 29.956 90.327 30.2584C90.4026 30.523 90.516 30.7497 90.705 30.9387C90.8939 31.1655 91.1585 31.3167 91.4231 31.43C91.7632 31.5434 92.179 31.5812 92.5191 31.5812H95.505C95.7317 31.5812 95.9963 31.619 96.1097 31.8458C96.1853 31.997 96.2609 32.1482 96.2609 32.2993C96.2609 32.4127 96.2609 32.4883 96.2231 32.5639C96.2231 32.6773 96.1853 32.7907 96.1097 32.8663C96.0341 32.9419 95.9207 33.0174 95.8073 33.093C95.6939 33.1308 95.505 33.1686 95.3538 33.1686H90.138H90.1002C90.1002 33.1686 90.1002 33.1686 90.1002 33.2064V34.756V34.7938H90.138H96.3364C96.6766 34.7938 97.0168 34.7182 97.3191 34.5671ZM104.878 33.1686H103.291C103.102 33.1686 102.951 33.0552 102.951 32.8663V28.8978C102.951 28.7088 103.102 28.6332 103.291 28.6332H104.84C104.84 28.6332 104.878 28.6332 104.916 28.6332V28.5954V27.0458V27.008C104.878 27.008 104.84 27.008 104.84 27.008H103.291C103.102 27.008 102.951 26.8946 102.951 26.7056V24.7781H102.913H100.985C100.947 24.7781 100.91 24.7781 100.91 24.7781V26.7056C100.91 26.8946 100.758 27.008 100.607 27.008H99.5868H99.549C99.5112 27.008 99.5112 27.0458 99.5112 27.0458V28.5954C99.5112 28.5954 99.5112 28.6332 99.549 28.6332H99.5868H100.607C100.758 28.6332 100.91 28.7088 100.91 28.8978V33.7356C100.91 34.0379 101.099 34.2647 101.325 34.4537C101.666 34.7182 102.044 34.7938 102.459 34.7938H104.84C104.84 34.7938 104.878 34.7938 104.916 34.7938V34.756V33.2064C104.916 33.1686 104.916 33.1686 104.878 33.1686ZM108.318 31.6568H115.347H115.385V30.0316C115.385 29.6159 115.347 29.1623 115.158 28.7844C115.007 28.4064 114.743 28.0663 114.403 27.8395C113.987 27.5371 113.496 27.3482 113.042 27.2348C112.399 27.0458 111.719 27.008 111.039 27.008C110.434 27.008 109.792 27.0836 109.187 27.197C108.582 27.3104 108.053 27.5371 107.562 27.8395C107.033 28.1797 106.655 28.5954 106.39 29.0867C106.05 29.6915 105.936 30.4096 105.936 31.0899C105.936 31.6568 105.974 32.2237 106.201 32.7907C106.352 33.2442 106.655 33.6222 107.07 33.9245C107.562 34.2647 108.166 34.4537 108.733 34.5671C109.603 34.756 110.51 34.7938 111.379 34.7938H114.592H114.629V34.756V33.2064C114.629 33.1686 114.629 33.1686 114.629 33.1686H114.592H110.094C109.829 33.1686 109.565 33.1308 109.3 33.0552C109.073 33.0174 108.847 32.9419 108.658 32.8285C108.469 32.7151 108.318 32.6017 108.204 32.4505C108.091 32.2993 108.015 32.1482 108.015 31.9592C108.015 31.7702 108.166 31.6568 108.318 31.6568ZM108.318 30.1072C108.166 30.1072 108.015 30.0316 108.015 29.8426C108.015 29.5781 108.166 29.3891 108.355 29.2001C108.582 29.0111 108.847 28.8978 109.111 28.7844C109.376 28.671 109.678 28.5954 110.018 28.5198C110.283 28.482 110.585 28.4442 110.888 28.4442C111.492 28.4442 112.21 28.5198 112.777 28.7844C113.193 29.0111 113.496 29.3513 113.496 29.8426C113.496 30.0316 113.382 30.1072 113.193 30.1072H108.318ZM123.738 26.7056C123.738 26.8946 123.587 27.008 123.436 27.008H119.845C119.316 27.008 118.825 27.0836 118.333 27.2726C117.955 27.4615 117.615 27.7261 117.313 28.0663C117.048 28.4442 116.859 28.86 116.746 29.3135C116.595 29.8426 116.557 30.4096 116.557 30.9387C116.557 31.3922 116.633 31.8458 116.746 32.2615C116.859 32.7151 117.048 33.1308 117.351 33.5088C117.615 33.8867 117.955 34.1891 118.371 34.4159C118.787 34.6804 119.316 34.7938 119.845 34.7938H125.741H125.779V34.756V24.0222C125.779 23.9844 125.779 23.9844 125.779 23.9844H125.741H123.814C123.776 23.9844 123.738 23.9844 123.738 23.9844C123.738 23.9844 123.738 23.9844 123.738 24.0222V26.7056ZM123.738 28.8978V32.8663C123.738 33.0552 123.587 33.1686 123.436 33.1686H121.357C120.979 33.1686 120.601 33.1308 120.261 33.0552C119.921 33.0174 119.618 32.9041 119.392 32.7151C119.127 32.5639 118.938 32.2993 118.787 32.0348C118.636 31.6946 118.598 31.3167 118.598 30.9387C118.598 30.5608 118.636 30.145 118.787 29.8048C118.938 29.5025 119.127 29.2379 119.392 29.0489C119.656 28.8978 119.958 28.7844 120.261 28.7088C120.639 28.671 120.979 28.6332 121.357 28.6332H123.436C123.587 28.6332 123.738 28.7088 123.738 28.8978ZM139.612 26.7056C139.612 26.8946 139.499 27.008 139.31 27.008H135.757C135.228 27.008 134.699 27.0836 134.245 27.2726C133.829 27.4615 133.489 27.7261 133.225 28.0663C132.922 28.4442 132.733 28.86 132.62 29.3135C132.507 29.8426 132.431 30.4096 132.431 30.9387C132.431 31.3922 132.507 31.8458 132.62 32.2615C132.771 32.7151 132.96 33.1308 133.225 33.5088C133.489 33.8867 133.829 34.1891 134.245 34.4159C134.699 34.6804 135.228 34.7938 135.757 34.7938H141.615C141.653 34.7938 141.691 34.7938 141.691 34.7938V34.756V24.0222C141.691 23.9844 141.691 23.9844 141.691 23.9844C141.691 23.9844 141.653 23.9844 141.615 23.9844H139.688H139.65C139.612 23.9844 139.612 23.9844 139.612 24.0222V26.7056ZM139.612 28.8978V32.8663C139.612 33.0552 139.499 33.1686 139.31 33.1686H137.269C136.891 33.1686 136.513 33.1308 136.135 33.0552C135.833 33.0174 135.53 32.9041 135.266 32.7151C135.001 32.5639 134.812 32.2993 134.699 32.0348C134.547 31.6946 134.51 31.3167 134.51 30.9387C134.51 30.5608 134.547 30.145 134.699 29.8048C134.812 29.5025 135.001 29.2379 135.266 29.0489C135.53 28.8978 135.833 28.7844 136.173 28.7088C136.513 28.671 136.891 28.6332 137.269 28.6332H139.31C139.499 28.6332 139.612 28.7088 139.612 28.8978ZM145.433 31.6568H152.425C152.425 31.6568 152.462 31.6568 152.5 31.6568V30.0316C152.5 29.6159 152.425 29.1623 152.236 28.7844C152.084 28.4064 151.82 28.0663 151.48 27.8395C151.102 27.5371 150.61 27.3482 150.119 27.2348C149.477 27.0458 148.796 27.008 148.116 27.008C147.511 27.008 146.907 27.0836 146.264 27.197C145.697 27.3104 145.13 27.5371 144.639 27.8395C144.147 28.1797 143.77 28.5954 143.467 29.0867C143.127 29.6915 143.014 30.4096 143.014 31.0899C143.014 31.6568 143.089 32.2237 143.278 32.7907C143.467 33.2442 143.77 33.6222 144.185 33.9245C144.639 34.2647 145.244 34.4537 145.848 34.5671C146.68 34.756 147.625 34.7938 148.456 34.7938H151.669C151.669 34.7938 151.707 34.7938 151.744 34.7938V34.756V33.2064C151.744 33.1686 151.744 33.1686 151.744 33.1686C151.707 33.1686 151.669 33.1686 151.669 33.1686H147.171C146.907 33.1686 146.642 33.1308 146.377 33.0552C146.151 33.0174 145.924 32.9419 145.735 32.8285C145.584 32.7151 145.395 32.6017 145.281 32.4505C145.168 32.2993 145.13 32.1482 145.13 31.9592C145.13 31.7702 145.244 31.6568 145.433 31.6568ZM145.433 30.1072C145.244 30.1072 145.13 30.0316 145.13 29.8426C145.13 29.5781 145.244 29.3891 145.433 29.2001C145.659 29.0111 145.924 28.8978 146.188 28.7844C146.491 28.671 146.793 28.5954 147.096 28.5198C147.398 28.482 147.662 28.4442 147.965 28.4442C148.57 28.4442 149.325 28.5198 149.892 28.7844C150.308 29.0111 150.61 29.3513 150.61 29.8426C150.61 30.0316 150.459 30.1072 150.308 30.1072H145.433ZM154.163 24.0222V34.756V34.7938H154.201H156.129C156.166 34.7938 156.204 34.7938 156.204 34.7938V34.756V24.0222C156.204 23.9844 156.204 23.9844 156.204 23.9844C156.204 23.9844 156.166 23.9844 156.129 23.9844H154.201H154.163C154.163 23.9844 154.163 23.9844 154.163 24.0222ZM158.056 34.756V34.7938H158.094H160.021C160.059 34.7938 160.097 34.7938 160.097 34.7938V34.756V27.0458V27.008C160.097 27.008 160.059 27.008 160.021 27.008H158.094H158.056V27.0458V34.756ZM158.056 24.0222V25.5718V25.6096H158.094H160.021C160.059 25.6096 160.097 25.6096 160.097 25.6096V25.5718V24.0222C160.097 23.9844 160.097 23.9844 160.097 23.9844C160.097 23.9844 160.059 23.9844 160.021 23.9844H158.094H158.056C158.056 23.9844 158.056 23.9844 158.056 24.0222ZM171.171 26.9702H169.017C169.017 26.9702 168.979 26.9702 168.941 26.9702L168.903 27.0458L166.673 31.9592C166.636 31.997 166.598 32.0726 166.598 32.1104C166.522 32.2237 166.447 32.3371 166.333 32.3371C166.182 32.3371 166.107 32.2237 166.069 32.1104C166.031 32.0726 165.993 31.997 165.955 31.9592L163.763 27.0458L163.725 26.9702C163.725 26.9702 163.688 26.9702 163.65 26.9702H161.533L164.784 34.0757C165.048 34.7182 165.653 34.9072 166.333 34.9072C166.976 34.9072 167.618 34.7182 167.883 34.0757L171.171 26.9702ZM173.666 31.6568H180.696H180.733V30.0316C180.733 29.6159 180.696 29.1623 180.507 28.7844C180.318 28.4064 180.091 28.0663 179.751 27.8395C179.335 27.5371 178.844 27.3482 178.39 27.2348C177.747 27.0458 177.067 27.008 176.387 27.008C175.782 27.008 175.14 27.0836 174.535 27.197C173.93 27.3104 173.401 27.5371 172.872 27.8395C172.381 28.1797 172.003 28.5954 171.7 29.0867C171.36 29.6915 171.284 30.4096 171.284 31.0899C171.284 31.6568 171.322 32.2237 171.549 32.7907C171.7 33.2442 172.003 33.6222 172.418 33.9245C172.91 34.2647 173.514 34.4537 174.081 34.5671C174.951 34.756 175.858 34.7938 176.727 34.7938H179.94H179.977V34.756V33.2064C179.977 33.1686 179.977 33.1686 179.977 33.1686H179.94H175.404C175.14 33.1686 174.913 33.1308 174.648 33.0552C174.421 33.0174 174.195 32.9419 174.006 32.8285C173.817 32.7151 173.666 32.6017 173.552 32.4505C173.439 32.2993 173.363 32.1482 173.363 31.9592C173.363 31.7702 173.514 31.6568 173.666 31.6568ZM173.666 30.1072C173.514 30.1072 173.363 30.0316 173.363 29.8426C173.363 29.5781 173.514 29.3891 173.703 29.2001C173.93 29.0111 174.157 28.8978 174.459 28.7844C174.724 28.671 175.026 28.5954 175.366 28.5198C175.631 28.482 175.933 28.4442 176.236 28.4442C176.84 28.4442 177.558 28.5198 178.125 28.7844C178.541 29.0111 178.844 29.3513 178.844 29.8426C178.844 30.0316 178.73 30.1072 178.541 30.1072H173.666ZM184.702 27.008C184.399 27.008 184.097 27.0458 183.795 27.1592C183.53 27.2726 183.266 27.3859 183.039 27.5749C182.812 27.7639 182.661 27.9529 182.51 28.1797C182.396 28.4064 182.358 28.6332 182.358 28.8978V34.756V34.7938H182.396H184.513C184.551 34.7938 184.588 34.7938 184.588 34.7938V34.756V29.4269C184.588 29.3513 184.626 29.2757 184.664 29.1623C184.702 29.0867 184.777 29.0111 184.853 28.9356C184.929 28.86 185.004 28.7844 185.118 28.7466C185.231 28.671 185.344 28.6332 185.458 28.6332H187.272C187.31 28.6332 187.347 28.6332 187.347 28.6332V28.5954V27.0458V27.008C187.347 27.008 187.31 27.008 187.272 27.008H184.702ZM190.144 27.0458C190.107 27.008 190.031 27.008 190.031 27.008H187.839L190.9 34.3781C190.938 34.4537 191.014 34.5671 191.089 34.6426C191.203 34.6804 191.316 34.7182 191.429 34.756C191.505 34.756 191.618 34.7938 191.694 34.7938C191.807 34.7938 191.958 34.7938 191.958 34.945V34.9828L190.636 37.7797H192.866C192.903 37.7797 193.017 37.7797 193.055 37.7419L198.081 27.008H198.044H195.776C195.738 27.008 195.7 27.008 195.662 27.008L193.281 32.1859C193.244 32.2237 193.244 32.2993 193.206 32.3371C193.168 32.4127 193.13 32.4883 193.092 32.5639C193.055 32.6395 193.017 32.6773 192.941 32.7529C192.866 32.8285 192.79 32.8663 192.714 32.8663C192.601 32.8663 192.525 32.8285 192.45 32.7529C192.412 32.6773 192.336 32.6017 192.299 32.5261C192.261 32.4883 192.223 32.4127 192.185 32.2993C192.185 32.2615 192.147 32.2237 192.147 32.1859L190.144 27.0458ZM206.774 35.0584C206.774 34.8694 206.925 34.7938 207.114 34.7938H209.08C209.647 34.7938 210.251 34.7182 210.781 34.5671C211.272 34.4159 211.688 34.1513 212.066 33.8111C212.444 33.471 212.746 33.0552 212.935 32.5639C213.162 31.997 213.237 31.3545 213.237 30.7497C213.237 30.2584 213.162 29.8048 213.048 29.3513C212.935 28.8978 212.708 28.482 212.444 28.1419C212.103 27.7639 211.725 27.4993 211.272 27.3104C210.705 27.0836 210.062 27.008 209.458 27.008H204.809C204.771 27.008 204.733 27.008 204.733 27.008V27.0458V37.6663C204.733 37.7041 204.771 37.7041 204.809 37.7041H206.736C206.736 37.7041 206.774 37.7041 206.774 37.6663V35.0584ZM206.774 28.8978C206.774 28.7088 206.925 28.6332 207.114 28.6332H209.609C209.836 28.6332 210.025 28.7088 210.214 28.7844C210.403 28.8978 210.592 29.0111 210.743 29.1623C210.894 29.3513 211.007 29.5025 211.121 29.6915C211.196 29.8804 211.272 30.0694 211.272 30.2962V31.4678C211.272 31.6946 211.234 31.8836 211.121 32.0726C211.007 32.2615 210.894 32.4505 210.743 32.6017C210.592 32.7529 210.403 32.9041 210.214 33.0174C210.025 33.093 209.836 33.1686 209.609 33.1686H207.114C206.925 33.1686 206.774 33.0552 206.774 32.8663V28.8978ZM214.862 27.0458V28.5954V28.6332C214.9 28.6332 214.938 28.6332 214.938 28.6332H219.927C220.154 28.6332 220.343 28.7088 220.494 28.8978C220.645 29.0489 220.721 29.2001 220.721 29.4269C220.721 29.6537 220.57 29.8426 220.381 29.956C220.116 30.145 219.814 30.1828 219.511 30.1828H216.374C216.034 30.1828 215.732 30.2584 215.467 30.4096C215.203 30.5985 215.014 30.7875 214.862 31.0143C214.711 31.2789 214.598 31.5434 214.522 31.808C214.447 32.0726 214.409 32.3371 214.409 32.6017C214.409 32.7907 214.447 32.9797 214.484 33.1686C214.522 33.4332 214.598 33.66 214.749 33.8867C214.862 34.1513 215.051 34.3781 215.278 34.5293C215.505 34.7182 215.807 34.7938 216.11 34.7938H222.724H222.762V34.756V29.6537C222.762 29.3513 222.724 29.0111 222.648 28.7088C222.535 28.4064 222.421 28.1041 222.195 27.8773C222.006 27.6127 221.741 27.3859 221.439 27.2348C221.099 27.0458 220.683 27.008 220.267 27.008H214.938C214.938 27.008 214.9 27.008 214.862 27.008V27.0458ZM217.168 33.2442C216.903 33.2442 216.677 33.1686 216.525 32.9797C216.374 32.8285 216.299 32.6773 216.299 32.4505C216.299 32.2615 216.374 32.1104 216.525 31.9592C216.639 31.808 216.828 31.7702 217.055 31.7702H220.418C220.57 31.7702 220.721 31.8458 220.721 32.0348V32.9419C220.721 33.1308 220.57 33.2442 220.418 33.2442H217.168ZM226.844 27.008C226.541 27.008 226.239 27.0458 225.936 27.1592C225.672 27.2726 225.407 27.3859 225.181 27.5749C224.954 27.7639 224.803 27.9529 224.651 28.1797C224.538 28.4064 224.5 28.6332 224.5 28.8978V34.756V34.7938H224.538H226.655C226.692 34.7938 226.73 34.7938 226.73 34.7938V34.756V29.4269C226.73 29.3513 226.768 29.2757 226.806 29.1623C226.844 29.0867 226.919 29.0111 226.995 28.9356C227.07 28.86 227.146 28.7844 227.259 28.7466C227.373 28.671 227.486 28.6332 227.599 28.6332H229.451H229.489V28.5954V27.0458V27.008H229.451H226.844ZM235.65 33.1686H234.062C233.873 33.1686 233.722 33.0552 233.722 32.8663V28.8978C233.722 28.7088 233.873 28.6332 234.062 28.6332H235.612H235.65V28.5954V27.0458V27.008H235.612H234.062C233.873 27.008 233.722 26.8946 233.722 26.7056V24.7781H233.684H231.757C231.719 24.7781 231.681 24.7781 231.681 24.7781V26.7056C231.681 26.8946 231.53 27.008 231.379 27.008H230.358C230.358 27.008 230.321 27.008 230.283 27.008V27.0458V28.5954V28.6332C230.321 28.6332 230.358 28.6332 230.358 28.6332H231.379C231.53 28.6332 231.681 28.7088 231.681 28.8978V33.7356C231.681 34.0379 231.87 34.2647 232.097 34.4537C232.437 34.7182 232.815 34.7938 233.231 34.7938H235.612H235.65V34.756V33.2064C235.65 33.1686 235.65 33.1686 235.65 33.1686ZM239.24 28.9734C239.24 28.8222 239.354 28.7088 239.467 28.5954C239.618 28.5198 239.77 28.482 239.921 28.482H241.773C242.037 28.482 242.264 28.482 242.529 28.5198C242.755 28.5576 242.982 28.6332 243.171 28.7466C243.36 28.8222 243.511 28.9734 243.625 29.1623C243.738 29.3891 243.776 29.6159 243.776 29.8426V34.756V34.7938C243.776 34.7938 243.814 34.7938 243.851 34.7938H245.741C245.779 34.7938 245.817 34.7938 245.817 34.7938V34.756V29.5403C245.817 29.2001 245.741 28.8978 245.59 28.5954C245.439 28.293 245.212 28.0285 244.947 27.8017C244.645 27.5371 244.305 27.3482 243.927 27.2348C243.549 27.0836 243.133 27.008 242.718 27.008H238.447C238.107 27.008 237.804 27.0836 237.54 27.2726C237.351 27.4615 237.199 27.6505 237.199 27.9151V34.3025C237.199 34.4159 237.199 34.5671 237.275 34.6804C237.351 34.756 237.464 34.7938 237.577 34.7938H238.825C239.089 34.7938 239.24 34.6804 239.24 34.4159V28.9734ZM249.521 31.6568H256.513C256.513 31.6568 256.551 31.6568 256.588 31.6568V30.0316C256.588 29.6159 256.513 29.1623 256.324 28.7844C256.173 28.4064 255.908 28.0663 255.568 27.8395C255.152 27.5371 254.699 27.3482 254.207 27.2348C253.565 27.0458 252.884 27.008 252.204 27.008C251.599 27.008 250.957 27.0836 250.352 27.197C249.785 27.3104 249.218 27.5371 248.727 27.8395C248.236 28.1797 247.82 28.5954 247.555 29.0867C247.215 29.6915 247.102 30.4096 247.102 31.0899C247.102 31.6568 247.177 32.2237 247.366 32.7907C247.555 33.2442 247.858 33.6222 248.236 33.9245C248.727 34.2647 249.332 34.4537 249.936 34.5671C250.768 34.756 251.675 34.7938 252.544 34.7938H255.757C255.757 34.7938 255.795 34.7938 255.833 34.7938V34.756V33.2064C255.833 33.1686 255.833 33.1686 255.833 33.1686C255.795 33.1686 255.757 33.1686 255.757 33.1686H251.259C250.995 33.1686 250.73 33.1308 250.466 33.0552C250.239 33.0174 250.012 32.9419 249.823 32.8285C249.634 32.7151 249.483 32.6017 249.37 32.4505C249.256 32.2993 249.181 32.1482 249.181 31.9592C249.181 31.7702 249.332 31.6568 249.521 31.6568ZM249.521 30.1072C249.332 30.1072 249.181 30.0316 249.181 29.8426C249.181 29.5781 249.332 29.3891 249.521 29.2001C249.747 29.0111 250.012 28.8978 250.277 28.7844C250.579 28.671 250.881 28.5954 251.184 28.5198C251.448 28.482 251.751 28.4442 252.053 28.4442C252.658 28.4442 253.414 28.5198 253.943 28.7844C254.396 29.0111 254.699 29.3513 254.699 29.8426C254.699 30.0316 254.547 30.1072 254.358 30.1072H249.521ZM260.557 27.008C260.217 27.008 259.914 27.0458 259.612 27.1592C259.347 27.2726 259.083 27.3859 258.856 27.5749C258.667 27.7639 258.478 27.9529 258.365 28.1797C258.251 28.4064 258.176 28.6332 258.176 28.8978V34.756V34.7938C258.176 34.7938 258.214 34.7938 258.251 34.7938H260.368H260.406V34.756V29.4269C260.406 29.3513 260.444 29.2757 260.481 29.1623C260.519 29.0867 260.595 29.0111 260.67 28.9356C260.746 28.86 260.859 28.7844 260.935 28.7466C261.048 28.671 261.162 28.6332 261.313 28.6332H263.127H263.165V28.5954V27.0458V27.008H263.127H260.557Z" fill="#FF0000"/>
</svg>
