<?xml version="1.0" encoding="UTF-8"?>
<svg version="1.1" xmlns="http://www.w3.org/2000/svg" width="715" height="156">
<path d="M0 0 C1.10166504 0.57339111 2.20333008 1.14678223 3.33837891 1.73754883 C3.94139328 2.04987961 4.54440765 2.36221039 5.16569519 2.68400574 C11.600479 6.05828417 17.8439769 9.75632471 24.06494141 13.50708008 C25.83138635 14.56719303 27.59856288 15.6260772 29.36590576 16.68469238 C31.09265083 17.71904848 32.81879196 18.75441258 34.54492188 19.78979492 C37.38011111 21.47347177 40.23050717 23.12126239 43.10009766 24.74536133 C43.87764404 25.188396 44.65519043 25.63143066 45.45629883 26.08789062 C46.84570207 26.87609926 48.24000735 27.65576697 49.64038086 28.42431641 C56.17390187 32.15689674 59.75290462 36.37183465 61.75244141 43.69458008 C62.01313782 46.9125824 62.01313782 46.9125824 62.02709961 50.41503906 C62.03663162 51.73338242 62.04616364 53.05172577 62.0559845 54.41001892 C62.05572304 55.83690416 62.05478588 57.26378942 62.05322266 58.69067383 C62.05711423 60.16748677 62.06144984 61.6442986 62.06620789 63.12110901 C62.0736513 66.21017085 62.07339241 69.29911836 62.06811523 72.38818359 C62.06232147 76.33343404 62.0792581 80.27821487 62.10245991 84.22338772 C62.11723958 87.27157801 62.11806325 90.31965627 62.11495018 93.36787605 C62.11546121 94.82183831 62.12065783 96.27580719 62.1307621 97.72973442 C62.19613513 108.45072788 61.62636319 115.68832347 53.75244141 123.69458008 C51.32157867 125.3816821 48.75850716 126.72201917 46.12744141 128.06958008 C37.24171711 132.80593211 28.58558106 137.88628846 19.94476318 143.04998779 C17.2017773 144.68873976 14.45625754 146.32278215 11.70507812 147.94775391 C9.87055048 149.03308922 8.04266591 150.12984047 6.22558594 151.24414062 C-1.71660633 155.96645631 -9.21356224 156.95841453 -18.24755859 154.69458008 C-25.89437989 151.62081901 -32.85037211 147.16138791 -39.82275391 142.81323242 C-43.41245327 140.57736476 -47.05517676 138.43771616 -50.70849609 136.30786133 C-55.42463671 133.552115 -60.13624469 130.78981322 -64.82958984 127.99536133 C-66.25621948 127.14711792 -66.25621948 127.14711792 -67.71166992 126.28173828 C-70.00453344 124.84668429 -72.19001481 123.45158036 -74.24755859 121.69458008 C-74.24755859 121.03458008 -74.24755859 120.37458008 -74.24755859 119.69458008 C-74.90755859 119.69458008 -75.56755859 119.69458008 -76.24755859 119.69458008 C-81.07934237 112.22858647 -80.83374282 104.91723797 -80.77880859 96.31958008 C-80.78150816 94.82559965 -80.78539444 93.33162095 -80.79040527 91.83764648 C-80.79627858 88.71752068 -80.78780829 85.59785518 -80.76904297 82.4777832 C-80.74625397 78.4966263 -80.75938885 74.51654831 -80.78333282 70.53543091 C-80.79785011 67.45369471 -80.79315791 64.37221047 -80.78282166 61.29046631 C-80.78017069 59.82338327 -80.7833662 58.35627668 -80.79273987 56.88922119 C-80.84092919 47.22944624 -80.30850727 40.40894769 -73.8684082 32.93261719 C-71.13445195 30.59799428 -68.39790137 28.73255443 -65.31396484 26.88598633 C-64.4711068 26.37872765 -64.4711068 26.37872765 -63.61122131 25.86122131 C-57.19320163 22.01961733 -50.69240844 18.31954854 -44.18505859 14.63208008 C-42.4052183 13.62118927 -40.62576426 12.60962396 -38.84658813 11.5975647 C-37.11194824 10.61088576 -35.37677861 9.62513829 -33.64160156 8.6394043 C-29.29514781 6.14883815 -24.9818817 3.60363474 -20.67553711 1.04443359 C-14.25378199 -2.52579105 -6.78441853 -2.7271302 0 0 Z M-25.37451172 38.20092773 C-27.23394172 39.31144758 -29.10591158 40.39752951 -30.98193359 41.47973633 C-42.07777811 47.08601229 -42.07777811 47.08601229 -50.24755859 55.69458008 C-50.35653099 57.05649213 -50.40649339 58.42340548 -50.42456055 59.78955078 C-50.43739578 60.63415359 -50.45023102 61.47875641 -50.4634552 62.34895325 C-50.47084213 63.26351791 -50.47822906 64.17808258 -50.48583984 65.12036133 C-50.49391159 66.060103 -50.50198334 66.99984467 -50.51029968 67.96806335 C-50.52414412 69.95948438 -50.53486466 71.95092917 -50.54272461 73.94238281 C-50.55993139 76.98458975 -50.60381341 80.02570833 -50.64794922 83.06762695 C-50.65807664 85.00186375 -50.66659259 86.93610979 -50.67333984 88.87036133 C-50.69084793 89.7788533 -50.70835602 90.68734528 -50.72639465 91.62336731 C-50.71275371 95.60555953 -50.61059336 98.05521921 -48.6171875 101.56591797 C-45.87297729 104.03107033 -43.13086085 105.77910659 -39.90771484 107.57739258 C-39.30374374 107.91833954 -38.69977264 108.2592865 -38.07749939 108.61056519 C-36.1603389 109.69006759 -34.23557973 110.7550761 -32.31005859 111.81958008 C-31.0211031 112.54126553 -29.73268598 113.26391341 -28.44482422 113.98754883 C-26.07382403 115.3193608 -23.69948096 116.64426325 -21.32202148 117.96459961 C-19.37581485 119.05971755 -17.45054379 120.19368193 -15.55786133 121.37890625 C-11.98408745 123.41410306 -9.16022834 123.61498172 -5.24755859 122.69458008 C-0.37553433 120.47168109 4.17071119 117.76197078 8.75244141 115.00708008 C9.99631652 114.27700062 11.24110304 113.54847166 12.48681641 112.8215332 C18.64002618 109.2165202 24.72860342 105.5121874 30.75244141 101.69458008 C28.05268098 98.88270171 25.224493 96.9644965 21.87744141 94.94458008 C20.84876953 94.31036133 19.82009766 93.67614258 18.76025391 93.02270508 C15.28806018 91.48952863 14.31102365 91.67300479 10.75244141 92.69458008 C8.48165746 93.8279963 8.48165746 93.8279963 6.28369141 95.26879883 C5.46513672 95.77088867 4.64658203 96.27297852 3.80322266 96.7902832 C2.09741766 97.85477866 0.3968884 98.92777353 -1.29833984 100.0090332 C-2.11689453 100.50725586 -2.93544922 101.00547852 -3.77880859 101.51879883 C-4.51679687 101.98374756 -5.25478516 102.44869629 -6.01513672 102.92773438 C-8.24755859 103.69458008 -8.24755859 103.69458008 -10.73657227 102.93383789 C-11.56519775 102.52488281 -12.39382324 102.11592773 -13.24755859 101.69458008 C-14.01044189 101.42782471 -14.7733252 101.16106934 -15.55932617 100.88623047 C-21.87335323 98.60181482 -27.88737033 95.95465144 -32.24755859 90.69458008 C-35.43732826 83.05252891 -35.41539361 74.78415274 -33.57373047 66.79174805 C-29.97272863 58.38189729 -20.81197536 54.64653065 -12.8347168 51.23242188 C-8.23868795 50.27695792 -4.79517474 52.84818897 -0.89208984 55.07739258 C-0.10511719 55.52211914 0.68185547 55.9668457 1.49267578 56.42504883 C3.1363933 57.36169233 4.77961571 58.29920521 6.42236328 59.23754883 C7.20546875 59.67969727 7.98857422 60.1218457 8.79541016 60.57739258 C9.50721436 60.9836084 10.21901855 61.38982422 10.95239258 61.80834961 C12.71709736 62.84181512 12.71709736 62.84181512 14.75244141 62.69458008 C14.75244141 63.35458008 14.75244141 64.01458008 14.75244141 64.69458008 C2.87244141 64.69458008 -9.00755859 64.69458008 -21.24755859 64.69458008 C-18.45950641 66.78561921 -16.03182736 68.46030831 -13.02490234 70.10473633 C-11.84637695 70.75345703 -11.84637695 70.75345703 -10.64404297 71.4152832 C-9.83257812 71.85807617 -9.02111328 72.30086914 -8.18505859 72.75708008 C-6.56854301 73.64264949 -4.95263239 74.52932433 -3.33740234 75.41723633 C-2.62447021 75.80661377 -1.91153809 76.19599121 -1.17700195 76.59716797 C0.5098386 77.55659455 2.13776417 78.61812859 3.75244141 79.69458008 C6.64476494 79.98759672 6.64476494 79.98759672 9.91650391 79.92504883 C11.12048828 79.92311523 12.32447266 79.92118164 13.56494141 79.91918945 C14.82306641 79.90694336 16.08119141 79.89469727 17.37744141 79.88208008 C18.64330078 79.88143555 19.90916016 79.88079102 21.21337891 79.88012695 C26.85662599 80.40479365 26.85662599 80.40479365 31.75244141 78.69458008 C32.0611213 74.95295395 32.03090766 71.19736827 32.06494141 67.44458008 C32.09394531 66.39399414 32.12294922 65.3434082 32.15283203 64.26098633 C32.16540039 62.73538086 32.16540039 62.73538086 32.17822266 61.17895508 C32.19280518 60.24792969 32.2073877 59.3169043 32.22241211 58.35766602 C31.59461325 54.80024788 30.27041097 53.26224641 27.75244141 50.69458008 C25.01541676 48.74793254 25.01541676 48.74793254 21.92041016 47.06567383 C20.79183594 46.42307617 19.66326172 45.78047852 18.50048828 45.1184082 C17.31378269 44.4560419 16.12693265 43.79393433 14.93994141 43.13208008 C13.76427596 42.46700972 12.58914056 41.80100147 11.41455078 41.1340332 C9.17193871 39.86402807 6.92454682 38.60241672 4.671875 37.3503418 C2.36489158 36.04193223 0.1546837 34.66540894 -2.07177734 33.22973633 C-11.13575338 28.84825714 -17.4752511 33.48250789 -25.37451172 38.20092773 Z " fill="#000000" transform="translate(81.24755859375,1.305419921875)"/>
<path d="M0 0 C21.12 0 42.24 0 64 0 C64 5.28 64 10.56 64 16 C63 17 63 17 61.20933533 17.12025452 C60.42990067 17.11803391 59.650466 17.11581329 58.84741211 17.11352539 C57.96657455 17.11344986 57.085737 17.11337433 56.1782074 17.11329651 C55.22092239 17.10813522 54.26363739 17.10297394 53.27734375 17.09765625 C52.30213272 17.0962413 51.32692169 17.09482635 50.32215881 17.09336853 C47.19390857 17.08775133 44.06572877 17.07519593 40.9375 17.0625 C38.82226666 17.05748722 36.70703219 17.05292393 34.59179688 17.04882812 C29.39448199 17.03862531 24.19732025 17.01905331 19 17 C19 23.93 19 30.86 19 38 C33.52 38 48.04 38 63 38 C63 43.28 63 48.56 63 54 C48.48 54 33.96 54 19 54 C19 61.92 19 69.84 19 78 C33.85 78 48.7 78 64 78 C64 83.61 64 89.22 64 95 C42.88 95 21.76 95 0 95 C0 63.65 0 32.3 0 0 Z " fill="#000000" transform="translate(164,19)"/>
<path d="M0 0 C8.99105055 5.19087631 15.714969 13.16256845 19 23 C21.6357721 33.85938103 20.32101817 44.69934631 14.625 54.3125 C9.54706702 61.8387221 2.80773056 67.59983985 -6 70 C-9.40234375 70.30078125 -9.40234375 70.30078125 -12.9375 70.3125 C-14.68353516 70.33763672 -14.68353516 70.33763672 -16.46484375 70.36328125 C-20 70 -20 70 -27 67 C-27.33 77.23 -27.66 87.46 -28 98 C-34.27 98 -40.54 98 -47 98 C-47 65.33 -47 32.66 -47 -1 C-40.73 -1 -34.46 -1 -28 -1 C-28 -0.34 -28 0.32 -28 1 C-27.28714844 0.71125 -26.57429688 0.4225 -25.83984375 0.125 C-16.4112219 -3.52970134 -9.41863148 -3.92442978 0 0 Z M-28 17 C-28.0988803 21.6447121 -28.1714715 26.28881173 -28.21972656 30.93432617 C-28.23984186 32.51451285 -28.26713804 34.09462509 -28.30175781 35.67456055 C-28.35028343 37.94598748 -28.37296809 40.21643058 -28.390625 42.48828125 C-28.41127014 43.19463211 -28.43191528 43.90098297 -28.45318604 44.6287384 C-28.45465904 47.84881151 -28.44785105 49.53506585 -26.16308594 51.90698242 C-21.45658471 54.2851998 -17.17687121 54.62019089 -12 54 C-7.16252932 52.2649228 -3.81057808 49.26791487 -1 45 C1.86354044 38.92143762 2.17862257 32.08499867 0.3125 25.6171875 C-2.11152621 20.30453006 -5.73872891 16.63063555 -11 14 C-12.74569287 13.85167315 -14.49825237 13.77871717 -16.25 13.75 C-17.18328125 13.72421875 -18.1165625 13.6984375 -19.078125 13.671875 C-22.55909972 14.0627866 -24.91958184 15.38238006 -28 17 Z " fill="#000000" transform="translate(352,46)"/>
<path d="M0 0 C6.27 0 12.54 0 19 0 C19 32.67 19 65.34 19 99 C11.66666667 99 4.33333333 99 -3 99 C-3.75925781 99.32226562 -4.51851563 99.64453125 -5.30078125 99.9765625 C-11.87347468 102.46866913 -19.77535043 101.79532639 -26.3125 99.4375 C-35.48127269 95.18746922 -42.02130766 87.83413187 -46.03515625 78.625 C-49.4018781 68.85367705 -49.12548119 58.48548138 -45 49 C-40.45168031 40.26780931 -33.72630931 33.1776198 -24.5 29.5 C-15.54926399 26.69510362 -10.18120959 27.9395968 -1 31 C-0.67 20.77 -0.34 10.54 0 0 Z M-24 49 C-29.44888175 56.02618962 -29.72738433 62.34310201 -29 71 C-27.3444348 76.95057436 -24.01030219 80.55541724 -19 84 C-17.09291157 84.91428339 -17.09291157 84.91428339 -15 85 C-13.9275 85.103125 -12.855 85.20625 -11.75 85.3125 C-7.07539196 85.15668044 -7.07539196 85.15668044 0 81 C0.33 70.11 0.66 59.22 1 48 C-7.62497699 43.68751151 -16.14277468 42.77969662 -24 49 Z " fill="#000000" transform="translate(505,15)"/>
<path d="M0 0 C7.5996535 5.4009188 14.04145167 12.60334361 16.63671875 21.6796875 C17.60780104 27.67440022 17.83240325 32.70126502 16.63671875 38.6796875 C-1.18328125 38.6796875 -19.00328125 38.6796875 -37.36328125 38.6796875 C-32.59678354 47.16158903 -32.59678354 47.16158903 -25.36328125 50.6796875 C-17.87530029 51.45225696 -11.83634826 51.21857139 -5.265625 47.359375 C-3.36328125 46.6796875 -3.36328125 46.6796875 -1.3828125 47.3046875 C0.99556866 48.92401085 2.886151 50.73743415 4.88671875 52.8046875 C5.593125 53.52914062 6.29953125 54.25359375 7.02734375 55 C7.82398438 55.83144531 7.82398438 55.83144531 8.63671875 56.6796875 C7.63671875 59.6796875 7.63671875 59.6796875 4.6171875 61.46875 C3.35792194 62.0910692 2.09331284 62.70266498 0.82421875 63.3046875 C0.19451172 63.61664063 -0.43519531 63.92859375 -1.08398438 64.25 C-10.75975375 68.96097271 -23.07493697 69.5320422 -33.36328125 66.1171875 C-42.42928125 62.18262604 -48.64198845 56.30512627 -53.36328125 47.6796875 C-53.70359375 47.08929688 -54.04390625 46.49890625 -54.39453125 45.890625 C-57.87872029 38.56737581 -57.47190402 28.45240246 -55.671875 20.703125 C-52.21860122 11.36917159 -45.94796238 3.73326283 -37.36328125 -1.3203125 C-24.42493261 -6.75538089 -12.51860703 -6.99386641 0 0 Z M-32.1796875 15.33203125 C-34.60087689 18.09160374 -36.19168783 20.16490724 -37.36328125 23.6796875 C-25.81328125 23.6796875 -14.26328125 23.6796875 -2.36328125 23.6796875 C-5.65407246 17.09810509 -8.0508149 13.87902877 -14.98828125 11.3671875 C-21.42076848 10.05686603 -27.22383402 10.82380324 -32.1796875 15.33203125 Z " fill="#000000" transform="translate(434.36328125,48.3203125)"/>
<path d="M0 0 C2.03303295 1.44483507 3.8283636 2.96294506 5.63671875 4.6796875 C6.57644531 5.55947266 6.57644531 5.55947266 7.53515625 6.45703125 C15.1264076 14.28851207 17.24865586 23.12605504 17.10961914 33.828125 C16.65737694 44.08385046 12.24425054 52.35561336 4.859375 59.3671875 C-3.76916134 66.42529493 -13.45195451 68.64061118 -24.42578125 68.12109375 C-34.64799823 66.97515078 -42.53033277 62.25473899 -49.36328125 54.6796875 C-55.45071206 46.727235 -57.92182334 37.9303913 -57.15234375 27.94140625 C-55.53699838 17.16735744 -50.99989135 8.44729297 -42.36328125 1.6796875 C-28.86371818 -6.75485667 -14.16321601 -7.91267275 0 0 Z M-35.80078125 19.8046875 C-38.95867514 25.61521226 -39.0957667 31.18608052 -38.36328125 37.6796875 C-35.98798089 43.80027473 -31.75762903 47.89318867 -25.98828125 50.9296875 C-20.03514829 52.63058263 -15.53329574 51.86822261 -10.22265625 48.9453125 C-5.41104975 45.67018539 -2.59479001 41.38940995 -1.36328125 35.6796875 C-0.32333311 28.38599719 -2.19316099 22.71767413 -6.36328125 16.6796875 C-11.09339336 12.18608099 -16.42490306 11.26234148 -22.7265625 11.3359375 C-28.57304644 12.09814578 -32.2672872 15.27456693 -35.80078125 19.8046875 Z " fill="#000000" transform="translate(668.36328125,48.3203125)"/>
<path d="M0 0 C17.62173607 -1.79993447 17.62173607 -1.79993447 23.00390625 2.2734375 C25.00722038 5.10924839 26.54327065 7.85295497 28 11 C28.55558594 11.90363281 29.11117188 12.80726562 29.68359375 13.73828125 C31 16 31 16 31 18 C31.66 18 32.32 18 33 18 C33.24621094 17.30390625 33.49242187 16.6078125 33.74609375 15.890625 C35.19205635 12.55725327 37.02308898 9.75544782 39.0625 6.75 C40.13177734 5.16445313 40.13177734 5.16445313 41.22265625 3.546875 C43 1 43 1 44 0 C45.4887186 -0.08669432 46.981445 -0.10703494 48.47265625 -0.09765625 C49.37177734 -0.09443359 50.27089844 -0.09121094 51.19726562 -0.08789062 C52.61555664 -0.07532227 52.61555664 -0.07532227 54.0625 -0.0625 C55.01189453 -0.05798828 55.96128906 -0.05347656 56.93945312 -0.04882812 C59.29303065 -0.0370011 61.64648477 -0.02052025 64 0 C62.64262935 3.74553911 60.93783164 6.78904299 58.6640625 10.0546875 C58.01179688 10.99957031 57.35953125 11.94445313 56.6875 12.91796875 C56.006875 13.89378906 55.32625 14.86960937 54.625 15.875 C50.50613152 21.80080503 46.44703974 27.65391144 43 34 C43.44802979 34.6391333 43.89605957 35.2782666 44.35766602 35.93676758 C46.42836771 38.89365602 48.49544558 41.85306085 50.5625 44.8125 C51.26697266 45.81732422 51.97144531 46.82214844 52.69726562 47.85742188 C66 66.92263105 66 66.92263105 66 70 C48.28331284 71.62998537 48.28331284 71.62998537 43.32421875 68.08984375 C41.56437482 65.47232875 40.28175628 62.87896037 39 60 C37.88218853 58.31441128 36.73757732 56.64617894 35.5625 55 C33 51.25326371 33 51.25326371 33 49 C32.34 49 31.68 49 31 49 C30.77441406 49.66515625 30.54882812 50.3303125 30.31640625 51.015625 C28.60189055 54.90253892 26.32354136 58.2468728 23.9375 61.75 C23.47794922 62.43449219 23.01839844 63.11898437 22.54492188 63.82421875 C19.16919168 68.83080832 19.16919168 68.83080832 18 70 C16.5112814 70.08669432 15.018555 70.10703494 13.52734375 70.09765625 C12.62822266 70.09443359 11.72910156 70.09121094 10.80273438 70.08789062 C9.38444336 70.07532227 9.38444336 70.07532227 7.9375 70.0625 C6.98810547 70.05798828 6.03871094 70.05347656 5.06054688 70.04882812 C2.70696935 70.0370011 0.35351523 70.02052025 -2 70 C-1.36497055 66.45331466 0.08455543 64.12422013 2.1328125 61.18359375 C2.77476562 60.25353516 3.41671875 59.32347656 4.078125 58.36523438 C4.75359375 57.39908203 5.4290625 56.43292969 6.125 55.4375 C11.25139386 48.05691121 16.23188334 40.61803614 21 33 C18.81444238 29.70918235 16.62728406 26.41943473 14.4387207 23.13061523 C13.33397541 21.46978527 12.23045205 19.80814272 11.12695312 18.14648438 C6.6566148 11.42548106 6.6566148 11.42548106 1.98046875 4.84765625 C0 2 0 2 0 0 Z " fill="#000000" transform="translate(234,45)"/>
<path d="M0 0 C2.31 0 4.62 0 7 0 C7 6.6 7 13.2 7 20 C12.61 20 18.22 20 24 20 C24 25.61 24 31.22 24 37 C18.39 37 12.78 37 7 37 C7.05108114 41.62795102 7.11403825 46.25255308 7.20751953 50.87939453 C7.23570954 52.45252644 7.25693398 54.02579947 7.27099609 55.59912109 C7.29245442 57.86368956 7.33911348 60.12656504 7.390625 62.390625 C7.39185364 63.09181458 7.39308228 63.79300415 7.39434814 64.51544189 C7.49421862 67.86013383 7.81669491 69.74557054 9.79199219 72.48730469 C12.6377894 74.43694638 14.58413938 74.05734258 17.90234375 73.45703125 C18.59457031 73.30621094 19.28679688 73.15539062 20 73 C21.66666667 72.66666667 23.33333333 72.33333333 25 72 C24.99399603 74.60872469 24.94673291 77.20545701 24.875 79.8125 C24.87886719 80.91948242 24.87886719 80.91948242 24.8828125 82.04882812 C24.8046875 84.20703125 24.8046875 84.20703125 24 88 C17.98529036 92.6016152 10.19203071 91.69376502 3 91 C-2.37560022 89.5054385 -6.08540607 86.82028996 -9 82 C-10.92422505 76.51410425 -11.26965634 71.73008671 -11.1953125 66.00390625 C-11.1924826 65.17036118 -11.18965271 64.3368161 -11.18673706 63.47801208 C-11.17562289 60.8393564 -11.15053515 58.20105152 -11.125 55.5625 C-11.11495885 53.76367681 -11.10583499 51.96484825 -11.09765625 50.16601562 C-11.07571235 45.77721045 -11.04124387 41.38866452 -11 37 C-13.97 37 -16.94 37 -20 37 C-20 33.7 -20 30.4 -20 27 C-18.824375 26.505 -17.64875 26.01 -16.4375 25.5 C-8.28043437 21.3564994 -4.51798918 15.01127141 -1.7265625 6.515625 C-1.10176006 4.35233052 -0.52194703 2.19013067 0 0 Z " fill="#000000" transform="translate(582,25)"/>
<path d="M0 0 C5.94 0 11.88 0 18 0 C18 22.77 18 45.54 18 69 C12.06 69 6.12 69 0 69 C0 46.23 0 23.46 0 0 Z " fill="#000000" transform="translate(536,45)"/>
<path d="M0 0 C6.27 0 12.54 0 19 0 C19 6.27 19 12.54 19 19 C12.73 19 6.46 19 0 19 C0 12.73 0 6.46 0 0 Z " fill="#000000" transform="translate(536,16)"/>
<path d="M0 0 C1.65 0 3.3 0 5 0 C5.66 1.98 6.32 3.96 7 6 C7.99 4.02 8.98 2.04 10 0 C11.32 0 12.64 0 14 0 C14.66 1.98 15.32 3.96 16 6 C16.99 4.02 17.98 2.04 19 0 C20.65 0 22.3 0 24 0 C22.41039668 6.23440168 20.72399099 12.16287645 18 18 C16.68 18 15.36 18 14 18 C13.34 16.02 12.68 14.04 12 12 C11.01 13.98 10.02 15.96 9 18 C7.68 18 6.36 18 5 18 C4.16112944 15.56427941 3.32873471 13.12666783 2.5 10.6875 C2.14228516 9.65206055 2.14228516 9.65206055 1.77734375 8.59570312 C0.76791737 5.61068511 0 3.17341086 0 0 Z " fill="#000000" transform="translate(453,126)"/>
<path d="M0 0 C1.65 0 3.3 0 5 0 C5.66 1.98 6.32 3.96 7 6 C7.99 4.02 8.98 2.04 10 0 C11.32 0 12.64 0 14 0 C14.66 1.98 15.32 3.96 16 6 C16.99 4.02 17.98 2.04 19 0 C20.65 0 22.3 0 24 0 C22.41039668 6.23440168 20.72399099 12.16287645 18 18 C16.68 18 15.36 18 14 18 C13.34 16.02 12.68 14.04 12 12 C11.01 13.98 10.02 15.96 9 18 C7.68 18 6.36 18 5 18 C4.16112944 15.56427941 3.32873471 13.12666783 2.5 10.6875 C2.14228516 9.65206055 2.14228516 9.65206055 1.77734375 8.59570312 C0.76791737 5.61068511 0 3.17341086 0 0 Z " fill="#000000" transform="translate(339,126)"/>
<path d="M0 0 C10.06700594 -0.48515691 10.06700594 -0.48515691 14.125 1.625 C16.4614508 4.58450435 17 6.22765737 17 10 C15.47126129 13.97472063 14.57219503 15.61853665 11 18 C7.31619572 18.26655603 3.69863419 18.08702669 0 18 C0 12.06 0 6.12 0 0 Z M5 4 C5 7.3 5 10.6 5 14 C6.98 13.67 8.96 13.34 11 13 C11.67673447 9.59679066 11.67673447 9.59679066 12 6 C11.34 5.34 10.68 4.68 10 4 C8.35 4 6.7 4 5 4 Z " fill="#000000" transform="translate(431,126)"/>
<path d="M0 0 C10.0364136 -0.60460323 10.0364136 -0.60460323 14.1875 2 C16.70543006 6.16760838 16.68931628 8.17478601 16 13 C14.12984906 15.43119623 12.71861655 16.64069173 10 18 C8.29297265 18.06996014 6.58331997 18.08440154 4.875 18.0625 C3.26625 18.041875 1.6575 18.02125 0 18 C0 12.06 0 6.12 0 0 Z M5 4 C5 7.3 5 10.6 5 14 C7.43717258 13.72965366 7.43717258 13.72965366 10 13 C12.31543207 10.23011924 12.31543207 10.23011924 11.6875 7.375 C11.2258486 5.06498035 11.2258486 5.06498035 10 4 C8.35 4 6.7 4 5 4 Z " fill="#000000" transform="translate(494,126)"/>
<path d="M0 0 C3.24807785 0.69554798 4.80411173 1.89740194 6.93359375 4.4140625 C8.08247893 8.36335529 8.36488771 10.44365109 6.68359375 14.2265625 C4.21213082 17.31589116 2.55754312 18.33165409 -1.37890625 18.8515625 C-6.16314177 18.28394134 -7.94773494 17.06518989 -11.06640625 13.4140625 C-11.8726006 10.55783109 -11.8227232 8.27767478 -11.06640625 5.4140625 C-8.03061205 0.8603712 -5.28244554 -0.37945734 0 0 Z M-6.00390625 6.1015625 C-7.33420111 8.41106198 -7.33420111 8.41106198 -6.56640625 11.1015625 C-5.25246705 13.60809085 -5.25246705 13.60809085 -2.62890625 14.4140625 C-0.07373073 14.63929039 -0.07373073 14.63929039 1.74609375 13.2890625 C3.30868784 10.82180868 3.30155823 9.28418546 2.93359375 6.4140625 C1.10887484 4.19510114 1.10887484 4.19510114 -1.50390625 4.0390625 C-4.16463236 4.19258137 -4.16463236 4.19258137 -6.00390625 6.1015625 Z " fill="#000000" transform="translate(379.06640625,125.5859375)"/>
<path d="M0 0 C9.625 -0.25 9.625 -0.25 13 2 C13.25660094 5.07921132 13.39431504 7.21136993 12 10 C12.64438717 11.67540664 13.31246699 13.34183216 14 15 C14 15.99 14 16.98 14 18 C12.35 18 10.7 18 9 18 C8.71125 17.030625 8.4225 16.06125 8.125 15.0625 C7.35785318 11.89335797 7.35785318 11.89335797 5 11 C5 13.31 5 15.62 5 18 C3.35 18 1.7 18 0 18 C0 12.06 0 6.12 0 0 Z M5 4 C5 4.99 5 5.98 5 7 C6.32 7 7.64 7 9 7 C9 6.01 9 5.02 9 4 C7.68 4 6.36 4 5 4 Z " fill="#000000" transform="translate(393,126)"/>
<path d="M0 0 C1.588125 -0.061875 3.17625 -0.12375 4.8125 -0.1875 C6.15248047 -0.23970703 6.15248047 -0.23970703 7.51953125 -0.29296875 C10 0 10 0 11.8515625 1.27734375 C13.56324738 3.84487108 12.70021572 5.95886716 12.1953125 8.859375 C11.88613873 12.24791953 12.87332229 14.81879236 14 18 C12.35 18 10.7 18 9 18 C8.319375 16.5459375 8.319375 16.5459375 7.625 15.0625 C6.34213779 11.92920418 6.34213779 11.92920418 4 11 C4 13.31 4 15.62 4 18 C2.68 18 1.36 18 0 18 C0 12.06 0 6.12 0 0 Z M4 4 C4 4.99 4 5.98 4 7 C5.32 7 6.64 7 8 7 C8 6.01 8 5.02 8 4 C6.68 4 5.36 4 4 4 Z " fill="#000000" transform="translate(607,126)"/>
<path d="M0 0 C4.29 0 8.58 0 13 0 C13 1.32 13 2.64 13 4 C10.36 4 7.72 4 5 4 C5 4.99 5 5.98 5 7 C7.64 7 10.28 7 13 7 C13 7.99 13 8.98 13 10 C10.36 10 7.72 10 5 10 C5 11.32 5 12.64 5 14 C7.64 14 10.28 14 13 14 C13 15.32 13 16.64 13 18 C8.71 18 4.42 18 0 18 C0 12.06 0 6.12 0 0 Z " fill="#000000" transform="translate(626,126)"/>
<path d="M0 0 C4.29 0 8.58 0 13 0 C13 1.32 13 2.64 13 4 C10.36 4 7.72 4 5 4 C5 4.99 5 5.98 5 7 C7.64 7 10.28 7 13 7 C13 7.99 13 8.98 13 10 C10.36 10 7.72 10 5 10 C5 11.32 5 12.64 5 14 C7.64 14 10.28 14 13 14 C13 15.32 13 16.64 13 18 C8.71 18 4.42 18 0 18 C0 12.06 0 6.12 0 0 Z " fill="#000000" transform="translate(547,126)"/>
<path d="M0 0 C5.53846154 -0.36923077 5.53846154 -0.36923077 7.875 1.5 C8.24625 1.995 8.6175 2.49 9 3 C9.66 2.01 10.32 1.02 11 0 C14.125 -0.1875 14.125 -0.1875 17 0 C15.50163895 3.11198065 13.80066242 6.0534615 12 9 C12.3609375 9.48210937 12.721875 9.96421875 13.09375 10.4609375 C13.5578125 11.09257812 14.021875 11.72421875 14.5 12.375 C14.9640625 13.00148437 15.428125 13.62796875 15.90625 14.2734375 C17 16 17 16 17 18 C14.75 18.25 14.75 18.25 12 18 C9.6875 16 9.6875 16 8 14 C7.608125 14.66 7.21625 15.32 6.8125 16 C5 18 5 18 2.3125 18.25 C1.549375 18.1675 0.78625 18.085 0 18 C1.33488128 14.40608886 2.96022723 11.24509304 5 8 C4.175 7.05125 3.35 6.1025 2.5 5.125 C0 2.25 0 2.25 0 0 Z " fill="#000000" transform="translate(565,126)"/>
<path d="M0 0 C3.96 0 7.92 0 12 0 C12 1.32 12 2.64 12 4 C9.36 4 6.72 4 4 4 C4 4.99 4 5.98 4 7 C6.64 7 9.28 7 12 7 C12 7.99 12 8.98 12 10 C9.36 10 6.72 10 4 10 C4 11.32 4 12.64 4 14 C6.64 14 9.28 14 12 14 C12 15.32 12 16.64 12 18 C8.04 18 4.08 18 0 18 C0 12.06 0 6.12 0 0 Z " fill="#000000" transform="translate(517,126)"/>
<path d="M0 0 C0.70125 0.01417969 1.4025 0.02835937 2.125 0.04296875 C3.176875 0.05263672 3.176875 0.05263672 4.25 0.0625 C6.125 0.23046875 6.125 0.23046875 8.125 1.23046875 C7.465 2.55046875 6.805 3.87046875 6.125 5.23046875 C4.475 5.23046875 2.825 5.23046875 1.125 5.23046875 C2.259375 5.78734375 3.39375 6.34421875 4.5625 6.91796875 C7.17876826 8.42285476 7.98226768 8.92997967 9.3125 11.73046875 C9.125 14.23046875 9.125 14.23046875 7.625 16.54296875 C4.26855059 18.8085721 2.09863762 18.66395649 -1.875 18.23046875 C-2.865 17.57046875 -3.855 16.91046875 -4.875 16.23046875 C-4.875 15.57046875 -4.875 14.91046875 -4.875 14.23046875 C-4.111875 14.08609375 -3.34875 13.94171875 -2.5625 13.79296875 C0.20672908 13.26720935 0.20672908 13.26720935 3.125 12.23046875 C2.155625 11.75609375 1.18625 11.28171875 0.1875 10.79296875 C-2.875 9.23046875 -2.875 9.23046875 -3.875 8.23046875 C-4.0625 5.29296875 -4.0625 5.29296875 -3.875 2.23046875 C-1.875 0.23046875 -1.875 0.23046875 0 0 Z " fill="#000000" transform="translate(667.875,125.76953125)"/>
<path d="M0 0 C0.66 0.33 1.32 0.66 2 1 C1.34 2.32 0.68 3.64 0 5 C-1.65 4.67 -3.3 4.34 -5 4 C-4.10176976 6.3411437 -4.10176976 6.3411437 -1 7.25 C2 9 2 9 3.0625 12 C3 15 3 15 2.0625 16.875 C-1.29184407 18.70464222 -4.21183172 18.24051862 -8 18 C-8.66 17.67 -9.32 17.34 -10 17 C-9.67 15.68 -9.34 14.36 -9 13 C-6.69 13.33 -4.38 13.66 -2 14 C-2.89823024 11.6588563 -2.89823024 11.6588563 -6 10.75 C-9 9 -9 9 -10.0625 6 C-10 3 -10 3 -9 1.125 C-5.98059311 -0.57341637 -3.39373504 -0.24681709 0 0 Z " fill="#000000" transform="translate(655,126)"/>
<path d="M0 0 C9 0 9 0 11.625 1.625 C13 4 13 4 12.875 7.125 C12 10 12 10 10 12 C6.875 12.125 6.875 12.125 4 12 C4 13.98 4 15.96 4 18 C2.68 18 1.36 18 0 18 C0 12.06 0 6.12 0 0 Z M4 4 C4 5.65 4 7.3 4 9 C5.32 8.67 6.64 8.34 8 8 C8 6.68 8 5.36 8 4 C6.68 4 5.36 4 4 4 Z " fill="#000000" transform="translate(588,126)"/>
<path d="M0 0 C1.65 0 3.3 0 5 0 C5 4.29 5 8.58 5 13 C7.31 13 9.62 13 12 13 C12.33 14.65 12.66 16.3 13 18 C8.71 18 4.42 18 0 18 C0 12.06 0 6.12 0 0 Z " fill="#000000" transform="translate(413,126)"/>
<path d="M0 0 C1.65 0 3.3 0 5 0 C5 5.94 5 11.88 5 18 C3.35 18 1.7 18 0 18 C0 12.06 0 6.12 0 0 Z " fill="#000000" transform="translate(482,126)"/>
<path d="M0 0 C0.66 0 1.32 0 2 0 C2 0.66 2 1.32 2 2 C1.34 2 0.68 2 0 2 C0 1.34 0 0.68 0 0 Z " fill="#000000" transform="translate(55,154)"/>
<path d="" fill="#FFFFFF" transform="translate(0,0)"/>
<path d="" fill="#FFFFFF" transform="translate(0,0)"/>
<path d="" fill="#FFFFFF" transform="translate(0,0)"/>
</svg>
