<svg width="794" height="212" viewBox="0 0 794 212" fill="none" xmlns="http://www.w3.org/2000/svg">
<path d="M31.1437 2.36056H70.6776L64.6681 20.3889H48.5296L42.7469 37.5858H57.0713L51.3264 54.6692H37.0398L24.3406 92.4645H0.945312L31.1437 2.36056ZM99.78 2.36056L69.5437 92.4645H46.1485L76.3847 2.36056H99.78ZM109.115 2.36056H125.632C136.668 2.36056 143.963 2.8141 147.591 3.6456C151.182 4.51489 153.638 6.70702 154.923 10.1842C156.208 13.6991 155.566 19.2928 152.996 26.9653C150.652 33.9574 148.196 38.6818 145.663 41.1007C143.131 43.4818 139.2 44.9558 133.947 45.4094C138.18 46.581 140.788 48.0928 141.733 50.0582C142.678 51.948 143.056 53.7621 142.867 55.3495C142.753 56.9747 141.43 61.3968 139.011 68.6913L131.037 92.4645H109.342L119.396 62.4928C120.983 57.655 121.626 54.707 121.248 53.5354C120.908 52.3637 119.131 51.7968 115.919 51.7968L102.274 92.4645H78.8792L109.115 2.36056ZM127.333 17.7432L120.605 37.8125C123.251 37.8125 125.178 37.4346 126.463 36.7165C127.748 35.9984 129.071 33.655 130.394 29.6865L132.057 24.7354C133.002 21.8629 133.115 19.9732 132.435 19.0661C131.717 18.1968 130.016 17.7432 127.333 17.7432ZM210.52 29.7243H188.826L191.056 23.0346C192.114 19.9354 192.492 17.9322 192.227 17.1007C191.963 16.2314 191.207 15.8157 189.884 15.8157C188.485 15.8157 187.238 16.3826 186.142 17.5543C185.046 18.6881 184.101 20.4267 183.308 22.7322C182.325 25.7558 181.985 27.9858 182.287 29.5354C182.552 31.0094 184.139 32.8613 187.049 35.0157C195.326 41.2519 200.126 46.3543 201.487 50.3228C202.848 54.2913 202.054 60.6787 199.106 69.485C196.952 75.9102 194.608 80.6346 192.076 83.696C189.582 86.7196 185.84 89.2519 180.851 91.2928C175.9 93.3716 170.571 94.3921 164.863 94.3921C158.627 94.3921 153.714 93.2204 150.085 90.8393C146.457 88.4582 144.605 85.4346 144.416 81.7684C144.303 78.1023 145.361 72.8865 147.629 66.159L149.632 60.2251H171.326L167.622 71.1858C166.489 74.5495 166.073 76.7417 166.375 77.6865C166.64 78.6692 167.547 79.1606 169.134 79.1606C170.684 79.1606 172.045 78.518 173.216 77.3086C174.35 76.0991 175.371 74.2472 176.164 71.8661C177.941 66.5747 178.394 63.0976 177.487 61.4724C176.542 59.8472 173.821 57.1259 169.323 53.2708C164.788 49.4535 161.915 46.6188 160.63 44.8802C159.345 43.1417 158.552 40.7228 158.363 37.6613C158.174 34.5621 158.854 30.6314 160.479 25.8692C162.785 18.9527 165.355 13.9259 168.189 10.7133C170.986 7.53851 174.652 5.04402 179.188 3.26765C183.685 1.45347 188.712 0.546387 194.268 0.546387C200.315 0.546387 205.153 1.52906 208.782 3.49442C212.372 5.45977 214.337 7.95426 214.715 10.9401C215.093 13.9259 214.111 18.9905 211.73 26.1338L210.52 29.7243ZM276.057 2.36056L270.01 20.3889H256.252L232.063 92.4645H208.668L232.857 20.3889H219.024L225.034 2.36056H276.057Z" fill="#FF6600"/>
<path d="M240 92.4645L259.616 35.9228H266.192L248.731 86.2283H268.384L266.268 92.4645H240ZM332.145 62.1905C333.543 55.7653 332.787 50.5873 329.764 46.581C326.778 42.6125 322.167 40.6472 315.855 40.6472C312.718 40.6472 309.619 41.2519 306.557 42.4236C303.496 43.633 300.661 45.3338 298.054 47.5259C295.106 50.0582 292.611 52.9306 290.608 56.181C288.605 59.4314 287.244 62.833 286.45 66.348C285.052 72.811 285.808 77.9889 288.756 81.9196C291.704 85.8503 296.277 87.8157 302.513 87.8157C305.726 87.8157 308.863 87.211 312 86.0393C315.137 84.8299 318.047 83.1291 320.769 80.8613C323.603 78.4424 326.022 75.6078 328.025 72.3574C329.991 69.107 331.389 65.7054 332.145 62.1905ZM317.556 34.6377C325.795 34.6377 331.843 37.1322 335.698 42.159C339.553 47.148 340.573 53.8377 338.721 62.1905C337.739 66.6881 336 70.9212 333.543 74.8897C331.049 78.8582 327.95 82.3354 324.321 85.2834C320.882 88.0802 317.14 90.1968 313.02 91.7086C308.901 93.2204 304.706 93.9763 300.472 93.9763C292.535 93.9763 286.677 91.444 282.898 86.3417C279.118 81.2771 278.135 74.6251 279.95 66.4236C280.932 61.8503 282.671 57.5417 285.128 53.4976C287.622 49.4913 290.608 46.0141 294.161 43.1039C297.524 40.3826 301.228 38.2661 305.235 36.8299C309.241 35.3558 313.361 34.6377 317.556 34.6377ZM376.706 64.7984H399.761L399.685 65.1763C397.757 74.0582 393.751 81.0881 387.704 86.2283C381.657 91.4062 374.438 93.9763 365.972 93.9763C357.883 93.9763 351.95 91.4818 348.246 86.455C344.504 81.4661 343.559 74.7763 345.373 66.4236C346.394 61.8503 348.132 57.5795 350.627 53.5354C353.121 49.4913 356.183 45.9763 359.773 43.0283C363.213 40.2314 366.841 38.1527 370.734 36.7165C374.589 35.2802 378.557 34.5621 382.602 34.5621C387.742 34.5621 392.05 35.4692 395.452 37.359C398.891 39.1732 401.65 42.0834 403.805 46.0141L397.909 50.5495C396.094 47.148 393.827 44.6913 391.106 43.0661C388.384 41.4409 385.134 40.6472 381.317 40.6472C374.476 40.6472 368.315 43.1039 362.759 48.055C357.241 52.9684 353.613 59.2047 351.987 66.7637C350.551 73.1511 351.345 78.3291 354.293 82.222C357.241 86.0771 361.852 88.0424 368.126 88.0424C373.342 88.0424 378.18 86.4173 382.639 83.1291C387.099 79.8409 390.123 75.6834 391.748 70.6566H374.627L376.706 64.7984ZM405.694 92.4645L425.272 35.9228H432.113L412.498 92.4645H405.694ZM430.45 82.1086L436.195 77.9133C436.913 81.5039 437.972 84.0739 439.446 85.6236C440.92 87.1732 442.961 87.9669 445.531 87.9669C448.857 87.9669 451.729 86.9842 454.148 84.981C456.567 83.0157 458.154 80.37 458.872 77.044C459.326 75.0031 459.213 73.3023 458.57 71.9417C457.89 70.5432 455.924 68.8047 452.598 66.6881C448.328 63.9291 445.569 61.4346 444.397 59.2047C443.225 56.9747 442.998 54.2535 443.679 51.0787C444.737 46.2409 447.118 42.2724 450.822 39.211C454.488 36.1117 458.759 34.5621 463.521 34.5621C466.696 34.5621 469.304 35.2802 471.383 36.7165C473.461 38.1527 475.049 40.3448 476.22 43.3306L470.551 47.5259C469.871 45.1448 468.85 43.3684 467.528 42.2346C466.167 41.0629 464.466 40.496 462.387 40.496C459.477 40.496 456.945 41.4031 454.753 43.1795C452.561 44.9558 451.162 47.2613 450.557 50.0582C449.726 53.8377 451.767 57.2393 456.643 60.3007C457.512 60.8299 458.154 61.2456 458.608 61.5102C462.047 63.8157 464.202 66.1212 465.184 68.3889C466.129 70.6566 466.243 73.4913 465.487 76.8928C464.353 82.1464 461.858 86.3039 458.079 89.3653C454.299 92.4267 449.726 93.9763 444.359 93.9763C440.466 93.9763 437.329 92.9936 434.986 90.9905C432.643 88.9495 431.131 86.0015 430.45 82.1086ZM484.687 92.4645L502.11 42.0834H488.353L490.469 35.9228H524.939L522.784 42.0834H508.876L491.376 92.4645H484.687ZM518.287 92.4645L537.865 35.9228H544.706L525.09 92.4645H518.287ZM598.602 47.6771C596.561 45.296 594.369 43.5196 592.063 42.348C589.757 41.2141 587.225 40.6472 584.428 40.6472C581.443 40.6472 578.494 41.2141 575.584 42.348C572.712 43.4818 570.028 45.1448 567.572 47.2991C564.775 49.7936 562.431 52.5905 560.542 55.7653C558.69 58.9401 557.367 62.2661 556.573 65.8188C555.099 72.5842 555.704 77.9511 558.463 81.8818C561.222 85.8503 565.72 87.8157 571.918 87.8157C574.337 87.8157 576.831 87.3999 579.439 86.5306C582.009 85.6991 584.882 84.3385 587.981 82.5243L584.769 90.4236C582.312 91.633 579.817 92.5023 577.285 93.107C574.753 93.6739 572.183 93.9763 569.537 93.9763C561.865 93.9763 556.157 91.4062 552.491 86.2661C548.787 81.1259 547.88 74.4739 549.657 66.2724C550.639 61.7369 552.378 57.4661 554.797 53.4598C557.254 49.4913 560.239 45.9385 563.83 42.9527C567.043 40.2314 570.482 38.1905 574.224 36.7543C577.928 35.3558 581.745 34.6377 585.713 34.6377C589.077 34.6377 592.101 35.1291 594.746 36.1495C597.43 37.17 599.773 38.7574 601.852 40.8739L598.602 47.6771ZM597.883 82.1086L603.628 77.9133C604.346 81.5039 605.443 84.0739 606.917 85.6236C608.353 87.1732 610.394 87.9669 612.964 87.9669C616.29 87.9669 619.162 86.9842 621.581 84.981C624 83.0157 625.587 80.37 626.306 77.044C626.759 75.0031 626.646 73.3023 626.003 71.9417C625.361 70.5432 623.357 68.8047 620.031 66.6881C615.761 63.9291 613.039 61.4346 611.83 59.2047C610.658 56.9747 610.431 54.2535 611.112 51.0787C612.17 46.2409 614.551 42.2724 618.255 39.211C621.959 36.1117 626.192 34.5621 630.954 34.5621C634.129 34.5621 636.775 35.2802 638.816 36.7165C640.894 38.1527 642.482 40.3448 643.654 43.3306L637.984 47.5259C637.342 45.1448 636.321 43.3684 634.961 42.2346C633.638 41.0629 631.899 40.496 629.82 40.496C626.91 40.496 624.378 41.4031 622.224 43.1795C620.031 44.9558 618.633 47.2613 617.991 50.0582C617.159 53.8377 619.2 57.2393 624.076 60.3007C624.945 60.8299 625.587 61.2456 626.079 61.5102C629.48 63.8157 631.672 66.1212 632.617 68.3889C633.562 70.6566 633.676 73.4913 632.92 76.8928C631.786 82.1464 629.329 86.3039 625.55 89.3653C621.732 92.4267 617.159 93.9763 611.83 93.9763C607.899 93.9763 604.762 92.9936 602.419 90.9905C600.076 88.9495 598.564 86.0015 597.883 82.1086Z" fill="#8C8C8C"/>
<path fill-rule="evenodd" clip-rule="evenodd" d="M648.227 120.849C646.753 121.113 644.031 127.198 644.409 128.861C644.485 129.315 645.543 129.466 645.883 129.391C648.113 129.013 649.852 124.402 649.361 122.096C649.247 121.529 648.831 120.773 648.227 120.849ZM614.929 124.893C614.362 129.768 613.795 134.644 613.228 139.52C613.115 140.843 613.039 143.488 613.228 144.811C613.304 145.378 613.795 145.605 614.249 145.756C616.668 146.361 620.107 146.361 622.526 145.907C626.91 145.151 631.824 142.997 635.263 140.049C637.19 138.348 639.194 135.627 638.589 132.603C637.984 129.655 634.545 127.501 632.201 126.443C627.742 124.364 621.203 123.797 616.668 124.553C616.025 124.666 615.496 124.78 614.929 124.893ZM678.274 114.726C677.745 117.069 677.178 120.131 676.913 123.23C676.649 126.291 676.687 129.391 677.178 131.809C677.329 132.49 678.236 134.833 679.181 134.531C679.332 134.493 679.521 134.455 679.748 134.417C679.861 134.304 680.201 133.888 680.315 133.775C680.542 133.435 680.882 133.208 681.298 133.132C681.751 133.057 682.356 133.548 682.469 134.039C682.734 135.362 680.504 136.761 679.483 136.95C676.8 137.441 675.401 135.211 674.872 132.641C674.192 129.504 674.192 125.989 674.494 122.89C674.759 120.32 675.175 117.75 675.59 115.18C675.137 115.255 674.646 115.331 674.192 115.406C673.436 115.595 672.718 115.709 671.962 115.86C671.017 116.011 669.732 115.86 669.468 114.65C669.354 114.008 669.77 113.403 670.375 113.328C671.017 113.252 671.622 113.139 672.302 113.063C673.512 112.874 674.721 112.685 675.931 112.496C676.498 110.077 677.064 107.696 677.631 105.315C677.82 104.332 678.085 101.876 678.916 101.346C679.181 101.195 679.408 101.12 679.71 101.12C680.39 100.968 681.222 101.346 681.411 102.14C681.487 102.631 681.26 104.106 681.109 104.597C680.428 107.016 679.748 109.397 679.068 111.816C680.201 111.551 681.298 111.287 682.394 111.06C683.263 110.833 684.737 111.06 685.001 112.194C685.153 112.836 684.624 113.63 683.981 113.706C683.754 113.743 683.376 113.668 683.15 113.63C682.998 113.63 682.734 113.592 682.583 113.63C682.469 113.63 682.394 113.63 682.318 113.668C680.995 114.008 679.597 114.386 678.274 114.726ZM615.307 121.34C619.427 120.093 623.433 118.128 627.024 115.784C630.009 113.894 636.132 109.019 635.187 104.37C634.658 102.027 631.71 100.893 629.858 100.439C626.041 99.4567 621.619 99.6835 617.877 100.25C610.885 101.309 604.989 103.879 599.546 108.565C597.279 110.568 594.406 114.121 595.162 117.825C595.464 119.488 596.372 120.622 597.732 121.416C598.564 121.869 599.698 122.285 599.924 123.343C600.038 124.061 599.735 124.591 599.093 124.704C598.148 124.855 597.014 124.024 596.258 123.419C594.52 121.983 593.235 120.471 592.743 118.165C591.723 112.95 595.578 108.641 598.866 105.995C604.271 101.649 611.15 99.0031 617.953 97.9827C621.921 97.3779 626.57 97.1512 630.652 98.1338C633.146 98.7764 636.321 100.099 637.455 102.858C637.606 103.198 637.72 103.501 637.757 103.841C638.778 108.679 634.583 112.874 631.597 115.406C628.422 118.128 625.247 119.98 621.581 121.529C624.378 121.643 627.477 121.869 630.085 122.739C631.105 123.079 632.126 123.532 633.109 123.986C636.51 125.573 640.365 127.879 641.235 132.074C642.406 137.592 637.644 141.787 633.827 144.017C630.652 145.945 626.986 147.494 623.282 148.137C620.069 148.742 616.176 148.968 612.964 148.061C611.641 147.797 610.431 147.419 610.129 145.831C610.091 145.718 610.053 145.605 610.053 145.491C609.978 144.887 610.016 144.206 610.053 143.602C610.205 141.674 610.394 139.746 610.583 137.819C610.998 133.737 611.452 129.617 611.943 125.498C610.809 125.762 609.676 126.027 608.579 126.254C608.277 126.367 608.013 126.443 607.748 126.48C606.992 126.594 605.972 126.443 605.783 125.422C605.631 124.628 606.236 123.986 606.916 123.797C608.731 123.268 610.545 122.739 612.359 122.209C612.699 119.186 613.039 116.162 613.417 113.139C613.455 112.761 613.493 112.42 613.568 112.08C613.493 111.4 613.531 110.72 613.531 110.002C613.531 109.586 613.606 109.17 613.644 108.717C613.795 107.243 613.72 106.184 615.269 105.957C616.025 105.844 617.083 106.109 617.272 107.129C617.386 107.62 617.31 108.15 617.272 108.641C617.235 108.981 617.235 109.397 617.235 109.813C617.235 110.228 617.159 110.606 617.197 111.022C617.121 111.513 617.046 111.967 616.932 112.42C616.365 115.406 615.836 118.354 615.307 121.34ZM654.916 135.551C655.181 134.304 655.861 133.057 656.693 132.792C657.071 132.641 657.449 132.603 657.713 133.057V133.094C657.864 133.208 657.902 133.321 657.94 133.472C657.978 133.775 657.902 134.115 657.827 134.342C657.638 134.833 657.184 135.816 657.298 136.383C657.449 137.025 659.112 137.328 659.527 137.365C661.266 137.592 663.194 137.441 664.894 137.139C665.235 137.101 668.825 136.42 668.787 135.891C668.598 135.287 666.595 134.228 666.028 134.002C664.705 133.397 663.307 132.83 661.946 132.225C659.036 130.978 655.975 129.542 655.219 125.951C654.501 122.587 656.844 119.791 659.036 117.976C660.775 116.578 663.005 115.293 665.272 114.915C668.523 114.386 671.471 116.502 672.227 120.055C672.491 121.227 672.491 122.512 672.34 123.683C672.189 125.157 671.471 128.861 669.77 129.126C669.241 129.239 668.636 128.824 668.523 128.219C668.334 127.463 668.75 126.745 669.014 126.065C669.657 124.439 669.505 122.512 669.127 120.773C668.674 118.543 667.842 116.994 665.537 117.372C663.761 117.636 661.833 118.77 660.397 119.866C658.885 121.038 657.298 123.079 657.789 125.384C658.356 127.992 660.888 129.202 663.005 130.146C664.441 130.789 665.99 131.394 667.502 131.998C668.75 132.528 671.131 133.888 671.471 135.438C672.038 138.046 667.087 139.104 665.499 139.406C663.496 139.746 655.937 140.616 654.916 137.479C654.576 138.348 654.009 139.255 653.631 139.784C652.498 141.145 650.986 142.09 649.247 142.392C645.808 142.997 642.633 141.258 641.839 137.29C640.894 132.792 641.877 126.405 643.691 122.474C644.674 120.433 646.261 118.165 648.491 117.787C650.003 117.561 651.401 118.846 651.742 120.395C652.687 124.817 650.646 131.243 646.224 131.998C645.43 132.112 644.825 132.112 644.107 132.036C644.031 133.397 643.918 135.135 644.22 136.42C644.787 139.028 646.715 139.898 648.907 139.52C650.721 139.217 652.346 137.894 652.951 136.043C653.064 135.513 653.291 135.135 653.82 135.022C654.236 134.946 654.652 135.173 654.916 135.551Z" fill="#FF6600"/>
<path fill-rule="evenodd" clip-rule="evenodd" d="M587.717 129.277C585.978 129.542 582.765 136.156 583.143 137.97C583.257 138.461 584.466 138.613 584.882 138.537C587.528 138.159 589.606 133.17 589.077 130.638C588.926 130.033 588.473 129.164 587.717 129.277ZM582.803 141.409C582.69 142.883 582.539 144.773 582.841 146.209C583.446 149.044 585.714 150.027 588.359 149.611C590.514 149.271 592.441 147.872 593.197 145.831C593.386 145.265 593.575 144.849 594.255 144.735C594.898 144.66 595.54 145.113 595.691 145.756C595.956 147.079 594.747 149.006 593.953 149.913C592.706 151.387 590.778 152.408 588.775 152.71C584.655 153.353 580.951 151.463 580.006 147.117C578.986 142.241 580.233 135.249 582.388 131.016C583.521 128.786 585.449 126.329 588.095 125.951C589.871 125.724 591.534 127.085 591.912 128.824C593.008 133.661 590.551 140.578 585.26 141.372C584.391 141.523 583.673 141.485 582.803 141.409ZM570.066 144.471C569.121 147.457 568.139 150.443 567.156 153.428C566.778 154.411 566.098 155.394 564.964 155.545C564.095 155.696 563.377 155.167 563.225 154.298C562.999 153.391 563.074 151.841 563.188 150.443C562.999 150.896 562.81 151.387 562.658 151.879C561.638 154.071 560.315 156.49 557.669 156.868C555.78 157.17 554.608 155.62 554.23 153.844C553.625 151.274 553.777 146.474 554.079 143.828C554.381 141.523 554.721 139.18 555.024 136.874C553.21 137.328 551.433 137.781 549.657 138.235C549.279 138.31 548.939 138.424 548.561 138.537C548.523 138.537 548.523 138.537 548.523 138.537C548.485 138.537 548.485 138.537 548.485 138.537C547.729 138.65 546.747 138.197 546.595 137.365C546.558 137.139 546.558 136.912 546.558 136.685C546.898 135.551 549.77 135.06 550.715 134.795C552.227 134.417 553.814 134.002 555.402 133.586C555.78 130.676 556.195 127.765 556.649 124.78C556.838 123.419 557.102 119.677 558.388 118.921C558.69 118.732 559.03 118.694 559.332 118.619C560.126 118.543 560.995 118.959 561.147 119.828C561.373 120.698 560.882 122.436 560.693 123.268C560.013 126.443 559.295 129.58 558.614 132.754C559.257 132.528 559.899 132.376 560.617 132.187C561.071 132.036 561.6 131.885 562.091 131.734C562.999 131.62 563.981 132.074 564.17 133.057C564.359 133.85 563.906 134.417 563.112 134.644C561.449 135.098 559.71 135.589 558.01 136.08C557.632 138.575 557.254 141.031 556.914 143.564C556.8 145.605 556.687 147.646 556.649 149.724C556.649 150.405 556.649 151.123 556.8 151.803C556.838 152.03 556.838 152.257 556.876 152.446C556.951 152.748 557.254 154.109 557.783 154.033C558.652 153.882 559.71 151.803 560.051 151.085C560.995 148.78 561.902 146.398 562.696 144.055C563.225 142.543 563.792 140.767 564.019 139.217C564.51 135.551 565.115 131.885 565.606 128.219C566.136 124.553 566.74 120.924 567.269 117.258C567.345 116.616 567.307 116.011 567.307 115.368C567.307 113.932 568.063 111.778 569.651 111.589C570.369 111.476 571.238 112.043 571.389 112.761C571.578 113.668 571.351 114.802 571.125 115.633C570.898 116.465 570.747 117.334 570.633 118.203C570.028 122.701 569.386 127.123 568.743 131.583C568.139 136.005 567.496 140.502 566.854 144.962C568.932 139.898 572.636 131.885 575.169 131.507C576.378 131.356 577.21 132.339 577.474 133.472C577.588 134.191 577.625 135.022 577.625 135.74C577.588 138.764 577.625 141.712 577.588 144.735C577.588 146.172 577.701 148.591 578.003 150.027C578.079 150.254 578.495 151.312 578.797 151.274C579.099 151.236 579.402 151.161 579.742 151.085C580.422 150.896 581.405 151.161 581.556 151.954C581.821 153.202 580.347 153.882 579.364 154.033C576.983 154.373 575.698 152.824 575.206 150.631C574.791 148.855 574.753 146.852 574.791 145.076C574.791 141.939 574.715 138.802 574.715 135.665C574.677 135.513 574.64 135.362 574.64 135.173C573.959 136.005 572.561 138.953 572.334 139.368C571.578 140.994 570.898 142.883 570.066 144.471Z" fill="#FF6600"/>
<path fill-rule="evenodd" clip-rule="evenodd" d="M520.819 143.602C520.932 143.224 521.083 142.846 521.121 142.619C521.613 139.822 522.104 137.063 522.671 134.304C523.427 130.411 523.956 125.498 523.276 121.529C523.276 121.491 523.276 121.378 523.238 121.302C523.087 121.756 522.935 122.436 522.898 122.625C522.18 125.989 521.537 129.504 521.159 132.981C520.781 136.534 520.592 140.049 520.819 143.602ZM501.279 159.513C502.98 160.42 505.928 162.121 507.666 162.083C508.082 162.083 508.535 162.008 508.951 161.932C513.033 161.025 514.772 154.222 514.847 150.405C514.847 149.044 514.734 147.608 514.431 146.247C513.978 144.395 512.655 140.465 510.198 140.994C507.704 141.561 506.117 143.677 504.907 145.907C502.564 150.178 501.883 154.6 501.279 159.513ZM541.153 142.694C541.153 146.587 541.191 150.443 541.228 154.335C541.304 159.967 541.531 166.392 538.998 171.381C537.902 173.498 535.937 175.614 533.669 176.143C530.041 176.975 527.66 173.687 526.224 170.625C525.468 168.962 523.011 163.028 525.997 162.386C526.98 162.159 527.66 162.726 527.924 163.784C528.076 164.54 528 165.145 527.546 165.787C527.206 166.354 527.206 166.241 527.357 166.883C527.698 168.433 528.643 170.852 529.55 172.099C530.457 173.309 531.931 173.951 533.329 173.611C536.126 172.968 537.676 169.227 538.318 166.619C538.847 164.276 539.036 161.894 539.036 159.438C539.074 155.885 538.772 152.257 538.507 148.704C537.071 152.597 534.539 158.493 531.061 159.287C529.172 159.74 527.924 158.002 527.471 156.263C526.866 153.504 526.866 150.178 527.206 146.928C527.546 143.677 528.302 140.427 529.172 137.819C529.587 136.534 530.23 134.266 531.704 133.964C532.498 133.775 533.178 134.38 533.405 135.173C533.556 135.967 533.405 136.458 533.102 137.139C532.989 137.328 532.951 137.479 532.876 137.668C532.762 137.857 532.687 138.046 532.573 138.197C532.346 138.386 532.195 138.499 532.044 138.65C531.704 138.953 531.742 138.915 531.553 139.368C531.439 139.671 531.288 139.973 531.175 140.276C529.739 144.282 528.794 150.669 529.852 154.94C529.928 155.431 530.494 156.83 531.099 156.679C532.422 156.376 534.463 152.483 535.03 151.312C536.542 148.137 538.091 143.45 538.091 139.822C538.091 138.386 538.28 136.534 539.83 136.194C540.548 136.043 541.455 136.458 541.606 137.252C541.72 137.743 541.644 138.31 541.606 138.764C541.417 140.049 541.266 141.372 541.153 142.694ZM521.613 150.669C521.726 151.917 521.877 153.013 522.18 154.222C522.595 156.036 523.238 157.283 524.863 158.266C525.505 158.72 525.959 158.795 526.715 158.606C526.791 158.606 526.866 158.568 526.98 158.568C527.66 158.417 528.34 158.531 528.529 159.362C528.756 160.269 528.076 160.723 527.357 160.912C522.406 161.97 520.29 157.737 519.231 153.277C518.513 150.14 518.211 146.436 518.135 142.694C518.06 138.991 518.287 135.249 518.665 132.074C519.043 128.106 519.572 123.759 520.554 119.942C520.97 118.543 521.461 117.334 522.935 116.994C524.372 116.691 525.392 117.674 525.732 119.148C526.526 122.474 526.148 127.463 525.732 130.789C525.581 132.376 525.317 134.002 525.052 135.627C524.485 139.368 523.502 143.11 522.595 146.776C522.255 148.061 521.953 149.384 521.613 150.669ZM486.123 160.005C486.992 157.208 487.937 154.449 488.844 151.614C489.335 150.14 490.356 147.457 491.981 147.117C492.888 146.928 493.795 147.646 494.022 148.591C494.211 149.422 494.211 150.48 494.211 151.35C493.984 154.109 493.682 159.891 494.287 162.65C494.438 163.217 495.043 164.691 495.761 164.54C496.101 164.465 496.403 163.86 496.517 163.595C496.743 163.217 497.121 162.764 497.575 162.65C497.688 162.65 497.726 162.65 497.802 162.688C498.217 159.022 498.633 155.318 498.973 151.652C499.351 148.024 499.691 144.357 500.107 140.691C500.22 139.444 500.485 137.743 501.883 137.479C502.526 137.328 503.433 137.743 503.622 138.499C503.773 139.142 503.471 140.2 503.244 140.767C502.942 141.598 502.715 142.392 502.602 143.261C502.526 143.98 502.45 144.622 502.375 145.302C504.076 141.901 506.494 138.575 510.085 137.781C514.054 136.95 516.019 141.863 516.775 145.113C517.682 148.968 517.606 152.332 516.472 156.074C515.414 159.74 513.26 163.86 509.405 164.729C506.23 165.409 503.698 164.2 500.901 162.613C500.409 167.224 499.918 171.835 499.427 176.408C499.351 177.126 499.276 178.146 499.465 178.865C499.502 179.091 499.654 179.394 499.767 179.658C499.918 179.961 500.145 180.414 500.22 180.792C500.485 181.926 499.654 182.795 498.633 183.022C497.764 183.211 496.857 182.795 496.63 181.775C496.176 179.696 496.592 174.896 496.781 172.78C497.008 170.55 497.272 168.357 497.499 166.128C497.046 166.581 496.479 166.921 495.95 167.035C494.022 167.45 492.397 165.183 492.019 163.406C491.717 162.121 491.679 160.723 491.603 159.4C491.528 156.754 491.603 154.071 491.679 151.425C491.641 151.236 491.603 151.047 491.603 150.82C491.414 151.161 491.112 152.03 491.036 152.257C489.638 157.057 488.202 161.894 486.765 166.732C486.501 167.526 486.009 168.433 485.178 168.622C484.384 168.773 483.477 168.282 483.326 167.375C483.175 166.732 483.25 166.014 483.288 165.409C483.402 161.894 483.515 158.455 483.666 154.978C483.704 154.449 483.666 153.731 483.591 153.164C482.835 153.995 481.587 157.964 481.323 158.795C480.151 162.877 479.055 166.883 477.921 170.965C477.732 171.683 477.165 172.099 476.485 172.25C475.767 172.402 474.973 172.061 474.746 171.192C474.746 171.192 474.746 171.154 474.746 171.117C474.633 170.776 474.671 170.398 474.671 170.058C474.671 168.811 474.709 167.564 474.709 166.317C475.2 161.29 475.729 156.263 476.258 151.236C476.22 150.934 476.183 150.631 476.107 150.367C475.88 148.817 476.485 145.302 478.148 144.962C478.904 144.811 479.698 145.34 479.887 146.172C479.962 146.398 479.924 146.663 479.887 146.89C479.244 151.652 478.602 156.376 477.959 161.139C478.375 159.778 478.828 158.38 479.244 157.057C479.887 155.091 481.663 150.178 483.855 149.687C484.951 149.46 485.82 150.367 486.085 151.463C486.35 152.71 486.236 153.844 486.198 155.054C486.198 156.717 486.123 158.38 486.123 160.005ZM468.624 142.543C469.568 142.317 470.589 142.846 470.816 143.904C471.156 145.378 470.362 147.003 468.964 147.306C467.905 147.532 467.187 147.154 466.923 145.983C466.62 144.546 467.225 142.808 468.624 142.543ZM470.438 155.243C470.135 158.342 469.757 161.441 469.417 164.578C469.342 165.674 469.304 167.224 469.531 168.32C469.682 169 470.287 169.831 470.967 169.68C471.005 169.68 471.08 169.68 471.08 169.643C471.08 169.643 471.08 169.605 471.118 169.605C471.118 169.567 471.156 169.567 471.194 169.529C471.383 169.416 471.761 169.113 471.95 169.076C472.479 168.962 473.046 169.491 473.121 170.02C473.424 171.268 471.95 172.25 471.043 172.439C469.002 172.893 467.376 171.154 466.885 169.113C466.583 167.715 466.469 165.976 466.583 164.54C466.847 161.139 467.112 157.699 467.414 154.26C467.49 152.824 467.603 150.783 469.228 150.443C469.984 150.291 470.665 150.745 470.891 151.576C471.08 152.521 470.891 153.844 470.551 154.751C470.513 154.902 470.438 155.054 470.438 155.243ZM455.055 157.624C453.165 156.868 451.313 156.112 449.424 155.318C444.699 153.391 436.762 150.102 434.759 144.546C434.608 144.131 434.494 143.677 434.381 143.261C433.398 138.764 436.006 134.228 438.69 131.205C442.356 127.085 448.932 122.739 454.224 121.643C459.024 120.66 465.335 122.55 466.658 128.446C467.187 130.827 467.036 134.871 466.658 137.29C466.431 138.613 465.676 143.261 464.126 143.602C463.37 143.753 462.539 142.959 462.387 142.165C462.085 140.88 462.35 139.217 462.614 137.97C462.879 136.42 463.219 134.871 463.521 133.283C463.786 132.074 463.975 130.411 463.672 129.126C462.728 124.893 457.587 123.948 454.337 124.591C448.819 125.762 443.452 129.806 439.899 134.38C438.198 136.609 436.649 139.822 437.329 142.846C437.82 145.113 439.748 147.117 441.487 148.402C442.507 149.157 443.868 149.8 445.002 150.367C447.08 151.425 449.235 152.37 451.351 153.277C452.976 153.957 454.639 154.713 456.265 155.394C459.591 156.792 463.975 158.644 464.882 162.764C465.676 166.128 463.37 169.302 461.178 171.306C458.003 174.254 453.694 176.181 449.575 177.013C445.077 177.957 439.37 177.957 435.553 174.631C433.965 173.271 432.68 171.532 432.227 169.378C431.887 167.677 432.378 164.502 434.154 164.124C434.646 164.011 435.25 164.351 435.402 164.843C435.515 165.409 435.25 166.203 435.061 166.694C434.797 167.261 434.759 167.866 434.872 168.546C435.326 170.474 437.102 172.477 438.652 173.46C441.487 175.236 445.644 175.387 448.743 174.745C452.296 173.989 456.189 172.402 458.948 169.945C460.687 168.433 462.652 165.939 462.047 163.293C461.367 160.231 457.436 158.644 455.055 157.624Z" fill="#FF6600"/>
<path fill-rule="evenodd" clip-rule="evenodd" d="M0 125.498H429.09C398.135 191.413 436.422 205.397 521.839 184.005C605.82 162.991 707.49 125.951 760.328 125.384L793.701 125.498V211.973H0V125.498Z" fill="#FF6600"/>
</svg>
