<svg width="262" height="181" viewBox="0 0 262 181" fill="none" xmlns="http://www.w3.org/2000/svg">
<path fill-rule="evenodd" clip-rule="evenodd" d="M115.77 32.7733C121.968 33.1135 128.696 32.8489 134.856 32.8489C141.206 32.8489 147.556 32.8489 153.905 32.8489C163.845 32.8489 176.507 32.6599 180.324 44.4142C183.99 55.715 177.036 67.2426 171.329 71.7402C163.052 78.2032 153.414 79.1103 140.45 78.9213L144.267 63.5387C144.872 61.2331 148.16 49.3654 148.274 48.1182L59.7571 48.0804L42.9004 111.236L78.7681 111.274C79.3728 110.178 84.3618 90.5245 85.2311 87.4631L89.9933 69.6993C90.4091 68.2253 91.1272 64.7103 91.6563 63.6898H107.228L94.6043 111.199C101.37 111.463 108.437 111.274 115.203 111.274C122.081 111.274 128.998 111.274 135.877 111.274C149.748 111.274 161.011 110.896 172.992 107.154C193.628 100.691 208.67 86.9717 215.625 67.3938C219.291 57.0001 220.236 42.6001 216.872 31.4883C209.804 8.31976 188.223 1.06307 165.47 0.533936C158.705 0.382755 151.789 0.496141 144.985 0.496141C138.144 0.496141 131.19 0.382755 124.311 0.533936L115.77 32.7733ZM88.7461 0.647322C78.8815 2.00795 71.0579 8.92449 68.261 17.315C64.3681 28.8048 71.6626 38.0646 83.3791 36.8174C92.9791 35.7591 101.143 28.1623 103.826 20.1875C107.644 8.77331 100.387 -0.940079 88.7461 0.647322Z" fill="#FE1600"/>
<path fill-rule="evenodd" clip-rule="evenodd" d="M129.829 142.077C129.905 140.906 131.152 136.219 131.606 135.539C133.873 135.463 140.979 134.745 139.24 139.432C138.144 142.38 133.533 142.228 129.829 142.077ZM113.577 159.841L124.916 159.917C125.294 158.367 127.146 151.11 127.675 150.241L130.207 150.203L134.062 159.879L146.232 159.917L141.697 148.691C143.662 147.52 147.706 146.953 150.012 141.888C151.788 137.958 151.259 132.893 148.765 130.021C146.459 127.451 142.226 126.165 137.766 126.014C132.966 125.863 127.486 125.825 122.686 125.977L113.577 159.841ZM150.579 159.879L179.606 159.917L182.1 150.581L164.223 150.543L165.13 146.915L174.201 146.877L176.355 138.751L167.436 138.714L168.229 135.312H185.993L188.487 126.014L159.574 125.977L152.733 151.262C152.128 153.416 150.768 157.762 150.579 159.879ZM6.54102 159.841L35.719 159.917L38.2135 150.619L20.3363 150.543C20.752 145.29 21.9237 147.18 30.2387 146.953L32.4686 138.789L23.5489 138.714C23.5489 137.806 24.078 135.917 24.456 135.35L41.9174 135.312C42.3709 134.594 44.4875 127.035 44.5253 126.052L15.6875 125.977L6.54102 159.841ZM225.905 146.764C225.376 147.066 219.744 153.718 219.48 154.474C220.878 156.024 224.355 158.065 226.85 158.934C230.251 160.143 232.973 160.635 237.092 160.521C244.084 160.332 249.905 156.855 251.152 150.959C253.647 139.016 238.037 138.638 236.79 136.332C235.278 133.498 241.628 134.291 245.105 135.917C246.465 136.521 247.977 137.806 248.922 138.109C249.98 136.748 254.667 131.419 255.158 130.474C254.365 128.962 249.565 126.884 247.448 126.317C244.387 125.485 240.418 124.918 236.941 125.523C230.554 126.657 224.96 130.361 224.922 137.315C224.884 144.421 232.217 145.819 237.659 148.125C241.552 149.75 239.927 152.509 233.766 150.959C232.292 150.581 230.743 149.863 229.533 149.183C228.173 148.427 227.039 147.369 225.905 146.764ZM191.927 146.688C191.171 147.331 185.728 153.68 185.502 154.474C191.095 160.597 206.894 163.507 214.15 156.402C217.552 153.076 219.102 146.575 215.058 142.569C213.432 140.943 211.316 139.961 208.897 139.016C207.045 138.26 202.434 137.088 202.585 135.652C202.887 133.044 209.539 135.01 212.11 136.408C213.054 136.975 213.961 137.655 214.755 138.071C215.624 137.542 218.573 133.649 219.593 132.44C220.236 131.721 220.991 131.23 221.18 130.21C215.889 126.506 209.728 124.389 202.812 125.561C196.576 126.619 190.831 130.474 190.944 137.315C191.058 146.688 204.135 146.764 205.495 149.258C206.894 151.791 202.245 151.64 199.486 150.884C196.613 150.052 193.854 148.276 191.927 146.688ZM38.6292 159.841C41.0859 160.068 46.9064 159.879 50.0056 159.917C52.0465 159.954 51.782 159.728 52.7646 158.669C53.7851 157.46 59.2276 151.073 60.1347 150.695L63.7631 159.917H75.8953C75.6686 158.103 68.7142 143.362 68.7898 142.682C69.0922 141.926 75.3284 135.35 76.3867 134.329C77.7095 133.082 78.9568 131.57 80.204 130.247C80.9221 129.491 83.6812 126.808 83.9457 125.977H73.4009C71.889 125.977 71.2843 125.674 70.4906 126.506C69.1678 127.866 64.7079 133.384 63.6497 134.027L60.5883 126.014L48.4182 125.977C48.456 126.846 51.8576 134.556 52.4623 135.879C53.1426 137.504 53.8229 139.167 54.5788 140.83C55.3347 142.531 54.73 142.417 52.3489 145.025C50.9127 146.537 39.3851 158.669 38.6292 159.841ZM95.1709 142.606C95.0953 141.51 96.6827 136.332 97.0229 135.085C98.7615 135.085 100.613 134.972 101.861 135.728C104.204 137.126 104.544 143.098 95.1709 142.606ZM79.1079 159.879L90.3709 159.917L92.8276 150.77C99.7442 150.392 102.919 151.224 108.399 148.125C116.034 143.778 118.717 129.416 105.867 126.543C101.332 125.561 93.2434 125.939 88.141 125.977L81.3001 151.186C80.6953 153.605 79.2969 157.611 79.1079 159.879Z" fill="#FD1602"/>
<path d="M6.46579 177.265L1.89257 171.293H0.494141V179.91H2.00595V173.788L6.69257 179.91H7.93981V171.293H6.46579V177.265ZM17.0863 171.255H15.6878L11.9083 179.91H13.4579L14.3272 177.832H18.3713L19.2406 179.91H20.828L17.0863 171.255ZM17.8422 176.509H14.8941L16.3682 173.069L17.8422 176.509ZM27.102 177.907L24.5319 171.293H22.8689L26.4217 179.986H27.7445L31.2595 171.293H29.6721L27.102 177.907ZM35.3414 171.293V179.91H36.8532V171.293H35.3414ZM49.25 178.739V175.11H45.6217V176.433H47.8138V178.058C47.5493 178.247 47.2469 178.399 46.8689 178.512C46.5288 178.625 46.1508 178.701 45.7351 178.701C45.3193 178.701 44.9036 178.625 44.5634 178.474C44.1855 178.323 43.8831 178.096 43.6563 177.832C43.3918 177.529 43.2028 177.227 43.0516 176.849C42.9004 176.471 42.8626 176.055 42.8626 175.602C42.8626 175.186 42.9004 174.808 43.0516 174.43C43.2028 174.052 43.3918 173.712 43.6563 173.447C43.8831 173.183 44.1855 172.956 44.5256 172.805C44.8658 172.616 45.206 172.54 45.6217 172.54C45.8863 172.54 46.113 172.578 46.3398 172.616C46.5666 172.654 46.7934 172.729 46.9823 172.805C47.1713 172.88 47.3225 172.994 47.5115 173.107C47.6626 173.221 47.8516 173.334 48.0028 173.485L48.9477 172.313C48.7209 172.125 48.4941 171.973 48.2674 171.822C48.0406 171.671 47.8138 171.558 47.5493 171.482C47.2847 171.369 46.9823 171.293 46.68 171.255C46.3776 171.18 46.0374 171.142 45.6595 171.142C45.017 171.142 44.45 171.293 43.8831 171.52C43.354 171.747 42.9004 172.087 42.4847 172.465C42.1067 172.88 41.8044 173.372 41.5776 173.901C41.3886 174.43 41.2752 175.035 41.2752 175.639C41.2752 176.244 41.3886 176.849 41.5776 177.378C41.8044 177.907 42.1067 178.399 42.4847 178.776C42.8626 179.192 43.354 179.495 43.8831 179.721C44.4123 179.948 45.017 180.062 45.6973 180.062C46.0752 180.062 46.4154 180.024 46.7556 179.948C47.0957 179.91 47.4359 179.797 47.7382 179.684C48.0406 179.532 48.3052 179.419 48.5697 179.23C48.7965 179.079 49.0611 178.89 49.25 178.739ZM58.1319 171.255H56.7713L52.9918 179.91H54.5414L55.4107 177.832H59.4548L60.3241 179.91H61.9115L58.1319 171.255ZM58.8878 176.509H55.9776L57.4138 173.069L58.8878 176.509ZM68.4123 172.691H71.0957V171.293H64.1792V172.691H66.9004V179.91H68.4123V172.691ZM81.5272 171.293H75.2154V179.91H81.6028V178.55H76.6894V176.244H80.9981V174.884H76.6894V172.654H81.5272V171.293ZM97.628 171.255H96.2296L92.4878 179.91H94.0374L94.9067 177.832H98.9508L99.8201 179.91H101.408L97.628 171.255ZM98.3839 176.509H95.4737L96.9099 173.069L98.3839 176.509ZM113.086 175.602C113.086 174.997 112.973 174.43 112.784 173.901C112.557 173.372 112.255 172.918 111.839 172.54C111.423 172.162 110.97 171.86 110.403 171.633C109.836 171.406 109.231 171.293 108.551 171.293H105.376V179.91H108.551C109.231 179.91 109.836 179.797 110.403 179.57C110.97 179.381 111.423 179.079 111.839 178.663C112.255 178.285 112.557 177.832 112.784 177.302C112.973 176.773 113.086 176.206 113.086 175.602ZM111.537 175.639C111.537 176.055 111.461 176.433 111.31 176.811C111.159 177.151 110.97 177.454 110.705 177.718C110.441 177.983 110.138 178.21 109.76 178.323C109.42 178.474 109.004 178.55 108.551 178.55H106.85V172.654H108.551C109.004 172.654 109.42 172.729 109.76 172.88C110.138 173.032 110.441 173.258 110.705 173.523C110.97 173.788 111.159 174.09 111.31 174.43C111.461 174.808 111.537 175.186 111.537 175.639ZM120.381 177.907L117.811 171.293H116.148L119.7 179.986H121.023L124.576 171.293H122.951L120.381 177.907ZM131.757 171.255H130.359L126.617 179.91H128.129L129.036 177.832H133.042L133.911 179.91H135.499L131.757 171.255ZM132.513 176.509H129.565L131.039 173.069L132.513 176.509ZM145.439 177.265L140.866 171.293H139.505V179.91H140.979V173.788L145.666 179.91H146.951V171.293H145.439V177.265ZM159.083 178.55L158.1 177.567C157.76 177.907 157.382 178.172 157.004 178.361C156.626 178.588 156.173 178.663 155.644 178.663C155.266 178.663 154.888 178.588 154.548 178.436C154.17 178.285 153.905 178.058 153.641 177.794C153.376 177.491 153.187 177.189 153.036 176.811C152.922 176.433 152.847 176.017 152.847 175.602C152.847 175.186 152.922 174.77 153.036 174.392C153.187 174.052 153.376 173.712 153.641 173.447C153.905 173.183 154.17 172.956 154.548 172.805C154.888 172.616 155.266 172.54 155.644 172.54C156.135 172.54 156.589 172.654 156.967 172.843C157.345 173.032 157.722 173.296 158.063 173.636L159.008 172.502C158.819 172.313 158.592 172.125 158.365 171.973C158.138 171.784 157.911 171.671 157.609 171.52C157.345 171.406 157.08 171.331 156.74 171.255C156.437 171.18 156.059 171.142 155.682 171.142C155.039 171.142 154.434 171.293 153.905 171.52C153.376 171.747 152.885 172.049 152.507 172.465C152.129 172.88 151.826 173.334 151.6 173.901C151.373 174.43 151.259 174.997 151.259 175.639C151.259 176.244 151.373 176.849 151.6 177.378C151.826 177.907 152.129 178.399 152.507 178.776C152.885 179.192 153.338 179.495 153.867 179.721C154.397 179.948 155.001 180.062 155.606 180.062C156.022 180.062 156.362 180.024 156.702 179.948C157.042 179.91 157.345 179.797 157.609 179.646C157.874 179.532 158.138 179.343 158.403 179.192C158.63 179.003 158.856 178.776 159.083 178.55ZM169.477 171.293H163.165V179.91H169.552V178.55H164.677V176.244H168.948V174.884H164.677V172.654H169.477V171.293ZM188.904 175.602C188.904 174.997 188.79 174.43 188.563 173.901C188.337 173.372 188.034 172.918 187.656 172.54C187.241 172.162 186.749 171.86 186.182 171.633C185.653 171.406 185.048 171.293 184.368 171.293H181.193V179.91H184.368C185.048 179.91 185.653 179.797 186.182 179.57C186.749 179.381 187.241 179.079 187.656 178.663C188.034 178.285 188.337 177.832 188.563 177.302C188.79 176.773 188.904 176.206 188.904 175.602ZM187.316 175.639C187.316 176.055 187.241 176.433 187.127 176.811C186.976 177.151 186.787 177.454 186.522 177.718C186.258 177.983 185.956 178.21 185.578 178.323C185.2 178.474 184.822 178.55 184.368 178.55H182.667V172.654H184.368C184.822 172.654 185.2 172.729 185.578 172.88C185.956 173.032 186.258 173.258 186.522 173.523C186.787 173.788 186.976 174.09 187.127 174.43C187.241 174.808 187.316 175.186 187.316 175.639ZM199.562 171.293H193.25V179.91H199.6V178.55H194.724V176.244H198.995V174.884H194.724V172.654H199.562V171.293ZM203.946 179.91H209.918V178.55H205.42V171.293H203.946V179.91ZM214.075 171.293V179.91H215.587V171.293H214.075ZM223.902 177.907L221.332 171.293H219.669L223.222 179.986H224.507L228.059 171.293H226.434L223.902 177.907ZM238.378 171.293H232.066V179.91H238.453V178.55H233.54V176.244H237.811V174.884H233.54V172.654H238.378V171.293ZM249.981 179.91L247.675 176.66C247.978 176.584 248.28 176.471 248.507 176.32C248.771 176.169 248.96 175.98 249.149 175.753C249.338 175.526 249.489 175.299 249.565 174.997C249.678 174.732 249.716 174.392 249.716 174.052C249.716 173.636 249.641 173.258 249.489 172.918C249.376 172.578 249.149 172.276 248.885 172.049C248.62 171.822 248.28 171.633 247.864 171.482C247.486 171.369 247.033 171.293 246.541 171.293H242.762V179.91H244.236V176.925H246.126L248.242 179.91H249.981ZM248.204 174.128C248.204 174.581 248.053 174.921 247.713 175.186C247.411 175.451 246.995 175.564 246.428 175.564H244.236V172.654H246.428C246.995 172.654 247.411 172.805 247.751 173.032C248.053 173.296 248.204 173.636 248.204 174.128ZM257.804 176.471L261.206 171.293H259.467L257.048 175.11L254.667 171.293H252.891L256.293 176.509V179.91H257.804V176.471Z" fill="black"/>
</svg>
