<svg width="828" height="346" viewBox="0 0 828 346" fill="none" xmlns="http://www.w3.org/2000/svg">
<path fill-rule="evenodd" clip-rule="evenodd" d="M544.671 248.202L596.753 0H791.247L778.208 62.0598H680.961L674.46 93.0898H757.194L744.192 155.15H661.421L654.92 186.142H752.205L739.203 248.202H544.671Z" fill="#25387B"/>
<path fill-rule="evenodd" clip-rule="evenodd" d="M0.00361559 248.202C172.993 165.468 407.059 112.743 620.564 93.0898C678.24 87.7607 735.386 84.8126 814.945 84.8126C818.045 84.8126 823.223 83.7922 827.342 82.7339L811.279 159.269C810.41 163.389 803.531 165.468 798.353 165.468C310.567 165.468 18.5989 248.202 18.5989 248.202H-0.0341797H0.00361559Z" fill="#DF2128"/>
<path fill-rule="evenodd" clip-rule="evenodd" d="M261.925 248.202L313.969 0H407.059L462.429 112.743L486.051 0H579.141L527.096 248.202H434.007L379.544 131.339L355.015 248.202H261.925Z" fill="#25387B"/>
<path fill-rule="evenodd" clip-rule="evenodd" d="M172.954 144.794L203.304 0H296.394L259.959 173.745C248.696 227.528 206.819 248.202 151.26 248.202H82.6992L98.3087 173.745H129.339C152.091 173.745 168.57 165.468 172.917 144.794H172.954Z" fill="#25387B"/>
<path d="M471.386 330.633L473.352 317.443H494.064L495.916 303.496H475.242L476.678 293.065H498.07L499.922 279.118H466.7L457.894 344.542H492.703L494.593 330.633H471.386Z" fill="#25387C"/>
<path d="M544.596 279.118H530.158L523.355 291.024C522.334 292.838 521.125 295.03 519.764 297.562C518.706 294.198 518.139 292.309 518.026 291.931L513.717 279.118H501.358L511.789 311.244L493.043 344.542H507.783L513.793 333.997C515.191 331.54 516.325 329.499 517.194 327.836C517.723 329.575 518.328 331.616 519.084 333.959L522.485 344.542H535.563L525.207 313.663L544.596 279.118Z" fill="#25387C"/>
<path d="M577.856 296.428C577.856 292.838 577.327 289.701 576.269 287.055C575.135 284.296 573.547 282.217 571.582 280.97C569.617 279.723 567.009 279.118 563.796 279.118H545.994L537.15 344.542H549.018L552.193 320.958H555.897C559.601 320.958 562.095 320.806 563.531 320.504C565.988 319.975 567.954 319.181 569.465 318.123C570.939 317.065 572.338 315.553 573.623 313.587C574.87 311.66 575.891 309.165 576.722 305.991C577.554 302.891 577.969 299.679 577.969 296.428H577.856ZM555.935 292.876H560.243C563.683 292.876 564.439 293.254 564.514 293.291C564.93 293.518 565.27 293.934 565.535 294.539C565.875 295.257 566.026 296.239 566.026 297.487C566.026 299.452 565.648 301.266 564.93 302.854C564.25 304.365 563.38 305.424 562.246 306.104C561.604 306.482 559.714 307.124 554.461 307.124H553.969L555.897 292.876H555.935Z" fill="#25387C"/>
<path d="M609.226 321.6C608.621 320.088 608.017 318.728 607.374 317.556C610.813 316.346 613.459 314.154 615.349 311.017C617.541 307.351 618.637 302.665 618.637 297.109C618.637 293.216 618.07 289.814 616.936 287.017C615.727 284.069 614.102 281.953 612.061 280.781C610.058 279.647 607.45 279.08 604.048 279.08H584.735L575.891 344.504H587.758L591.198 318.917H592.974C594.902 318.917 595.582 319.37 595.733 319.559C596.451 320.353 597.623 322.28 598.908 326.891C600.949 334.186 602.347 339.628 603.028 343.068L603.33 344.504H615.954L615.387 342.274C613.119 333.43 611.04 326.476 609.188 321.562L609.226 321.6ZM594.713 293.065H602.196C605.031 293.065 605.673 293.594 605.673 293.594C606.467 294.35 606.883 295.635 606.883 297.373C606.883 298.998 606.543 300.586 605.824 302.098C605.144 303.496 604.313 304.517 603.179 305.121C602.536 305.499 600.609 306.104 595.28 306.104H592.974L594.713 293.102V293.065Z" fill="#25387C"/>
<path d="M654.316 317.443L656.205 303.496H635.531L636.968 293.065H658.322L660.212 279.118H626.99L618.146 344.542H652.955L654.883 330.633H631.676L633.642 317.443H654.316Z" fill="#25387B"/>
<path d="M679.109 291.742C680.848 291.742 682.057 292.271 682.889 293.367C683.834 294.652 684.438 296.617 684.59 299.187L684.703 301.002L696.117 300.208L696.042 298.469C695.777 292.46 694.227 287.546 691.431 283.88C688.52 280.025 684.363 278.06 679.109 278.06C673.894 278.06 669.85 280.063 667.09 283.956C664.445 287.698 663.122 292.384 663.122 297.94C663.122 301.115 663.575 303.95 664.445 306.368C665.352 308.825 666.637 310.866 668.224 312.454C669.736 313.928 672.042 315.704 675.254 317.858C679.072 320.428 680.168 321.524 680.508 321.978C681.226 322.923 681.604 324.094 681.604 325.531C681.604 327.231 681.15 328.63 680.205 329.802C679.374 330.86 677.9 331.351 675.783 331.351C672.382 331.351 671.286 330.028 670.719 328.97C670.379 328.365 669.812 326.627 669.661 321.978L669.623 320.088L658.284 320.995L658.246 322.62C658.171 326.929 658.7 330.822 659.796 334.186C660.93 337.739 662.971 340.535 665.805 342.539C668.602 344.542 671.966 345.562 675.783 345.562C681.339 345.562 685.761 343.37 688.898 339.024C691.884 334.866 693.396 329.802 693.396 323.981C693.396 319.219 692.338 315.25 690.297 312.151C688.898 310.035 685.837 307.389 681.037 304.176C677.484 301.757 676.086 300.435 675.557 299.717C674.914 298.885 674.612 297.789 674.612 296.428C674.612 294.954 674.952 293.783 675.67 292.876C676.275 292.082 677.446 291.704 679.109 291.704V291.742Z" fill="#25387C"/>
<path d="M719.512 304.214C715.921 301.795 714.561 300.472 714.032 299.754C713.389 298.923 713.049 297.827 713.049 296.466C713.049 294.992 713.389 293.82 714.107 292.913C714.712 292.12 715.884 291.742 717.547 291.742C719.285 291.742 720.495 292.271 721.326 293.367C722.309 294.652 722.876 296.617 723.027 299.187L723.14 301.002L734.554 300.208L734.479 298.469C734.214 292.46 732.665 287.546 729.868 283.88C726.958 280.025 722.8 278.06 717.547 278.06C712.331 278.06 708.287 280.063 705.528 283.956C702.882 287.66 701.559 292.384 701.559 297.94C701.559 301.115 702.013 303.95 702.882 306.368C703.789 308.825 705.074 310.866 706.662 312.454C708.173 313.928 710.479 315.704 713.691 317.858C717.509 320.428 718.605 321.524 718.945 321.978C719.663 322.923 720.041 324.094 720.041 325.531C720.041 327.231 719.587 328.63 718.643 329.802C717.811 330.86 716.337 331.351 714.221 331.351C710.819 331.351 709.723 330.028 709.156 328.97C708.816 328.365 708.211 326.627 708.098 321.978L708.022 320.088L696.684 320.995L696.646 322.62C696.57 326.929 697.099 330.822 698.195 334.186C699.329 337.739 701.37 340.535 704.167 342.539C706.964 344.542 710.328 345.562 714.145 345.562C719.701 345.562 724.123 343.37 727.222 339.024C730.208 334.866 731.758 329.802 731.758 323.981C731.758 319.219 730.699 315.25 728.658 312.151C727.26 310.035 724.236 307.389 719.399 304.176L719.512 304.214Z" fill="#25387C"/>
</svg>
