<svg width="794" height="174" viewBox="0 0 794 174" fill="none" xmlns="http://www.w3.org/2000/svg">
<path fill-rule="evenodd" clip-rule="evenodd" d="M303.987 46.4787H371.905L338.494 166.29H385.474L418.923 46.4787H473.764L486.387 32.2299H441.978L447.836 25.5779H492.359L498.671 18.4724H453.09L458.948 9.06139H507.024L514.356 0.822021H324.888L303.987 46.4787Z" fill="#ED3237"/>
<path fill-rule="evenodd" clip-rule="evenodd" d="M128.58 167.915H0L19.7291 136.016L93.6945 136.469L127.332 2.06934H170.23L135.912 136.469L128.58 167.915Z" fill="#ED3237"/>
<path fill-rule="evenodd" clip-rule="evenodd" d="M328.403 166.214H286.677L279.534 158.277C259.616 170.145 235.843 176.192 212.183 172.715C183.005 166.932 165.505 149.244 167.962 120.331C171.855 100.148 180.699 83.2913 193.776 69.307C179.187 40.0535 184.554 19.9842 193.89 1.80469H294.728L277.871 40.2425C264.794 13.8614 223.446 20.5133 225.071 55.7763L274.431 110.428C278.665 105.213 282.973 93.3826 287.206 79.9653L318.198 95.4236C313.512 109.635 308.145 123.77 300.813 135.6L300.926 135.713L328.403 166.214ZM254.891 130.8L216.68 91.0771C176.995 119.839 217.247 166.705 254.891 130.8Z" fill="#ED3237"/>
<path fill-rule="evenodd" clip-rule="evenodd" d="M491.225 103.587C491.225 103.814 491.225 104.154 491.187 104.646C491.112 105.099 491.074 105.666 490.961 106.309C490.847 106.876 490.734 107.48 490.545 108.161C490.394 108.841 490.205 109.408 489.94 109.975C489.713 110.466 489.449 110.92 489.109 111.298C488.769 111.638 488.353 111.827 487.975 111.827H465.487L462.387 127.21H481.474C481.928 127.21 482.268 127.361 482.457 127.663C482.684 128.003 482.797 128.457 482.797 129.024C482.797 129.288 482.721 129.628 482.721 130.082C482.684 130.536 482.57 131.102 482.457 131.707C482.381 132.274 482.268 132.917 482.117 133.521C481.928 134.126 481.701 134.693 481.474 135.222C481.247 135.713 480.907 136.167 480.643 136.507C480.302 136.81 479.962 136.961 479.584 136.961H460.46L456.907 154.724H479.698C480.076 154.724 480.416 154.876 480.567 155.291C480.756 155.556 480.869 156.085 480.869 156.765C480.869 156.954 480.869 157.295 480.794 157.824C480.794 158.315 480.68 158.882 480.567 159.449C480.454 160.054 480.34 160.696 480.189 161.301C480.038 161.943 479.849 162.51 479.584 163.077C479.358 163.569 479.055 164.022 478.715 164.362C478.375 164.627 478.035 164.816 477.657 164.816H445.909C445.417 164.816 444.964 164.74 444.51 164.589C444.057 164.476 443.717 164.173 443.49 163.833C443.225 163.493 442.999 163.115 442.923 162.624C442.81 162.095 442.81 161.49 442.923 160.734L453.921 105.78C454.186 104.381 454.828 103.323 455.736 102.68C456.567 102.076 457.587 101.736 458.646 101.736H489.978C490.847 101.736 491.225 102.34 491.225 103.587ZM527.244 132.274L536.958 159.865C537.298 161.036 537.525 161.943 537.562 162.661C537.638 163.342 537.411 163.909 536.958 164.249C536.504 164.627 535.748 164.854 534.765 164.967C533.669 165.08 532.271 165.08 530.419 165.08C529.058 165.08 528.038 165.08 527.244 165.043C526.45 164.967 525.884 164.854 525.468 164.702C525.014 164.513 524.712 164.362 524.561 164.06C524.334 163.833 524.221 163.493 524.032 163.115L516.359 140.173L500.183 163.115C499.918 163.493 499.654 163.833 499.313 164.06C499.011 164.362 498.558 164.513 497.991 164.702C497.424 164.854 496.63 164.967 495.761 165.043C494.778 165.08 493.606 165.08 492.132 165.08C490.432 165.08 489.109 165.08 488.126 164.967C487.181 164.854 486.501 164.627 486.236 164.287C485.934 163.947 485.934 163.38 486.274 162.737C486.576 162.057 487.106 161.15 487.975 160.016L508.725 132.236L499.918 106.573C499.578 105.439 499.351 104.532 499.313 103.814C499.238 103.134 499.465 102.643 499.918 102.302C500.296 101.887 501.052 101.66 502.11 101.622C503.131 101.509 504.605 101.433 506.381 101.433C507.742 101.433 508.876 101.509 509.669 101.547C510.463 101.622 511.068 101.736 511.521 101.887C511.975 102.076 512.315 102.302 512.504 102.567C512.731 102.869 512.882 103.247 512.995 103.701L519.685 124.261L534.463 103.436C534.69 103.096 534.992 102.756 535.332 102.454C535.597 102.227 535.975 102 536.504 101.849C537.071 101.736 537.751 101.622 538.583 101.547C539.414 101.509 540.548 101.433 541.984 101.433C543.761 101.433 545.197 101.509 546.18 101.622C547.2 101.66 547.843 101.887 548.183 102.302C548.447 102.643 548.447 103.134 548.183 103.814C547.88 104.57 547.313 105.439 546.52 106.573L527.244 132.274ZM598.11 117.232C598.11 119.046 597.884 120.936 597.506 122.939C597.09 124.904 596.41 126.869 595.502 128.721C594.595 130.649 593.424 132.463 591.95 134.126C590.513 135.827 588.737 137.339 586.658 138.699C584.58 140.022 582.085 141.08 579.326 141.799C576.567 142.592 573.354 142.932 569.65 142.932H563.036L558.992 163.115C558.917 163.455 558.765 163.72 558.539 164.022C558.274 164.249 557.858 164.476 557.291 164.627C556.725 164.816 556.044 164.929 555.213 164.967C554.381 165.08 553.285 165.08 552.113 165.08C550.866 165.08 549.921 165.08 549.052 164.967C548.296 164.929 547.654 164.816 547.2 164.627C546.747 164.476 546.482 164.249 546.293 164.022C546.142 163.795 546.066 163.455 546.18 163.115L557.594 106.347C557.858 104.835 558.501 103.663 559.484 102.907C560.466 102.113 561.638 101.736 563.036 101.736H576.869C578.532 101.736 580.082 101.773 581.367 101.887C582.728 102 584.013 102.227 585.298 102.454C587.301 102.869 589.077 103.474 590.665 104.268C592.252 105.099 593.537 106.12 594.671 107.329C595.805 108.539 596.636 109.975 597.203 111.638C597.77 113.301 598.11 115.153 598.11 117.232ZM584.655 118.63C584.655 117.118 584.239 115.758 583.521 114.586C582.765 113.452 581.594 112.658 580.082 112.205C579.326 111.978 578.608 111.827 577.776 111.751C576.907 111.638 575.962 111.638 574.942 111.638H569.31L565.039 133.068H570.898C572.75 133.068 574.337 132.841 575.622 132.387C576.983 132.01 578.117 131.367 579.099 130.687C580.12 129.969 580.989 129.137 581.632 128.154C582.387 127.172 582.954 126.151 583.408 125.055C583.786 123.997 584.126 122.939 584.315 121.805C584.542 120.747 584.655 119.65 584.655 118.63ZM652.006 115.493C652.006 117.61 651.704 119.65 651.137 121.691C650.57 123.77 649.701 125.698 648.454 127.474C647.206 129.364 645.581 130.989 643.654 132.463C641.688 133.899 639.269 135.109 636.435 135.94C638.022 136.583 639.307 137.792 640.365 139.606C641.462 141.458 642.369 143.953 643.049 147.165L645.468 159.978C645.619 160.696 645.732 161.301 645.846 161.868C645.959 162.435 646.035 162.964 646.035 163.342C646.035 163.606 645.921 163.909 645.695 164.136C645.468 164.362 645.128 164.513 644.485 164.702C643.918 164.854 643.2 164.967 642.255 165.043C641.273 165.08 640.063 165.08 638.589 165.08C637.228 165.08 636.095 165.08 635.301 164.967C634.507 164.929 633.827 164.816 633.411 164.589C632.958 164.4 632.655 164.173 632.542 163.909C632.391 163.606 632.277 163.266 632.202 162.888L629.783 148.904C629.556 147.279 629.178 145.88 628.725 144.633C628.309 143.386 627.704 142.365 627.024 141.534C626.343 140.665 625.512 140.06 624.529 139.682C623.547 139.266 622.337 139.039 620.939 139.039H616.895L612.095 163.115C612.095 163.455 611.906 163.72 611.641 164.022C611.339 164.249 610.961 164.476 610.469 164.627C609.902 164.816 609.222 164.929 608.353 164.967C607.521 165.08 606.463 165.08 605.216 165.08C603.969 165.08 603.024 165.08 602.23 164.967C601.361 164.929 600.756 164.816 600.302 164.627C599.849 164.476 599.584 164.249 599.395 164.022C599.244 163.795 599.169 163.455 599.282 163.115L610.81 105.78C611.074 104.381 611.641 103.323 612.473 102.68C613.38 102.076 614.438 101.736 615.647 101.736H632.542C635.528 101.736 638.173 102 640.592 102.567C642.973 103.134 645.014 104.003 646.715 105.099C648.454 106.233 649.739 107.707 650.646 109.408C651.553 111.147 652.006 113.187 652.006 115.493ZM638.249 117.912C638.249 117.005 638.06 116.173 637.72 115.38C637.455 114.586 636.926 113.906 636.284 113.301C635.603 112.734 634.696 112.318 633.638 111.978C632.504 111.638 631.181 111.524 629.669 111.524H622.413L618.784 129.477H624.945C627.364 129.477 629.443 129.137 631.143 128.457C632.844 127.701 634.167 126.832 635.263 125.698C636.284 124.602 637.039 123.392 637.493 122.032C638.022 120.671 638.249 119.31 638.249 117.912ZM704.202 103.587C704.202 103.814 704.202 104.154 704.126 104.646C704.088 105.099 703.975 105.666 703.899 106.309C703.786 106.876 703.673 107.48 703.521 108.161C703.332 108.841 703.106 109.408 702.879 109.975C702.652 110.466 702.312 110.92 702.01 111.298C701.669 111.638 701.329 111.827 700.913 111.827H678.425L675.326 127.21H694.45C694.904 127.21 695.244 127.361 695.395 127.663C695.622 128.003 695.698 128.457 695.698 129.024C695.698 129.288 695.698 129.628 695.622 130.082C695.584 130.536 695.509 131.102 695.395 131.707C695.358 132.274 695.169 132.917 695.017 133.521C694.828 134.126 694.677 134.693 694.375 135.222C694.148 135.713 693.884 136.167 693.543 136.507C693.203 136.81 692.863 136.961 692.485 136.961H673.361L669.808 154.724H692.636C693.014 154.724 693.317 154.876 693.468 155.291C693.695 155.556 693.808 156.085 693.808 156.765C693.808 156.954 693.77 157.295 693.77 157.824C693.695 158.315 693.657 158.882 693.543 159.449C693.43 160.054 693.317 160.696 693.128 161.301C692.976 161.943 692.75 162.51 692.523 163.077C692.296 163.569 692.032 164.022 691.691 164.362C691.351 164.627 691.011 164.816 690.558 164.816H658.885C658.356 164.816 657.865 164.74 657.449 164.589C656.995 164.476 656.655 164.173 656.391 163.833C656.126 163.493 655.937 163.115 655.824 162.624C655.71 162.095 655.786 161.49 655.899 160.734L666.86 105.78C667.162 104.381 667.729 103.323 668.636 102.68C669.543 102.076 670.526 101.736 671.622 101.736H702.879C703.748 101.736 704.202 102.34 704.202 103.587ZM747.326 106.573C747.326 106.876 747.25 107.254 747.213 107.745C747.137 108.199 747.099 108.765 746.986 109.332C746.91 109.899 746.759 110.542 746.646 111.147C746.457 111.713 746.306 112.28 746.079 112.772C745.852 113.301 745.625 113.679 745.323 114.019C745.058 114.359 744.756 114.51 744.491 114.51C744.038 114.51 743.471 114.284 742.791 113.906C742.11 113.528 741.279 113.074 740.258 112.545C739.238 112.091 738.142 111.638 736.781 111.26C735.458 110.806 733.947 110.655 732.246 110.655C730.507 110.655 729.033 110.882 727.824 111.373C726.614 111.827 725.594 112.507 724.838 113.301C724.044 114.095 723.477 114.964 723.137 115.984C722.721 116.967 722.57 117.95 722.57 118.97C722.57 120.104 722.835 121.162 723.402 122.069C724.044 122.976 724.762 123.77 725.783 124.564C726.728 125.282 727.862 126.038 729.109 126.756C730.356 127.474 731.641 128.23 732.926 129.024C734.173 129.742 735.458 130.649 736.706 131.556C737.953 132.501 739.087 133.521 740.107 134.769C741.052 136.016 741.846 137.339 742.413 138.926C742.98 140.513 743.32 142.365 743.32 144.406C743.32 147.43 742.677 150.265 741.468 152.91C740.221 155.518 738.444 157.748 736.214 159.751C733.909 161.641 731.187 163.191 727.975 164.249C724.762 165.383 721.21 165.95 717.317 165.95C715.2 165.95 713.273 165.761 711.458 165.383C709.72 165.08 708.095 164.627 706.734 164.136C705.373 163.682 704.202 163.191 703.295 162.624C702.312 162.057 701.594 161.528 701.14 161.074C700.687 160.583 700.46 159.865 700.46 158.882C700.46 158.617 700.536 158.202 700.573 157.71C700.649 157.143 700.762 156.576 700.876 156.01C700.989 155.405 701.102 154.762 701.254 154.158C701.443 153.515 701.594 152.91 701.821 152.419C702.047 151.89 702.312 151.436 702.614 151.096C702.879 150.832 703.181 150.643 703.446 150.643C704.013 150.643 704.693 150.869 705.449 151.399C706.205 151.89 707.187 152.457 708.321 153.099C709.417 153.628 710.778 154.271 712.365 154.762C713.877 155.291 715.729 155.556 717.959 155.556C719.849 155.556 721.55 155.291 723.024 154.838C724.498 154.309 725.669 153.628 726.614 152.797C727.635 151.965 728.391 150.983 728.882 149.887C729.373 148.791 729.6 147.543 729.6 146.258C729.6 145.011 729.336 143.953 728.769 143.121C728.164 142.139 727.408 141.345 726.463 140.551C725.48 139.795 724.384 139.039 723.175 138.359C721.965 137.679 720.718 137.036 719.471 136.243C718.186 135.449 716.939 134.58 715.729 133.71C714.52 132.803 713.424 131.707 712.479 130.498C711.534 129.25 710.74 127.89 710.173 126.265C709.531 124.677 709.266 122.825 709.266 120.747C709.266 117.799 709.833 115.077 711.005 112.621C712.176 110.202 713.839 108.047 715.843 106.309C717.959 104.495 720.416 103.134 723.288 102.113C726.161 101.169 729.373 100.677 732.813 100.677C734.476 100.677 736.025 100.791 737.499 101.017C738.973 101.282 740.334 101.547 741.506 101.962C742.677 102.302 743.773 102.756 744.605 103.21C745.436 103.663 746.003 104.041 746.343 104.343C746.684 104.646 746.91 104.986 747.099 105.288C747.213 105.666 747.326 106.082 747.326 106.573ZM793.701 106.573C793.701 106.876 793.701 107.254 793.663 107.745C793.587 108.199 793.55 108.765 793.436 109.332C793.323 109.899 793.21 110.542 793.021 111.147C792.907 111.713 792.68 112.28 792.529 112.772C792.302 113.301 792 113.679 791.773 114.019C791.509 114.359 791.206 114.51 790.942 114.51C790.488 114.51 789.921 114.284 789.203 113.906C788.523 113.528 787.654 113.074 786.709 112.545C785.688 112.091 784.554 111.638 783.232 111.26C781.871 110.806 780.397 110.655 778.696 110.655C776.958 110.655 775.446 110.882 774.236 111.373C773.027 111.827 772.044 112.507 771.25 113.301C770.495 114.095 769.928 114.964 769.512 115.984C769.172 116.967 768.945 117.95 768.945 118.97C768.945 120.104 769.285 121.162 769.852 122.069C770.419 122.976 771.213 123.77 772.233 124.564C773.178 125.282 774.312 126.038 775.559 126.756C776.806 127.474 778.091 128.23 779.339 129.024C780.624 129.742 781.909 130.649 783.156 131.556C784.403 132.501 785.537 133.521 786.482 134.769C787.502 136.016 788.296 137.339 788.863 138.926C789.43 140.513 789.77 142.365 789.77 144.406C789.77 147.43 789.128 150.265 787.88 152.91C786.671 155.518 784.895 157.748 782.665 159.751C780.359 161.641 777.638 163.191 774.425 164.249C771.213 165.383 767.66 165.95 763.729 165.95C761.613 165.95 759.723 165.761 757.909 165.383C756.095 165.08 754.507 164.627 753.184 164.136C751.824 163.682 750.652 163.191 749.669 162.624C748.762 162.057 748.044 161.528 747.591 161.074C747.137 160.583 746.91 159.865 746.91 158.882C746.91 158.617 746.986 158.202 747.024 157.71C747.099 157.143 747.213 156.576 747.326 156.01C747.439 155.405 747.553 154.762 747.704 154.158C747.893 153.515 748.044 152.91 748.271 152.419C748.498 151.89 748.762 151.436 748.989 151.096C749.291 150.832 749.556 150.643 749.896 150.643C750.463 150.643 751.106 150.869 751.862 151.399C752.655 151.89 753.562 152.457 754.734 153.099C755.868 153.628 757.228 154.271 758.816 154.762C760.328 155.291 762.18 155.556 764.372 155.556C766.299 155.556 768 155.291 769.474 154.838C770.873 154.309 772.12 153.628 773.065 152.797C774.085 151.965 774.803 150.983 775.257 149.887C775.824 148.791 776.05 147.543 776.05 146.258C776.05 145.011 775.786 143.953 775.143 143.121C774.576 142.139 773.858 141.345 772.838 140.551C771.931 139.795 770.835 139.039 769.625 138.359C768.378 137.679 767.169 137.036 765.846 136.243C764.599 135.449 763.389 134.58 762.142 133.71C760.97 132.803 759.836 131.707 758.929 130.498C757.909 129.25 757.191 127.89 756.624 126.265C755.981 124.677 755.717 122.825 755.717 120.747C755.717 117.799 756.284 115.077 757.455 112.621C758.627 110.202 760.214 108.047 762.293 106.309C764.372 104.495 766.866 103.134 769.739 102.113C772.611 101.169 775.824 100.677 779.263 100.677C780.888 100.677 782.476 100.791 783.95 101.017C785.424 101.282 786.709 101.547 787.956 101.962C789.128 102.302 790.224 102.756 791.055 103.21C791.887 103.663 792.454 104.041 792.794 104.343C793.134 104.646 793.361 104.986 793.55 105.288C793.663 105.666 793.701 106.082 793.701 106.573Z" fill="#ED3237"/>
</svg>
