<svg width="1695" height="969" viewBox="0 0 1695 969" fill="none" xmlns="http://www.w3.org/2000/svg">
<g clip-path="url(#clip0_1914_106)">
<path d="M748.057 0.868928C748.939 0.871555 749.82 0.874182 750.728 0.876889C751.66 0.875735 752.591 0.874581 753.551 0.873392C756.713 0.870717 759.876 0.875255 763.038 0.879682C765.312 0.879246 767.586 0.878372 769.859 0.877093C776.139 0.874844 782.419 0.878874 788.699 0.883871C794.766 0.887729 800.833 0.886912 806.9 0.886189C819.316 0.884873 831.732 0.888225 844.149 0.894206C856.448 0.900117 868.748 0.903971 881.047 0.905059C882.193 0.905162 882.193 0.905162 883.362 0.905268C887.24 0.905606 891.119 0.905907 894.998 0.906194C922.495 0.908297 949.991 0.915039 977.488 0.924497C1004.21 0.933677 1030.92 0.940763 1057.64 0.945005C1058.47 0.945136 1059.29 0.945268 1060.14 0.945403C1068.4 0.946722 1076.67 0.947998 1084.93 0.949242C1101.77 0.951779 1118.61 0.9546 1135.45 0.957593C1136.22 0.957731 1137 0.957868 1137.8 0.958009C1189.53 0.967215 1241.27 0.983082 1293 0.999936C1292.37 3.84394 1291.74 6.68784 1291.11 9.53167C1290.93 10.3274 1290.76 11.1232 1290.57 11.943C1288.95 19.267 1287.25 26.5728 1285.53 33.8749C1285.21 35.2363 1284.89 36.5977 1284.57 37.9591C1283.72 41.5616 1282.88 45.1637 1282.03 48.7656C1281.49 51.0279 1280.96 53.2903 1280.43 55.5527C1274.77 79.5925 1269.05 103.618 1263.26 127.627C1261.6 134.477 1259.96 141.329 1258.33 148.183C1257.12 153.246 1255.91 158.309 1254.7 163.371C1254.11 165.818 1253.53 168.266 1252.94 170.714C1252.14 174.092 1251.33 177.47 1250.52 180.848C1250.28 181.865 1250.04 182.882 1249.79 183.93C1249.57 184.851 1249.35 185.773 1249.12 186.723C1248.92 187.529 1248.73 188.335 1248.53 189.166C1248 191 1248 191 1247 192C1244.7 192.109 1242.39 192.147 1240.08 192.158C1239.35 192.163 1238.62 192.168 1237.87 192.173C1235.4 192.189 1232.93 192.197 1230.45 192.205C1228.69 192.215 1226.93 192.225 1225.16 192.235C1220.36 192.262 1215.56 192.283 1210.75 192.303C1205.74 192.325 1200.72 192.352 1195.71 192.379C1186.21 192.429 1176.71 192.474 1167.2 192.517C1156.39 192.567 1145.57 192.622 1134.76 192.677C1112.51 192.791 1090.25 192.898 1068 193C1066.64 198.697 1065.29 204.394 1063.93 210.091C1063.47 212.022 1063.01 213.953 1062.55 215.884C1059.8 227.432 1057.05 238.979 1054.3 250.527C1048.02 276.916 1041.74 303.303 1035.44 329.687C1035.28 330.357 1035.12 331.026 1034.95 331.716C1030.73 349.408 1026.5 367.098 1022.26 384.788C1020.11 393.775 1017.96 402.763 1015.81 411.75C1015.57 412.744 1015.34 413.737 1015.09 414.761C1009.06 439.963 1003.05 465.169 997.105 490.39C990.468 518.54 983.698 546.657 976.922 574.773C975.864 579.161 974.807 583.549 973.75 587.937C973.484 589.043 973.217 590.149 972.943 591.288C968.524 609.632 964.132 627.982 959.752 646.335C959.083 649.137 958.414 651.939 957.745 654.741C956.207 661.184 954.669 667.628 953.131 674.072C952.871 675.162 952.871 675.162 952.606 676.273C951.7 680.068 950.794 683.862 949.889 687.656C947.811 696.363 945.733 705.07 943.652 713.776C942.751 717.542 941.852 721.308 940.954 725.074C940.109 728.617 939.263 732.159 938.415 735.701C937.972 737.553 937.531 739.407 937.09 741.26C933.51 756.204 929.727 771.09 926 786C862.64 786 799.28 786 734 786C734.669 780.649 735.395 775.887 736.651 770.713C736.816 770.028 736.981 769.344 737.151 768.638C737.695 766.382 738.246 764.126 738.797 761.871C739.186 760.262 739.575 758.653 739.964 757.044C740.791 753.622 741.62 750.2 742.452 746.779C744.422 738.676 746.379 730.57 748.337 722.464C748.993 719.748 749.649 717.032 750.306 714.317C753.879 699.535 757.393 684.741 760.875 669.937C765.317 651.065 769.828 632.21 774.381 613.364C778.336 596.986 782.222 580.593 786.062 564.187C789.926 547.684 793.882 531.207 797.938 514.75C802.213 497.395 806.397 480.021 810.5 462.625C810.771 461.476 811.042 460.327 811.321 459.143C813.994 447.81 816.656 436.475 819.31 425.138C820.56 419.8 821.81 414.462 823.062 409.125C823.312 408.063 823.561 407.001 823.817 405.907C827.472 390.342 831.241 374.808 835.076 359.286C838.882 343.865 842.574 328.419 846.227 312.961C846.461 311.969 846.695 310.977 846.937 309.955C849.287 300.01 851.633 290.064 853.972 280.116C860.816 251.034 867.893 222.022 875 193C786.395 192.505 786.395 192.505 696 192C698.369 181.34 700.745 170.698 703.293 160.082C703.596 158.813 703.9 157.544 704.212 156.236C705.032 152.808 705.853 149.38 706.675 145.952C707.549 142.302 708.422 138.652 709.295 135.002C711.528 125.668 713.764 116.334 716 107C716.188 106.215 716.376 105.429 716.57 104.62C717.519 100.66 718.468 96.7003 719.417 92.7402C720.172 89.5872 720.928 86.4341 721.683 83.2811C722.057 81.7188 722.432 80.1566 722.806 78.5944C722.99 77.8273 723.173 77.0602 723.363 76.2698C724.426 71.8305 725.491 67.3913 726.556 62.9523C727.227 60.154 727.898 57.3556 728.568 54.5572C728.896 53.1924 729.223 51.8276 729.55 50.4628C731.473 42.4448 733.373 34.4218 735.242 26.3911C735.613 24.8006 735.984 23.2101 736.355 21.6196C737.066 18.5723 737.772 15.5239 738.475 12.4749C738.794 11.1031 739.114 9.7313 739.434 8.35956C739.713 7.1532 739.992 5.94684 740.279 4.70393C741.551 -0.0657046 743.445 0.882016 748.057 0.868928Z" fill="#FF0000"/>
<path d="M1332 1C1395.36 1 1458.72 1 1524 1C1522.87 11.1241 1522.87 11.1241 1521.87 15.2192C1521.64 16.1537 1521.42 17.0881 1521.19 18.0509C1520.94 19.0473 1520.69 20.0437 1520.44 21.0703C1520.04 22.6881 1520.04 22.6881 1519.64 24.3387C1519.07 26.6901 1518.49 29.041 1517.92 31.3913C1516.97 35.2344 1516.04 39.0792 1515.1 42.9246C1514.77 44.2706 1514.45 45.6165 1514.12 46.9625C1513.87 47.9769 1513.87 47.9769 1513.62 49.0117C1513.11 51.1042 1512.6 53.1964 1512.09 55.2886C1508.57 69.7398 1505.1 84.203 1501.64 98.669C1501.12 100.826 1500.61 102.982 1500.09 105.139C1492.74 135.818 1485.46 166.511 1478.17 197.203C1472.15 222.566 1466.12 247.924 1459.99 273.262C1455.99 289.83 1452.07 306.419 1448.19 323.016C1444.36 339.351 1440.41 355.65 1436.38 371.937C1432.11 389.259 1428.03 406.621 1424 424C1419.79 442.132 1415.52 460.241 1411.06 478.312C1406.58 496.51 1402.15 514.72 1397.78 532.947C1397.1 535.8 1396.41 538.653 1395.72 541.505C1394.76 545.486 1393.81 549.469 1392.86 553.453C1392.57 554.65 1392.28 555.846 1391.98 557.079C1391.59 558.736 1391.59 558.736 1391.19 560.427C1390.96 561.387 1390.73 562.347 1390.49 563.337C1389.62 568.083 1389.44 570.164 1392.19 574.27C1393.16 575.46 1394.14 576.641 1395.12 577.812C1396.09 578.985 1397.05 580.158 1398.01 581.332C1398.48 581.888 1398.95 582.443 1399.44 583.016C1401 585 1401 585 1402.19 587.073C1404.17 590.348 1405.68 592.6 1409.44 593.74C1412.54 594.028 1415.54 594.055 1418.65 594C1420.43 594.016 1420.43 594.016 1422.23 594.033C1425.51 594.055 1428.77 594.042 1432.04 594.013C1435.57 593.991 1439.1 594.015 1442.63 594.033C1448.75 594.058 1454.86 594.055 1460.97 594.031C1469.81 593.997 1478.65 594.007 1487.48 594.027C1501.82 594.06 1516.16 594.056 1530.5 594.031C1544.43 594.006 1558.35 593.998 1572.28 594.012C1573.14 594.013 1574 594.014 1574.88 594.015C1579.19 594.019 1583.5 594.024 1587.81 594.029C1623.54 594.071 1659.27 594.054 1695 594C1694.69 595.75 1694.37 597.499 1694.05 599.248C1693.88 600.222 1693.7 601.196 1693.52 602.2C1692.86 605.769 1692.06 609.282 1691.22 612.815C1691.05 613.519 1690.89 614.223 1690.71 614.949C1690.17 617.25 1689.62 619.551 1689.07 621.852C1688.68 623.496 1688.29 625.14 1687.9 626.785C1686.86 631.162 1685.82 635.538 1684.77 639.913C1684.12 642.636 1683.47 645.358 1682.83 648.081C1677.28 671.369 1671.68 694.641 1665.96 717.884C1662.89 730.326 1659.88 742.78 1656.94 755.25C1656.75 756.024 1656.57 756.798 1656.38 757.595C1655.87 759.777 1655.35 761.959 1654.84 764.141C1654.68 764.813 1654.52 765.485 1654.36 766.178C1653.6 769.411 1652.85 772.648 1652.13 775.889C1651.86 777.075 1651.59 778.262 1651.32 779.484C1651.08 780.528 1650.85 781.572 1650.62 782.647C1650 785 1650 785 1649 786C1647.05 786.112 1645.09 786.153 1643.13 786.168C1641.85 786.18 1640.56 786.191 1639.24 786.204C1637.8 786.212 1636.36 786.22 1634.91 786.228C1633.4 786.24 1631.88 786.252 1630.36 786.265C1626.16 786.298 1621.97 786.325 1617.78 786.351C1614.19 786.373 1610.59 786.4 1607 786.426C1572.94 786.672 1538.88 786.804 1504.81 786.911C1500.38 786.925 1495.94 786.94 1491.5 786.954C1489.85 786.96 1489.85 786.96 1488.16 786.965C1470.31 787.026 1452.46 787.146 1434.6 787.289C1416.28 787.434 1397.96 787.519 1379.63 787.546C1369.34 787.563 1359.05 787.608 1348.76 787.722C1339.99 787.82 1331.23 787.863 1322.46 787.836C1317.99 787.823 1313.52 787.837 1309.05 787.921C1280.81 788.424 1280.81 788.424 1274.33 782.532C1271.57 779.286 1269.65 775.868 1267.94 771.974C1266.47 768.883 1264.42 766.455 1262.25 763.812C1261.81 763.237 1261.36 762.662 1260.91 762.07C1260.54 761.599 1260.18 761.129 1259.8 760.645C1254.21 753.382 1248.67 746.072 1243.11 738.776C1241.02 736.03 1238.93 733.286 1236.84 730.543C1230.82 722.656 1224.81 714.764 1218.87 706.812C1214.07 700.382 1209.16 694.044 1204.22 687.721C1199.83 682.101 1195.51 676.443 1191.29 670.696C1188.95 667.528 1186.58 664.474 1183.96 661.535C1183.48 660.979 1183 660.424 1182.51 659.851C1181.22 658.363 1179.9 656.907 1178.57 655.453C1174.51 646.518 1180.89 631.709 1183.18 622.324C1183.6 620.609 1184.01 618.893 1184.43 617.178C1185.31 613.554 1186.19 609.932 1187.07 606.309C1189.14 597.807 1191.2 589.301 1193.25 580.796C1193.71 578.921 1194.16 577.047 1194.61 575.173C1198.14 560.609 1201.61 546.034 1205 531.438C1208.43 516.696 1211.9 501.966 1215.44 487.25C1215.68 486.251 1215.92 485.251 1216.16 484.222C1219 472.406 1221.86 460.593 1224.71 448.782C1226.95 439.501 1229.2 430.219 1231.44 420.938C1231.65 420.066 1231.86 419.194 1232.07 418.296C1239.38 388.055 1246.55 357.786 1253.68 327.503C1260.02 300.546 1266.46 273.621 1273.1 246.735C1278.7 224.02 1284.01 201.234 1289.36 178.459C1294.94 154.701 1300.58 130.959 1306.3 107.232C1308.6 97.663 1310.9 88.0931 1313.2 78.523C1314.49 73.1566 1315.78 67.7903 1317.07 62.424C1318.13 57.9863 1319.2 53.5486 1320.26 49.1107C1321.28 44.897 1322.29 40.6835 1323.3 36.4701C1323.68 34.9135 1324.05 33.3569 1324.42 31.8003C1324.95 29.625 1325.47 27.4499 1325.99 25.2749C1326.43 23.4493 1326.43 23.4493 1326.88 21.5868C1328.56 14.7177 1330.28 7.86029 1332 1Z" fill="#FF0000"/>
<path d="M462 240C525.36 240 588.72 240 654 240C652.875 249 652.875 249 651.975 252.796C651.773 253.657 651.571 254.519 651.363 255.406C651.144 256.321 650.925 257.237 650.699 258.18C650.467 259.164 650.235 260.147 649.996 261.161C649.231 264.4 648.459 267.638 647.688 270.875C647.144 273.167 646.601 275.46 646.058 277.753C644.379 284.837 642.691 291.919 641 299C640.615 300.614 640.615 300.614 640.222 302.261C635.756 320.959 631.259 339.649 626.746 358.335C625.455 363.682 624.165 369.028 622.875 374.375C622.614 375.457 622.353 376.539 622.084 377.654C616.75 399.775 611.517 421.919 606.284 444.064C601.692 463.496 597.087 482.924 592.312 502.312C588.374 518.309 584.519 534.325 580.707 550.352C579.915 553.683 579.12 557.013 578.325 560.343C575.141 573.679 571.985 587.02 568.913 600.382C567.734 605.514 566.542 610.642 565.348 615.771C564.373 619.96 563.415 624.153 562.468 628.349C561.74 631.551 560.989 634.748 560.242 637.945C559.86 639.674 559.86 639.674 559.47 641.437C558.069 647.33 556.996 651.157 552 655C550.594 656.241 550.594 656.241 549.16 657.508C548.13 658.383 547.098 659.256 546.062 660.125C545.223 660.833 545.223 660.833 544.366 661.556C539.685 665.479 534.903 669.264 530.088 673.019C525.661 676.471 521.301 679.997 516.965 683.562C508.398 690.606 499.809 697.618 491.062 704.438C485.057 709.121 479.182 713.951 473.317 718.808C468.926 722.437 464.495 726.002 460 729.5C453.922 734.231 447.973 739.109 442.037 744.017C437.608 747.68 433.152 751.303 428.652 754.879C425.085 757.732 421.543 760.617 418 763.5C406.462 772.887 406.462 772.887 402.426 776.019C399.99 777.94 399.99 777.94 397.924 780.076C390.577 787.031 383.572 787.116 373.992 786.962C372.374 786.966 370.757 786.973 369.14 786.983C364.715 787.001 360.292 786.969 355.868 786.929C351.089 786.894 346.311 786.906 341.533 786.912C333.26 786.916 324.988 786.891 316.716 786.846C304.756 786.781 292.797 786.76 280.836 786.75C261.431 786.732 242.025 786.679 222.62 786.604C203.772 786.53 184.924 786.473 166.077 786.439C164.914 786.437 163.752 786.435 162.555 786.433C156.723 786.423 150.892 786.413 145.061 786.403C96.7073 786.32 48.3537 786.179 0 786C0.151224 784.404 0.30483 782.808 0.459442 781.213C0.58737 779.88 0.587384 779.88 0.717896 778.52C1.06188 775.447 1.67057 772.507 2.40088 769.503C2.68779 768.309 2.97472 767.114 3.27032 765.884C3.58899 764.587 3.90773 763.289 4.22656 761.992C4.56647 760.587 4.90577 759.182 5.24448 757.777C5.97784 754.74 6.71529 751.704 7.45602 748.669C8.64381 743.802 9.82285 738.932 11.0002 734.062C12.2733 728.798 13.5467 723.534 14.8228 718.271C18.3117 703.877 21.7649 689.475 25.207 675.07C25.7309 672.879 26.2547 670.687 26.7786 668.496C28.8431 659.859 30.9071 651.222 32.9693 642.584C34.1859 637.489 35.4042 632.395 36.6237 627.3C37.0736 625.42 37.5228 623.539 37.9714 621.658C38.5905 619.062 39.2119 616.467 39.8337 613.871C40.0098 613.131 40.1858 612.39 40.3672 611.627C41.3655 607.472 42.4402 603.343 43.5695 599.221C43.8379 598.24 44.1063 597.26 44.3829 596.249C44.5865 595.507 44.7902 594.765 45 594C45.6508 594.001 46.3016 594.001 46.9721 594.002C85.5434 594.033 124.115 594.028 162.686 593.975C167.317 593.969 171.948 593.963 176.58 593.957C177.502 593.956 178.424 593.955 179.374 593.954C194.303 593.936 209.232 593.942 224.161 593.958C239.479 593.974 254.798 593.963 270.116 593.928C279.569 593.907 289.021 593.906 298.473 593.932C304.955 593.948 311.437 593.938 317.918 593.908C321.658 593.892 325.397 593.887 329.137 593.912C333.195 593.939 337.25 593.912 341.307 593.88C342.486 593.896 343.665 593.913 344.88 593.93C350.604 593.838 354.164 593.459 358.568 589.625C359.723 588.427 360.868 587.219 362 586C363.182 585.019 364.379 584.055 365.598 583.121C366.172 582.674 366.746 582.228 367.338 581.768C368.192 581.109 368.192 581.109 369.062 580.438C370.768 579.12 372.469 577.799 374.154 576.455C375.344 575.517 376.552 574.599 377.778 573.708C382.692 569.928 384.328 566.76 385.604 560.776C385.8 559.965 385.995 559.155 386.196 558.32C386.838 555.628 387.442 552.928 388.047 550.227C388.498 548.301 388.952 546.376 389.408 544.452C390.631 539.263 391.821 534.067 393.007 528.869C394.254 523.428 395.531 517.993 396.806 512.558C398.887 503.673 400.953 494.785 403.008 485.895C405.733 474.117 408.507 462.353 411.309 450.594C411.516 449.723 411.723 448.852 411.937 447.955C412.756 444.519 413.575 441.082 414.395 437.646C415.786 431.813 417.173 425.978 418.556 420.142C418.748 419.336 418.939 418.529 419.136 417.698C419.516 416.095 419.896 414.492 420.276 412.89C424.16 396.507 428.078 380.133 432.016 363.763C436.085 346.85 440.112 329.927 444.125 313C444.717 310.502 445.31 308.005 445.902 305.507C448.383 295.046 450.862 284.585 453.335 274.122C454.275 270.147 455.217 266.172 456.159 262.198C456.591 260.373 457.022 258.548 457.452 256.722C458.035 254.251 458.621 251.78 459.207 249.309C459.461 248.227 459.461 248.227 459.719 247.124C460.886 242.228 460.886 242.228 462 240Z" fill="#FF0000"/>
<path d="M519 1C582.36 1 645.72 1 711 1C707.443 4.5567 703.9 7.90142 700.062 11.125C699.498 11.6009 698.934 12.0768 698.353 12.5671C693.816 16.3688 689.18 20.0321 684.51 23.667C679.085 27.901 673.776 32.2692 668.473 36.6541C658.611 44.8088 648.68 52.8794 638.672 60.8555C635.877 63.0986 633.098 65.3605 630.321 67.6248C624.608 72.2816 618.876 76.9063 613.062 81.4375C607.057 86.1207 601.181 90.9508 595.317 95.8083C590.926 99.4369 586.495 103.002 582 106.5C575.922 111.231 569.973 116.109 564.037 121.017C559.608 124.68 555.152 128.303 550.652 131.879C547.085 134.732 543.543 137.617 540 140.5C534.914 144.638 529.814 148.756 524.688 152.844C521.112 155.713 517.556 158.607 514 161.5C508.922 165.632 503.831 169.744 498.711 173.824C494.298 177.366 489.915 180.944 485.531 184.521C476.352 192 476.352 192 474 192C474.6 186.576 475.506 181.347 476.8 176.043C476.981 175.284 477.163 174.525 477.35 173.743C477.953 171.224 478.562 168.706 479.172 166.188C479.607 164.375 480.042 162.563 480.476 160.751C481.651 155.852 482.832 150.954 484.013 146.057C485.247 140.937 486.476 135.816 487.706 130.696C489.237 124.32 490.768 117.945 492.301 111.57C495.917 96.5285 499.514 81.4826 503.098 66.4336C503.587 64.3799 504.076 62.3263 504.565 60.2726C506.446 52.3786 508.326 44.4846 510.204 36.5901C511.293 32.0108 512.384 27.4318 513.476 22.853C513.876 21.1734 514.276 19.4936 514.675 17.8137C515.218 15.5284 515.763 13.2435 516.308 10.9587C516.612 9.67958 516.917 8.40042 517.231 7.0825C518 4 518 4 519 1Z" fill="#FF0000"/>
<path d="M910 826C919.38 825.907 928.759 825.836 938.14 825.793C942.496 825.772 946.852 825.744 951.208 825.698C955.416 825.654 959.623 825.631 963.832 825.62C965.433 825.613 967.034 825.599 968.635 825.577C978.169 825.453 985.627 825.375 993.242 831.93C993.781 832.571 994.32 833.213 994.875 833.875C995.429 834.512 995.984 835.148 996.555 835.805C1001.74 843.675 1001.29 855.145 999.597 864.137C996.458 876.655 990.425 886.339 981 895C980.34 895.66 979.68 896.32 979 897C979.619 897.66 980.238 898.32 980.875 899C985.521 905.558 985.428 912.19 984.37 919.888C982.867 928.463 980.249 936.867 977.938 945.25C977.363 947.363 976.789 949.476 976.217 951.59C974.824 956.73 973.412 961.864 972 967C963.75 967 955.5 967 947 967C948.402 959.992 949.853 953.027 951.438 946.062C951.765 944.613 951.765 944.613 952.098 943.134C953.207 938.272 954.39 933.469 955.812 928.687C957.037 924.278 958.289 919.494 957 915C954.991 912.368 953.359 910.331 950.041 909.522C947.676 909.326 945.354 909.282 942.98 909.293C942.122 909.278 941.263 909.263 940.379 909.247C937.648 909.204 934.918 909.195 932.188 909.187C930.331 909.164 928.475 909.139 926.619 909.111C922.079 909.048 917.54 909.016 913 909C912.906 909.611 912.813 910.223 912.716 910.852C911.306 919.336 909.007 927.503 906.625 935.75C905.844 938.473 905.066 941.197 904.289 943.922C904.099 944.585 903.909 945.248 903.714 945.932C901.719 952.931 899.857 959.963 898 967C889.75 967 881.5 967 873 967C873.708 960.63 874.6 955.132 876.371 949.086C876.609 948.25 876.846 947.415 877.091 946.554C877.602 944.761 878.115 942.968 878.632 941.175C880.018 936.357 881.379 931.533 882.738 926.707C883.015 925.724 883.292 924.74 883.578 923.727C886.246 914.21 888.708 904.646 891.125 895.062C894.389 882.143 897.792 869.272 901.375 856.437C901.58 855.701 901.786 854.965 901.998 854.207C904.629 844.794 907.313 835.397 910 826ZM929 850C926.684 856.729 924.679 863.508 922.812 870.375C922.54 871.358 922.267 872.342 921.986 873.355C921.729 874.298 921.472 875.24 921.207 876.211C920.975 877.059 920.742 877.908 920.503 878.783C919.889 881.108 919.889 881.108 920 884C925.141 884.074 930.282 884.129 935.424 884.165C937.17 884.18 938.917 884.2 940.664 884.226C943.184 884.263 945.703 884.28 948.223 884.293C948.996 884.308 949.769 884.324 950.566 884.34C957.074 884.342 961.707 882.98 966.75 878.625C971.689 872.863 974.407 867.03 973.875 859.312C973.429 856.161 973.072 855.093 971.062 852.5C966.969 849.523 963.39 849.871 958.492 849.902C957.652 849.904 956.811 849.905 955.945 849.906C953.255 849.912 950.565 849.925 947.875 849.937C946.053 849.942 944.232 849.947 942.41 849.951C937.94 849.962 933.47 849.979 929 850Z" fill="#FF0000"/>
<path d="M574 826C607 826 640 826 674 826C672 834 670 842 668 850C665.058 851.471 662.448 851.119 659.164 851.114C658.461 851.114 657.759 851.114 657.035 851.114C654.708 851.113 652.381 851.105 650.055 851.098C648.443 851.096 646.832 851.094 645.221 851.093C640.976 851.09 636.731 851.08 632.486 851.069C628.156 851.058 623.826 851.054 619.496 851.049C610.997 851.038 602.499 851.021 594 851C592.893 854.603 591.79 858.208 590.688 861.812C590.379 862.817 590.07 863.822 589.752 864.857C589.446 865.86 589.14 866.862 588.824 867.895C588.408 869.253 588.408 869.253 587.983 870.64C586.588 875.407 585.307 880.208 584 885C603.14 885 622.28 885 642 885C638 903 638 903 636 909C616.53 909 597.06 909 577 909C576.67 911.64 576.34 914.28 576 917C573.69 925.58 571.38 934.16 569 943C593.09 943 617.18 943 642 943C639.673 954.638 639.673 954.638 638.438 960.062C638.189 961.167 637.94 962.272 637.684 963.41C637 966 637 966 636 967C632.956 967.095 629.935 967.126 626.89 967.114C625.934 967.114 624.979 967.114 623.994 967.114C620.817 967.113 617.641 967.105 614.465 967.098C612.269 967.096 610.073 967.094 607.878 967.093C602.086 967.09 596.294 967.08 590.502 967.069C584.597 967.058 578.692 967.054 572.787 967.049C561.192 967.038 549.596 967.021 538 967C537.911 962.847 537.987 959.171 539.098 955.164C539.339 954.278 539.58 953.392 539.828 952.479C540.094 951.537 540.359 950.595 540.633 949.625C540.907 948.624 541.182 947.623 541.464 946.592C542.343 943.392 543.234 940.196 544.125 937C544.989 933.875 545.849 930.75 546.71 927.625C547.287 925.529 547.865 923.433 548.444 921.338C550.349 914.431 552.187 907.51 553.981 900.574C557.247 887.949 560.714 875.381 564.188 862.812C565.412 858.382 566.634 853.951 567.856 849.52C568.128 848.538 568.399 847.557 568.68 846.545C570.561 839.717 572.281 832.876 574 826Z" fill="#FF0000"/>
<path d="M1032.41 825.875C1033.33 825.879 1034.25 825.883 1035.2 825.886C1036.65 825.886 1036.65 825.886 1038.13 825.886C1041.34 825.887 1044.55 825.894 1047.75 825.902C1049.97 825.904 1052.19 825.905 1054.41 825.906C1060.26 825.91 1066.11 825.92 1071.96 825.931C1077.93 825.941 1083.89 825.946 1089.86 825.951C1101.57 825.962 1113.29 825.979 1125 826C1122.07 837.719 1122.07 837.719 1121.53 839.844C1121.17 841.319 1120.82 842.798 1120.49 844.281C1120.05 846.202 1119.53 848.103 1119 850C1116.06 851.471 1113.45 851.119 1110.16 851.113C1109.46 851.114 1108.76 851.114 1108.03 851.114C1105.71 851.113 1103.38 851.105 1101.05 851.098C1099.44 851.096 1097.83 851.094 1096.22 851.093C1091.98 851.089 1087.73 851.08 1083.49 851.069C1079.16 851.058 1074.83 851.054 1070.5 851.049C1062 851.038 1053.5 851.021 1045 851C1044.08 853.853 1043.16 856.707 1042.25 859.562C1041.87 860.733 1041.87 860.733 1041.48 861.928C1039.05 869.573 1037.08 877.213 1035 885C1049.19 884.67 1063.38 884.34 1078 884C1076.32 892.403 1074.21 900.719 1072 909C1057.48 909 1042.96 909 1028 909C1027.67 911.64 1027.34 914.28 1027 917C1024.69 925.58 1022.38 934.16 1020 943C1044.09 943 1068.18 943 1093 943C1091.87 950.889 1091.87 950.889 1091.06 954.148C1090.89 954.843 1090.72 955.538 1090.54 956.254C1090.27 957.304 1090.27 957.304 1090 958.375C1089.82 959.098 1089.64 959.821 1089.46 960.566C1088.13 965.873 1088.13 965.873 1087 967C1083.93 967.095 1080.87 967.125 1077.8 967.113C1076.35 967.114 1076.35 967.114 1074.87 967.114C1071.66 967.113 1068.45 967.105 1065.25 967.098C1063.03 967.096 1060.81 967.094 1058.59 967.093C1052.74 967.089 1046.89 967.08 1041.04 967.069C1035.07 967.058 1029.11 967.054 1023.14 967.049C1011.43 967.038 999.714 967.021 988 967C990.071 956.859 992.135 946.767 995.031 936.824C995.304 935.866 995.576 934.908 995.857 933.92C996.436 931.888 997.016 929.856 997.6 927.825C999.167 922.362 1000.71 916.892 1002.25 911.422C1002.57 910.307 1002.88 909.192 1003.21 908.043C1006.43 896.546 1009.45 884.999 1012.44 873.437C1018.79 848.876 1018.79 848.876 1022.19 836.687C1022.47 835.679 1022.75 834.671 1023.03 833.632C1023.29 832.747 1023.54 831.861 1023.79 830.949C1024.11 829.825 1024.11 829.825 1024.43 828.678C1025.76 824.757 1028.76 825.881 1032.41 825.875Z" fill="#FF0000"/>
<path d="M1163.77 825.886C1164.45 825.886 1165.13 825.886 1165.84 825.886C1168.09 825.887 1170.35 825.894 1172.61 825.902C1174.17 825.904 1175.74 825.906 1177.3 825.907C1181.42 825.91 1185.54 825.92 1189.66 825.931C1193.86 825.942 1198.06 825.946 1202.26 825.951C1210.51 825.962 1218.75 825.979 1227 826C1226.49 829.889 1225.94 833.645 1224.81 837.402C1224.48 838.519 1224.48 838.519 1224.13 839.658C1223.9 840.41 1223.67 841.162 1223.44 841.937C1223.2 842.717 1222.97 843.496 1222.73 844.299C1222.16 846.201 1221.58 848.1 1221 850C1220.28 850.004 1219.56 850.007 1218.81 850.011C1211.99 850.049 1205.16 850.106 1198.34 850.184C1194.83 850.223 1191.32 850.255 1187.81 850.271C1183.77 850.289 1179.73 850.339 1175.69 850.391C1173.81 850.392 1173.81 850.392 1171.9 850.394C1163.7 850.531 1157.85 851.355 1151.69 857.187C1148.18 863.036 1146.21 869.132 1147 876C1148.23 878.769 1149.15 880.438 1151.69 882.117C1154.79 883.3 1157.47 883.275 1160.79 883.309C1162.13 883.334 1163.48 883.359 1164.83 883.385C1166.94 883.413 1169.04 883.437 1171.15 883.456C1193.68 883.699 1193.68 883.699 1201.57 891.324C1207.69 898.486 1208.63 905.879 1208 915C1206.28 929.047 1200.42 943.177 1190 953C1189.31 953.684 1188.62 954.369 1187.91 955.074C1179.85 962.73 1171.56 967.134 1160.4 967.113C1159.41 967.114 1159.41 967.114 1158.41 967.114C1156.26 967.113 1154.11 967.105 1151.95 967.098C1150.46 967.096 1148.96 967.094 1147.46 967.093C1143.53 967.09 1139.6 967.08 1135.67 967.069C1131.65 967.058 1127.64 967.054 1123.62 967.049C1115.75 967.038 1107.87 967.021 1100 967C1100.57 961.201 1101.74 956.023 1103.56 950.5C1103.8 949.773 1104.03 949.046 1104.27 948.297C1104.84 946.529 1105.42 944.764 1106 943C1107.06 942.994 1107.06 942.994 1108.15 942.989C1114.86 942.951 1121.56 942.894 1128.27 942.816C1131.72 942.777 1135.17 942.744 1138.62 942.729C1142.59 942.711 1146.56 942.661 1150.53 942.609C1151.76 942.608 1152.99 942.607 1154.25 942.606C1162.82 942.46 1168.49 941.432 1174.81 935.25C1178.75 929.395 1180.29 924.205 1180.59 917.176C1179.66 913.741 1177.7 912.245 1175 910C1171.73 909.274 1171.73 909.274 1168.15 909.398C1167.5 909.39 1166.85 909.382 1166.17 909.374C1164.1 909.351 1162.02 909.36 1159.94 909.375C1134.09 909.424 1134.09 909.424 1125.62 901.008C1120.42 894.566 1118.74 887.179 1119 879C1120.58 866.195 1124.37 853.522 1132 843C1132.66 843 1133.32 843 1134 843C1134.23 842.422 1134.47 841.845 1134.71 841.25C1140.21 831.658 1153.22 825.867 1163.77 825.886Z" fill="#FF0000"/>
<path d="M1265.02 825.773C1266.03 825.772 1266.03 825.772 1267.06 825.772C1269.26 825.773 1271.47 825.789 1273.68 825.805C1275.22 825.808 1276.76 825.811 1278.29 825.813C1282.33 825.821 1286.36 825.84 1290.4 825.863C1294.52 825.883 1298.64 825.892 1302.77 825.902C1310.84 825.924 1318.92 825.958 1327 826C1326.86 827.419 1326.71 828.837 1326.56 830.256C1326.48 831.046 1326.39 831.836 1326.31 832.65C1325.86 836.065 1324.98 839.194 1324 842.5C1323.65 843.706 1323.3 844.913 1322.94 846.156C1322 849 1322 849 1321 850C1319.19 850.108 1317.38 850.146 1315.57 850.158C1314.4 850.168 1313.24 850.178 1312.05 850.189C1310.78 850.196 1309.51 850.203 1308.21 850.211C1306.23 850.232 1304.25 850.253 1302.28 850.275C1297.39 850.328 1292.5 850.372 1287.61 850.401C1284.87 850.418 1282.13 850.443 1279.39 850.476C1276.81 850.507 1274.23 850.527 1271.65 850.533C1269.88 850.558 1269.88 850.558 1268.08 850.583C1267.05 850.591 1266.02 850.6 1264.95 850.608C1261.47 851.07 1259.06 852.308 1256 854C1255.26 854.289 1254.51 854.577 1253.75 854.875C1251.24 856.491 1250.9 858.185 1250 861C1249.63 861.866 1249.26 862.732 1248.88 863.625C1247.5 868.928 1246.46 875.374 1249.33 880.273C1251.75 882.776 1253.68 882.984 1257.1 883.158C1258.36 883.175 1259.61 883.193 1260.91 883.211C1262.3 883.239 1263.7 883.268 1265.1 883.297C1267.29 883.338 1269.48 883.375 1271.66 883.401C1292.9 883.682 1292.9 883.682 1299.94 889.375C1300.62 890.241 1301.3 891.107 1302 892C1303.08 893.176 1303.08 893.176 1304.19 894.375C1309.15 901.559 1309 910.569 1307.7 918.962C1304.49 935.823 1296.94 950.204 1282.77 960.305C1275.63 964.58 1269.49 967.258 1261.08 967.227C1260.08 967.227 1260.08 967.227 1259.06 967.228C1256.89 967.226 1254.71 967.211 1252.54 967.195C1251.02 967.191 1249.51 967.189 1247.99 967.187C1244.02 967.179 1240.04 967.159 1236.07 967.137C1232 967.117 1227.94 967.108 1223.88 967.098C1215.92 967.076 1207.96 967.042 1200 967C1204.04 950.107 1204.04 950.107 1207 943C1208.06 942.998 1208.06 942.998 1209.15 942.996C1215.86 942.978 1222.56 942.936 1229.27 942.868C1232.72 942.834 1236.17 942.808 1239.62 942.804C1243.59 942.799 1247.56 942.754 1251.53 942.707C1253.37 942.713 1253.37 942.713 1255.25 942.719C1263.77 942.575 1268.9 940.966 1275.02 935.043C1279.25 929.238 1281.23 924.551 1280.75 917.187C1280.17 913.869 1280.17 913.869 1278 911C1274.6 909.868 1271.93 909.841 1268.35 909.789C1267 909.761 1265.65 909.732 1264.3 909.703C1262.2 909.662 1260.09 909.625 1257.99 909.599C1235.93 909.295 1235.93 909.295 1228.56 903.875C1221.56 896.013 1219.68 888.823 1219.79 878.5C1220.57 865.703 1225.36 851.581 1234 842C1234.6 841.323 1235.19 840.646 1235.81 839.949C1243.79 831.421 1253.13 825.729 1265.02 825.773Z" fill="#FF0000"/>
<path d="M798 826C807.232 825.907 816.464 825.836 825.697 825.793C829.984 825.772 834.272 825.744 838.559 825.698C842.703 825.655 846.846 825.631 850.989 825.621C852.564 825.613 854.139 825.599 855.714 825.577C865.288 825.45 873.569 825.535 881.305 831.895C882.082 832.844 882.082 832.844 882.875 833.813C883.409 834.438 883.942 835.063 884.492 835.707C889.993 844.072 890.483 853.516 888.577 863.136C887.391 867.893 885.771 872.432 884 877C883.476 878.388 883.476 878.388 882.941 879.805C878.082 890.948 867.224 902.264 855.875 906.813C849.221 909.169 842.537 909.135 835.57 909.098C834.085 909.096 834.085 909.096 832.569 909.093C829.421 909.088 826.273 909.075 823.125 909.063C820.984 909.058 818.844 909.053 816.703 909.049C811.469 909.038 806.234 909.021 801 909C800.827 910.429 800.827 910.429 800.65 911.887C799.972 916.613 798.789 921.189 797.602 925.809C797.366 926.734 797.13 927.66 796.888 928.613C796.39 930.563 795.891 932.512 795.39 934.46C794.629 937.423 793.876 940.388 793.125 943.354C792.639 945.255 792.152 947.157 791.664 949.059C791.442 949.936 791.22 950.813 790.991 951.717C790.666 952.974 790.666 952.974 790.334 954.256C790.149 954.981 789.963 955.706 789.772 956.453C788.689 960.026 787.311 963.504 786 967C777.75 967 769.5 967 761 967C762.328 960.362 763.759 954.068 765.688 947.625C768.04 939.586 770.143 931.512 772.125 923.375C775.096 911.237 778.418 899.213 781.812 887.188C787.546 866.874 792.834 846.464 798 826ZM817 850C815.854 854.198 814.715 858.397 813.582 862.598C813.196 864.026 812.808 865.454 812.418 866.881C811.857 868.935 811.303 870.991 810.75 873.047C810.415 874.283 810.08 875.519 809.734 876.792C808.851 880.101 808.851 880.101 809 884C814.284 884.099 819.567 884.172 824.851 884.22C826.646 884.24 828.441 884.267 830.237 884.302C832.826 884.351 835.414 884.373 838.004 884.391C838.799 884.411 839.594 884.432 840.413 884.453C847.409 884.456 851.563 882.324 856.688 877.438C860.72 872.159 862.956 865.722 863.062 859.125C861.764 855.305 860.117 853.524 857 851C853.178 849.726 849.593 849.876 845.613 849.902C844.796 849.904 843.979 849.905 843.137 849.907C840.529 849.912 837.921 849.925 835.312 849.938C833.544 849.943 831.775 849.947 830.006 849.951C825.671 849.962 821.335 849.979 817 850Z" fill="#FF0000"/>
<path d="M1338 826C1345.22 825.669 1352.44 825.442 1359.67 825.286C1362.12 825.221 1364.58 825.132 1367.03 825.019C1388.53 824.055 1388.53 824.055 1393.69 828.666C1396.41 831.814 1398.18 835.276 1400 839C1401.01 840.462 1402.04 841.907 1403.11 843.32C1403.99 844.587 1404.87 845.855 1405.75 847.125C1410.76 854.298 1415.92 861.351 1421.12 868.381C1424.67 873.177 1428.16 878.004 1431.54 882.922C1433.56 885.799 1435.74 888.559 1437.93 891.309C1439 893 1439 893 1439 896C1437.71 897.438 1437.71 897.438 1435.81 899C1435.09 899.608 1434.36 900.217 1433.61 900.844C1432.75 901.555 1431.89 902.267 1431 903C1429.4 904.351 1427.79 905.708 1426.19 907.064C1425.06 908.029 1423.92 908.993 1422.78 909.956C1419.25 912.934 1415.75 915.941 1412.29 918.992C1409.04 921.843 1405.77 924.67 1402.5 927.5C1398.64 930.845 1394.78 934.189 1390.94 937.563C1386.71 941.275 1382.42 944.927 1378.15 948.587C1374.96 951.315 1371.78 954.05 1368.62 956.813C1368.06 957.299 1367.49 957.785 1366.9 958.286C1364.98 959.961 1364.98 959.961 1363.33 961.819C1359.53 965.739 1356.74 967.463 1351.23 967.795C1349.03 967.794 1346.82 967.755 1344.62 967.684C1343.46 967.674 1342.29 967.664 1341.09 967.654C1337.4 967.615 1333.7 967.527 1330 967.438C1327.48 967.402 1324.97 967.37 1322.45 967.342C1316.3 967.265 1310.15 967.148 1304 967C1304 966.34 1304 965.68 1304 965C1305.77 963.441 1305.77 963.441 1308.25 961.563C1312.32 958.396 1316.17 955.079 1319.94 951.563C1324.54 947.272 1329.31 943.263 1334.21 939.316C1337.26 936.784 1340.16 934.136 1343.06 931.438C1346.58 928.163 1350.15 925.02 1353.94 922.063C1358.59 918.427 1362.86 914.474 1367.16 910.44C1371.24 906.642 1375.46 903.116 1379.88 899.719C1382.07 897.94 1384.04 896.03 1386 894C1385.64 893.519 1385.29 893.037 1384.92 892.542C1376.76 881.498 1368.65 870.411 1360.63 859.265C1358.38 856.139 1356.13 853.016 1353.87 849.893C1352.76 848.36 1351.66 846.827 1350.55 845.293C1348.19 842.014 1345.82 838.741 1343.41 835.496C1342.67 834.507 1341.94 833.519 1341.19 832.5C1340.56 831.665 1339.94 830.829 1339.29 829.969C1338 828 1338 828 1338 826Z" fill="#FF0000"/>
<path d="M1430 826C1437.18 825.591 1444.36 825.313 1451.56 825.121C1454 825.041 1456.44 824.932 1458.88 824.793C1478.56 823.699 1478.56 823.699 1484.25 827.504C1487.98 831.147 1490.52 835.313 1492.88 839.926C1494.69 843.281 1496.98 846.263 1499.25 849.312C1500.07 850.468 1500.9 851.625 1501.71 852.785C1504.36 856.504 1507.04 860.193 1509.73 863.879C1511.55 866.383 1513.37 868.891 1515.18 871.402C1515.74 872.19 1516.31 872.978 1516.9 873.79C1518.02 875.345 1519.14 876.9 1520.26 878.456C1520.78 879.186 1521.31 879.916 1521.85 880.668C1522.37 881.385 1522.88 882.102 1523.42 882.841C1524.5 884.319 1525.61 885.779 1526.73 887.225C1527.28 887.931 1527.83 888.636 1528.4 889.363C1528.9 889.991 1529.4 890.62 1529.91 891.267C1531 893 1531 893 1531 896C1529.64 897.508 1529.64 897.508 1527.69 899.125C1526.95 899.741 1526.22 900.357 1525.46 900.992C1523.79 902.354 1522.12 903.714 1520.44 905.07C1514.95 909.52 1509.66 914.095 1504.49 918.909C1500.35 922.736 1496.03 926.294 1491.64 929.832C1488.24 932.628 1484.99 935.579 1481.74 938.543C1477.32 942.511 1472.78 946.349 1468.27 950.207C1465.71 952.394 1463.16 954.594 1460.62 956.812C1460.06 957.299 1459.49 957.785 1458.9 958.286C1456.98 959.961 1456.98 959.961 1455.33 961.818C1451.53 965.739 1448.74 967.463 1443.23 967.795C1441.03 967.794 1438.82 967.755 1436.62 967.684C1435.46 967.674 1434.29 967.664 1433.09 967.654C1429.4 967.615 1425.7 967.527 1422 967.438C1419.48 967.402 1416.97 967.37 1414.45 967.342C1408.3 967.265 1402.15 967.148 1396 967C1401.45 960.399 1401.45 960.399 1404.38 957.938C1405.39 957.069 1405.39 957.069 1406.43 956.184C1407.28 955.463 1408.13 954.742 1409 954C1411.5 951.838 1414 949.668 1416.5 947.5C1417.82 946.354 1419.15 945.208 1420.47 944.062C1422.99 941.882 1425.5 939.696 1428 937.5C1445.57 922.115 1445.57 922.115 1452.75 916.312C1457.46 912.496 1461.95 908.478 1466.41 904.367C1469.42 901.621 1472.51 898.984 1475.64 896.375C1477.23 895.086 1477.23 895.086 1477 893C1475.69 891.235 1474.38 889.476 1473.04 887.738C1470.44 884.249 1468.01 880.659 1465.56 877.062C1462.18 872.107 1458.74 867.274 1455 862.582C1450.38 856.606 1446.04 850.414 1441.64 844.276C1440.08 842.109 1438.51 839.95 1436.94 837.793C1436.02 836.529 1435.1 835.264 1434.19 834C1433.76 833.419 1433.33 832.838 1432.9 832.239C1430 828.226 1430 828.226 1430 826Z" fill="#FF0000"/>
<path d="M1522 826C1529.2 825.617 1536.4 825.356 1543.61 825.176C1546.06 825.101 1548.51 824.999 1550.95 824.868C1570.66 823.845 1570.66 823.845 1576.12 827.367C1579.64 830.778 1581.9 834.762 1584.05 839.131C1585.35 841.689 1587.02 843.872 1588.79 846.129C1594.42 853.753 1600.03 861.393 1605.51 869.127C1608.91 873.916 1612.43 878.607 1615.99 883.281C1616.65 884.178 1617.32 885.076 1618 886C1618.77 887 1619.53 888.001 1620.32 889.031C1622 892 1622 892 1622.09 894.547C1620.61 897.881 1618.34 899.92 1615.62 902.25C1615.09 902.728 1614.55 903.206 1613.99 903.699C1609.67 907.507 1605.2 911.141 1600.71 914.754C1596.93 917.883 1593.35 921.215 1589.74 924.539C1587.1 926.91 1584.39 929.152 1581.62 931.375C1577.4 934.782 1573.4 938.354 1569.44 942.062C1565 946.223 1560.5 950.162 1555.6 953.794C1552.9 955.928 1552.9 955.928 1550.85 958.767C1546.19 964.333 1542.44 967.162 1535.06 967.892C1527.95 968.219 1520.86 967.961 1513.75 967.687C1511.25 967.632 1508.75 967.582 1506.25 967.537C1500.17 967.417 1494.08 967.233 1488 967C1488 966.34 1488 965.68 1488 965C1489.55 963.607 1491.17 962.286 1492.81 961C1496.84 957.783 1500.71 954.5 1504.5 951C1508.06 947.726 1511.67 944.594 1515.44 941.562C1519.97 937.904 1524.26 934.053 1528.52 930.086C1532.61 926.306 1536.88 922.805 1541.21 919.316C1544.79 916.345 1548.17 913.197 1551.57 910.031C1555.51 906.39 1559.6 903.027 1563.84 899.754C1566.05 897.96 1568.03 896.042 1570 894C1569.47 893.296 1568.93 892.592 1568.38 891.867C1564.22 886.357 1560.12 880.815 1556.12 875.187C1552.54 870.138 1548.91 865.119 1545.25 860.125C1544.81 859.531 1544.38 858.937 1543.93 858.325C1541.66 855.239 1539.38 852.168 1537.07 849.109C1533.86 844.828 1530.73 840.489 1527.62 836.125C1527.08 835.367 1526.53 834.609 1525.97 833.828C1525.2 832.741 1525.2 832.741 1524.41 831.633C1523.95 830.982 1523.48 830.331 1523.01 829.661C1522 828 1522 828 1522 826Z" fill="#FF0000"/>
<path d="M683 826C691.58 826 700.16 826 709 826C712.908 838.197 712.908 838.197 714.82 844.188C716.159 848.379 717.507 852.566 718.867 856.75C719.412 858.438 719.956 860.125 720.5 861.813C720.755 862.587 721.01 863.362 721.272 864.16C722.389 867.643 723 870.303 723 874C723.66 874 724.32 874 725 874C725.268 873.423 725.536 872.845 725.812 872.25C727.029 869.945 728.303 867.98 730 866C730.66 866 731.32 866 732 866C732.319 865.219 732.319 865.219 732.645 864.422C734.567 860.987 737.1 858.203 739.688 855.25C740.232 854.622 740.777 853.993 741.338 853.346C744.588 849.6 747.86 845.872 751.137 842.149C754.246 838.564 757.3 834.932 760.358 831.303C763.903 827.097 763.903 827.097 765 826C766.927 825.913 768.857 825.893 770.785 825.903C771.955 825.906 773.125 825.909 774.33 825.912C775.562 825.921 776.793 825.929 778.062 825.938C779.916 825.944 779.916 825.944 781.807 825.951C784.871 825.963 787.936 825.98 791 826C787.314 831.014 783.52 835.867 779.438 840.563C778.928 841.153 778.418 841.744 777.893 842.353C775.153 845.527 772.401 848.689 769.648 851.852C768.536 853.13 767.424 854.409 766.312 855.688C765.766 856.316 765.219 856.945 764.655 857.593C761.455 861.283 758.324 865.017 755.25 868.813C751.68 873.219 747.956 877.45 744.141 881.645C742.116 883.872 740.113 886.115 738.125 888.375C737.591 888.981 737.058 889.587 736.508 890.211C736.01 890.801 735.513 891.392 735 892C734.42 892.638 733.84 893.276 733.242 893.934C731.776 895.915 731.776 895.915 732.188 898.199C732.59 899.431 732.59 899.431 733 900.688C734.264 904.61 735.452 908.546 736.581 912.509C739.767 923.621 743.523 934.52 747.312 945.438C748.28 948.227 749.245 951.016 750.208 953.807C750.8 955.525 751.395 957.242 751.994 958.959C754 964.775 754 964.775 754 967C745.42 967 736.84 967 728 967C726.177 961.935 724.36 956.868 722.556 951.796C721.942 950.076 721.325 948.356 720.705 946.638C714.102 928.324 714.102 928.324 713 919C712.34 919 711.68 919 711 919C710.732 919.578 710.464 920.155 710.188 920.75C708.971 923.056 707.697 925.021 706 927C705.34 927 704.68 927 704 927C703.727 927.59 703.455 928.181 703.174 928.789C702.03 930.944 700.821 932.556 699.215 934.383C698.684 934.993 698.154 935.602 697.607 936.231C697.056 936.856 696.505 937.481 695.938 938.125C694.841 939.376 693.745 940.629 692.652 941.883C692.168 942.434 691.683 942.984 691.183 943.551C689.904 945.01 689.904 945.01 689 947C688.34 947 687.68 947 687 947C686.749 947.571 686.497 948.142 686.238 948.731C684.835 951.302 683.18 953.168 681.188 955.313C678.304 958.335 678.304 958.335 676.092 961.838C674.913 964.063 673.984 965.43 672 967C667.54 967.88 663.211 967.659 658.688 967.438C657.47 967.406 656.252 967.375 654.998 967.342C651.996 967.26 648.999 967.145 646 967C650.097 958.445 657.411 951.487 663.75 944.531C666.079 941.912 668.296 939.225 670.5 936.5C674.11 932.037 677.884 927.773 681.75 923.531C684.86 920.032 687.78 916.39 690.723 912.75C693.752 909.092 696.936 905.588 700.152 902.094C702.139 899.937 702.139 899.937 704 897C703.576 890.558 700.783 884.057 698.688 878C696.272 870.893 693.993 863.775 691.926 856.559C689.851 849.367 687.55 842.25 685.234 835.133C684.944 834.235 684.654 833.336 684.355 832.41C684.094 831.607 683.833 830.804 683.563 829.977C683 828 683 828 683 826Z" fill="#FF0000"/>
</g>
<defs>
<clipPath id="clip0_1914_106">
<rect width="1695" height="969" fill="white"/>
</clipPath>
</defs>
</svg>
