<svg width="794" height="431" viewBox="0 0 794 431" fill="none" xmlns="http://www.w3.org/2000/svg">
<g clip-path="url(#clip0_1918_123)">
<path fill-rule="evenodd" clip-rule="evenodd" d="M243.326 153.653H338.721L372.019 103.877H458.57C470.476 103.877 559.521 82.7493 557.216 27.8328C556.006 -1.45854 532.8 0.0532747 532.8 0.0532747H441.487H346.092L318.312 41.5525H443.83C449.915 41.5525 454.904 43.7068 454.904 49.7919C454.904 60.4879 427.2 63.7005 418.696 63.7005H303.496L243.326 153.653Z" fill="#CBB778"/>
<path fill-rule="evenodd" clip-rule="evenodd" d="M0 153.653H95.3953L130.772 103.877L152.126 153.653H249.524L226.167 99.7572C280.328 89.5147 324.359 56.973 324.359 27.8328C324.359 -1.45854 295.899 0.0532747 295.899 0.0532747H204.586H109.191L0 153.653ZM159.269 63.7761L175.068 41.5525H220.913C220.913 41.5525 235.88 40.91 235.578 46.0879C235.276 51.2281 207.269 62.1509 207.269 62.1509C207.269 62.1509 173.367 63.8139 159.269 63.7761Z" fill="#1A1A1A"/>
<path fill-rule="evenodd" clip-rule="evenodd" d="M793.701 0.0532227H691.427L649.209 30.8186L629.404 0.0532227H534.047L579.364 81.691L480.604 153.653H582.501L612.699 130.938L613.115 131.543L626.419 153.653H728.315L683.905 84.7146L793.701 0.0532227Z" fill="#1A1A1A"/>
<path fill-rule="evenodd" clip-rule="evenodd" d="M251.149 176.293C251.452 177.842 251.603 179.581 251.603 181.584C251.603 183.436 251.527 185.364 251.301 187.367C251.112 189.37 250.809 191.487 250.394 193.641C249.978 195.795 249.486 197.874 248.957 199.915C248.39 201.918 247.748 203.883 247.03 205.735C246.349 207.55 245.631 209.137 244.838 210.498C244.044 211.896 243.212 213.068 242.343 214.013C241.436 214.995 240.491 215.713 239.471 216.205C238.488 216.696 237.43 216.961 236.334 216.961C235.124 216.961 234.028 216.658 233.083 216.091C232.138 215.524 231.307 214.693 230.627 213.597C229.984 212.501 229.455 211.216 229.153 209.742C228.812 208.268 228.661 206.605 228.661 204.753C228.661 203.09 228.737 201.351 228.926 199.499C229.115 197.685 229.379 195.795 229.72 193.83C230.06 191.865 230.513 189.899 231.005 187.972C231.534 186.044 232.101 184.116 232.743 182.227C233.499 179.997 234.293 178.069 235.086 176.444C235.918 174.819 236.749 173.458 237.657 172.4C238.564 171.304 239.509 170.51 240.567 169.943C241.587 169.376 242.721 169.112 243.855 169.112C245.14 169.112 246.274 169.376 247.257 169.943C248.239 170.472 249.033 171.304 249.713 172.4C250.356 173.458 250.847 174.743 251.149 176.293ZM259.842 192.998C260.183 190.92 260.372 188.879 260.372 186.8C260.372 180.828 258.898 175.99 255.912 172.324C254.475 170.51 252.775 169.15 250.847 168.242C248.957 167.335 246.803 166.882 244.422 166.882C242.91 166.882 241.436 167.071 240 167.411C238.564 167.751 237.165 168.318 235.767 169.036C234.406 169.754 233.083 170.624 231.836 171.682C230.589 172.74 229.379 173.95 228.246 175.31C226.96 176.935 225.789 178.674 224.768 180.526C223.748 182.378 222.841 184.381 222.123 186.535C221.367 188.652 220.8 190.768 220.422 192.885C220.044 195.002 219.855 197.08 219.855 199.121C219.855 202.183 220.233 204.904 220.951 207.361C221.707 209.779 222.803 211.934 224.239 213.786C225.713 215.6 227.376 216.998 229.304 217.905C231.194 218.813 233.348 219.266 235.729 219.266C237.241 219.266 238.753 219.077 240.227 218.661C241.738 218.283 243.212 217.679 244.686 216.923C246.16 216.129 247.559 215.184 248.844 214.05C250.129 212.954 251.338 211.707 252.435 210.271C253.682 208.683 254.816 206.945 255.76 205.093C256.743 203.241 257.575 201.313 258.255 199.235C258.973 197.156 259.502 195.077 259.842 192.998ZM268.573 194.813L262.979 217.981H270.312L271.332 213.219C271.786 211.102 272.201 209.25 272.617 207.625C273.033 205.962 273.411 204.564 273.789 203.392C274.205 202.22 274.583 201.124 275.036 200.066C275.49 199.046 275.943 198.063 276.435 197.118C277.001 196.06 277.606 195.115 278.173 194.246C278.816 193.376 279.42 192.62 280.063 191.94C280.705 191.298 281.31 190.768 281.877 190.428C282.482 190.088 283.049 189.899 283.578 189.899C283.88 189.899 284.183 189.937 284.447 190.088C284.712 190.202 284.976 190.39 285.165 190.655C285.354 190.882 285.505 191.184 285.581 191.487C285.694 191.789 285.732 192.129 285.732 192.507C285.732 192.658 285.694 192.923 285.657 193.225C285.619 193.528 285.543 193.868 285.468 194.283C285.392 194.661 285.279 195.115 285.165 195.606C285.052 196.135 284.901 196.665 284.787 197.156L281.726 208.343C281.612 208.797 281.499 209.25 281.386 209.704C281.31 210.157 281.197 210.649 281.121 211.065C281.046 211.556 281.008 211.972 280.97 212.387C280.932 212.765 280.932 213.143 280.932 213.483C280.932 214.428 281.046 215.26 281.235 215.978C281.461 216.658 281.764 217.263 282.179 217.716C282.595 218.17 283.086 218.548 283.653 218.775C284.258 219.002 284.938 219.115 285.77 219.115C286.677 219.115 287.622 218.888 288.491 218.472C289.436 217.981 290.305 217.301 291.212 216.394C292.082 215.449 292.989 214.277 293.858 212.803C294.69 211.48 295.521 209.893 296.315 208.079L295.294 207.096C294.803 208.116 294.349 208.986 293.934 209.779C293.367 210.762 292.875 211.594 292.384 212.274C291.893 212.954 291.439 213.483 291.023 213.861C290.532 214.277 290.079 214.504 289.663 214.504C289.436 214.504 289.209 214.466 289.02 214.353C288.831 214.277 288.68 214.126 288.529 213.937C288.416 213.786 288.302 213.597 288.264 213.37C288.227 213.181 288.189 212.954 288.189 212.728C288.189 212.614 288.189 212.463 288.189 212.312C288.227 212.161 288.227 212.047 288.227 211.934C288.264 211.82 288.264 211.707 288.302 211.556C288.302 211.405 288.34 211.291 288.378 211.178L291.666 198.139C291.817 197.42 291.968 196.778 292.12 196.173C292.233 195.568 292.346 195.002 292.422 194.51C292.497 194.019 292.573 193.565 292.611 193.15C292.649 192.772 292.686 192.394 292.686 192.091C292.686 190.957 292.535 189.937 292.309 189.068C292.082 188.236 291.704 187.518 291.25 186.951C290.797 186.384 290.23 185.968 289.587 185.704C288.945 185.402 288.151 185.25 287.282 185.25C286.45 185.25 285.581 185.439 284.749 185.817C283.842 186.195 282.973 186.762 282.066 187.518C281.159 188.274 280.252 189.257 279.307 190.428C278.362 191.6 277.417 192.961 276.472 194.548L274.885 197.194L275.452 194.132L277.001 185.515L265.02 186.006L264.567 188.274H266.608C266.986 188.274 267.364 188.35 267.666 188.463C268.006 188.614 268.271 188.841 268.497 189.105C268.724 189.37 268.913 189.672 268.989 190.05C269.102 190.353 269.178 190.731 269.178 191.146C269.178 191.335 269.14 191.562 269.14 191.827C269.102 192.091 269.064 192.356 269.027 192.62V192.658C268.989 192.923 268.913 193.263 268.838 193.603C268.762 193.943 268.686 194.359 268.573 194.813ZM312.945 201.465C311.622 202.183 310.11 202.712 308.447 203.052L307.616 203.241L307.767 202.409C308.22 200.066 308.712 197.987 309.279 196.135C309.846 194.321 310.526 192.734 311.206 191.411C311.962 190.05 312.718 189.03 313.512 188.312C314.381 187.594 315.288 187.216 316.233 187.216C316.724 187.216 317.178 187.291 317.594 187.518C318.009 187.707 318.387 188.009 318.69 188.387C319.03 188.765 319.257 189.181 319.408 189.672C319.559 190.164 319.635 190.655 319.635 191.222C319.635 192.658 319.37 193.981 318.841 195.228C318.312 196.513 317.556 197.685 316.535 198.781C315.515 199.877 314.305 200.746 312.945 201.465ZM322.205 212.047L321.146 210.687C320.466 211.48 319.823 212.198 319.181 212.803C318.387 213.559 317.631 214.202 316.951 214.693C316.233 215.184 315.553 215.562 314.835 215.789C314.154 216.053 313.436 216.167 312.756 216.167C311.924 216.167 311.168 216.016 310.488 215.638C309.808 215.26 309.203 214.731 308.749 213.975C308.258 213.294 307.918 212.463 307.653 211.518C307.427 210.611 307.313 209.553 307.313 208.419C307.313 208.23 307.351 208.003 307.351 207.739C307.351 207.474 307.351 207.247 307.389 207.02C307.389 206.794 307.427 206.567 307.464 206.265C307.464 205.962 307.502 205.735 307.54 205.471L307.578 205.017L308.069 204.979C310.866 204.677 313.323 204.224 315.439 203.543C317.556 202.901 319.332 202.031 320.768 200.973C322.205 199.953 323.263 198.743 323.981 197.383C324.699 196.022 325.039 194.472 325.039 192.772C325.039 191.6 324.85 190.542 324.435 189.597C324.057 188.652 323.49 187.858 322.696 187.14C321.902 186.422 320.995 185.893 319.937 185.515C318.879 185.175 317.707 184.986 316.384 184.986C315.364 184.986 314.343 185.099 313.36 185.326C312.378 185.553 311.433 185.931 310.488 186.384C309.505 186.876 308.598 187.442 307.729 188.161C306.86 188.841 306.028 189.635 305.197 190.542C304.327 191.562 303.572 192.658 302.853 193.83C302.173 195.002 301.568 196.249 301.077 197.647C300.586 199.008 300.208 200.368 299.943 201.767C299.679 203.128 299.565 204.488 299.565 205.849C299.565 207.852 299.83 209.628 300.321 211.216C300.85 212.803 301.606 214.239 302.627 215.449C303.647 216.696 304.819 217.603 306.104 218.208C307.389 218.813 308.863 219.115 310.488 219.115C311.584 219.115 312.642 218.964 313.663 218.661C314.721 218.359 315.704 217.905 316.686 217.301C317.669 216.696 318.652 215.94 319.597 214.995C320.504 214.164 321.373 213.143 322.205 212.047ZM344.353 217.981H345.713L348.888 213.483L349.342 212.841L349.795 213.446C350.513 214.428 351.307 215.298 352.138 216.016C352.97 216.734 353.877 217.339 354.822 217.83C355.767 218.283 356.787 218.661 357.883 218.888C358.979 219.153 360.113 219.266 361.36 219.266C365.972 219.266 369.675 217.716 372.51 214.617C373.909 213.068 374.967 211.253 375.685 209.213C376.403 207.172 376.743 204.866 376.743 202.296C376.743 200.595 376.592 199.083 376.252 197.723C375.912 196.362 375.383 195.153 374.702 194.132H374.74C374.06 193.112 373.077 192.091 371.792 191.109C370.469 190.126 368.844 189.143 366.916 188.161C366.69 188.047 366.349 187.896 365.896 187.669C365.405 187.442 364.951 187.253 364.535 187.027C361.776 185.704 359.697 184.343 358.299 182.869C356.825 181.357 356.107 179.732 356.107 178.069C356.107 176.822 356.258 175.688 356.636 174.63C356.976 173.609 357.543 172.665 358.261 171.833C358.979 171.039 359.811 170.397 360.756 170.019C361.738 169.603 362.797 169.376 363.931 169.376C365.82 169.376 367.446 169.754 368.882 170.435C370.318 171.153 371.565 172.249 372.548 173.647C373.493 175.083 374.249 176.822 374.778 178.901C375.231 180.79 375.496 183.02 375.609 185.553L377.386 185.855L379.54 168.696H378.066L375.42 172.211L375.005 172.74L374.513 172.249C373.72 171.342 372.926 170.548 372.057 169.905C371.225 169.225 370.394 168.696 369.486 168.28C368.617 167.865 367.71 167.524 366.727 167.335C365.745 167.109 364.686 166.995 363.59 166.995C361.549 166.995 359.697 167.373 358.035 168.091C356.372 168.847 354.897 169.943 353.612 171.379C352.29 172.853 351.307 174.516 350.664 176.368C350.022 178.22 349.682 180.261 349.682 182.491C349.682 184.419 349.909 186.157 350.324 187.669C350.74 189.219 351.345 190.542 352.176 191.713C353.046 192.885 354.179 194.019 355.653 195.077C357.127 196.135 358.942 197.118 361.058 198.025V198.063L361.549 198.29C364.384 199.499 366.538 200.86 367.975 202.409C369.449 203.997 370.205 205.735 370.205 207.663C370.205 209.024 369.978 210.271 369.562 211.367C369.146 212.463 368.542 213.408 367.71 214.202C366.879 215.033 365.858 215.6 364.724 216.016C363.59 216.394 362.343 216.62 360.907 216.62C359.017 216.62 357.279 216.205 355.767 215.449C354.217 214.655 352.894 213.483 351.798 211.934C350.702 210.384 349.871 208.57 349.304 206.491C348.775 204.45 348.51 202.145 348.51 199.613L346.923 199.272L344.353 217.981ZM395.338 212.803C396.17 211.442 397.001 209.855 397.795 208.079L396.775 207.058C396.283 208.041 395.83 208.948 395.414 209.742C394.847 210.724 394.356 211.556 393.864 212.236C393.373 212.954 392.92 213.483 392.504 213.861C392.012 214.277 391.559 214.504 391.143 214.504C390.916 214.504 390.69 214.466 390.501 214.353C390.312 214.277 390.16 214.126 390.009 213.937C389.896 213.786 389.783 213.597 389.745 213.37C389.707 213.181 389.669 212.954 389.669 212.728C389.669 212.539 389.669 212.387 389.707 212.161C389.707 211.972 389.745 211.783 389.783 211.594C389.82 211.367 389.858 211.102 389.934 210.838C390.009 210.535 390.085 210.195 390.16 209.817L394.998 189.559L395.112 189.105H395.565H401.31L401.915 186.044H396.586H395.868L396.057 185.326L399.08 173.08H392.164L388.838 185.59L388.724 186.044H388.271H383.395L382.715 189.105H387.137H387.855L387.666 189.824L383.131 208.343C382.979 208.948 382.866 209.477 382.79 210.006C382.677 210.498 382.601 210.951 382.564 211.329C382.45 212.123 382.412 212.841 382.412 213.483C382.412 214.428 382.526 215.26 382.715 215.978C382.942 216.658 383.244 217.263 383.66 217.716C384.038 218.17 384.529 218.548 385.134 218.775C385.701 219.002 386.419 219.115 387.212 219.115C388.157 219.115 389.064 218.888 389.972 218.472V218.435C390.879 217.981 391.786 217.301 392.655 216.394C393.562 215.449 394.431 214.277 395.338 212.803ZM417.6 187.48C418.167 187.178 418.772 186.989 419.414 186.989C420.132 186.989 420.775 187.178 421.342 187.556C421.909 187.896 422.4 188.425 422.816 189.105C423.231 189.748 423.534 190.542 423.723 191.411C423.912 192.28 423.987 193.263 423.987 194.321C423.987 195.304 423.949 196.4 423.798 197.647C423.685 198.857 423.496 200.179 423.231 201.653C422.967 203.09 422.702 204.488 422.362 205.849C422.022 207.209 421.644 208.494 421.266 209.742C420.85 210.876 420.472 211.896 420.019 212.765C419.603 213.672 419.149 214.39 418.658 214.995C418.167 215.6 417.6 216.091 417.033 216.394C416.466 216.734 415.823 216.885 415.181 216.885C414.463 216.885 413.783 216.696 413.216 216.356C412.611 216.016 412.12 215.487 411.704 214.806C411.288 214.126 410.986 213.37 410.797 212.463C410.608 211.594 410.494 210.649 410.494 209.553C410.494 208.608 410.57 207.55 410.721 206.302C410.835 205.093 411.061 203.732 411.326 202.258C411.59 200.784 411.893 199.386 412.233 198.025C412.611 196.702 412.989 195.417 413.367 194.246C413.82 192.998 414.236 191.94 414.69 191.071C415.143 190.164 415.597 189.408 416.05 188.841C416.542 188.236 417.033 187.783 417.6 187.48ZM409.927 218.132C411.288 218.737 412.838 219.039 414.538 219.039C416.768 219.039 418.847 218.548 420.812 217.528C422.74 216.545 424.554 214.995 426.217 212.954C427.88 210.913 429.127 208.683 429.959 206.302C430.79 203.921 431.206 201.351 431.206 198.592C431.206 196.513 430.979 194.661 430.45 192.961C429.959 191.335 429.203 189.861 428.22 188.614C427.238 187.367 426.066 186.46 424.781 185.817C423.496 185.213 422.022 184.91 420.435 184.91C419.263 184.91 418.129 185.024 417.033 185.288C415.937 185.553 414.879 185.968 413.858 186.498C412.8 187.027 411.817 187.669 410.91 188.463C409.965 189.257 409.058 190.164 408.227 191.222C407.433 192.205 406.753 193.225 406.148 194.321C405.543 195.455 405.014 196.627 404.598 197.836H404.56C404.145 199.083 403.842 200.331 403.616 201.54C403.389 202.787 403.275 203.997 403.275 205.244C403.275 207.361 403.54 209.25 404.069 210.951C404.56 212.614 405.354 214.088 406.375 215.335C407.395 216.583 408.605 217.49 409.927 218.132ZM428.674 230.642L428.258 232.646H444.132L444.51 230.642H443.754C443.149 230.605 442.62 230.567 442.242 230.491C441.789 230.416 441.411 230.302 441.184 230.189V230.151C440.92 230 440.693 229.735 440.579 229.433C440.466 229.131 440.428 228.828 440.428 228.45C440.428 228.299 440.428 228.11 440.428 227.921C440.466 227.732 440.466 227.543 440.504 227.316C440.542 227.052 440.542 226.825 440.579 226.598C440.655 226.334 440.693 226.069 440.731 225.767L443.112 214.92L443.49 213.219L444.17 214.844C444.51 215.562 444.888 216.242 445.304 216.772C445.72 217.339 446.211 217.754 446.702 218.132C447.231 218.472 447.798 218.737 448.403 218.926C449.046 219.115 449.726 219.19 450.482 219.19C451.389 219.19 452.258 219.077 453.127 218.813C454.035 218.586 454.904 218.17 455.773 217.679C456.68 217.187 457.549 216.545 458.343 215.827C459.175 215.071 459.968 214.239 460.724 213.294C461.556 212.236 462.274 211.102 462.916 209.893C463.559 208.683 464.126 207.398 464.579 206.038C465.033 204.677 465.373 203.279 465.6 201.918C465.827 200.52 465.94 199.121 465.94 197.723C465.94 195.795 465.751 194.094 465.335 192.62C464.92 191.109 464.315 189.824 463.521 188.765V188.728C462.727 187.669 461.783 186.876 460.724 186.346C459.666 185.817 458.457 185.553 457.134 185.553C456.302 185.553 455.509 185.666 454.79 185.855C454.035 186.082 453.354 186.384 452.674 186.838C451.994 187.291 451.313 187.82 450.633 188.539C449.953 189.219 449.31 190.05 448.668 190.995L447.118 193.187L447.609 190.542L448.554 185.553L436.8 186.006L436.309 188.35C437.102 188.35 437.783 188.387 438.349 188.463C439.105 188.539 439.635 188.69 439.937 188.879C440.277 189.105 440.504 189.408 440.655 189.786C440.806 190.164 440.882 190.579 440.882 191.071C440.882 191.222 440.882 191.373 440.882 191.562C440.844 191.751 440.844 191.94 440.806 192.167C440.768 192.394 440.731 192.62 440.693 192.809C440.655 193.036 440.617 193.225 440.542 193.452L432.945 227.997V228.035C432.869 228.413 432.756 228.753 432.642 229.017C432.529 229.357 432.378 229.622 432.189 229.811C432 230 431.773 230.151 431.509 230.265C431.282 230.378 431.017 230.453 430.677 230.491L428.674 230.642ZM445.001 212.35C444.812 211.594 444.737 210.762 444.737 209.817C444.737 208.986 444.812 208.041 444.926 206.983C445.077 205.924 445.266 204.79 445.531 203.543C445.795 202.258 446.097 201.011 446.438 199.839C446.778 198.63 447.156 197.458 447.609 196.324V196.287C447.987 195.228 448.441 194.283 448.894 193.452C449.386 192.62 449.877 191.902 450.444 191.298C450.973 190.655 451.54 190.202 452.107 189.899C452.712 189.559 453.316 189.408 453.921 189.408C454.601 189.408 455.206 189.559 455.773 189.861C456.302 190.164 456.756 190.579 457.134 191.184C457.512 191.751 457.776 192.431 457.965 193.187C458.154 193.943 458.23 194.775 458.23 195.72C458.23 196.627 458.192 197.609 458.041 198.668C457.927 199.688 457.738 200.822 457.474 202.031C457.247 203.241 456.945 204.413 456.605 205.622C456.264 206.794 455.886 207.965 455.433 209.099C455.017 210.271 454.564 211.253 454.11 212.161C453.619 213.03 453.127 213.786 452.636 214.353C452.107 214.957 451.54 215.411 450.935 215.713C450.331 216.016 449.688 216.167 449.008 216.167C448.365 216.167 447.723 216.016 447.194 215.713C446.664 215.411 446.211 214.957 445.833 214.353C445.455 213.786 445.19 213.105 445.001 212.35ZM485.102 215.487L484.724 217.981H518.891L522.331 200.86L520.705 200.406C519.609 203.014 518.438 205.282 517.266 207.134C516.019 209.137 514.734 210.724 513.411 211.858C512.088 212.992 510.576 213.861 508.838 214.466C507.099 215.033 505.172 215.298 503.055 215.298C502.299 215.298 501.657 215.26 501.127 215.184C500.523 215.109 500.107 214.957 499.767 214.731C499.427 214.504 499.162 214.202 498.973 213.786C498.822 213.446 498.746 212.992 498.746 212.501V212.463C498.746 212.274 498.784 212.085 498.784 211.858C498.822 211.631 498.822 211.405 498.86 211.178C498.897 210.951 498.935 210.724 499.011 210.46C499.049 210.195 499.086 209.893 499.162 209.628L506.532 174.479C506.646 173.874 506.797 173.383 506.948 172.967C507.099 172.513 507.288 172.173 507.477 171.909C507.704 171.682 507.931 171.455 508.233 171.304C508.497 171.153 508.838 171.077 509.178 171.002H509.216L512.504 170.699L512.92 168.28H493.568L493.153 170.699L495.496 170.926C495.912 170.964 496.252 171.039 496.554 171.153C496.857 171.266 497.159 171.455 497.348 171.682C497.801 172.098 497.99 172.702 497.99 173.458C497.99 173.572 497.99 173.685 497.99 173.798C497.99 173.912 497.953 174.025 497.953 174.139C497.953 174.252 497.915 174.403 497.915 174.554C497.877 174.668 497.839 174.819 497.839 174.97V175.008L490.167 211.745C490.016 212.35 489.902 212.879 489.751 213.294C489.562 213.748 489.411 214.088 489.184 214.315C488.995 214.579 488.731 214.768 488.428 214.92C488.164 215.071 487.823 215.146 487.483 215.184L485.102 215.487ZM538.507 187.48C539.074 187.178 539.679 186.989 540.321 186.989C541.039 186.989 541.682 187.178 542.249 187.556C542.816 187.896 543.307 188.425 543.723 189.105C544.138 189.748 544.441 190.542 544.63 191.411C544.819 192.28 544.894 193.263 544.894 194.321C544.894 195.304 544.857 196.4 544.705 197.647C544.592 198.857 544.403 200.179 544.138 201.653C543.874 203.09 543.609 204.488 543.269 205.849C542.929 207.209 542.551 208.494 542.135 209.742C541.757 210.876 541.379 211.896 540.926 212.765C540.51 213.672 540.057 214.39 539.565 214.995C539.074 215.6 538.507 216.091 537.94 216.394C537.373 216.734 536.731 216.885 536.088 216.885C535.37 216.885 534.69 216.696 534.123 216.356C533.518 216.016 533.027 215.487 532.611 214.806C532.195 214.126 531.893 213.37 531.704 212.463C531.515 211.594 531.401 210.649 531.401 209.553C531.401 208.608 531.477 207.55 531.628 206.302C531.742 205.093 531.968 203.732 532.233 202.258C532.497 200.784 532.8 199.386 533.14 198.025C533.48 196.702 533.896 195.417 534.274 194.246C534.727 192.998 535.143 191.94 535.597 191.071C536.05 190.164 536.504 189.408 536.957 188.841C537.449 188.236 537.94 187.783 538.507 187.48ZM530.835 218.132C532.195 218.737 533.745 219.039 535.446 219.039C537.675 219.039 539.754 218.548 541.72 217.528C543.647 216.545 545.461 214.995 547.124 212.954C548.787 210.913 550.035 208.683 550.866 206.302C551.697 203.921 552.113 201.351 552.113 198.592C552.113 196.513 551.886 194.661 551.357 192.961C550.866 191.335 550.11 189.861 549.127 188.614C548.145 187.367 546.973 186.46 545.688 185.817C544.403 185.213 542.929 184.91 541.342 184.91C540.132 184.91 538.998 185.024 537.94 185.288C536.844 185.553 535.786 185.968 534.727 186.498C533.707 187.027 532.724 187.669 531.817 188.463C530.872 189.257 529.965 190.164 529.134 191.222C528.34 192.205 527.66 193.225 527.055 194.321C526.45 195.455 525.921 196.627 525.468 197.836C525.052 199.083 524.712 200.331 524.523 201.54C524.296 202.787 524.183 203.997 524.183 205.244C524.183 207.361 524.447 209.25 524.976 210.951C525.468 212.614 526.261 214.088 527.282 215.335C528.302 216.583 529.512 217.49 530.835 218.132ZM597.316 170.321C597.127 170.964 597.014 171.644 597.014 172.438C597.014 173.194 597.127 173.874 597.316 174.516C597.505 175.159 597.808 175.726 598.223 176.255C598.601 176.784 599.055 177.162 599.509 177.389C599.962 177.653 600.453 177.767 600.983 177.767C601.512 177.767 601.965 177.653 602.419 177.389C602.872 177.162 603.288 176.784 603.704 176.255C604.082 175.726 604.384 175.121 604.573 174.516C604.8 173.874 604.875 173.156 604.875 172.438C604.875 171.644 604.8 170.964 604.573 170.321C604.384 169.679 604.082 169.112 603.704 168.583C603.288 168.053 602.872 167.676 602.419 167.449C601.965 167.222 601.512 167.071 600.983 167.071C600.453 167.071 600 167.222 599.546 167.449C599.093 167.713 598.639 168.091 598.261 168.583H598.223C597.846 169.112 597.543 169.679 597.316 170.321ZM596.863 211.707C596.901 211.556 596.938 211.405 596.976 211.216L602.986 185.515L590.249 186.006L589.757 188.274H591.798C592.176 188.274 592.516 188.35 592.819 188.463C593.159 188.614 593.423 188.841 593.688 189.105C593.915 189.37 594.066 189.672 594.179 190.05C594.293 190.353 594.331 190.731 594.331 191.146C594.331 191.335 594.331 191.562 594.293 191.827C594.293 192.053 594.255 192.318 594.217 192.545C594.142 192.847 594.104 193.15 594.028 193.528C593.953 193.905 593.839 194.321 593.726 194.813L590.324 208.343C590.211 208.948 590.06 209.515 589.946 210.006C589.871 210.498 589.757 210.951 589.72 211.367C589.644 211.745 589.606 212.123 589.568 212.501C589.531 212.841 589.531 213.181 589.531 213.483C589.531 214.428 589.644 215.26 589.833 215.978C590.06 216.658 590.362 217.263 590.778 217.716C591.194 218.17 591.685 218.548 592.252 218.775C592.857 219.002 593.575 219.115 594.368 219.115C595.313 219.115 596.22 218.888 597.09 218.472C597.997 218.019 598.904 217.301 599.773 216.394C600.68 215.449 601.587 214.277 602.457 212.803C603.288 211.442 604.12 209.855 604.951 208.079L603.893 207.058C603.439 208.003 602.986 208.872 602.57 209.666C602.041 210.649 601.512 211.518 601.02 212.236C600.491 212.992 600.038 213.559 599.622 213.937C599.131 214.39 598.677 214.617 598.261 214.617C598.035 214.617 597.808 214.579 597.619 214.504C597.392 214.39 597.241 214.239 597.09 214.05C596.976 213.861 596.901 213.672 596.825 213.446C596.787 213.219 596.749 212.992 596.749 212.728C596.749 212.652 596.749 212.539 596.749 212.425C596.787 212.35 596.787 212.236 596.787 212.123C596.825 212.009 596.825 211.858 596.863 211.707ZM618.217 195.19C617.235 194.132 616.781 193.112 616.781 192.091C616.781 191.335 616.894 190.617 617.121 190.013C617.348 189.37 617.726 188.841 618.217 188.35C618.709 187.896 619.275 187.556 619.918 187.329C620.56 187.102 621.279 186.989 622.11 186.989C622.601 186.989 623.093 187.027 623.546 187.14C624 187.216 624.453 187.367 624.831 187.518C625.247 187.745 625.549 187.934 625.776 188.198C626.041 188.501 626.154 188.841 626.154 189.181C626.154 189.408 626.079 189.71 625.927 190.05C625.814 190.39 625.625 190.731 625.398 191.184C625.172 191.562 625.02 191.94 624.907 192.28C624.794 192.62 624.756 192.961 624.756 193.263C624.756 193.754 624.831 194.208 624.983 194.624C625.134 195.039 625.323 195.417 625.625 195.757C626.23 196.4 626.948 196.702 627.817 196.702C628.309 196.702 628.762 196.627 629.14 196.438C629.556 196.249 629.896 195.946 630.236 195.568C630.538 195.19 630.803 194.737 630.954 194.208C631.105 193.679 631.181 193.074 631.181 192.394C631.181 191.335 630.992 190.353 630.576 189.483C630.16 188.652 629.556 187.858 628.724 187.216C627.023 185.855 624.756 185.175 621.883 185.175C620.258 185.175 618.822 185.439 617.575 185.893C616.327 186.346 615.269 187.065 614.324 187.972C613.417 188.916 612.737 189.975 612.283 191.222C611.792 192.507 611.565 193.943 611.565 195.531C611.565 196.627 611.679 197.647 611.868 198.554C612.094 199.424 612.397 200.217 612.812 200.935C613.228 201.616 613.833 202.334 614.589 203.014C615.345 203.732 616.327 204.413 617.461 205.131C617.612 205.206 617.839 205.32 618.066 205.471C618.255 205.584 618.52 205.735 618.897 205.924C620.334 206.756 621.392 207.625 622.11 208.57C622.904 209.515 623.282 210.573 623.282 211.669C623.282 212.501 623.131 213.257 622.904 213.899C622.639 214.579 622.223 215.184 621.732 215.676C621.203 216.167 620.598 216.545 619.88 216.809C619.2 217.036 618.406 217.187 617.537 217.187C616.97 217.187 616.479 217.112 615.987 217.036C615.496 216.923 615.042 216.772 614.627 216.583C614.211 216.394 613.871 216.167 613.644 215.902C613.342 215.6 613.19 215.26 613.19 214.92C613.19 214.731 613.342 214.466 613.568 214.164C613.682 213.937 613.946 213.635 614.249 213.257C614.475 212.916 614.702 212.539 614.816 212.123C614.929 211.707 615.005 211.216 615.005 210.687C615.005 210.082 614.929 209.515 614.778 209.024C614.627 208.57 614.362 208.154 614.06 207.776C613.757 207.398 613.417 207.134 613.001 206.945C612.623 206.756 612.208 206.68 611.754 206.68C611.263 206.68 610.847 206.756 610.469 206.983C610.053 207.172 609.713 207.474 609.449 207.89C609.146 208.305 608.92 208.797 608.731 209.402C608.579 209.968 608.504 210.649 608.504 211.442C608.504 212.576 608.731 213.635 609.146 214.542C609.562 215.449 610.167 216.28 610.998 216.961C611.83 217.679 612.812 218.208 613.946 218.586C615.08 218.926 616.327 219.115 617.764 219.115C619.502 219.115 621.09 218.888 622.488 218.359C623.886 217.868 625.096 217.15 626.154 216.167C627.212 215.184 628.006 214.05 628.535 212.765C629.064 211.48 629.329 210.044 629.329 208.419C629.329 207.323 629.216 206.34 628.989 205.433C628.762 204.526 628.422 203.694 627.968 202.976C627.515 202.22 626.91 201.502 626.116 200.784C625.323 200.066 624.34 199.386 623.168 198.705C623.017 198.63 622.904 198.554 622.753 198.479L622.299 198.214C620.523 197.194 619.162 196.173 618.217 195.19ZM649.172 212.803C650.003 211.442 650.835 209.855 651.666 208.079L650.608 207.058C650.116 208.041 649.663 208.948 649.247 209.742C648.68 210.724 648.189 211.556 647.697 212.236C647.206 212.954 646.753 213.483 646.337 213.861C645.846 214.277 645.392 214.504 644.976 214.504C644.749 214.504 644.523 214.466 644.334 214.353C644.145 214.277 643.994 214.126 643.842 213.937C643.729 213.786 643.653 213.597 643.578 213.37C643.54 213.181 643.502 212.954 643.502 212.728C643.502 212.539 643.502 212.387 643.54 212.161C643.54 211.972 643.578 211.783 643.616 211.556C643.653 211.329 643.729 211.102 643.767 210.8C643.842 210.498 643.918 210.157 643.994 209.817L648.831 189.559L648.945 189.105H649.398H655.143L655.748 186.044H650.457H649.701L649.89 185.326L652.913 173.08H645.997L642.671 185.59L642.557 186.044H642.104H637.228L636.548 189.105H640.97H641.688L641.499 189.824L636.964 208.343C636.812 208.948 636.699 209.477 636.623 210.006C636.51 210.498 636.435 210.951 636.397 211.329C636.359 211.707 636.283 212.085 636.283 212.463C636.246 212.803 636.246 213.143 636.246 213.483C636.246 214.428 636.359 215.26 636.548 215.978C636.775 216.658 637.077 217.263 637.493 217.716C637.871 218.17 638.362 218.548 638.967 218.775C639.572 219.002 640.252 219.115 641.046 219.115C641.99 219.115 642.897 218.888 643.805 218.435C644.712 217.981 645.619 217.301 646.488 216.394C647.395 215.449 648.302 214.277 649.172 212.803ZM667.011 170.321C666.784 170.964 666.671 171.644 666.671 172.438C666.671 173.194 666.784 173.874 666.973 174.516C667.2 175.159 667.502 175.726 667.88 176.255C668.296 176.784 668.712 177.162 669.165 177.389C669.619 177.653 670.11 177.767 670.639 177.767C671.168 177.767 671.66 177.653 672.075 177.389C672.529 177.162 672.945 176.784 673.36 176.255C673.738 175.726 674.041 175.121 674.268 174.516C674.457 173.874 674.57 173.156 674.57 172.438C674.57 171.644 674.457 170.964 674.268 170.321C674.041 169.679 673.776 169.112 673.36 168.583C672.983 168.053 672.529 167.676 672.075 167.449C671.66 167.222 671.168 167.071 670.639 167.071C670.148 167.071 669.657 167.222 669.203 167.449C668.749 167.713 668.296 168.091 667.918 168.583C667.502 169.112 667.2 169.679 667.011 170.321ZM666.52 211.707C666.557 211.556 666.595 211.405 666.633 211.216L672.642 185.515L659.905 186.006L659.452 188.274H661.455C661.833 188.274 662.173 188.35 662.513 188.463C662.816 188.614 663.118 188.841 663.345 189.105C663.572 189.37 663.723 189.672 663.836 190.05C663.949 190.353 664.025 190.731 664.025 191.146C664.025 191.335 663.987 191.562 663.987 191.827C663.949 192.053 663.912 192.318 663.874 192.545C663.836 192.847 663.76 193.15 663.685 193.528C663.609 193.905 663.534 194.321 663.42 194.813L660.019 208.343C659.868 208.948 659.716 209.515 659.641 210.006C659.527 210.498 659.452 210.951 659.376 211.367C659.338 211.745 659.263 212.123 659.225 212.501C659.225 212.841 659.187 213.181 659.187 213.483C659.187 214.428 659.301 215.26 659.527 215.978C659.716 216.658 660.019 217.263 660.435 217.716C660.85 218.17 661.342 218.548 661.909 218.775C662.513 219.002 663.231 219.115 664.063 219.115C664.97 219.115 665.877 218.888 666.784 218.472C667.691 218.019 668.56 217.301 669.468 216.394C670.337 215.449 671.244 214.277 672.113 212.803C672.945 211.442 673.776 209.855 674.608 208.079L673.549 207.058C673.096 208.003 672.68 208.872 672.227 209.666C671.697 210.649 671.168 211.518 670.677 212.236C670.186 212.992 669.694 213.559 669.316 213.937C668.825 214.39 668.334 214.617 667.918 214.617C667.691 214.617 667.464 214.579 667.275 214.504C667.086 214.39 666.897 214.239 666.746 214.05C666.633 213.861 666.557 213.672 666.482 213.446C666.444 213.219 666.406 212.992 666.406 212.728C666.406 212.652 666.406 212.539 666.444 212.425C666.444 212.312 666.444 212.236 666.482 212.123C666.482 212.009 666.52 211.858 666.52 211.707ZM700.875 210.422L699.893 209.326C699.439 210.157 698.948 210.913 698.419 211.594C697.738 212.463 697.02 213.219 696.227 213.861C695.471 214.504 694.715 214.995 693.959 215.335C693.165 215.676 692.409 215.827 691.653 215.827C690.709 215.827 689.839 215.676 689.121 215.335C688.365 214.957 687.76 214.428 687.269 213.748C686.778 213.068 686.4 212.274 686.173 211.291C685.946 210.346 685.833 209.25 685.833 208.003C685.833 206.907 685.909 205.698 686.06 204.413C686.211 203.165 686.438 201.842 686.74 200.406C687.042 199.008 687.383 197.647 687.76 196.438C688.138 195.19 688.554 194.019 689.046 192.961C689.461 191.978 689.953 191.146 690.406 190.39C690.897 189.635 691.427 189.03 691.956 188.501C692.523 188.009 693.127 187.594 693.732 187.329C694.337 187.065 694.979 186.913 695.66 186.913C696.038 186.913 696.378 186.989 696.718 187.065C697.058 187.178 697.36 187.329 697.625 187.556C697.927 187.783 698.116 188.009 698.268 188.312C698.419 188.614 698.532 188.916 698.532 189.257C698.532 189.559 698.381 189.937 698.079 190.39C697.814 190.768 697.436 191.26 696.945 191.789C696.113 192.734 695.66 193.868 695.66 195.266C695.66 195.946 695.773 196.551 695.924 197.08C696.113 197.609 696.34 198.063 696.68 198.441C697.02 198.857 697.36 199.121 697.776 199.31C698.192 199.499 698.646 199.613 699.137 199.613C699.817 199.613 700.422 199.461 700.913 199.197C701.442 198.932 701.934 198.516 702.349 197.95C702.765 197.383 703.105 196.74 703.332 195.984C703.559 195.19 703.635 194.321 703.635 193.376C703.635 192.053 703.446 190.92 703.068 189.899C702.652 188.879 702.085 188.009 701.291 187.291C700.497 186.535 699.553 186.006 698.494 185.628C697.398 185.25 696.113 185.061 694.715 185.061C693.694 185.061 692.674 185.175 691.616 185.477C690.595 185.742 689.575 186.157 688.554 186.724C687.496 187.291 686.551 187.972 685.644 188.765C684.737 189.521 683.905 190.428 683.149 191.411C682.394 192.394 681.713 193.452 681.146 194.586C680.579 195.72 680.05 196.929 679.635 198.214C678.803 200.746 678.387 203.354 678.387 205.924C678.387 207.965 678.652 209.742 679.143 211.367C679.635 212.954 680.353 214.353 681.335 215.562C682.318 216.734 683.414 217.641 684.699 218.246C685.946 218.813 687.383 219.115 688.97 219.115C690.217 219.115 691.351 218.926 692.485 218.548C693.581 218.17 694.677 217.603 695.697 216.847C696.718 216.091 697.701 215.146 698.57 214.013C699.401 212.954 700.157 211.745 700.875 210.422ZM715.389 195.19C714.406 194.132 713.915 193.112 713.915 192.091C713.915 191.335 714.066 190.617 714.293 190.013C714.52 189.37 714.897 188.841 715.389 188.35C715.88 187.896 716.447 187.556 717.09 187.329C717.732 187.102 718.45 186.989 719.244 186.989C719.773 186.989 720.264 187.027 720.718 187.14C721.172 187.216 721.587 187.367 722.003 187.518C722.419 187.745 722.721 187.934 722.948 188.198C723.212 188.501 723.326 188.841 723.326 189.181C723.326 189.408 723.25 189.71 723.099 190.05C722.986 190.39 722.797 190.731 722.532 191.184C722.343 191.562 722.154 191.94 722.079 192.28C721.965 192.62 721.927 192.961 721.927 193.263C721.927 193.754 722.003 194.208 722.154 194.624C722.268 195.039 722.494 195.417 722.797 195.757C723.401 196.4 724.12 196.702 724.989 196.702C725.48 196.702 725.934 196.627 726.312 196.438C726.727 196.249 727.068 195.946 727.408 195.568C727.71 195.19 727.937 194.737 728.126 194.208C728.277 193.679 728.353 193.074 728.353 192.394C728.353 191.335 728.164 190.353 727.748 189.483C727.332 188.652 726.727 187.858 725.896 187.216C724.195 185.855 721.89 185.175 719.017 185.175C717.43 185.175 715.994 185.439 714.746 185.893C713.499 186.346 712.441 187.065 711.496 187.972C710.589 188.916 709.909 189.975 709.417 191.222C708.964 192.507 708.737 193.943 708.737 195.531C708.737 196.627 708.85 197.647 709.039 198.554C709.266 199.424 709.568 200.217 709.984 200.935C710.4 201.616 710.967 202.334 711.76 203.014C712.516 203.732 713.499 204.413 714.633 205.131C714.784 205.206 714.973 205.32 715.238 205.471C715.427 205.584 715.691 205.735 716.069 205.924C717.505 206.756 718.564 207.625 719.282 208.57C720.075 209.515 720.453 210.573 720.453 211.669C720.453 212.501 720.302 213.257 720.038 213.899C719.811 214.579 719.395 215.184 718.866 215.676C718.375 216.167 717.77 216.545 717.052 216.809C716.372 217.036 715.578 217.187 714.709 217.187C714.142 217.187 713.612 217.112 713.159 217.036C712.668 216.923 712.214 216.772 711.798 216.583C711.383 216.394 711.042 216.167 710.816 215.902C710.513 215.6 710.362 215.26 710.362 214.92C710.362 214.731 710.475 214.466 710.702 214.164C710.853 213.937 711.08 213.635 711.42 213.257C711.647 212.916 711.836 212.539 711.987 212.123C712.101 211.707 712.176 211.216 712.176 210.687C712.176 210.082 712.101 209.515 711.949 209.024C711.798 208.57 711.534 208.154 711.231 207.776C710.929 207.398 710.551 207.134 710.173 206.945C709.795 206.756 709.379 206.68 708.926 206.68C708.435 206.68 707.981 206.756 707.603 206.983C707.225 207.172 706.885 207.474 706.62 207.89C706.318 208.305 706.053 208.797 705.902 209.402C705.751 209.968 705.675 210.649 705.675 211.442C705.675 212.576 705.902 213.635 706.318 214.542C706.734 215.449 707.338 216.28 708.17 216.961C709.001 217.679 709.984 218.208 711.118 218.586C712.214 218.926 713.499 219.115 714.935 219.115C716.674 219.115 718.261 218.888 719.66 218.359C721.058 217.868 722.268 217.15 723.326 216.167C724.384 215.184 725.178 214.05 725.707 212.765C726.236 211.48 726.501 210.044 726.501 208.419C726.501 207.323 726.387 206.34 726.16 205.433C725.934 204.526 725.594 203.694 725.14 202.976C724.686 202.22 724.082 201.502 723.288 200.784C722.494 200.066 721.512 199.386 720.34 198.705C720.189 198.63 720.075 198.554 719.924 198.479L719.471 198.214C717.657 197.194 716.296 196.173 715.389 195.19ZM569.99 187.216C580.46 180.186 573.581 213.521 566.438 217.301C557.669 221.912 560.844 206.869 562.129 202.031C563.792 195.757 565.455 190.277 569.99 187.216ZM555.628 231.701C556.12 229.395 559.483 222.819 553.512 223.386C548.485 223.877 549.316 229.584 551.962 232.079C558.047 237.786 569.121 232.079 572.334 228.299C576.264 223.65 583.823 192.62 585.335 184.57C577.247 183.436 580.195 184.079 577.285 190.466C577.323 187.858 575.546 185.477 574.564 183.928C564.057 181.924 556.195 193.376 554.797 203.241C552.794 217.112 560.542 225.653 570.293 216.961C569.386 226.22 566.135 232.986 555.628 231.701Z" fill="#1A1A1A"/>
<path fill-rule="evenodd" clip-rule="evenodd" d="M343.748 430.466L343.143 430.504C179.566 430.504 6.08521 339.115 1.92773 228.904H93.7703C102.123 335.373 227.755 417.389 343.748 417.389V430.466Z" fill="#CBB778"/>
<path fill-rule="evenodd" clip-rule="evenodd" d="M656.806 304.872C618.066 372.828 506.003 430.353 343.748 430.466V417.389C459.061 417.389 527.622 372.79 567.95 304.872H505.587L624.529 228.904L723.893 304.872H656.806Z" fill="#1A1A1A"/>
</g>
<defs>
<clipPath id="clip0_1918_123">
<rect width="794" height="431" fill="white"/>
</clipPath>
</defs>
</svg>
