<svg width="794" height="188" viewBox="0 0 794 188" fill="none" xmlns="http://www.w3.org/2000/svg">
<path fill-rule="evenodd" clip-rule="evenodd" d="M88.7433 65.1575C88.7433 80.9182 119.698 73.8505 119.698 60.4331C119.698 56.0867 118.488 53.3654 113.348 51.8914C102.728 48.8678 88.7433 56.6914 88.7433 65.1575ZM94.1858 136.137C97.2094 136.137 97.9653 133.643 98.6835 131.337L105.071 110.058C106.583 105.334 107.754 100.685 109.266 95.9607C109.909 93.9953 113.31 83.3749 113.31 81.7119C113.31 81.5985 113.008 80.8426 112.857 80.3134C108.51 79.2552 94.9795 79.8221 89.6504 79.8221C86.5512 79.8221 85.6819 82.1654 84.926 84.8489C84.1323 87.7969 83.4898 89.6489 82.7338 92.4835L73.8898 122.569C72.6047 126.613 68.5228 136.137 72.7937 136.137H94.1858ZM157.909 76.9875C141.657 76.9875 122.57 87.0788 115.124 102.537C105.562 122.38 120.151 138.291 141.543 136.628C149.858 135.986 155.641 134.814 162.935 130.921C176.617 123.627 191.66 106.657 182.929 89.2709C178.734 80.8804 167.811 76.9875 157.909 76.9875ZM136.97 109.151C136.97 105.523 140.296 102.197 142.413 100.647C154.998 91.2741 168.567 103.444 155.187 113.422C151.219 116.408 144.454 118.335 139.502 114.594C137.953 113.422 136.97 111.721 136.97 109.151ZM66.8976 113.876C66.8976 109.454 61.1527 110.587 56.8819 110.587C27.137 110.587 30.652 112.742 38.8535 87.1166C40.0252 83.4505 41.1591 80.389 42.2551 76.9497C43.6535 72.641 50.0787 57.5985 45.9591 57.5985H23.2063C20.4094 57.5985 18.5197 59.9796 17.6504 62.2473L4.27087 100.345C0.944882 110.512 0 109.454 0 120.528C0 130.43 9.67559 136.137 19.1244 136.137H55.0677C57.5622 136.137 59.5653 134.852 60.548 133.302C61.9087 131.035 66.8976 115.387 66.8976 113.876ZM251.641 136.137C253.833 136.137 254.891 134.928 255.496 133L259.654 117.466C263.017 103.595 270.198 91.8788 257.65 82.1276C254.551 79.7087 247.521 77.4788 242.079 77.4788C230.476 77.4788 231.836 78.0835 220.951 80.1245C205.493 82.9969 202.583 75.0977 199.483 84.7355C198.69 87.1922 198.047 89.0064 197.329 91.5008L186.633 126.726C185.537 130.468 182.513 136.137 187.502 136.137H204.775C210.066 136.137 211.238 133.794 212.561 129.561L219.591 107.526C220.573 103.973 222.161 99.7024 226.167 99.7024C229.266 99.7024 235.729 98.7197 235.729 102.537C235.729 107.035 234.898 107.828 233.915 111.532C233.235 114.027 232.517 116.219 231.836 118.827C231.08 121.51 230.476 123.665 229.795 126.197C229.153 128.616 226.054 136.137 229.795 136.137H251.641Z" fill="#FF0000"/>
<path fill-rule="evenodd" clip-rule="evenodd" d="M614.098 103.482C614.438 103.482 614.551 104.011 617.424 103.369C624.529 101.819 630.539 90.4804 630.539 88.6662C630.539 84.3954 627.137 82.8458 622.753 82.8458L593.272 83.2615C590.702 83.2615 590.249 83.5639 589.153 85.2647C588.208 86.7387 580.346 113.158 579.477 116.484C575.395 131.904 570.482 137.12 579.024 137.12H593.764C597.883 137.12 599.962 134.172 600.945 130.657C601.965 126.877 602.646 123.702 603.742 120.112C604.8 116.673 605.972 113.006 607.105 109.718C608.164 106.657 610.318 103.482 614.098 103.482ZM663.874 100.345C675.893 100.345 670.828 102.953 681.184 87.3434C681.827 86.3607 682.469 85.8316 682.469 84.2064C682.469 79.2552 655.483 79.1418 640.176 90.5938C636.208 93.5796 633.184 96.0363 630.161 99.967C627.704 103.18 624.491 107.753 624.491 113.347C624.491 121.586 626.268 127.293 631.937 132.055C639.231 138.178 654.916 139.614 664.365 136.742C672 134.399 671.131 134.436 668.561 123.287C667.465 118.6 668.183 118.638 662.551 118.713C659.036 118.789 657.562 119.394 654.085 117.202C644.598 111.343 653.291 100.345 663.874 100.345ZM793.701 62.6631H766.45C765.241 65.271 764.372 69.3151 763.465 72.1497L752.202 109.378C751.219 112.477 750.425 115.35 749.405 118.562L745.172 132.584C744.756 133.869 744.076 135.495 743.924 137.12H772.044L793.701 62.6631ZM703.257 121.888C703.257 119.734 706.356 119.507 708.321 119.054L727.294 114.518C731.603 113.384 735.798 112.326 739.691 111.192C741.997 110.55 743.584 110.021 744.794 108.433C750.009 101.706 744.416 92.1056 739.729 87.23C733.606 80.8426 727.861 80.6158 719.698 80.6158C711.534 80.6158 697.512 86.3985 691.049 91.3119C683.565 97.019 676.157 106.468 676.876 116.408C678.992 144.792 718.866 139.539 733.795 130.203C737.688 127.784 739.616 126.235 739.616 122.304C739.616 117.353 722.646 126.802 712.781 126.802C709.644 126.802 703.257 124.496 703.257 121.888ZM703.257 110.663C700.082 110.663 702.198 105.901 705.071 103.142C710.173 98.2284 720.416 99.2489 721.852 104.843C720.756 106.543 720 106.279 717.808 106.921C714.898 107.753 705.676 110.663 703.257 110.663ZM561.298 137.12C566.853 137.12 567.231 132.32 568.592 128.087L576.151 102.764C576.869 100.572 577.285 98.7954 578.003 96.5654C580.951 87.5324 579.855 86.3985 573.316 85.6048C565.19 84.6221 564.359 82.9214 557.82 81.9765C548.976 80.6914 541.379 80.6914 532.876 84.7733C523.502 89.3088 517.342 95.5072 512.655 105.107C499.956 131.224 521.272 149.025 539.112 129.372C541.039 127.293 541.379 126.462 541.379 124.118C535.446 124.118 530.948 125.857 529.625 119.696C528.68 115.199 530.721 109 532.271 105.712C533.934 102.159 537.071 98.4174 540.51 96.7544C542.476 95.7717 544.932 95.2426 547.351 95.9229C549.128 96.4521 550.904 98.3796 550.904 100.799C550.904 106.165 546.179 120.603 544.365 126.31C543.912 127.633 540.019 137.12 544.403 137.12H561.298ZM474.746 137.12C486.425 137.12 498.331 128.691 503.32 118.751C507.213 110.928 508.498 101.176 504.038 93.3151C495.194 77.63 477.694 80.0111 463.294 82.2032C458.494 82.9591 452.787 82.241 448.441 82.9591C446.098 83.3371 444.813 84.3576 444.057 86.4741C442.205 91.4631 440.202 99.4379 438.425 104.88C433.965 118.751 429.846 134.021 425.348 147.816C424.328 150.953 421.531 157.302 426.255 157.302C448.857 157.302 448.214 159.759 451.351 147.891C452.447 143.81 453.883 139.917 454.828 135.759C456.605 135.608 455.773 135.343 457.436 135.343C459.402 135.343 461.518 136.25 463.181 136.553C467.754 137.347 470.06 137.12 474.746 137.12ZM460.006 119.167C460.006 117.92 464.466 105.561 465.146 103.406C466.885 97.9639 470.249 94.5245 476.447 94.5245C487.143 94.5245 487.521 110.134 480.038 117.504C473.008 124.496 460.006 122.871 460.006 119.167Z" fill="#FF0000"/>
<path fill-rule="evenodd" clip-rule="evenodd" d="M436.422 59.0346V51.0976C433.852 50.4173 435.968 50.0771 432.189 50.0015C430.337 49.9638 428.939 50.1905 427.087 49.8504C424.479 49.359 421.946 47.885 419.981 46.8645C419.981 42.2157 421.644 42.2157 417.184 39.6078C413.216 37.2645 407.168 34.4677 403.729 31.3685C401.99 29.7811 400.63 27.0598 399.345 25.1323C395.452 25.1323 393.713 25.737 392.995 28.8362C391.257 28.3826 390.425 27.0598 388.309 26.1149L377.31 22.2598C374.74 21.2393 374.74 20.8992 371.263 20.8992C367.937 25.8882 370.091 23.6582 368.617 26.7197C362.683 26.7197 367.748 25.4724 357.203 26.9464C345.94 28.5338 352.365 27.2488 345.864 27.2488C345.864 30.3102 344.466 33.3716 345.864 36.2441C343.786 36.433 330.368 37.9449 329.424 38.3984C327.118 43.1984 331.578 48.6787 333.127 51.6267C332.107 52.1181 329.386 52.6472 327.836 52.685C327.836 59.4504 330.822 68.9748 333.052 75.022C335.773 82.3921 345.184 99.4 350.098 102.991C352.29 101.517 354.142 99.8913 356.523 98.3417C373.531 87.3811 397.115 94.5244 405.883 112.855C416.428 134.965 401.424 161.762 376.025 161.762V158.587C381.883 158.587 387.288 156.282 390.992 153.939C421.644 134.625 398.211 85.1134 361.814 99.8913C359.584 100.798 357.77 102.008 355.842 103.444C353.99 104.767 351.798 105.901 351.156 108.282C339.704 100.609 328.252 80.011 323.83 64.6283C320.806 54.0834 321.033 51.4756 319.748 41.7244C319.068 36.5464 318.841 23.1669 319.672 17.4976C320.466 12.0551 321.146 5.97005 322.356 0.678711C317.178 0.867687 314.381 0.300758 307.578 3.85351C304.063 6.04564 301.795 9.63619 300.359 13.5669C293.934 31.2173 300.132 52.8362 307.351 68.4078C309.808 73.6614 312.718 78.159 315.779 82.77C321.827 91.8787 329.083 98.9842 337.247 106.279C344.353 112.628 348.359 113.12 345.864 117.806C344.126 117.353 344.579 117.239 343.181 116.257L326.664 104.162C307.011 86.6252 296.315 69.7685 290.23 43.6897C273.109 43.6897 267.099 74.6441 304.479 102.537C314.683 110.172 325.077 115.539 336.907 120.414C339.25 121.359 341.783 122.531 344.277 123.135V126.839C339.817 126.839 328.025 123.06 323.754 121.359C317.178 118.789 311.66 116.71 305.915 113.271C294.954 106.808 285.43 100.761 278.06 89.7622C271.597 94.0708 271.37 104.691 275.603 111.797C279.156 117.693 286.148 121.586 292.346 124.723C299.15 128.124 307.049 130.279 315.817 131.45C325.19 132.698 333.657 132.66 344.277 132.66C344.428 134.701 344.731 134.02 344.806 136.364C342.539 137.422 331.313 138.707 327.798 138.972C301.077 141.164 284.296 128.994 280.176 127.898C276.359 144.187 289.587 152.313 305.613 152.238C331.2 152.124 341.518 142.676 347.452 142.184C347.981 144.187 348.472 143.507 349.039 145.888C340.044 150.65 340.233 152.276 327.005 156.698C312.68 161.46 306.104 158.587 298.167 158.587C298.167 166.109 302.098 169.586 308.296 170.72C321.071 173.101 331.805 168.339 340.913 160.553C343.294 158.55 350.967 152.238 351.685 149.592C353.424 150.046 353.953 150.915 354.86 152.238C353.953 153.939 352.819 155.337 351.534 156.849C347.716 161.309 344.995 164.143 340.195 167.772C334.942 171.665 326.022 176.049 319.37 176.616C319.672 180.395 325.833 184.213 331.427 183.381C346.62 181.076 353.348 166.298 359.093 155.413C360.869 155.564 361.02 155.828 362.268 156.471C361.02 161.876 357.316 169.057 354.406 172.987C349.833 179.186 347.49 180.622 341.064 184.024C342.425 188.975 358.677 192.905 364.271 170.153C365.027 167.091 366.425 161.384 366.501 158.058C368.844 158.134 368.164 158.436 370.205 158.587C370.205 162.405 369.487 171.589 368.579 174.461C367.559 177.75 365.442 180.244 364.044 182.776C363.25 184.25 362.457 184.25 364.422 184.968C369.638 186.783 375.156 182.474 376.365 179.602C378.595 174.31 377.008 170.379 376.554 164.975C378.86 164.899 383.66 163.917 385.701 163.501C388.838 162.896 391.181 162.291 393.6 161.346C400.97 158.361 406.979 154.505 411.439 147.929C414.576 143.28 416.239 139.198 417.94 133.756C419.527 128.729 419.15 131.072 423.156 128.956C423.156 120.49 420.472 124.231 418.809 118.978C416.882 112.893 427.767 112.666 421.228 107.564C417.751 104.88 410.532 101.403 413.102 90.2913C417.676 90.2913 419.641 92.5968 423.723 89.7622C425.915 88.2504 426.86 83.4504 426.86 79.7086C423.345 80.5023 420.926 83.337 416.92 80.1244C411.553 75.7779 415.294 65.3086 422.249 63.9102C426.86 62.9653 429.241 66.0267 429.543 69.6173C432.227 68.8992 434.608 64.9307 435.439 62.285L436.422 59.0346ZM382.904 46.8645C381.43 46.0708 381.165 46.2976 380.258 44.748C379.805 43.9543 379.2 42.3669 379.427 41.233C379.842 39.1165 384.642 32.5401 390.35 41.0441C388.611 40.6283 387.061 39.9858 385.02 39.9858C381.203 39.9858 382.904 46.8645 382.904 46.8645ZM417.335 47.9228C416.806 50.2283 415.748 50.9086 415.219 53.2141L414.274 52.0425C412.8 50.4173 412.535 50.6063 412.044 48.5275L417.335 47.9228Z" fill="#FF0000"/>
</svg>
