<svg width="246" height="167" viewBox="0 0 246 167" fill="none" xmlns="http://www.w3.org/2000/svg">
<path fill-rule="evenodd" clip-rule="evenodd" d="M230.34 75.701C231.134 76.1167 231.7 76.6458 232.494 77.0616C233.439 75.512 245.004 57.2947 245.08 56.4254C244.551 56.2742 244.853 56.3498 244.437 56.0852C244.211 55.934 243.984 55.7829 243.757 55.6695C243.19 55.3293 242.85 55.1781 242.245 54.9136C234.913 51.8143 227.581 50.1514 219.568 49.5088L217.678 49.3577C215.146 49.1309 207.625 49.471 205.546 49.7734C199.499 50.6427 197.345 51.2474 192.129 53.2884C190.428 53.9687 188.16 55.1781 186.611 56.123C184.834 57.2191 183.171 58.3907 181.622 59.7136C179.278 61.6789 179.203 62.0569 177.426 63.871C176.973 64.3246 176.859 64.5136 176.444 65.0049L173.685 68.671C173.685 67.5372 176.444 52.986 176.444 51.5876C175.537 51.1718 172.589 50.6427 171.304 50.4159C168.507 49.8868 166.163 49.471 163.215 49.1687C156.601 48.564 148.815 48.7529 142.504 49.8868C142.088 49.9624 141.634 50.0002 141.219 50.0758C134.604 51.4364 129.918 53.175 123.644 56.312C118.995 58.6175 112.116 63.9088 108.79 68.0663L106.598 70.712C106.107 71.3167 105.691 71.9214 105.237 72.564C104.935 73.0553 104.255 74.2269 103.915 74.4915C103.915 73.471 104.217 72.375 104.368 71.5435C104.784 69.0112 107.959 51.8143 107.959 50.7939C102.667 50.7939 97.6028 50.6049 92.1603 50.6049C90.7241 50.6427 89.817 50.4537 88.3052 50.4537H76.2107L74.7744 58.6931C73.943 62.208 73.0737 68.4821 72.28 72.4884C71.2217 77.6663 70.3146 83.6758 69.2941 88.8159C69.1052 89.723 68.9918 90.7057 68.8028 91.575C68.6516 92.2175 68.3115 93.7671 68.3115 94.4474C67.9335 94.0317 64.8343 87.1907 64.3807 86.2836L47.1839 49.9624C39.3603 49.9624 30.4784 50.4537 22.6926 50.4537H16.4185C15.6248 50.4537 15.2847 50.6049 14.491 50.6049L1.03587 132.885C0.846889 133.792 0.620117 134.737 0.620117 135.72L31.7256 135.758H32.217L33.3508 135.72C35.3918 123.021 39.2091 105.521 40.2674 92.671C40.6831 92.9734 41.3256 94.7498 41.5524 95.2789L51.228 116.709C51.6437 117.616 51.9839 118.447 52.3996 119.392C54.176 123.134 56.7461 129.408 58.4091 132.696C58.6737 133.225 58.787 133.528 59.0138 134.057C59.3162 134.662 59.4296 134.851 59.6185 135.569H93.1052C93.1052 134.51 93.5209 133.074 93.7099 131.94L98.1319 106.882L98.3587 107.6C99.3036 112.022 100.702 115.688 103.196 119.506C115.896 138.857 141.37 138.403 161.552 135.984C163.631 135.682 162.384 136.325 163.215 132.81C163.745 132.847 164.463 133.225 165.03 133.414C168.62 134.586 173.193 135.682 176.897 136.211C189.596 137.95 201.956 137.988 214.239 133.906C223.65 130.731 231.171 124.986 236.009 116.331C238.239 112.287 240.545 106.051 240.393 101.062C240.129 92.7466 234.346 87.8332 227.241 84.734C226.069 84.2427 224.746 83.7514 223.612 83.3734C216.431 80.9545 207.776 79.7451 200.293 78.1577L210.459 71.1277C211.556 70.334 211.934 70.2584 212.652 69.238C220.173 71.5435 223.801 72.1482 230.34 75.701ZM178.296 107.714C177.086 106.958 175.045 105.673 174.667 105.597C174.252 106.202 173.911 106.769 173.458 107.449L165.181 120.602L164.992 120.753C165.03 119.959 165.219 119.128 165.37 118.372C166.163 113.496 166.957 108.507 168.129 103.745C168.356 102.838 168.696 102.271 168.847 101.553C167.448 102.498 167.789 102.687 164.614 104.577C157.282 109.036 142.39 109.528 136.003 103.594C130.938 98.9073 131.656 93.4647 134.529 87.6821C135.852 85.0742 137.137 83.4112 139.064 81.4458C144.204 76.2679 152.141 75.8521 158.869 77.5529C159.814 77.7797 160.721 78.0443 161.628 78.3088C163.934 79.0269 167.184 80.5766 169.338 81.7104C169.338 87.1151 171.379 91.4238 175.159 95.2411C183.663 103.707 190.428 101.855 200.444 105.068C203.845 106.164 205.206 110.246 202.069 112.703C198.856 115.235 193.074 113.988 189.294 112.816L178.296 107.714Z" fill="#0D1B6F"/>
<path fill-rule="evenodd" clip-rule="evenodd" d="M221.458 49.66C221.08 53.0616 214.882 65.6097 212.879 68.86C212.009 70.2585 211.669 70.2207 210.46 71.1278L191.449 84.3183C190.542 84.9608 186.535 87.6443 186.082 88.1734L199.915 88.5514C199.537 89.7608 188.539 102.082 187.367 102.422C187.14 103.103 184.721 105.106 184.041 105.786C183.739 106.088 183.55 106.277 183.247 106.58L181.471 108.205C181.131 108.507 180.828 108.696 180.526 108.961C179.883 109.83 176.822 112.249 175.877 113.081C171.644 116.709 165.521 121.093 160.948 124.268C158.113 126.233 141.446 136.892 139.216 137.118C138.8 137.572 138.233 137.685 137.666 138.063C137.288 138.252 137.288 138.29 136.948 138.441L132.866 140.482C130.561 141.503 128.595 142.561 126.252 143.581L119.562 146.529C102.214 153.408 93.2567 156.394 74.5102 159.984C71.2976 160.589 68.3118 160.514 65.5527 160.854C64.5322 160.967 64.1165 160.74 63.3228 160.703C62.5291 160.665 61.7354 160.778 60.9417 160.665C59.6567 160.514 58.0693 160.325 56.7464 160.022C54.1008 159.455 51.5685 158.699 49.3385 157.603C49.0362 157.414 48.9228 157.377 48.5826 157.225L46.2015 155.903C45.1811 155.298 44.274 154.618 43.3669 153.899C41.6661 152.501 40.948 151.934 39.6252 150.384C39.2094 149.893 38.9071 149.515 38.4535 148.986C37.0173 147.247 35.7322 145.018 34.7496 143.014C34.0315 141.616 32.2173 137.61 32.2173 135.758H31.7259C31.7259 136.438 31.4614 137.269 31.348 138.063C30.3653 144.299 31.8393 151.405 35.959 155.827C39.2472 159.38 43.896 162.29 48.5071 163.575C50.0567 163.991 51.3417 164.369 52.9669 164.747C57.8047 165.918 63.5118 166.183 68.8031 166.183H73.4519C74.926 166.145 75.3795 166.032 79.5748 165.503C85.5086 164.784 97.5275 161.912 103.008 160.287C103.802 160.06 104.482 159.795 105.2 159.569C105.918 159.342 106.712 159.153 107.43 158.926L115.896 155.94C124.4 152.879 132.526 148.797 140.539 144.791L154.372 136.854C154.712 136.438 158.113 134.397 158.831 133.944C160.305 132.999 161.779 132.016 163.216 131.071C166.164 129.068 168.961 127.103 171.757 125.062C175.65 122.189 182.302 117.162 186.006 113.874C186.46 113.496 187.442 112.551 188.009 112.4L190.844 109.83C190.882 109.83 190.995 109.717 191.033 109.717L195.795 105.446C196.173 105.106 196.476 104.766 196.853 104.463C197.194 103.783 197.912 103.367 198.479 102.838C200.709 100.873 204.45 96.9419 206.529 94.7498L209.591 91.575C210.384 94.5608 211.518 105.295 212.123 106.58L219.682 82.2018C220.4 80.6522 220.853 78.8758 221.383 77.2506C221.761 76.1923 222.63 73.1309 223.272 72.5262C223.424 71.8837 224.293 70.712 224.671 70.0317C225.918 67.8018 227.316 64.8915 228.299 62.5482C229.055 60.7719 229.773 58.9955 230.453 57.1057C230.831 56.0852 231.965 52.0789 232.343 51.5876L233.364 47.3167C233.704 45.8427 234.044 44.2931 234.233 42.8569C234.8 39.0774 234.913 36.6963 234.913 32.7278C234.951 28.6837 233.628 22.901 232.003 19.4994L231.096 17.6852C230.151 15.7955 229.055 14.4726 227.808 12.923C222.139 5.89312 210.913 2.15139 201.994 0.904144C197.572 0.261625 194.019 0.337215 189.446 0.337215H189.105C184.91 0.37501 176.52 1.62225 172.513 2.56714C164.992 4.34351 162.989 5.06162 155.808 7.44273C153.238 8.31202 150.592 9.48367 148.098 10.5041C145.603 11.5246 143.146 12.7341 140.728 13.9435C139.48 14.5482 138.384 15.0396 137.213 15.7577L134.605 17.1939C134 17.5341 134.038 17.3073 133.887 17.912C137.288 16.0978 142.126 14.2837 145.641 12.7341C150.139 10.7687 157.471 8.4254 161.931 7.14036L169.717 5.2506C171.115 4.98603 172.324 4.68367 173.761 4.4191C175.31 4.19233 176.52 4.00336 178.107 3.77659C188.085 2.41596 198.781 2.90729 208.154 6.30887L211.669 7.78288C213.483 8.61438 214.617 9.40808 216.167 10.5419C220.513 13.8301 223.272 18.8569 224.331 24.2994C225.238 28.9482 225.087 33.0301 224.368 37.8301C224.028 40.249 222.894 45.3136 222.139 47.6569C221.912 48.375 221.685 48.9041 221.458 49.66Z" fill="#FF7F00"/>
<path d="M18.8374 38.8885L20.2736 29.024H17.6279L18.0815 26.0759H26.4342L25.9807 29.024H23.4484L22.0122 38.8885H18.8374ZM25.9807 38.8885L27.9838 25.32H30.7807L30.0626 30.0822C30.0248 30.309 29.987 30.5358 29.9492 30.7626C29.9114 30.9893 29.8736 31.2161 29.8358 31.4051C30.2516 30.8381 30.7051 30.4224 31.1586 30.1578C31.5744 29.8933 32.0657 29.7421 32.5949 29.7421C33.4264 29.7421 34.1067 30.0066 34.5602 30.498C35.0138 30.9893 35.2405 31.6696 35.2405 32.5767C35.2405 32.8791 35.2027 33.3704 35.1271 34.0885C35.0893 34.1641 35.0893 34.2019 35.0893 34.2397L34.409 38.8885H31.5366L32.2169 34.2019C32.2169 34.0507 32.2547 33.9374 32.2547 33.824C32.2925 33.6728 32.2925 33.5594 32.2925 33.4838C32.2925 33.1059 32.1791 32.8035 31.9901 32.6145C31.8012 32.3877 31.5366 32.3122 31.1586 32.3122C30.6673 32.3122 30.2893 32.5011 29.987 32.8791C29.7224 33.2948 29.4956 33.8996 29.3823 34.7689L28.8153 38.8885H25.9807ZM42.724 33.4082C42.724 32.9169 42.5728 32.5389 42.3082 32.2744C42.0059 32.0098 41.6657 31.8586 41.2122 31.8586C40.8342 31.8586 40.4563 32.0098 40.1539 32.2744C39.8516 32.5389 39.587 32.9169 39.4358 33.4082H42.724ZM39.2468 35.2224V35.4114C39.2468 35.9783 39.398 36.394 39.6626 36.6964C39.8893 36.961 40.3051 37.1122 40.7964 37.1122C41.1366 37.1122 41.4767 37.0366 41.8169 36.8854C42.1193 36.7342 42.4594 36.4696 42.7996 36.0917L44.3492 37.7925C43.8956 38.2838 43.3665 38.6618 42.7618 38.8885C42.1571 39.1153 41.4767 39.2287 40.7208 39.2287C39.398 39.2287 38.3775 38.8507 37.6594 38.0948C36.9035 37.3389 36.5256 36.2429 36.5256 34.8444C36.5256 33.3326 36.9791 32.1232 37.8484 31.1783C38.7177 30.2334 39.8516 29.7421 41.25 29.7421C42.4972 29.7421 43.5177 30.1578 44.2736 30.9893C45.0295 31.8586 45.4075 32.9547 45.4075 34.3153C45.4075 34.4665 45.4075 34.6933 45.3697 34.9956C45.3697 35.109 45.3697 35.1468 45.3697 35.2224H39.2468ZM58.4846 32.1988C59.2405 32.35 59.8075 32.6901 60.2232 33.1815C60.6012 33.6728 60.7901 34.3153 60.7901 35.109C60.7901 35.7893 60.6767 36.394 60.4122 36.9232C60.1476 37.4901 59.7697 37.9059 59.3161 38.246C58.976 38.4728 58.5224 38.624 57.9933 38.7374C57.5019 38.8507 56.6327 38.8885 55.4232 38.8885H54.5917H51.5303L53.4201 26.0759H56.0657C57.124 26.0759 57.8421 26.0759 58.2956 26.1515C58.7114 26.1893 59.0893 26.3027 59.3917 26.4161C59.883 26.6429 60.261 26.983 60.5634 27.4744C60.8279 27.9657 60.9791 28.4948 60.9791 29.0996C60.9791 29.9689 60.7523 30.6492 60.3366 31.2161C59.883 31.7452 59.2783 32.0854 58.4846 32.1988ZM54.9697 36.3563H55.3476C56.2925 36.3563 56.935 36.2429 57.2374 35.9783C57.5775 35.7515 57.7287 35.298 57.7287 34.6933C57.7287 34.2019 57.5775 33.8618 57.313 33.6728C57.0484 33.4838 56.5949 33.3704 55.9523 33.3704H55.3854L54.9697 36.3563ZM55.7256 31.0271H55.9901C56.746 31.0271 57.2752 30.9137 57.5775 30.687C57.8421 30.498 57.9933 30.12 57.9933 29.5909C57.9933 29.2129 57.8799 28.9484 57.6531 28.7594C57.4264 28.6082 57.0484 28.5326 56.5193 28.5326H56.0657L55.7256 31.0271ZM67.9712 33.4082C67.9334 32.9169 67.7823 32.5389 67.5177 32.2744C67.2531 32.0098 66.913 31.8586 66.4594 31.8586C66.0815 31.8586 65.7035 32.0098 65.4012 32.2744C65.061 32.5389 64.8342 32.9169 64.683 33.4082H67.9712ZM64.4941 35.2224V35.4114C64.4941 35.9783 64.6075 36.394 64.872 36.6964C65.1366 36.961 65.5145 37.1122 66.0437 37.1122C66.3838 37.1122 66.724 37.0366 67.0264 36.8854C67.3665 36.7342 67.7067 36.4696 68.0468 36.0917L69.5964 37.7925C69.1429 38.2838 68.6138 38.6618 68.009 38.8885C67.4043 39.1153 66.724 39.2287 65.9681 39.2287C64.6453 39.2287 63.6248 38.8507 62.8689 38.0948C62.1508 37.3389 61.7728 36.2429 61.7728 34.8444C61.7728 33.3326 62.2264 32.1232 63.0956 31.1783C63.9649 30.2334 65.0988 29.7421 66.4972 29.7421C67.7445 29.7421 68.7649 30.1578 69.5208 30.9893C70.2767 31.8586 70.6547 32.9547 70.6547 34.3153C70.6547 34.4665 70.6547 34.6933 70.6169 34.9956C70.6169 35.109 70.5791 35.1468 70.5791 35.2224H64.4941ZM78.2893 30.687L77.4579 32.6901C77.0799 32.3877 76.7397 32.1988 76.4374 32.0476C76.135 31.9342 75.7949 31.8586 75.4925 31.8586C75.2657 31.8586 75.039 31.9342 74.85 32.0476C74.6988 32.161 74.6232 32.35 74.6232 32.5389C74.6232 32.8035 74.8878 33.0303 75.4547 33.257C75.6815 33.3704 75.8704 33.446 76.0216 33.5216C76.8153 33.8996 77.3445 34.2775 77.6468 34.6555C77.987 35.0712 78.1382 35.5626 78.1382 36.1295C78.1382 37.0744 77.798 37.8303 77.1555 38.3594C76.4752 38.9263 75.6059 39.2287 74.5098 39.2287C73.8673 39.2287 73.2626 39.1153 72.6956 38.9641C72.1287 38.7752 71.5996 38.5106 71.0704 38.1326L72.0153 36.0161C72.5823 36.394 73.0358 36.6586 73.4138 36.8098C73.7539 36.961 74.1319 37.0366 74.4342 37.0366C74.7366 37.0366 74.9634 36.961 75.1145 36.8476C75.3035 36.6964 75.3791 36.5074 75.3791 36.3185C75.3791 35.9783 75.0012 35.6381 74.2075 35.2602C73.9807 35.1846 73.7917 35.109 73.6405 35.0334C73.0358 34.7311 72.5823 34.3909 72.3177 34.0507C72.0531 33.6728 71.9019 33.257 71.9019 32.7279C71.9019 31.8586 72.2421 31.1405 72.8846 30.6114C73.5649 30.0444 74.3964 29.7421 75.4169 29.7421C75.9082 29.7421 76.4374 29.8177 76.9287 30.0066C77.4201 30.1578 77.8736 30.3846 78.2893 30.687ZM79.4232 38.8885L80.4059 32.3122H79.0453L79.3854 30.0444H80.7082L81.0862 27.4744H83.9586L83.5807 30.0444H85.0169L84.7145 32.3122H83.2405L82.2956 38.8885H79.4232ZM90.1571 38.8885L91.1397 32.3122H89.7791L90.1193 30.0444H91.4421L91.5933 29.1374C91.5933 29.0618 91.6311 28.9484 91.6311 28.7972C91.8201 27.6255 92.0468 26.794 92.387 26.3783C92.6516 25.9626 93.0673 25.6602 93.5208 25.4334C93.9744 25.2066 94.5035 25.0933 95.0704 25.0933C95.2972 25.0933 95.5996 25.1311 95.8641 25.1689C96.1287 25.2444 96.4311 25.3578 96.7334 25.4712L96.3933 28.0035C96.2421 27.9279 96.0531 27.8523 95.9019 27.8145C95.7508 27.7767 95.6374 27.7389 95.4862 27.7389C95.1838 27.7389 94.9571 27.8523 94.7681 28.0791C94.6169 28.3059 94.5035 28.6838 94.4279 29.2507L94.3145 30.0444H96.0909L95.7508 32.3122H93.9744L93.0295 38.8885H90.1571ZM100.815 32.2744C100.248 32.2744 99.7571 32.5389 99.3791 33.0303C99.0012 33.5594 98.8122 34.2019 98.8122 34.92C98.8122 35.4492 98.9256 35.9027 99.2279 36.2051C99.4925 36.5452 99.8704 36.6964 100.362 36.6964C100.967 36.6964 101.458 36.4318 101.836 35.9405C102.214 35.4492 102.403 34.8444 102.403 34.0507C102.403 33.5216 102.252 33.0681 101.987 32.7657C101.685 32.4255 101.307 32.2744 100.815 32.2744ZM96.0531 34.8822C96.0531 33.3704 96.5067 32.161 97.376 31.1783C98.283 30.2334 99.4547 29.7421 100.853 29.7421C102.176 29.7421 103.196 30.12 103.99 30.9515C104.746 31.7452 105.162 32.8035 105.162 34.1263C105.162 35.6381 104.708 36.8476 103.801 37.7925C102.856 38.7752 101.685 39.2287 100.248 39.2287C98.9634 39.2287 97.9429 38.8507 97.187 38.057C96.4311 37.2633 96.0531 36.2051 96.0531 34.8822ZM106.031 38.8885L107.316 30.0444H110.075L109.886 31.5563C110.113 30.9893 110.453 30.5736 110.907 30.2712C111.322 29.9689 111.814 29.8177 112.381 29.8177C112.418 29.8177 112.494 29.8177 112.57 29.8555C112.645 29.8555 112.759 29.8555 112.91 29.8933L112.343 32.6901C112.154 32.6145 112.003 32.5767 111.852 32.5767C111.7 32.5389 111.549 32.5389 111.398 32.5389C110.869 32.5389 110.415 32.7279 110.113 33.1059C109.773 33.4838 109.546 34.0507 109.433 34.8444L108.866 38.8885H106.031ZM121.792 36.0161H125.42L125.004 38.8885H118.201L120.091 26.0759H126.894L126.441 29.024H122.812L122.51 31.1027H125.911L125.496 33.8996H122.094L121.792 36.0161ZM125.722 38.8885L129.578 34.2775L127.234 30.0444H130.333L131.014 31.4807C131.089 31.6318 131.165 31.783 131.203 31.9342C131.278 32.0854 131.316 32.2744 131.392 32.4633C131.467 32.2744 131.543 32.0854 131.656 31.9342C131.732 31.7452 131.845 31.594 131.959 31.4429L132.941 30.0444H136.192L132.979 34.2775L135.36 38.8885H132.11L131.354 37.2633C131.278 37.0366 131.203 36.8854 131.127 36.7342C131.052 36.583 131.014 36.4318 130.976 36.2807C130.863 36.5074 130.787 36.6964 130.674 36.8476C130.598 36.9988 130.485 37.15 130.409 37.3011L129.275 38.8885H125.722ZM143.146 34.2775C143.146 33.7106 142.957 33.2192 142.655 32.8791C142.315 32.5389 141.899 32.3877 141.407 32.3877C140.841 32.3877 140.349 32.6145 139.971 33.1059C139.593 33.5594 139.404 34.1641 139.404 34.8822C139.404 35.4492 139.555 35.9027 139.858 36.2429C140.198 36.5452 140.614 36.7342 141.105 36.7342C141.71 36.7342 142.201 36.5074 142.579 36.0161C142.957 35.5626 143.146 34.9956 143.146 34.2775ZM135.625 42.7815L137.515 30.0444H140.198L140.009 31.2539C140.425 30.7626 140.878 30.3846 141.332 30.12C141.823 29.8933 142.352 29.7421 142.881 29.7421C143.826 29.7421 144.582 30.12 145.187 30.9137C145.792 31.6696 146.094 32.6523 146.094 33.8618C146.094 35.3736 145.678 36.6586 144.885 37.6791C144.053 38.6996 143.033 39.1909 141.823 39.1909C141.294 39.1909 140.765 39.0775 140.349 38.8129C139.896 38.5484 139.48 38.1704 139.102 37.6413C139.102 37.9059 139.064 38.1704 139.064 38.3972C139.064 38.624 139.026 38.8507 138.989 39.0019L138.459 42.7815H135.625ZM147.077 38.8885L148.362 30.0444H151.121L150.932 31.5563C151.159 30.9893 151.499 30.5736 151.952 30.2712C152.368 29.9689 152.859 29.8177 153.426 29.8177C153.464 29.8177 153.54 29.8177 153.615 29.8555C153.691 29.8555 153.804 29.8555 153.993 29.8933L153.426 32.6901C153.237 32.6145 153.048 32.5767 152.897 32.5767C152.746 32.5389 152.595 32.5389 152.481 32.5389C151.915 32.5389 151.461 32.7279 151.159 33.1059C150.818 33.4838 150.63 34.0507 150.478 34.8444L149.911 38.8885H147.077ZM160.305 33.4082C160.305 32.9169 160.154 32.5389 159.889 32.2744C159.625 32.0098 159.247 31.8586 158.831 31.8586C158.415 31.8586 158.075 32.0098 157.735 32.2744C157.433 32.5389 157.206 32.9169 157.017 33.4082H160.305ZM156.828 35.2224V35.4114C156.828 35.9783 156.979 36.394 157.244 36.6964C157.508 36.961 157.886 37.1122 158.378 37.1122C158.755 37.1122 159.058 37.0366 159.398 36.8854C159.7 36.7342 160.041 36.4696 160.418 36.0917L161.968 37.7925C161.477 38.2838 160.948 38.6618 160.343 38.8885C159.738 39.1153 159.058 39.2287 158.34 39.2287C156.979 39.2287 155.959 38.8507 155.241 38.0948C154.485 37.3389 154.144 36.2429 154.144 34.8444C154.144 33.3326 154.56 32.1232 155.43 31.1783C156.299 30.2334 157.433 29.7421 158.831 29.7421C160.078 29.7421 161.099 30.1578 161.855 30.9893C162.648 31.8586 163.026 32.9547 163.026 34.3153C163.026 34.4665 162.989 34.6933 162.951 34.9956C162.951 35.109 162.951 35.1468 162.951 35.2224H156.828ZM170.661 30.687L169.792 32.6901C169.414 32.3877 169.111 32.1988 168.771 32.0476C168.469 31.9342 168.167 31.8586 167.864 31.8586C167.6 31.8586 167.373 31.9342 167.222 32.0476C167.033 32.161 166.957 32.35 166.957 32.5389C166.957 32.8035 167.259 33.0303 167.789 33.257C168.053 33.3704 168.242 33.446 168.393 33.5216C169.149 33.8996 169.716 34.2775 170.018 34.6555C170.321 35.0712 170.472 35.5626 170.472 36.1295C170.472 37.0744 170.132 37.8303 169.489 38.3594C168.847 38.9263 167.94 39.2287 166.844 39.2287C166.239 39.2287 165.634 39.1153 165.067 38.9641C164.5 38.7752 163.933 38.5106 163.404 38.1326L164.349 36.0161C164.916 36.394 165.37 36.6586 165.748 36.8098C166.126 36.961 166.466 37.0366 166.806 37.0366C167.07 37.0366 167.297 36.961 167.486 36.8476C167.637 36.6964 167.751 36.5074 167.751 36.3185C167.751 35.9783 167.335 35.6381 166.541 35.2602C166.315 35.1846 166.126 35.109 166.012 35.0334C165.37 34.7311 164.916 34.3909 164.652 34.0507C164.387 33.6728 164.274 33.257 164.274 32.7279C164.274 31.8586 164.614 31.1405 165.256 30.6114C165.899 30.0444 166.73 29.7421 167.751 29.7421C168.28 29.7421 168.771 29.8177 169.263 30.0066C169.754 30.1578 170.207 30.3846 170.661 30.687ZM178.22 30.687L177.389 32.6901C177.011 32.3877 176.67 32.1988 176.368 32.0476C176.066 31.9342 175.726 31.8586 175.423 31.8586C175.196 31.8586 174.97 31.9342 174.781 32.0476C174.63 32.161 174.554 32.35 174.554 32.5389C174.554 32.8035 174.818 33.0303 175.385 33.257C175.612 33.3704 175.801 33.446 175.952 33.5216C176.746 33.8996 177.275 34.2775 177.578 34.6555C177.918 35.0712 178.069 35.5626 178.069 36.1295C178.069 37.0744 177.729 37.8303 177.086 38.3594C176.406 38.9263 175.537 39.2287 174.441 39.2287C173.798 39.2287 173.193 39.1153 172.626 38.9641C172.059 38.7752 171.53 38.5106 171.001 38.1326L171.946 36.0161C172.513 36.394 172.967 36.6586 173.344 36.8098C173.685 36.961 174.063 37.0366 174.365 37.0366C174.667 37.0366 174.894 36.961 175.045 36.8476C175.234 36.6964 175.31 36.5074 175.31 36.3185C175.31 35.9783 174.932 35.6381 174.138 35.2602C173.911 35.1846 173.722 35.109 173.571 35.0334C172.967 34.7311 172.513 34.3909 172.248 34.0507C171.984 33.6728 171.833 33.257 171.833 32.7279C171.833 31.8586 172.173 31.1405 172.815 30.6114C173.496 30.0444 174.327 29.7421 175.348 29.7421C175.839 29.7421 176.368 29.8177 176.859 30.0066C177.351 30.1578 177.804 30.3846 178.22 30.687Z" fill="#332C2B"/>
</svg>
