<svg width="794" height="336" viewBox="0 0 794 336" fill="none" xmlns="http://www.w3.org/2000/svg">
<path fill-rule="evenodd" clip-rule="evenodd" d="M274.735 88.2474C258.634 88.2474 244.196 98.6411 234.029 110.698V90.6662H191.207V229.564H236.146V159.227C236.146 135.113 247.257 124.947 261.695 124.947C274.735 124.947 282.747 133.791 282.747 154.691V229.564H327.724V152.839C327.724 107.825 304.782 88.2474 274.735 88.2474ZM596.486 211.195V237.01C596.486 237.01 596.939 263.769 568.517 257.154L568.479 257.117L565.872 293.665C571.39 294.799 640.442 307.838 640.442 243.662L641.424 211.195V90.6662H596.486V211.195ZM378.331 74.6033C394.924 74.6033 405.771 62.8111 405.771 46.7103C405.771 31.4411 394.924 20.4426 378.331 20.4426C361.777 20.4426 350.892 32.2348 350.892 47.504C350.892 62.8111 361.777 74.6033 378.331 74.6033ZM355.881 229.564H400.82V90.6662H355.881V229.564ZM513.45 88.2474C497.349 88.2474 482.911 98.6411 472.744 110.698V90.6662H429.922V229.564H474.861V159.227C474.861 135.113 485.972 124.947 500.41 124.947C513.45 124.947 521.462 133.791 521.462 154.691V229.564H566.439V152.839C566.439 107.825 543.497 88.2474 513.45 88.2474ZM618.936 74.6033C635.528 74.6033 646.413 62.8111 646.413 46.7103C646.413 31.4411 635.528 20.4426 618.936 20.4426C602.382 20.4426 591.497 32.2348 591.497 47.504C591.497 62.8111 602.382 74.6033 618.936 74.6033ZM728.958 86.6222C708.851 86.6222 681.261 96.9781 667.805 109.753L690.785 134.547C699.553 126.761 711.27 121.28 723.553 121.28C741.317 121.28 749.103 127.63 749.783 142.37L712.706 146.112C673.172 150.118 661.04 167.353 661.04 194.15C661.04 213.123 680.391 233.079 711.157 233.079C725.708 233.079 745.248 227.447 751.635 213.501V229.639H793.513L793.702 151.819C793.815 105.747 770.609 86.6222 728.958 86.6222ZM723.289 202.616C712.631 202.616 703.787 196.682 703.787 188.102C703.787 179.258 712.933 171.813 727.333 170.83L751.711 169.167L751.673 181.526C746.42 199.101 733.229 202.616 723.289 202.616Z" fill="#E41E26"/>
<path fill-rule="evenodd" clip-rule="evenodd" d="M251.037 309.01L229.834 278.924L250.205 250.2H233.311L221.368 267.359L209.765 250.2H191.925L212.297 279.378L191.207 309.01H208.517L220.952 290.981L233.009 309.01H251.037ZM291.176 249.293C283.843 249.293 277.947 251.825 273.979 256.965V250.2H258.785V330.213H274.659V302.773C278.741 307.573 284.372 309.879 291.176 309.879C306.596 309.879 318.502 298.087 318.502 279.605C318.502 261.123 306.596 249.293 291.176 249.293ZM288.454 295.895C280.479 295.895 274.47 289.772 274.47 279.605C274.47 269.438 280.479 263.315 288.454 263.315C296.391 263.315 302.401 269.438 302.401 279.605C302.401 289.772 296.391 295.895 288.454 295.895ZM344.278 257.948V250.2H329.084V309.01H344.996V281.23C344.996 269.967 350.816 264.827 359.585 264.827C360.794 264.827 361.815 264.94 363.138 265.054V249.293C354.672 249.293 348.171 252.279 344.278 257.948ZM425.84 279.794C425.84 260.896 413.405 249.293 397.305 249.293C380.561 249.293 368.051 261.992 368.051 279.605C368.051 297.104 380.372 309.879 399.308 309.879C409.21 309.879 416.845 306.591 421.947 300.354L413.481 290.528C409.739 294.345 405.544 296.197 399.724 296.197C391.371 296.197 385.55 291.737 384.039 284.405H425.538C425.613 282.969 425.84 281.117 425.84 279.794ZM397.38 262.219C404.524 262.219 409.739 267.019 410.835 274.465H383.85C384.946 266.906 390.161 262.219 397.38 262.219ZM454.867 309.879C471.27 309.879 480.757 302.131 480.757 291.17C480.757 268.002 447.648 277.753 447.648 267.661C447.648 264.6 450.709 262.219 457.815 262.219C462.842 262.219 468.209 263.315 473.613 266.565L478.942 254.433C473.727 251.183 465.374 249.293 457.815 249.293C441.828 249.293 432.454 257.192 432.454 268.342C432.454 291.85 465.563 281.986 465.563 291.624C465.563 294.912 462.842 296.991 455.472 296.991C448.744 296.991 441.336 294.685 436.423 291.284L431.131 303.529C436.234 307.158 445.607 309.879 454.867 309.879ZM508.99 309.879C525.393 309.879 534.879 302.131 534.879 291.17C534.879 268.002 501.771 277.753 501.771 267.661C501.771 264.6 504.832 262.219 511.938 262.219C516.927 262.219 522.331 263.315 527.736 266.565L533.065 254.433C527.85 251.183 519.497 249.293 511.938 249.293C495.95 249.293 486.577 257.192 486.577 268.342C486.577 291.85 519.686 281.986 519.686 291.624C519.686 294.912 516.927 296.991 509.594 296.991C502.867 296.991 495.421 294.685 490.546 291.284L485.254 303.529C490.357 307.158 499.73 309.879 508.99 309.879Z" fill="black"/>
<path fill-rule="evenodd" clip-rule="evenodd" d="M79.2193 0.713379C122.986 0.713379 158.438 36.1653 158.438 79.9323C158.438 80.9527 158.4 81.9732 158.363 82.9937C158.363 83.1449 158.363 83.3339 158.325 83.485C158.06 89.4945 157.153 95.3527 155.604 100.946C151.333 118.294 140.637 146.112 113.915 181.942C98.7972 202.2 87.5343 231.454 79.1815 261.841C70.8665 231.454 59.6035 202.2 44.4854 181.942C16.139 143.957 5.82086 114.968 2.07913 97.9228C1.58779 95.7307 1.17204 93.5386 0.831886 91.3087C-0.226382 84.2409 0.0381854 80.4992 0.0381854 80.4992C0.0381854 80.3102 0.0381854 80.1213 0.0381854 79.9323C0.0381854 36.1653 35.4902 0.713379 79.2193 0.713379ZM79.2193 15.2646C114.936 15.2646 143.887 44.2157 143.887 79.9323C143.887 115.611 114.936 144.562 79.2193 144.562C43.5405 144.562 14.5894 115.611 14.5894 79.9323C14.5894 44.2157 43.5405 15.2646 79.2193 15.2646Z" fill="#E41E26"/>
<path fill-rule="evenodd" clip-rule="evenodd" d="M79.2194 22.7102C110.816 22.7102 136.441 48.3354 136.441 79.9323C136.441 111.529 110.816 137.117 79.2194 137.117C47.6226 137.117 22.0352 111.529 22.0352 79.9323C22.0352 48.3354 47.6226 22.7102 79.2194 22.7102Z" fill="black"/>
<path fill-rule="evenodd" clip-rule="evenodd" d="M50.4196 55.5166H108.02C118.905 55.5166 127.786 64.3985 127.786 75.2457C127.786 86.093 118.905 94.9749 108.02 94.9749H50.4196C39.5723 94.9749 30.6904 86.093 30.6904 75.2457C30.6904 64.3985 39.5723 55.5166 50.4196 55.5166ZM54.766 63.8694C61.04 63.8694 66.1424 68.9717 66.1424 75.2457C66.1424 81.5198 61.04 86.6221 54.766 86.6221C48.4542 86.6221 43.3896 81.5198 43.3896 75.2457C43.3896 68.9717 48.4542 63.8694 54.766 63.8694ZM103.711 63.8694C109.985 63.8694 115.087 68.9717 115.087 75.2457C115.087 81.5198 109.985 86.6221 103.711 86.6221C97.3991 86.6221 92.3345 81.5198 92.3345 75.2457C92.3345 68.9717 97.3991 63.8694 103.711 63.8694ZM104.089 65.1922C106.81 65.1922 109.04 67.3843 109.04 70.1056C109.04 72.8268 106.81 75.0568 104.089 75.0568C101.368 75.0568 99.1755 72.8268 99.1755 70.1056C99.1755 67.3843 101.368 65.1922 104.089 65.1922ZM55.144 65.1922C57.8652 65.1922 60.0952 67.3843 60.0952 70.1056C60.0952 72.8268 57.8652 75.0568 55.144 75.0568C52.4227 75.0568 50.2306 72.8268 50.2306 70.1056C50.2306 67.3843 52.4227 65.1922 55.144 65.1922Z" fill="white"/>
<path d="M99.5528 226.578L134.816 248.273V251.977V300.09V303L132.359 304.436L79.2189 335.806L26.0788 304.436L23.6221 303V300.09V248.273L27.704 245.778L58.8473 226.616C60.1323 229.526 61.4173 232.474 62.6646 235.498L37.6063 250.918L63.4961 266.868L79.2189 276.128L94.9796 266.83L120.832 250.918L95.7355 235.498C96.9827 232.474 98.2299 229.488 99.5528 226.578ZM74.3811 284.821L74.1921 284.707L33.2977 260.556V297.18L74.3811 321.444V284.821Z" fill="black"/>
</svg>
