<svg width="704" height="472" viewBox="0 0 704 472" fill="none" xmlns="http://www.w3.org/2000/svg">
<path d="M298.483 54.4268C386.962 18.6725 473.022 0.681933 540.562 0.568547C609.501 0.417366 659.617 18.8993 674.66 56.1276C689.702 93.3182 666.496 141.469 616.795 189.243C568.115 236.071 493.734 282.899 405.217 318.654C316.738 354.408 230.679 372.398 163.138 372.55C94.1998 372.701 44.0832 354.181 29.0407 316.953C13.9982 279.762 37.2045 231.611 86.8675 183.838C135.586 137.009 209.967 90.1811 298.483 54.4268ZM490.748 34.5087C437.948 30.5024 371.617 41.6142 304.304 68.8268C236.953 96.0394 181.507 134.099 146.319 173.671C111.85 212.411 96.9966 252.361 109.885 284.298C122.811 316.235 161.249 334.641 212.953 338.572C265.753 342.578 332.083 331.466 399.397 304.254C466.748 277.041 522.156 238.981 557.381 199.409C591.85 160.669 606.704 120.72 593.816 88.7827C580.89 56.8457 542.452 38.4394 490.748 34.5087Z" fill="#CA2128"/>
<path fill-rule="evenodd" clip-rule="evenodd" d="M300.184 58.622C476.121 -12.4709 641.929 -12.8111 670.465 57.8283C699 128.468 579.492 243.365 403.517 314.458C227.58 385.551 61.7718 385.929 33.2364 315.252C4.70098 244.613 124.21 129.715 300.184 58.622ZM302.603 64.6315C438.553 9.71493 570.799 19.7685 598.011 87.0819C625.224 154.433 537.047 253.532 401.098 308.449C265.148 363.403 132.903 353.312 105.69 285.998C78.4774 218.647 166.654 119.548 302.603 64.6315Z" fill="#1E2158"/>
<path fill-rule="evenodd" clip-rule="evenodd" d="M194.433 151.258L269.116 121.06C290.017 112.631 312.467 123.441 319.006 145.135C325.507 166.83 313.752 191.51 292.814 199.939L218.13 230.137L194.433 151.258ZM364.587 201.866L439.27 171.668C460.209 163.202 482.659 174.049 489.16 195.743C495.699 217.438 483.907 242.118 463.006 250.546L388.285 280.745L364.587 201.866ZM448.53 53.822L373.847 83.9827C352.908 92.4488 340.7 117.28 346.71 139.164C352.719 161.085 374.754 172.083 395.692 163.655L470.376 133.457L448.53 53.822Z" fill="#CA2128"/>
<path fill-rule="evenodd" clip-rule="evenodd" d="M0.354492 470.893V411.063H26.1309C40.7954 411.063 48.0899 416.921 48.0899 428.676C48.0899 440.543 39.9639 446.477 23.6742 446.477H17.7025V470.893H0.354492ZM17.7025 440.921H21.5954C27.9072 440.921 31.0443 436.726 31.0443 428.373C31.0443 420.512 27.9072 416.619 21.5954 416.619H17.7025V440.921ZM81.0852 411.063L97.7151 470.893H80.2915L76.7387 457.891H58.7482L54.9309 470.893H48.1277L65.8537 411.063H81.0852ZM60.449 451.882H75.1135L68.0836 425.425L60.449 451.882ZM146.169 411.063V470.893H132.865L107.92 433.06V470.893H102.099V411.063H113.098L140.31 451.957V411.063H146.169ZM156.184 470.893V411.063H180.94C198.515 411.063 207.321 421.041 207.321 441.035C207.321 460.953 198.213 470.893 179.995 470.893H156.184ZM173.495 465.942H178.068C182.225 465.942 185.098 464.165 186.685 460.537C188.31 456.909 189.104 450.408 189.104 440.921C189.104 431.51 188.31 424.972 186.723 421.381C185.136 417.791 182.225 415.976 178.068 415.976H173.495V465.942ZM260.008 411.063V451.239C260.008 464.997 252.411 471.876 237.18 471.876C222.024 471.876 214.427 464.997 214.427 451.239V411.063H231.737V451.768C231.737 457.022 232.493 460.613 234.005 462.54C235.517 464.468 238.314 465.413 242.358 465.413C250.257 465.413 254.188 460.688 254.188 451.239V411.063H260.008ZM313.677 411.063V464.883H338.244V470.893H296.329V411.063H313.677ZM366.364 410.042C383.788 410.042 392.48 420.361 392.48 440.959C392.48 461.595 383.599 471.876 365.873 471.876C348.147 471.876 339.265 461.331 339.265 440.279C339.265 420.134 348.298 410.042 366.364 410.042ZM365.873 414.805C362.584 414.805 360.354 416.619 359.221 420.209C358.049 423.838 357.482 430.754 357.482 440.959C357.482 451.202 358.049 458.118 359.221 461.709C360.354 465.299 362.584 467.113 365.873 467.113C369.161 467.113 371.391 465.299 372.525 461.709C373.658 458.118 374.263 451.202 374.263 440.959C374.263 430.754 373.658 423.876 372.525 420.247C371.391 416.619 369.161 414.805 365.873 414.805ZM423.51 438.578H448.191V470.893H442.673L440.783 466.773C435.983 470.175 430.88 471.876 425.514 471.876C416.632 471.876 409.753 469.23 404.84 463.939C399.964 458.647 397.507 451.164 397.507 441.526C397.507 432.153 400.115 424.556 405.293 418.773C410.471 412.953 417.274 410.042 425.665 410.042C436.701 410.042 443.429 415.712 445.847 427.013L437.684 430.716V429.28L437.57 426.03C437.003 418.962 433.753 415.447 427.781 415.447C423.359 415.447 420.373 417.299 418.748 421.041C417.161 424.783 416.329 431.775 416.329 441.942C416.329 451.466 417.01 457.967 418.295 461.368C419.617 464.808 422.074 466.509 425.778 466.509C430.087 466.509 432.241 464.09 432.241 459.328V444.587H423.51V438.578ZM474.08 411.063V470.893H456.732V411.063H474.08ZM523.554 427.844L515.504 429.318C515.844 427.731 516.033 426.37 516.033 425.274C516.033 418.282 511.8 414.805 503.372 414.805C496.72 414.805 493.394 417.224 493.394 422.024C493.394 425.614 497.136 428.676 504.543 431.246C518.906 436.197 526.049 443.491 526.049 453.167C526.049 458.836 524.046 463.372 520.04 466.811C515.995 470.25 510.629 471.989 503.939 471.989C489.161 471.989 481.753 466.244 481.753 454.754C481.753 453.847 481.829 452.676 481.98 451.315L490.37 449.463C489.69 452.033 489.35 454.225 489.35 456.077C489.35 463.523 493.621 467.227 502.125 467.227C508.928 467.227 512.329 464.543 512.329 459.214C512.329 455.208 508.285 451.731 500.121 448.707C488.367 444.398 482.471 437.482 482.471 427.995C482.471 422.591 484.399 418.282 488.367 414.994C492.298 411.705 497.438 410.042 503.825 410.042C516.978 410.042 523.554 415.976 523.554 427.844ZM575.674 411.063V417.072H561.047V470.893H542.641V417.072H527.863V411.063H575.674ZM597.558 411.063V470.893H580.247V411.063H597.558ZM647.599 446.893L655.006 448.82C655.158 450.332 655.233 451.655 655.233 452.751C655.233 458.572 653.117 463.22 648.921 466.66C644.688 470.137 639.019 471.876 631.951 471.876C614.225 471.876 605.343 461.898 605.343 441.979C605.343 432.531 607.914 424.858 613.091 418.962C618.269 413.104 624.997 410.156 633.312 410.156C646.238 410.156 652.739 416.354 652.739 428.827L645.255 432.228C645.369 430.49 645.444 429.091 645.444 428.146C645.444 419.302 641.891 414.918 634.786 414.918C627.303 414.918 623.561 424.254 623.561 443C623.561 459.063 627.718 467.113 636.109 467.113C639.586 467.113 642.458 465.753 644.764 463.031C647.069 460.272 648.203 456.833 648.203 452.713C648.203 451.391 648.014 449.463 647.599 446.893ZM700.814 427.844L692.764 429.318C693.104 427.731 693.293 426.37 693.293 425.274C693.293 418.282 689.06 414.805 680.632 414.805C673.98 414.805 670.654 417.224 670.654 422.024C670.654 425.614 674.395 428.676 681.841 431.246C696.166 436.197 703.347 443.491 703.347 453.167C703.347 458.836 701.306 463.372 697.299 466.811C693.255 470.25 687.888 471.989 681.199 471.989C666.421 471.989 659.013 466.244 659.013 454.754C659.013 453.847 659.088 452.676 659.24 451.315L667.63 449.463C666.95 452.033 666.61 454.225 666.61 456.077C666.61 463.523 670.88 467.227 679.384 467.227C686.188 467.227 689.589 464.543 689.589 459.214C689.589 455.208 685.545 451.731 677.381 448.707C665.627 444.398 659.731 437.482 659.731 427.995C659.731 422.591 661.696 418.282 665.627 414.994C669.558 411.705 674.698 410.042 681.123 410.042C694.238 410.042 700.814 415.976 700.814 427.844Z" fill="#1E2158"/>
</svg>
