<?xml version="1.0" encoding="UTF-8"?>
<svg version="1.1" xmlns="http://www.w3.org/2000/svg" width="355" height="310">
<path d="M0 0 C11.55 0 23.1 0 35 0 C45.71144528 10.78145472 45.71144528 10.78145472 48.04296875 15.44921875 C50.49674994 20.10864594 53.20722211 24.2445274 56.375 28.4375 C57.15942825 29.54240572 57.9394765 30.65043572 58.71484375 31.76171875 C60.27227311 33.96874258 61.84121392 36.15685885 63.44140625 38.33203125 C70.24839695 47.65302791 75.91614586 57.04460232 82 67 C82 44.89 82 22.78 82 0 C92.89 0 103.78 0 115 0 C115 37.62 115 75.24 115 114 C103.45 114 91.9 114 80 114 C74.7542481 107.58852546 69.55440074 101.22206462 64.5625 94.625 C60.07131646 88.68485341 60.07131646 88.68485341 55.47265625 82.828125 C49.84832428 75.75325816 44.82782879 68.36988356 39.875 60.8125 C39.19840332 59.78302246 38.52180664 58.75354492 37.82470703 57.69287109 C37.19935059 56.72816895 36.57399414 55.7634668 35.9296875 54.76953125 C35.36491699 53.89917236 34.80014648 53.02881348 34.21826172 52.13208008 C33 50 33 50 33 48 C32.34 48 31.68 48 31 48 C31.24447876 49.56331055 31.24447876 49.56331055 31.49389648 51.15820312 C32.25020975 57.24739618 32.12341846 63.34232071 32.09765625 69.46875 C32.0962413 70.74480103 32.09482635 72.02085205 32.09336853 73.33557129 C32.08874011 76.70238156 32.07977971 80.06912207 32.06866455 83.43591309 C32.0583733 86.88174837 32.05379942 90.32759111 32.04882812 93.7734375 C32.03868639 100.51566385 32.01910582 107.25776932 32 114 C21.44 114 10.88 114 0 114 C0 76.38 0 38.76 0 0 Z " fill="#1C2D5A" transform="translate(44,127)"/>
<path d="M0 0 C1.31097656 -0.01160156 2.62195313 -0.02320312 3.97265625 -0.03515625 C17.18395438 0.00420214 28.31062298 2.17391578 39.5 9.375 C40.39332031 9.94347656 40.39332031 9.94347656 41.3046875 10.5234375 C49.47150426 16.4898684 52.21054614 25.71130865 54.0546875 35.17578125 C54.5 38.375 54.5 38.375 54.5 43.375 C43.61 43.375 32.72 43.375 21.5 43.375 C20.51 38.92 20.51 38.92 19.5 34.375 C11.38718967 28.19381117 -3.72546339 29.50921601 -13.46484375 30.75390625 C-16.81608027 31.44370696 -19.04104829 31.91604829 -21.5 34.375 C-21.17958603 36.97780568 -21.17958603 36.97780568 -20.5 39.375 C-13.4379718 41.17066531 -6.42821699 42.624672 0.78515625 43.62109375 C1.49997162 43.72007965 2.21478699 43.81906555 2.95126343 43.92105103 C5.89387187 44.32343905 8.8373792 44.71800224 11.7824707 45.10180664 C26.27878882 47.00765882 39.38277819 49.61854361 50.3125 60.0625 C55.70194443 68.22365871 57.75814861 76.65294254 56.5 86.375 C53.88801063 96.94866822 49.2928693 103.82195228 40.23828125 109.8046875 C28.67133403 116.43794397 15.8531664 117.75344252 2.75 117.6875 C1.60982422 117.68331055 0.46964844 117.67912109 -0.70507812 117.67480469 C-9.30266363 117.55994212 -17.21514624 116.8254497 -25.5 114.375 C-26.41394531 114.10816406 -27.32789063 113.84132813 -28.26953125 113.56640625 C-36.97139808 110.55884859 -45.03422135 104.71736564 -49.5390625 96.5703125 C-52.89053154 88.91370437 -53.5 82.85587124 -53.5 74.375 C-42.61 74.375 -31.72 74.375 -20.5 74.375 C-20.005 79.325 -20.005 79.325 -19.5 84.375 C-11.96716179 86.78092551 -4.67007015 86.67198099 3.1875 86.625 C5.14526367 86.63660156 5.14526367 86.63660156 7.14257812 86.6484375 C9.02686523 86.64457031 9.02686523 86.64457031 10.94921875 86.640625 C12.08705811 86.63836914 13.22489746 86.63611328 14.3972168 86.63378906 C17.49210365 86.3756586 19.70530539 85.68961286 22.5 84.375 C22.66687448 81.95854218 22.66687448 81.95854218 22.5 79.375 C20.10186087 76.97686087 19.0483659 76.94360483 15.75 76.4453125 C14.76153076 76.29199463 13.77306152 76.13867676 12.75463867 75.98071289 C11.68060791 75.82207764 10.60657715 75.66344238 9.5 75.5 C8.39309814 75.32782959 7.28619629 75.15565918 6.14575195 74.97827148 C0.26401203 74.06826332 -5.62348648 73.21419583 -11.51953125 72.40234375 C-12.65712891 72.24040527 -13.79472656 72.0784668 -14.96679688 71.91162109 C-17.13150963 71.60485868 -19.29815489 71.31131786 -21.46679688 71.03369141 C-32.96285314 69.39166034 -43.0452894 65.76480385 -50.6875 56.8125 C-55.38174968 47.90961268 -56.88976024 38.18219593 -54.375 28.4375 C-51.3185848 19.13971356 -45.59215986 11.80734046 -37.06640625 7.00390625 C-25.11656332 1.1590629 -13.1596214 -0.11645683 0 0 Z " fill="#1C2D5A" transform="translate(298.5,-0.375)"/>
<path d="M0 0 C1.91208252 0.01135986 1.91208252 0.01135986 3.86279297 0.02294922 C21.58768007 0.33232742 36.30722554 4.49232325 49.4609375 16.95703125 C63.24530465 31.89401613 64.50605593 49.11343786 63.92919922 68.4453125 C63.12887437 81.80877483 56.57637113 94.40024471 46.75 103.4375 C28.42328215 117.03653646 6.78241703 120.17598843 -15.5546875 116.8984375 C-18.86432924 116.23940599 -22.02975157 115.44138311 -25.25 114.4375 C-26.13300781 114.17066406 -27.01601562 113.90382813 -27.92578125 113.62890625 C-40.81498869 109.11868592 -51.45965883 99.49093468 -57.5625 87.375 C-64.89589934 70.27039555 -65.24856506 51.25005247 -59.0625 33.75 C-56.63226086 27.78486757 -53.54331565 23.20054383 -49.25 18.4375 C-48.77433594 17.83550781 -48.29867187 17.23351562 -47.80859375 16.61328125 C-44.07334746 12.27337368 -39.59168849 9.76455209 -34.5625 7.1875 C-33.92771729 6.85806396 -33.29293457 6.52862793 -32.63891602 6.18920898 C-22.1324199 1.07903533 -11.56807223 -0.09631142 0 0 Z M-24.25 38.4375 C-29.59682388 48.74923176 -29.94449946 62.42287264 -26.94140625 73.57421875 C-25.45901413 77.56913988 -23.41911115 80.4455269 -20.1875 83.1875 C-8.72844238 88.06369473 5.90696602 87.86574668 17.75 84.4375 C22.60329745 81.96673039 25.31330405 79.31089189 27.75 74.4375 C30.96886667 63.33675979 31.04626547 49.82874769 25.75 39.4375 C24.33275409 37.49750981 24.33275409 37.49750981 22.625 36.125 C21.84769531 35.41923828 21.84769531 35.41923828 21.0546875 34.69921875 C14.74506561 31.24496812 7.35567258 31.07621861 0.3125 31.125 C-0.51717285 31.12918945 -1.3468457 31.13337891 -2.20166016 31.13769531 C-10.32670289 31.28748037 -18.46839066 32.13028981 -24.25 38.4375 Z " fill="#1C2D5A" transform="translate(174.25,-0.4375)"/>
<path d="M0 0 C9.12850423 -0.09333752 18.25684017 -0.16408423 27.38572025 -0.20724869 C31.62621674 -0.22798219 35.86638296 -0.25603356 40.10668945 -0.30175781 C44.21107083 -0.3457313 48.3151378 -0.36924364 52.41973686 -0.37950897 C53.97318905 -0.38680925 55.52662718 -0.40105995 57.0799427 -0.42292023 C75.01917119 -0.66497469 91.44877168 3.0332114 104.93359375 15.74609375 C117.75906704 29.73531509 119.6469178 46.35893812 119.12744141 64.4609375 C118.44400259 78.07734307 112.54393486 90.75737838 102.5 100.00390625 C87.02311017 112.36123547 69.85072083 114.16926776 50.78125 114.09765625 C49.31294808 114.09578817 47.84464554 114.09436611 46.37634277 114.09336853 C42.53607422 114.08957409 38.69584426 114.07977049 34.85559082 114.06866455 C30.92717002 114.05838392 26.99874291 114.05385674 23.0703125 114.04882812 C15.38019085 114.03814508 7.69010086 114.02110614 0 114 C-0.08741124 110.43765572 -0.14052896 106.87558892 -0.1875 103.3125 C-0.21263672 102.30509766 -0.23777344 101.29769531 -0.26367188 100.25976562 C-0.35634526 90.89975354 -0.35634526 90.89975354 3 87 C8.44854489 82.9485179 14.5248687 83.71710591 21 84 C18.77650461 81.59297801 16.48658569 79.99968637 13.6875 78.3125 C6.54266016 73.60736157 2.10682085 67.34472772 0 59 C-0.40100694 54.43353459 -0.34974762 49.89351116 -0.29296875 45.3125 C-0.28872391 44.01425293 -0.28447906 42.71600586 -0.28010559 41.37841797 C-0.26873422 37.95227243 -0.23933543 34.52651766 -0.20599365 31.1005249 C-0.1751248 27.5944141 -0.1615646 24.08823922 -0.14648438 20.58203125 C-0.11445673 13.72119519 -0.06335573 6.86061643 0 0 Z M33 29 C33 47.15 33 65.3 33 84 C38.775 84.061875 44.55 84.12375 50.5 84.1875 C52.30662109 84.21481201 54.11324219 84.24212402 55.97460938 84.27026367 C57.43098282 84.27903796 58.88736371 84.28667966 60.34375 84.29296875 C61.44831543 84.3159906 61.44831543 84.3159906 62.57519531 84.33947754 C69.29682588 84.3428161 74.82458809 83.03353722 79.875 78.3125 C84.21423242 71.5484024 84.34080085 64.43603485 84.3125 56.625 C84.32861328 55.74328125 84.34472656 54.8615625 84.36132812 53.953125 C84.36691924 46.32684516 83.52503145 38.88575023 78.375 33 C69.41951838 27.69304793 58.98896629 28.7634651 48.9375 28.875 C43.678125 28.91625 38.41875 28.9575 33 29 Z " fill="#1C2D5A" transform="translate(170,127)"/>
<path d="M0 0 C8.90230739 -0.06992794 17.80451826 -0.12302626 26.70704174 -0.15543652 C30.84214766 -0.17100243 34.9770638 -0.19207174 39.11206055 -0.22631836 C43.11267742 -0.25923955 47.11311334 -0.27692098 51.11385536 -0.28463173 C52.62986405 -0.29011713 54.14586437 -0.30082616 55.66179466 -0.31719017 C70.61216288 -0.47195691 82.72382356 1.63399656 95.1875 10.1875 C104.4768743 19.4768743 107.2632081 30.26038122 107.375 43 C107.26826289 55.16358308 104.79415993 65.56789078 96.3359375 74.8203125 C83.60120651 86.39205436 67.48402614 86.42900544 51.25 86.1875 C49.47396974 86.17241866 47.69792703 86.15873639 45.921875 86.14648438 C41.61401618 86.11634544 37.30792412 86.05758116 33 86 C33 95.24 33 104.48 33 114 C22.11 114 11.22 114 0 114 C-0.09194608 107.41563924 -0.17155205 100.83351524 -0.21972656 94.24902344 C-0.23981316 92.01033979 -0.2670878 89.77170842 -0.30175781 87.53320312 C-0.35040464 84.31106651 -0.37299874 81.08962499 -0.390625 77.8671875 C-0.41127014 76.87008759 -0.43191528 75.87298767 -0.45318604 74.84567261 C-0.45505503 69.02742458 0.03829313 65.58146084 4 61 C8.68389945 56.66739301 11.99204838 55.85515853 18.25 55.9375 C19.14203125 55.94652344 20.0340625 55.95554688 20.953125 55.96484375 C21.62859375 55.97644531 22.3040625 55.98804688 23 56 C21.63818336 53.27636671 20.13741013 53.03513772 17.375 51.8125 C9.20012322 47.81848877 4.3967841 42.40064884 1 34 C-0.17942085 30.46173745 -0.11289189 27.65851274 -0.09765625 23.92578125 C-0.0962413 23.2419487 -0.09482635 22.55811615 -0.09336853 21.8535614 C-0.08777876 19.67316278 -0.07522822 17.49286749 -0.0625 15.3125 C-0.05748367 13.83268378 -0.052921 12.35286594 -0.04882812 10.87304688 C-0.03781271 7.24866443 -0.02055512 3.6243423 0 0 Z M33 30 C33 38.58 33 47.16 33 56 C37.75111878 56.06900495 42.50048771 56.12869507 47.25170898 56.16479492 C48.86667789 56.17984876 50.48160613 56.20029648 52.09643555 56.22631836 C54.42246555 56.26285286 56.74795341 56.27976015 59.07421875 56.29296875 C59.79212082 56.30845261 60.51002289 56.32393646 61.24967957 56.33988953 C65.69009556 56.34136847 68.49212373 55.76601957 72 53 C75.07513531 47.977279 75.38580621 44.11167231 74.58203125 38.30859375 C73.77250775 35.09766497 72.43211685 33.21751831 70 31 C66.36766898 29.78922299 63.04878013 29.87555836 59.26953125 29.90234375 C58.14390022 29.90446617 58.14390022 29.90446617 56.99552917 29.90663147 C54.6011454 29.9122244 52.20685547 29.92477556 49.8125 29.9375 C48.18815239 29.94251592 46.56380332 29.94707866 44.93945312 29.95117188 C40.95957025 29.9613402 36.97989007 29.98091688 33 30 Z " fill="#1C2D5A" transform="translate(0,1)"/>
<path d="M0 0 C0 26.07 0 52.14 0 79 C-10.89 79 -21.78 79 -33 79 C-33.16043524 61.5214722 -33.16043524 61.5214722 -33.1953125 54.0546875 C-33.21919773 48.96532451 -33.24741359 43.87625015 -33.30175781 38.78710938 C-33.34531017 34.68276945 -33.36915688 30.57873917 -33.37950897 26.47418594 C-33.38688357 24.91050468 -33.40128466 23.34683983 -33.42292023 21.78329086 C-33.45208062 19.58806874 -33.45595097 17.39411599 -33.45410156 15.19873047 C-33.46298401 13.95074677 -33.47186646 12.70276306 -33.48101807 11.41696167 C-32.9013543 7.29926006 -31.6428946 5.18234309 -29 2 C-20.33333333 -2.33333333 -9.6896279 0 0 0 Z " fill="#1C2D5A" transform="translate(33,162)"/>
<path d="M0 0 C10.89 0 21.78 0 33 0 C33 10.56 33 21.12 33 32 C21.09290472 32 15.29770303 29.27884461 7 21 C1.01742978 14.85573869 0 8.35120591 0 0 Z " fill="#EF4123" transform="translate(0,127)"/>
<path d="M0 0 C0.99 0.66 1.98 1.32 3 2 C3.33 1.67 3.66 1.34 4 1 C5.66617115 0.95936168 7.33388095 0.957279 9 1 C9.14553599 4.89543877 9.23415059 8.79017651 9.3125 12.6875 C9.35439453 13.79029297 9.39628906 14.89308594 9.43945312 16.02929688 C9.56029684 24.02915073 9.56029684 24.02915073 7.9284668 26.85668945 C4.17513238 30.68691677 0.95008688 31.02441269 -4.125 31.125 C-8 31 -8 31 -10 30 C-10 28.35 -10 26.7 -10 25 C-9.21753906 24.95101563 -8.43507813 24.90203125 -7.62890625 24.8515625 C-6.61699219 24.77679688 -5.60507812 24.70203125 -4.5625 24.625 C-3.55316406 24.55539062 -2.54382813 24.48578125 -1.50390625 24.4140625 C-0.67761719 24.27742188 0.14867187 24.14078125 1 24 C1.33 23.34 1.66 22.68 2 22 C0.1746875 22.3403125 0.1746875 22.3403125 -1.6875 22.6875 C-4.81916717 23.08103694 -5.87914408 23.05254605 -8.875 21.75 C-11.52488325 19.5677432 -12.87701879 17.92378906 -13.3359375 14.4765625 C-13.44162437 6.76142132 -13.44162437 6.76142132 -11.1875 2.875 C-7.626346 -0.17741772 -4.54943881 -0.28433993 0 0 Z M-5.8125 7.1875 C-7.42525784 9.64907776 -7.4334014 11.11065736 -7 14 C-5.93654948 15.98029682 -5.93654948 15.98029682 -4 17 C-0.65807308 16.75546876 0.60543557 16.39456443 3 14 C3.33333333 11 3.33333333 11 3 8 C1.17796419 5.77033253 1.17796419 5.77033253 -1.4375 5.6875 C-3.99860335 5.80793124 -3.99860335 5.80793124 -5.8125 7.1875 Z " fill="#1C2D5A" transform="translate(58,279)"/>
<path d="M0 0 C2.31 0 4.62 0 7 0 C7 9.57 7 19.14 7 29 C4 29 1 29 -2 29 C-3.27875 29.0825 -4.5575 29.165 -5.875 29.25 C-9.19613512 29.26223254 -9.97679593 29.01481111 -12.9375 27.125 C-16.01984109 23.94925464 -16.20094938 22.02623212 -16.3125 17.6875 C-16.25625946 14.11153899 -16.07522865 12.16354053 -14.5625 8.875 C-10.94752797 6.22989851 -7.42905672 5.88029576 -3 6 C-2.34 6.33 -1.68 6.66 -1 7 C-0.67 4.69 -0.34 2.38 0 0 Z M-8.8125 13.1875 C-10.4519739 15.68985491 -10.50188668 17.06037803 -10 20 C-8.10415891 22.31377147 -8.10415891 22.31377147 -6 24 C-2.75016865 22.91215032 -2.75016865 22.91215032 0 21 C0.25003964 17.54178598 0.25003964 17.54178598 0 14 C-1.82203581 11.77033253 -1.82203581 11.77033253 -4.4375 11.6875 C-6.99860335 11.80793124 -6.99860335 11.80793124 -8.8125 13.1875 Z " fill="#1C2D5A" transform="translate(218,273)"/>
<path d="M0 0 C3.92074661 3.24861862 5.04341955 5.67786646 5.6875 10.75 C5.526353 15.47697863 3.50027453 17.57860106 0.1875 20.8125 C-3.55448147 22.68349073 -7.73750243 22.34293613 -11.8125 21.8125 C-14.88702647 20.55446023 -15.62261048 19.56389966 -17.8125 16.8125 C-19.25841004 12.34332351 -19.16822532 8.87967596 -17.6875 4.4375 C-13.21533072 -1.82353699 -6.91175513 -2.91829661 0 0 Z M-9.8125 4.8125 C-12.12611802 8.28292703 -12.32270728 9.73084173 -11.8125 13.8125 C-10.25452118 15.96032671 -10.25452118 15.96032671 -7.8125 16.8125 C-5.10414947 16.46272176 -5.10414947 16.46272176 -2.8125 14.8125 C-1.14859251 12.56941443 -1.14859251 12.56941443 -0.8125 9.8125 C-1.64229708 6.90171756 -1.64229708 6.90171756 -3.8125 4.8125 C-6.85529372 4.14569632 -6.85529372 4.14569632 -9.8125 4.8125 Z " fill="#1C2D5A" transform="translate(246.8125,280.1875)"/>
<path d="M0 0 C2.8100346 1.79363911 4.50940468 3.01880935 6 6 C6 8.31 6 10.62 6 13 C1.05 13 -3.9 13 -9 13 C-8.01 14.32 -7.02 15.64 -6 17 C-2.70924004 16.62095792 -2.70924004 16.62095792 0 15 C1.99958364 14.95919217 4.00045254 14.95745644 6 15 C5.6789295 17.96990216 5.47610823 19.55170933 3.26171875 21.63671875 C-0.62765726 23.9810922 -4.60982953 23.78142193 -9 23 C-11.82424288 20.80977082 -13.41508603 19.16982793 -15 16 C-15.43808718 11.71180044 -15.44926618 8.05577552 -13.75 4.0625 C-10.02460831 -0.3281402 -5.61490277 -0.93581713 0 0 Z M-7 6 C-7.33 6.99 -7.66 7.98 -8 9 C-5.36 9 -2.72 9 0 9 C-0.66 8.01 -1.32 7.02 -2 6 C-4.58380177 5.74969023 -4.58380177 5.74969023 -7 6 Z " fill="#1C2D5A" transform="translate(294,279)"/>
<path d="M0 0 C2.68575202 2.13280307 4.00298046 3.7709346 4.4609375 7.2109375 C4.56696429 14.95089286 4.56696429 14.95089286 2.25 18.8125 C-1.53979709 22.15643861 -4.49569355 21.96280224 -9.39453125 21.90625 C-12.60780049 21.62287507 -14.44912135 20.81014382 -16.875 18.6875 C-19.39527997 14.4720851 -19.70535678 10.48696218 -18.875 5.6875 C-14.93267582 -1.62096251 -7.32310512 -3.34315669 0 0 Z M-11.75 6.375 C-13.08293921 8.643909 -13.08293921 8.643909 -12.75 11.25 C-11.80000658 13.89641023 -11.24556907 15.16356274 -8.875 16.6875 C-6.28382687 16.68593776 -6.28382687 16.68593776 -3.875 15.6875 C-1.71997469 12.45496204 -1.40643865 11.43599077 -1.875 7.6875 C-2.95833333 5.77083333 -2.95833333 5.77083333 -4.875 4.6875 C-8.09884781 4.12332663 -9.28975204 4.16077683 -11.75 6.375 Z " fill="#1C2D5A" transform="translate(37.875,280.3125)"/>
<path d="M0 0 C1.98 0 3.96 0 6 0 C6.33 4.62 6.66 9.24 7 14 C7.845625 12.845 8.69125 11.69 9.5625 10.5 C12.18726114 7.38661985 12.5887237 7.04643442 16.875 6.5625 C17.90625 6.706875 18.9375 6.85125 20 7 C18.38731308 9.71224618 16.75098126 12.37352812 15 15 C15.32690151 18.43594352 16.93989762 20.48554645 19.0625 23.125 C22 26.78823529 22 26.78823529 22 29 C18.9375 29.5625 18.9375 29.5625 15 29 C12.85748893 26.84034885 11.19640655 24.57552353 9.48046875 22.06640625 C8.16189285 19.88651966 8.16189285 19.88651966 6 19 C6 22.3 6 25.6 6 29 C4.02 29 2.04 29 0 29 C0 19.43 0 9.86 0 0 Z " fill="#1C2D5A" transform="translate(134,273)"/>
<path d="M0 0 C2.6796875 1.41015625 2.6796875 1.41015625 5 4 C5.61987346 7.2688019 5.47149296 10.43805433 5.3125 13.75 C5.28994141 14.63816406 5.26738281 15.52632813 5.24414062 16.44140625 C5.18532552 18.62932812 5.10321268 20.81379671 5 23 C3.02 23 1.04 23 -1 23 C-1.33 18.05 -1.66 13.1 -2 8 C-3.32 7.67 -4.64 7.34 -6 7 C-7.99616554 8.99616554 -7.40983427 12.81701963 -7.5625 15.5625 C-7.60568359 16.27341797 -7.64886719 16.98433594 -7.69335938 17.71679688 C-7.79971777 19.47761912 -7.90038846 21.2387832 -8 23 C-10.31 23 -12.62 23 -15 23 C-15 15.74 -15 8.48 -15 1 C-12.69 1 -10.38 1 -8 1 C-5.14675563 -0.42662219 -3.16545451 -0.31033868 0 0 Z " fill="#1C2D5A" transform="translate(193,279)"/>
<path d="M0 0 C3.19487672 2.35411969 4.34141369 4.16357492 5 8 C5.06898242 10.59373914 5.09434752 13.15810197 5.0625 15.75 C5.05798828 16.44738281 5.05347656 17.14476562 5.04882812 17.86328125 C5.0371002 19.57555803 5.01916653 21.28779033 5 23 C2.69 23 0.38 23 -2 23 C-2.33 18.05 -2.66 13.1 -3 8 C-4.32 7.67 -5.64 7.34 -7 7 C-8.99616554 8.99616554 -8.40983427 12.81701963 -8.5625 15.5625 C-8.60568359 16.27341797 -8.64886719 16.98433594 -8.69335938 17.71679688 C-8.79971777 19.47761912 -8.90038846 21.2387832 -9 23 C-10.98 23 -12.96 23 -15 23 C-15 15.74 -15 8.48 -15 1 C-13.02 1 -11.04 1 -9 1 C-5.90826248 -0.54586876 -3.40570448 -0.29359521 0 0 Z " fill="#1C2D5A" transform="translate(271,279)"/>
<path d="M0 0 C2.10388569 -0.05402274 4.20816714 -0.09280256 6.3125 -0.125 C8.07013672 -0.15980469 8.07013672 -0.15980469 9.86328125 -0.1953125 C13 0 13 0 16 2 C16.90238747 4.70716242 17.11851302 6.23776768 17.09765625 9.01171875 C17.09443359 9.76904297 17.09121094 10.52636719 17.08789062 11.30664062 C17.07951172 12.09232422 17.07113281 12.87800781 17.0625 13.6875 C17.05798828 14.48478516 17.05347656 15.28207031 17.04882812 16.10351562 C17.0370585 18.06904257 17.01912348 20.03453085 17 22 C14.33333333 22 11.66666667 22 9 22 C7.865625 22.061875 6.73125 22.12375 5.5625 22.1875 C2 22 2 22 -0.4375 21 C-2.55620518 18.28805737 -2.57333498 16.24898631 -2.375 12.87109375 C-2 11 -2 11 -0.5 9.0625 C3.00638846 7.57228491 6.20363944 7.31636338 10 7 C8.41727399 5.41727399 6.61965997 5.65264253 4.4375 5.4375 C3.61121094 5.35371094 2.78492188 5.26992188 1.93359375 5.18359375 C1.29550781 5.12300781 0.65742188 5.06242187 0 5 C0 3.35 0 1.7 0 0 Z M5 12 C4.67 13.32 4.34 14.64 4 16 C6.39719432 16.67958603 6.39719432 16.67958603 9 17 C9.66 16.34 10.32 15.68 11 15 C11 14.01 11 13.02 11 12 C9.02 12 7.04 12 5 12 Z " fill="#1C2D5A" transform="translate(338,280)"/>
<path d="M0 0 C2.875 1.1875 2.875 1.1875 5 3 C5.8125 5.6875 5.8125 5.6875 6 8 C3.125 8.125 3.125 8.125 0 8 C-0.66 7.34 -1.32 6.68 -2 6 C-2.99 6 -3.98 6 -5 6 C-5 6.66 -5 7.32 -5 8 C-4.37351562 8.12117188 -3.74703125 8.24234375 -3.1015625 8.3671875 C-1.87566406 8.61855469 -1.87566406 8.61855469 -0.625 8.875 C0.18710937 9.03742188 0.99921875 9.19984375 1.8359375 9.3671875 C4 10 4 10 6 12 C6.5412844 17.68348624 6.5412844 17.68348624 6 20 C3.20098227 22.81176952 0.97548367 23.45176599 -2.9375 23.5 C-6.86814648 23.38968644 -7.82661539 23.12830461 -11.125 20.6875 C-13 18 -13 18 -13 15 C-11.02 15 -9.04 15 -7 15 C-6.67 15.99 -6.34 16.98 -6 18 C-4.35 17.67 -2.7 17.34 -1 17 C-1 16.34 -1 15.68 -1 15 C-1.62648438 14.87882812 -2.25296875 14.75765625 -2.8984375 14.6328125 C-4.12433594 14.38144531 -4.12433594 14.38144531 -5.375 14.125 C-6.18710937 13.96257812 -6.99921875 13.80015625 -7.8359375 13.6328125 C-10 13 -10 13 -12 11 C-12.56617647 4.77205882 -12.56617647 4.77205882 -10.625 2.125 C-7.03538709 -0.36011663 -4.34360099 -0.29448142 0 0 Z " fill="#1C2D5A" transform="translate(315,279)"/>
<path d="M0 0 C2.45814961 2.07997274 2.35569242 4.2779628 2.625 7.375 C0.645 7.375 -1.335 7.375 -3.375 7.375 C-3.705 6.715 -4.035 6.055 -4.375 5.375 C-5.365 5.375 -6.355 5.375 -7.375 5.375 C-7.375 6.035 -7.375 6.695 -7.375 7.375 C-6.116875 7.643125 -4.85875 7.91125 -3.5625 8.1875 C-1.18091123 8.7987042 0.53101547 9.31625967 2.625 10.625 C4.21120561 13.40085981 4.13555269 15.24786475 3.625 18.375 C1.46417549 21.02375262 -0.15130699 22.20080882 -3.5703125 22.6875 C-7.67264328 22.79581236 -10.86494806 22.69953771 -14.375 20.375 C-15.125 17.25 -15.125 17.25 -15.375 14.375 C-13.395 14.375 -11.415 14.375 -9.375 14.375 C-9.045 15.035 -8.715 15.695 -8.375 16.375 C-6.725 16.375 -5.075 16.375 -3.375 16.375 C-3.045 15.715 -2.715 15.055 -2.375 14.375 C-3.40560547 14.22804688 -3.40560547 14.22804688 -4.45703125 14.078125 C-5.35808594 13.92859375 -6.25914063 13.7790625 -7.1875 13.625 C-8.08082031 13.48578125 -8.97414063 13.3465625 -9.89453125 13.203125 C-12.93061795 12.18950235 -13.83422114 11.14430686 -15.375 8.375 C-15.375 5.3125 -15.375 5.3125 -14.375 2.375 C-10.07510106 -1.41902848 -5.391041 -1.418695 0 0 Z " fill="#1C2D5A" transform="translate(98.375,279.625)"/>
<path d="M0 0 C1.98 0 3.96 0 6 0 C6 7.59 6 15.18 6 23 C9.63 23 13.26 23 17 23 C17 24.98 17 26.96 17 29 C11.39 29 5.78 29 0 29 C0 19.43 0 9.86 0 0 Z " fill="#1C2D5A" transform="translate(0,273)"/>
<path d="M0 0 C1.98 0 3.96 0 6 0 C6 1.98 6 3.96 6 6 C7.98 6 9.96 6 12 6 C12 7.65 12 9.3 12 11 C10.02 11 8.04 11 6 11 C6.33 14.3 6.66 17.6 7 21 C8.65 21.33 10.3 21.66 12 22 C12 23.98 12 25.96 12 28 C8.0961856 28.30618152 5.70572593 28.41370141 2.28125 26.40625 C0 24 0 24 -0.48828125 20.765625 C-0.43027344 19.60546875 -0.37226562 18.4453125 -0.3125 17.25 C-0.26738281 16.07953125 -0.22226563 14.9090625 -0.17578125 13.703125 C-0.11777344 12.81109375 -0.05976562 11.9190625 0 11 C-0.99 11 -1.98 11 -3 11 C-3 9.35 -3 7.7 -3 6 C-2.01 6 -1.02 6 0 6 C0 4.02 0 2.04 0 0 Z " fill="#1C2D5A" transform="translate(106,274)"/>
<path d="M0 0 C2.31 0 4.62 0 7 0 C7 9.57 7 19.14 7 29 C4.69 29 2.38 29 0 29 C0 19.43 0 9.86 0 0 Z " fill="#1C2D5A" transform="translate(166,273)"/>
<path d="M0 0 C2.97 0 5.94 0 9 0 C9 7.26 9 14.52 9 22 C7.02 22 5.04 22 3 22 C3 16.39 3 10.78 3 5 C2.01 5 1.02 5 0 5 C0 3.35 0 1.7 0 0 Z " fill="#1C2D5A" transform="translate(323,280)"/>
<path d="M0 0 C2.97 0 5.94 0 9 0 C9 7.26 9 14.52 9 22 C7.02 22 5.04 22 3 22 C3 16.39 3 10.78 3 5 C2.01 5 1.02 5 0 5 C0 3.35 0 1.7 0 0 Z " fill="#1C2D5A" transform="translate(120,280)"/>
<path d="M0 0 C2.97 0 5.94 0 9 0 C9 7.26 9 14.52 9 22 C7.02 22 5.04 22 3 22 C3 16.39 3 10.78 3 5 C2.01 5 1.02 5 0 5 C0 3.35 0 1.7 0 0 Z " fill="#1C2D5A" transform="translate(70,280)"/>
<path d="M0 0 C1.98 0 3.96 0 6 0 C7.125 3.75 7.125 3.75 6 6 C4.02 6 2.04 6 0 6 C0 4.02 0 2.04 0 0 Z " fill="#1C2D5A" transform="translate(325,272)"/>
<path d="M0 0 C1.98 0 3.96 0 6 0 C7.125 3.75 7.125 3.75 6 6 C4.02 6 2.04 6 0 6 C0 4.02 0 2.04 0 0 Z " fill="#1C2D5A" transform="translate(122,272)"/>
<path d="M0 0 C1.2065625 0.0309375 1.2065625 0.0309375 2.4375 0.0625 C2.81968767 1.71864657 3.15145102 3.38707024 3.4375 5.0625 C2.4375 6.0625 2.4375 6.0625 -0.125 6.125 C-1.3315625 6.0940625 -1.3315625 6.0940625 -2.5625 6.0625 C-2.94468767 4.40635343 -3.27645102 2.73792976 -3.5625 1.0625 C-2.5625 0.0625 -2.5625 0.0625 0 0 Z " fill="#1C2D5A" transform="translate(75.5625,271.9375)"/>
</svg>
