<?xml version="1.0" encoding="UTF-8"?>
<svg version="1.1" xmlns="http://www.w3.org/2000/svg" width="2626" height="320">
<path d="M0 0 C13.78783448 -0.04655645 27.57564993 -0.08198683 41.36354733 -0.10362434 C47.76737707 -0.11401474 54.17115261 -0.1280863 60.57495117 -0.15087891 C66.76711617 -0.17277769 72.95922937 -0.1846042 79.15143013 -0.18975449 C81.50143816 -0.1934199 83.85144369 -0.2005765 86.20142937 -0.21146011 C134.18306903 -0.42462933 134.18306903 -0.42462933 149 14 C149.93392578 14.89332031 149.93392578 14.89332031 150.88671875 15.8046875 C162.35938342 27.79996813 165.52985912 43.34831216 165.41967773 59.41064453 C164.9250552 76.25325742 159.27421738 92.59342108 147.359375 104.828125 C134.20434721 116.93772012 118.21717657 121.79170668 101 125 C101.47308594 125.48726563 101.94617188 125.97453125 102.43359375 126.4765625 C106.52822687 130.86652004 110.11455994 135.42347807 113.33984375 140.484375 C113.72933197 141.09445404 114.11882019 141.70453308 114.52011108 142.33309937 C118.44313603 148.56872871 121.85449617 155.02501529 125.125 161.625 C125.43349884 162.24298462 125.74199768 162.86096924 126.05984497 163.49768066 C131.6442863 174.72017965 136.6282539 186.17689049 141.4375 197.75 C141.7705011 198.55060852 142.1035022 199.35121704 142.44659424 200.17608643 C143.38582828 202.44308427 144.31802066 204.7127878 145.24609375 206.984375 C145.52657059 207.66629913 145.80704742 208.34822327 146.09602356 209.05081177 C148 213.76315251 148 213.76315251 148 216 C131.83 216 115.66 216 99 216 C97.618125 212.184375 96.23625 208.36875 94.8125 204.4375 C82.06125371 163.10794469 82.06125371 163.10794469 56.41796875 131.0078125 C48.27428047 127.6135127 40.10917827 127.75022765 31.4375 127.875 C30.23802734 127.88402344 29.03855469 127.89304687 27.80273438 127.90234375 C24.86827691 127.92572588 21.93424766 127.9584972 19 128 C18.77671524 129.07297333 18.55343048 130.14594666 18.32337952 131.25143433 C16.22218667 141.34669579 14.11807738 151.4413455 12.01108646 161.53539848 C10.9278709 166.72527842 9.84569607 171.91537089 8.76586914 177.10595703 C7.72439203 182.11201108 6.68022112 187.11749621 5.63415337 192.12259293 C5.23487112 194.03542046 4.83657187 195.94845344 4.43925667 197.86169052 C3.88403575 200.53447816 3.32537307 203.20652414 2.76586914 205.87841797 C2.60115112 206.67539093 2.43643311 207.47236389 2.26672363 208.29348755 C1.11405216 213.77189568 1.11405216 213.77189568 0 216 C-14.85 216 -29.7 216 -45 216 C-43.8749944 205.87494962 -43.8749944 205.87494962 -42.91769409 201.30831909 C-42.70242978 200.27119404 -42.48716547 199.23406898 -42.265378 198.1655159 C-42.030689 197.05628139 -41.796 195.94704689 -41.55419922 194.80419922 C-41.30478419 193.60871838 -41.05536917 192.41323753 -40.79839611 191.18153 C-40.11445648 187.90755795 -39.42677135 184.63441561 -38.7373898 181.361588 C-38.00396936 177.875189 -37.27540993 174.3877741 -36.54624939 170.90048218 C-35.1439466 164.19766053 -33.73716793 157.49578635 -32.3286944 150.79425895 C-31.19950251 145.4210743 -30.07206732 140.04752381 -28.94589233 134.67370605 C-28.78675545 133.91434596 -28.62761856 133.15498587 -28.46365935 132.37261486 C-28.1423425 130.83932658 -27.8210304 129.30603731 -27.49972308 127.77274704 C-24.51633606 113.53688864 -21.52752781 99.30217345 -18.53585529 85.0680542 C-16.7627071 76.6313835 -14.99130096 68.19434967 -13.22216797 59.75683594 C-11.24377591 50.32158558 -9.26167853 40.88712215 -7.27597809 31.45340729 C-6.81280304 29.25144065 -6.35048105 27.04929639 -5.8883667 24.84710693 C-5.06040943 20.90257405 -4.22787504 16.9590234 -3.39453125 13.015625 C-3.1604808 11.89836029 -2.92643036 10.78109558 -2.68528748 9.62997437 C-2.47436966 8.63607697 -2.26345184 7.64217957 -2.04614258 6.61816406 C-1.77644402 5.33912201 -1.77644402 5.33912201 -1.501297 4.03424072 C-1 2 -1 2 0 0 Z M37 37 C35.42784252 44.47360741 33.86189991 51.9484974 32.30029297 59.42431641 C31.76819953 61.96791133 31.23467848 64.51120804 30.69970703 67.05419922 C29.93147215 70.70723448 29.16835984 74.36130767 28.40625 78.015625 C28.16563843 79.15429016 27.92502686 80.29295532 27.67712402 81.46612549 C27.34678162 83.05732208 27.34678162 83.05732208 27.00976562 84.68066406 C26.81435181 85.61332092 26.61893799 86.54597778 26.41760254 87.50689697 C25.8898656 90.23620055 25.8898656 90.23620055 26 94 C71.40040741 97.13608599 71.40040741 97.13608599 111 80 C116.94329095 72.54679189 120.57548576 64.91782117 120.3125 55.26953125 C119.58042862 49.95286286 117.09056861 45.69401175 113.125 42.125 C104.15615836 36.02618768 93.60127145 36.86024677 83.19140625 36.90234375 C81.85619663 36.90421167 80.52098631 36.9056338 79.18577576 36.90663147 C75.69237332 36.91042723 72.19901327 36.920232 68.70562744 36.93133545 C65.1325335 36.9416132 61.55943263 36.94614265 57.98632812 36.95117188 C50.99086814 36.96185725 43.99543611 36.97889785 37 37 Z " fill="#2B2968" transform="translate(411,3)"/>
<path d="M0 0 C10.65861868 -0.04665576 21.31721246 -0.08203615 31.97591305 -0.10362434 C36.9269316 -0.11399357 41.87787951 -0.12802491 46.82885742 -0.15087891 C51.62051129 -0.17285516 56.41209786 -0.18461998 61.20379829 -0.18975449 C63.01792012 -0.19340633 64.83203891 -0.20053504 66.64613152 -0.21146011 C93.29767617 -0.36535618 117.39977773 2.32411929 137.65234375 21.45703125 C156.1470156 41.49036132 161.5461099 68.48139978 161 95 C160.09133772 115.37327255 156.15151866 134.71685729 147 153 C146.443125 154.13953125 145.88625 155.2790625 145.3125 156.453125 C131.51393543 183.4114317 109.88655836 201.74971239 81.41796875 211.1875 C63.82516597 216.37194459 45.45425425 216.29236713 27.265625 216.1953125 C25.16428768 216.1915697 23.06294859 216.18872874 20.96160889 216.18673706 C15.50379382 216.17920017 10.04608986 216.15964059 4.58831787 216.1373291 C-1.01011656 216.11665292 -6.60856942 216.1076894 -12.20703125 216.09765625 C-23.13806892 216.07638248 -34.06902513 216.0423711 -45 216 C-41.45886254 197.18847689 -37.64942698 178.43789403 -33.73154163 159.70202565 C-32.93086625 155.8708656 -32.13254574 152.03921477 -31.33392334 148.20762634 C-29.82001064 140.94598111 -28.30404277 133.68476659 -26.78730369 126.42371124 C-25.09375197 118.31566238 -23.40264652 110.20710394 -21.71169758 102.09851193 C-18.81543217 88.21033091 -15.91641636 74.32272678 -13.01478291 60.43566632 C-11.26053122 52.03975933 -9.50839544 43.6434205 -7.76085281 35.24611378 C-6.904127 31.12994802 -6.04615046 27.01404364 -5.18791962 22.89819145 C-4.80726783 21.07100791 -4.42723068 19.24369621 -4.04785919 17.41624641 C-3.54358911 14.98736774 -3.03720851 12.55893884 -2.53027344 10.13061523 C-2.38705406 9.43781149 -2.24383469 8.74500774 -2.09627533 8.03120995 C-1.52110875 5.28540137 -0.88841229 2.66523687 0 0 Z M38 37 C36.64095083 40.90348017 35.54219795 44.74373954 34.69650269 48.78849792 C34.45815704 49.91990707 34.2198114 51.05131622 33.97424316 52.2170105 C33.71961304 53.44372467 33.46498291 54.67043884 33.20263672 55.93432617 C32.92678076 57.25058629 32.65061911 58.56678238 32.37417603 59.88291931 C31.6271973 63.44394722 30.88470572 67.0058968 30.14319754 70.56806731 C29.36599799 74.29871444 28.5852092 78.02861051 27.80496216 81.75862122 C26.49618825 88.01816084 25.19034597 94.27830666 23.88623047 100.53881836 C22.37804732 107.77878452 20.86515233 115.01775396 19.34975994 122.25621432 C17.89148022 129.22243658 16.43658604 136.18936175 14.98321915 143.15661049 C14.36472077 146.1212922 13.74502075 149.08571897 13.12435532 152.04994774 C12.39438461 155.53694673 11.66737103 159.02454934 10.94265366 162.51264381 C10.54866701 164.40537127 10.15172207 166.29748218 9.75469971 168.1895752 C9.52199371 169.31252487 9.28928772 170.43547455 9.04953003 171.592453 C8.84564604 172.57005679 8.64176205 173.54766058 8.43169975 174.55488873 C7.91306641 177.07856314 7.91306641 177.07856314 8 180 C13.83086451 180.07515987 19.66143607 180.12907012 25.49267578 180.16479492 C27.46896284 180.17971574 29.44521779 180.20005972 31.42138672 180.22631836 C52.04916085 180.49319215 70.81794698 179.48699202 86.6328125 164.57861328 C106.68740138 144.62297797 115.14720688 117.26924491 115.3125 89.5 C115.33320088 73.06810542 113.1968365 58.64577981 101.625 46.125 C92.91377358 38.00598415 82.189344 36.67221511 70.71484375 36.8046875 C69.30230064 36.80893234 69.30230064 36.80893234 67.86122131 36.81326294 C64.88651209 36.82435793 61.91211649 36.84944198 58.9375 36.875 C56.90690542 36.88504363 54.87630608 36.89416704 52.84570312 36.90234375 C47.89701664 36.92426216 42.94856129 36.958717 38 37 Z " fill="#272B66" transform="translate(1822,3)"/>
<path d="M0 0 C52.8 0 105.6 0 160 0 C158.87437341 11.25626591 158.87437341 11.25626591 157.84375 16.12109375 C157.62589844 17.15814453 157.40804688 18.19519531 157.18359375 19.26367188 C156.95800781 20.31103516 156.73242188 21.35839844 156.5 22.4375 C156.27441406 23.51193359 156.04882812 24.58636719 155.81640625 25.69335938 C154.15408509 33.53774473 154.15408509 33.53774473 153 37 C115.05 37 77.1 37 38 37 C36.35 45.58 34.7 54.16 33 63 C31.35 70.26 29.7 77.52 28 85 C64.63 85 101.26 85 139 85 C137.61802884 93.29182697 136.15401915 101.47163833 134.4375 109.6875 C134.10588867 111.31075195 134.10588867 111.31075195 133.76757812 112.96679688 C133.55423828 113.99224609 133.34089844 115.01769531 133.12109375 116.07421875 C132.9295874 116.99807373 132.73808105 117.92192871 132.54077148 118.8737793 C132 121 132 121 131 122 C129.55786001 122.09558036 128.11105921 122.12188394 126.66575623 122.12025452 C125.26273758 122.12231651 125.26273758 122.12231651 123.83137512 122.12442017 C122.79703842 122.12082489 121.76270172 122.11722961 120.69702148 122.11352539 C119.61422913 122.11367142 118.53143677 122.11381744 117.41583252 122.1139679 C113.81756626 122.11326823 110.21935103 122.10547333 106.62109375 122.09765625 C104.13387582 122.09579226 101.64665752 122.09436827 99.15943909 122.09336853 C93.26978809 122.0899335 87.3801561 122.08204277 81.49051291 122.07201904 C74.12974626 122.05976246 66.76897736 122.05437791 59.40820312 122.04882812 C46.27212602 122.03808815 33.13606417 122.02120089 20 122 C19.82429222 123.11651443 19.82429222 123.11651443 19.64503479 124.25558472 C18.54498498 131.07187158 17.23358802 137.78805769 15.65234375 144.5078125 C15.43558487 145.44051971 15.21882599 146.37322693 14.99549866 147.334198 C14.54266917 149.27888418 14.088022 151.22314797 13.6315918 153.16699219 C12.93119118 156.15188627 12.23766557 159.13832059 11.54492188 162.125 C11.10196328 164.02353105 10.65861825 165.921972 10.21484375 167.8203125 C10.00754135 168.71291779 9.80023895 169.60552307 9.58665466 170.525177 C9.29613976 171.75819046 9.29613976 171.75819046 8.99975586 173.01611328 C8.83035995 173.73936798 8.66096405 174.46262268 8.48643494 175.20779419 C8 177 8 177 7 179 C48.25 179 89.5 179 132 179 C127 205 127 205 124 216 C68.23 216 12.46 216 -45 216 C-39.2555648 186.12893696 -39.2555648 186.12893696 -37.03662109 175.57275391 C-36.78046021 174.34550598 -36.52429932 173.11825806 -36.26037598 171.8538208 C-35.57551699 168.57479353 -34.88886018 165.29615404 -34.20126295 162.01770067 C-33.46291031 158.49504963 -32.72693805 154.97190111 -31.9906311 151.44882202 C-30.74986323 145.51360433 -29.50756706 139.57870833 -28.26416016 133.64404297 C-26.55236056 125.47375395 -24.84361301 117.30282885 -23.1353755 109.13179445 C-17.33783559 81.40264791 -11.52169899 53.6774575 -5.6640625 25.9609375 C-5.42947704 24.84998341 -5.19489159 23.73902931 -4.95319748 22.59440994 C-4.30248135 19.51377108 -3.65071846 16.43335589 -2.99853516 13.35302734 C-2.80877232 12.45434811 -2.61900948 11.55566887 -2.42349625 10.62975693 C-2.24914928 9.80764851 -2.07480232 8.98554008 -1.89517212 8.13851929 C-1.74533686 7.43061438 -1.59550159 6.72270947 -1.44112587 5.99335289 C-0.99715929 3.98716342 -0.49834447 1.99337786 0 0 Z " fill="#252569" transform="translate(1621,3)"/>
<path d="M0 0 C52.8 0 105.6 0 160 0 C158.75101802 12.48981984 155.72293575 24.74678914 153 37 C115.05 37 77.1 37 38 37 C36.35 45.58 34.7 54.16 33 63 C31.35 70.26 29.7 77.52 28 85 C64.63 85 101.26 85 139 85 C132.0952381 120.9047619 132.0952381 120.9047619 131 122 C129.55786001 122.09558036 128.11105921 122.12188394 126.66575623 122.12025452 C125.26273758 122.12231651 125.26273758 122.12231651 123.83137512 122.12442017 C122.79703842 122.12082489 121.76270172 122.11722961 120.69702148 122.11352539 C119.61422913 122.11367142 118.53143677 122.11381744 117.41583252 122.1139679 C113.81756626 122.11326823 110.21935103 122.10547333 106.62109375 122.09765625 C104.13387582 122.09579226 101.64665752 122.09436827 99.15943909 122.09336853 C93.26978809 122.0899335 87.3801561 122.08204277 81.49051291 122.07201904 C74.12974626 122.05976246 66.76897736 122.05437791 59.40820312 122.04882812 C46.27212602 122.03808815 33.13606417 122.02120089 20 122 C19.80308736 123.10149887 19.80308736 123.10149887 19.60219669 124.22525024 C19.33904242 125.68697159 19.33904242 125.68697159 19.0705719 127.17822266 C18.89804681 128.13943024 18.72552172 129.10063782 18.54776859 130.0909729 C17.70834149 134.54890684 16.68896908 138.95946989 15.65234375 143.375 C15.43558487 144.30675049 15.21882599 145.23850098 14.99549866 146.19848633 C14.5421271 148.14482613 14.08748049 150.09086934 13.6315918 152.03662109 C12.93286752 155.01977808 12.2385953 158.00394618 11.54492188 160.98828125 C11.10182122 162.88808119 10.65847093 164.78782294 10.21484375 166.6875 C10.00754135 167.57808105 9.80023895 168.46866211 9.58665466 169.38623047 C9.29613976 170.62397217 9.29613976 170.62397217 8.99975586 171.88671875 C8.83035995 172.61076904 8.66096405 173.33481934 8.48643494 174.08081055 C8.06557977 175.74126035 7.54168373 177.37494881 7 179 C48.25 179 89.5 179 132 179 C127 204 127 204 124 216 C68.23 216 12.46 216 -45 216 C-39.24915827 186.095623 -39.24915827 186.095623 -36.29882812 171.97558594 C-35.96121752 170.35232871 -35.62377536 168.72903644 -35.28648376 167.10571289 C-34.38954548 162.79148022 -33.49017319 158.47775872 -32.59016991 154.16416454 C-31.63706412 149.5944169 -30.68595078 145.02425444 -29.73449707 140.4541626 C-28.13904544 132.79238507 -26.54193677 125.13095437 -24.94384766 117.46972656 C-23.10950426 108.6757719 -21.27804627 99.88121997 -19.44807291 91.08635497 C-17.8612809 83.46061198 -16.27290032 75.83520109 -14.68324423 68.21005464 C-13.74057018 63.68829972 -12.79840003 59.16644162 -11.85768127 54.64427948 C-10.97298557 50.39186571 -10.08626385 46.1398789 -9.19812202 41.88818359 C-8.87702073 40.34949039 -8.55656017 38.81066327 -8.23687553 37.27167511 C-5.64722277 24.80830796 -2.82207185 12.41711616 0 0 Z " fill="#252569" transform="translate(1421,3)"/>
<path d="M0 0 C2.23606799 -0.00962164 4.47118144 -0.04066351 6.70703125 -0.07226562 C28.65924892 -0.23434405 49.79989978 5.23078594 65.95703125 20.80273438 C77.8720286 32.87215009 83.9886324 48.29472923 84.76953125 65.24023438 C82.04260515 66.14920974 80.1605324 66.42456263 77.33203125 66.55664062 C76.00196045 66.61960327 76.00196045 66.61960327 74.64501953 66.68383789 C73.6961084 66.72307373 72.74719727 66.76230957 71.76953125 66.80273438 C70.79870605 66.84519287 69.82788086 66.88765137 68.82763672 66.93139648 C59.47270382 67.30933517 50.13015347 67.33751567 40.76953125 67.24023438 C40.62257813 66.47839844 40.475625 65.7165625 40.32421875 64.93164062 C38.1850597 55.08413257 34.65272171 47.29038568 26.05615234 41.55541992 C18.4985124 37.20852622 10.36426004 36.74291633 1.83203125 36.80273438 C0.82462891 36.78275391 -0.18277344 36.76277344 -1.22070312 36.7421875 C-9.68030775 36.74762776 -17.0760194 38.5571525 -24.23046875 43.17773438 C-28.50962324 47.59061244 -30.02717883 51.54664289 -30.48046875 57.55273438 C-30.11561246 62.9343647 -28.54589698 66.65398268 -25.10546875 70.80273438 C-13.87625156 80.32315764 -0.06937351 85.66364416 13.27636719 91.57128906 C58.34006179 111.57017899 58.34006179 111.57017899 67.859375 135.51367188 C72.83037934 150.4053501 70.5639021 168.39477158 64.08203125 182.36523438 C54.06828014 201.23635748 37.34755827 213.11303928 17.296875 219.27929688 C-12.18015862 227.3095851 -46.52652187 224.48552964 -73.23046875 209.24023438 C-88.33110756 199.48651436 -94.9624089 185.72862851 -99.53125 168.91601562 C-100.87506366 162.16776924 -100.35707264 155.08570138 -100.23046875 148.24023438 C-95.39258715 147.95241104 -90.55453604 147.66769241 -85.71630859 147.38574219 C-84.07335583 147.28957249 -82.43045089 147.1925819 -80.78759766 147.09472656 C-78.41451178 146.95352291 -76.0412647 146.81535657 -73.66796875 146.67773438 C-72.94367676 146.63398682 -72.21938477 146.59023926 -71.47314453 146.54516602 C-66.71757469 146.27318463 -61.99391982 146.20272689 -57.23046875 146.24023438 C-57.0603125 147.51898438 -56.89015625 148.79773438 -56.71484375 150.11523438 C-56.47078123 151.82367203 -56.22594839 153.53199976 -55.98046875 155.24023438 C-55.87089844 156.07941406 -55.76132813 156.91859375 -55.6484375 157.78320312 C-54.59560469 164.93138376 -52.6521105 170.70327635 -47.60546875 175.99023438 C-35.16743489 185.17952805 -17.94456323 185.26607336 -3.23046875 183.49023438 C4.31713169 182.32969821 11.30353898 180.7692352 16.76953125 175.24023438 C17.42953125 175.24023438 18.08953125 175.24023438 18.76953125 175.24023438 C19.03765625 174.70398438 19.30578125 174.16773438 19.58203125 173.61523438 C20.76953125 171.24023438 20.76953125 171.24023438 22.39453125 168.74023438 C24.59923152 163.12827006 24.93901157 156.88742724 23.078125 151.08398438 C16.41970728 138.38005768 -1.95316821 132.85917504 -14.23046875 127.49023438 C-62.09639681 106.44148226 -62.09639681 106.44148226 -71.28125 84.75976562 C-76.87759024 68.92557071 -75.8024921 50.0754941 -68.6875 34.96289062 C-59.65009775 18.56321103 -45.89411633 8.26057318 -28.04296875 2.99023438 C-18.69409646 0.38323456 -9.64050349 0.0249754 0 0 Z " fill="#252569" transform="translate(1083.23046875,-0.240234375)"/>
<path d="M0 0 C2.10018267 0.0007925 4.20046731 0.02909302 6.30004883 0.0793457 C7.40560623 0.08642044 8.51116364 0.09349518 9.65022278 0.1007843 C13.18652589 0.12880646 16.72125434 0.19156316 20.25708008 0.25512695 C22.65223953 0.28019953 25.04742376 0.30301451 27.44262695 0.32348633 C33.31881662 0.37865877 39.19408588 0.46236387 45.06958008 0.56762695 C46.63975094 5.70804671 47.7135514 10.77226339 48.56289673 16.07569885 C48.69936281 16.90640756 48.83582888 17.73711627 48.9764303 18.59299797 C49.43024882 21.36198205 49.87809262 24.13189789 50.32592773 26.90185547 C50.65099554 28.89318399 50.97641867 30.88445453 51.3021698 32.87567139 C52.18407606 38.27360944 53.06066085 43.67239902 53.936028 49.07140088 C54.66752487 53.57986147 55.40167654 58.08788805 56.13584459 62.5959143 C57.86751244 73.22902472 59.59493712 83.86281839 61.31958008 94.49707031 C63.09896659 105.4684881 64.88484326 116.43883508 66.67402422 127.40865952 C68.21043579 136.82990882 69.74315411 146.25175367 71.27283323 155.67409843 C72.18628055 161.30054137 73.10105518 166.92676 74.01924515 172.55243111 C74.88207763 177.84011415 75.74028152 183.12852797 76.5949192 188.4175415 C76.90932407 190.35842806 77.22534815 192.29905312 77.54310799 194.23939323 C77.97654818 196.88775138 78.40412301 199.5369924 78.83023071 202.1865387 C79.02078629 203.33795462 79.02078629 203.33795462 79.21519148 204.51263148 C79.87393512 208.65304924 80.06958008 212.32629967 80.06958008 216.56762695 C65.87958008 216.56762695 51.68958008 216.56762695 37.06958008 216.56762695 C36.07130091 210.05334605 35.07391462 203.53894187 34.07885742 197.02416992 C33.73987405 194.80664018 33.40035749 192.58919187 33.06030273 190.37182617 C32.57241819 187.18990859 32.08643392 184.0077058 31.60083008 180.82543945 C31.44771362 179.82956818 31.29459717 178.8336969 31.13684082 177.80764771 C30.99669556 176.88684418 30.85655029 175.96604065 30.7121582 175.01733398 C30.52562683 173.79821823 30.52562683 173.79821823 30.33532715 172.55447388 C30.06958008 170.56762695 30.06958008 170.56762695 30.06958008 168.56762695 C2.34958008 168.56762695 -25.37041992 168.56762695 -53.93041992 168.56762695 C-54.59041992 170.21762695 -55.25041992 171.86762695 -55.93041992 173.56762695 C-57.14144058 175.95088486 -58.3714053 178.31347983 -59.63354492 180.66918945 C-60.17395416 181.68485489 -60.17395416 181.68485489 -60.72528076 182.72103882 C-61.87459825 184.87952144 -63.02751365 187.0360595 -64.18041992 189.19262695 C-64.93975772 190.61828934 -65.6988743 192.04406957 -66.45776367 193.4699707 C-70.57299856 201.19309034 -74.7396155 208.88448551 -78.93041992 216.56762695 C-94.44041992 216.56762695 -109.95041992 216.56762695 -125.93041992 216.56762695 C-124.58733727 212.53837899 -123.64588856 209.76063938 -121.60229492 206.2668457 C-120.90813477 205.06801758 -120.90813477 205.06801758 -120.19995117 203.8449707 C-119.69850586 202.99032227 -119.19706055 202.13567383 -118.68041992 201.25512695 C-117.59078856 199.3742474 -116.50229453 197.49270861 -115.41479492 195.6105957 C-114.55917969 194.13212158 -114.55917969 194.13212158 -113.6862793 192.6237793 C-110.72183975 187.46403872 -107.82830005 182.26494687 -104.93041992 177.06762695 C-100.15903 168.52334328 -95.33881487 160.00953472 -90.46948242 151.52075195 C-86.5788503 144.72758476 -82.74777788 137.90219796 -78.93041992 131.06762695 C-74.15833831 122.52372537 -69.33881925 114.00954236 -64.46948242 105.52075195 C-60.57884999 98.72758421 -56.74782455 91.90217232 -52.93041992 85.06762695 C-48.13155884 76.4770165 -43.28941803 67.91335411 -38.39697266 59.37573242 C-34.74084213 52.99339628 -31.11006183 46.59713723 -27.49291992 40.19262695 C-26.95997314 39.2490332 -26.42702637 38.30543945 -25.87792969 37.33325195 C-23.63109507 33.353898 -21.38531124 29.3739519 -19.13989258 25.39379883 C-17.36225298 22.24311557 -15.5838456 19.09286655 -13.80541992 15.94262695 C-13.26087158 14.97663574 -12.71632324 14.01064453 -12.15527344 13.01538086 C-11.39041626 11.66065674 -11.39041626 11.66065674 -10.61010742 10.27856445 C-10.16393066 9.48756348 -9.71775391 8.6965625 -9.25805664 7.8815918 C-8.81993652 7.1179834 -8.38181641 6.354375 -7.93041992 5.56762695 C-7.61177979 4.65553467 -7.29313965 3.74344238 -6.96484375 2.80371094 C-4.45383226 0.04379803 -3.6352289 0.18509957 0 0 Z M12.06958008 48.56762695 C10.97840633 50.20729892 9.94011405 51.8821355 8.92114258 53.56762695 C8.2551001 54.66631104 7.58905762 55.76499512 6.90283203 56.89697266 C6.16660402 58.12043743 5.43052441 59.34399152 4.69458008 60.56762695 C3.93198251 61.8296981 3.16920257 63.09165906 2.40625 64.35351562 C-4.12639096 75.17325771 -10.57312374 86.04406483 -17.00927734 96.92138672 C-22.56643364 106.30720872 -28.19926537 115.64255748 -33.91943359 124.93017578 C-34.45286377 125.79924561 -34.98629395 126.66831543 -35.53588867 127.5637207 C-36.23427856 128.69571899 -36.23427856 128.69571899 -36.94677734 129.85058594 C-38.01326692 131.38243861 -38.01326692 131.38243861 -37.93041992 132.56762695 C-17.14041992 132.56762695 3.64958008 132.56762695 25.06958008 132.56762695 C21.10958008 104.84762695 17.14958008 77.12762695 13.06958008 48.56762695 C12.73958008 48.56762695 12.40958008 48.56762695 12.06958008 48.56762695 Z " fill="#252569" transform="translate(691.930419921875,2.432373046875)"/>
<path d="M0 0 C12.63164958 -0.04656567 25.26327836 -0.08199142 37.89499664 -0.10362434 C43.76189734 -0.11401278 49.62873883 -0.1280806 55.49560547 -0.15087891 C61.16905795 -0.17278489 66.84245388 -0.18460567 72.51594543 -0.18975449 C74.66861357 -0.19341863 76.821279 -0.20057267 78.97392273 -0.21146011 C123.65839726 -0.42824717 123.65839726 -0.42824717 140.6875 15.125 C151.72243072 26.96863723 154.96879868 41.24333185 155 57 C154.04292903 77.6810554 146.44073787 99.65834243 131 114 C106.52669096 135.10127641 74.41243529 134.33073078 43.875 134.125 C41.25911803 134.11494515 38.6432323 134.10582376 36.02734375 134.09765625 C29.68481231 134.07585285 23.34242428 134.04257568 17 134 C16.90396484 135.14275391 16.80792969 136.28550781 16.70898438 137.46289062 C15.87449763 144.92678995 14.19679366 152.25083525 12.65625 159.59375 C12.3235146 161.19269566 11.99104002 162.79169561 11.65881348 164.39074707 C10.96550725 167.72298175 10.26924133 171.05458 9.57080078 174.38574219 C8.67419671 178.66311377 7.78482986 182.94195267 6.89759064 187.22127533 C6.21408193 190.5142582 5.52694432 193.80647543 4.83866882 197.09846497 C4.50903473 198.67716174 4.18051074 200.25609072 3.85310364 201.83525085 C3.39727984 204.03092981 2.93662453 206.22553862 2.47460938 208.41992188 C2.2133728 209.66962769 1.95213623 210.9193335 1.6829834 212.20690918 C1 215 1 215 0 216 C-1.41225046 216.0928726 -2.82908934 216.11746772 -4.24438477 216.11352539 C-5.14524307 216.11344986 -6.04610138 216.11337433 -6.97425842 216.11329651 C-7.95341721 216.10813522 -8.93257599 216.10297394 -9.94140625 216.09765625 C-10.93881332 216.0962413 -11.9362204 216.09482635 -12.96385193 216.09336853 C-16.16343124 216.08775114 -19.36294169 216.07519571 -22.5625 216.0625 C-24.72591045 216.05748724 -26.88932199 216.05292395 -29.05273438 216.04882812 C-34.36851402 216.03777607 -39.68424992 216.02062472 -45 216 C-43.77119478 207.53882495 -42.30201441 199.17308493 -40.5324707 190.80908203 C-40.29266039 189.66176794 -40.05285007 188.51445385 -39.80577278 187.33237267 C-39.01573856 183.55682002 -38.2207958 179.7823193 -37.42578125 176.0078125 C-36.86285675 173.32464464 -36.30096785 170.64126016 -35.73902893 167.95788574 C-34.39636217 161.54951108 -33.05003168 155.14191183 -31.70230848 148.73459888 C-30.15717651 141.38816255 -28.61566888 134.04096718 -27.07424068 126.693753 C-23.92298954 111.67425767 -20.76586369 96.65600126 -17.60662842 81.63818359 C-16.16141632 74.76810897 -14.71745265 67.89777263 -13.27392578 61.02734375 C-11.29942468 51.63058669 -9.32200566 42.23444829 -7.3415184 32.83895111 C-6.87571828 30.62840874 -6.41042015 28.41776119 -5.94522095 26.20709229 C-5.10893643 22.23394327 -4.26960255 18.26144561 -3.4296875 14.2890625 C-3.19246475 13.16109253 -2.955242 12.03312256 -2.71083069 10.87097168 C-2.49672043 9.86119263 -2.28261017 8.85141357 -2.06201172 7.81103516 C-1.87919647 6.94548004 -1.69638123 6.07992493 -1.50802612 5.18814087 C-1 3 -1 3 0 0 Z M38 36 C34.93333087 47.75274508 32.31913655 59.57648873 29.85302734 71.46875 C29.24063863 74.42011649 28.62259105 77.37026006 28.00390625 80.3203125 C27.61165184 82.20045257 27.2197125 84.08065841 26.828125 85.9609375 C26.55165131 87.2810231 26.55165131 87.2810231 26.26959229 88.6277771 C25.34549872 92.77871721 25.34549872 92.77871721 25 97 C30.44025384 97.05005188 35.88036882 97.08602265 41.32080078 97.10986328 C43.16522562 97.11981926 45.00963512 97.13338892 46.85400391 97.15087891 C75.06199965 97.47242784 75.06199965 97.47242784 99 84 C105.85516563 76.77759336 109.15560862 68.23097168 109.5 58.3125 C109.26322803 51.87382992 108.13918481 47.03040118 103.421875 42.4765625 C97.45787682 37.8289423 90.68290001 36.71408904 83.25390625 36.37890625 C82.15883507 36.32229576 82.15883507 36.32229576 81.04164124 36.26454163 C72.34286548 35.85732957 63.64336857 35.8905466 54.9375 35.9375 C53.28060034 35.94253518 51.62369917 35.94709445 49.96679688 35.95117188 C45.97782584 35.96199438 41.98893065 35.97914243 38 36 Z " fill="#252569" transform="translate(1221,3)"/>
<path d="M0 0 C18.81 0 37.62 0 57 0 C58.52517447 3.05034893 58.61051848 6.34030146 58.99342346 9.69247437 C59.08819959 10.49582077 59.18297572 11.29916717 59.28062385 12.1268574 C59.59897617 14.83334797 59.91189259 17.54043969 60.22485352 20.24755859 C60.4512807 22.18226284 60.678034 24.11692894 60.90509033 26.05155945 C61.52213655 31.31766765 62.1344248 36.58431932 62.74576306 41.85109282 C63.38528458 47.35483905 64.02871393 52.85812849 64.6716156 58.36148071 C65.75105382 67.60689536 66.8275009 76.85265449 67.90209961 86.09863281 C69.14531458 96.79516357 70.39280205 107.49118922 71.64268738 118.18694246 C72.84356652 128.46387763 74.04182847 138.74111619 75.23875237 149.01851273 C75.74873649 153.39730493 76.25956756 157.77599712 76.77105904 162.15461349 C77.37320023 167.31051882 77.97302958 172.46668799 78.57106018 177.62307167 C78.79118064 179.51785379 79.01208571 181.41254494 79.23382378 183.30713844 C79.53586655 185.88903629 79.83508135 188.47124644 80.13356018 191.05355835 C80.26677472 192.18381016 80.26677472 192.18381016 80.40268046 193.33689535 C80.7764323 196.59463639 81 199.71394105 81 203 C74.46721214 203.02527002 67.93443679 203.04283292 61.40161133 203.05493164 C59.17732268 203.05997317 56.95303737 203.06680623 54.72875977 203.07543945 C51.53921691 203.08751298 48.34971771 203.09322996 45.16015625 203.09765625 C43.65860741 203.10539818 43.65860741 203.10539818 42.12672424 203.11329651 C41.20584518 203.11337204 40.28496613 203.11344757 39.33618164 203.11352539 C38.52121719 203.115746 37.70625275 203.11796661 36.86659241 203.12025452 C35 203 35 203 34 202 C33.78910621 200.37679311 33.6412181 198.74533905 33.51928711 197.11303711 C33.43819702 196.05741577 33.35710693 195.00179443 33.27355957 193.91418457 C33.19230835 192.7965271 33.11105713 191.67886963 33.02734375 190.52734375 C32.94971802 189.50612427 32.87209229 188.48490479 32.79211426 187.43273926 C32.50223938 183.60136811 32.22035945 179.76939547 31.9375 175.9375 C31.298125 167.378125 30.65875 158.81875 30 150 C11.19 150 -7.62 150 -27 150 C-27.99 152.97 -27.99 152.97 -29 156 C-29.5450196 157.31668101 -30.11250705 158.62442484 -30.70825195 159.91894531 C-31.03231522 160.62698303 -31.35637848 161.33502075 -31.69026184 162.06451416 C-32.03610825 162.81150574 -32.38195465 163.55849731 -32.73828125 164.328125 C-33.10092575 165.11717224 -33.46357025 165.90621948 -33.83720398 166.71917725 C-34.60311817 168.38394452 -35.37054824 170.04801513 -36.1394043 171.71142578 C-37.30165472 174.22653085 -38.45883941 176.74391697 -39.61523438 179.26171875 C-40.36428262 180.88815936 -41.11362244 182.51446572 -41.86328125 184.140625 C-42.20305496 184.87951965 -42.54282867 185.61841431 -42.89289856 186.37969971 C-45.48663379 191.98406314 -48.23457939 197.46915877 -51 203 C-66.51 203 -82.02 203 -98 203 C-96.65465483 198.96396448 -95.45637082 195.67721759 -93.56640625 191.97265625 C-93.08107422 191.01294922 -92.59574219 190.05324219 -92.09570312 189.06445312 C-91.58974609 188.07380859 -91.08378906 187.08316406 -90.5625 186.0625 C-86.02078879 177.14682889 -81.66774023 168.15332328 -77.36309814 159.12132263 C-72.72704007 149.40404055 -68.00007584 139.73251614 -63.25646973 130.06738281 C-60.74250981 124.94467676 -58.23251978 119.82002653 -55.72265625 114.6953125 C-55.22680023 113.68293518 -54.73094421 112.67055786 -54.22006226 111.62750244 C-50.04269583 103.09498341 -45.88871263 94.55132442 -41.75 86 C-35.99801774 74.11576369 -30.22396958 62.24248473 -24.4375 50.375 C-16.2583399 33.59932287 -8.12064325 16.80410336 0 0 Z M21 36 C20.67016113 36.8257251 20.34032227 37.6514502 20.00048828 38.50219727 C12.1702045 58.01641935 3.84318157 77.22163474 -5.13232422 96.23852539 C-5.50801544 97.03882172 -5.88370667 97.83911804 -6.27078247 98.66366577 C-6.97127037 100.15448297 -7.67622067 101.64321582 -8.38668823 103.12930298 C-8.85995041 104.13687149 -8.85995041 104.13687149 -9.34277344 105.16479492 C-9.61587341 105.73953049 -9.88897339 106.31426605 -10.17034912 106.90641785 C-11.33988601 109.85768521 -12.12788284 112.94758993 -13 116 C0.53 116 14.06 116 28 116 C28.00317699 106.65563272 28.00317699 106.65563272 27.44921875 97.41723633 C27.39069733 96.74263367 27.3321759 96.06803101 27.2718811 95.37298584 C27.08159672 93.19224344 26.88463895 91.01216366 26.6875 88.83203125 C26.55256064 87.30079259 26.41804658 85.76951639 26.28393555 84.23820496 C25.93305714 80.24472394 25.57647591 76.25177284 25.21862793 72.25891113 C24.8531848 68.16966164 24.49324327 64.07992816 24.1328125 59.99023438 C23.42720143 51.99301096 22.71555357 43.99633992 22 36 C21.67 36 21.34 36 21 36 Z " fill="#D48429" transform="translate(2118,10)"/>
<path d="M0 0 C1.01037827 0.00222061 2.02075653 0.00444122 3.06175232 0.00672913 C4.77341331 0.00684242 4.77341331 0.00684242 6.51965332 0.00695801 C7.76129745 0.01211929 9.00294159 0.01728058 10.2822113 0.02259827 C12.17785072 0.02472069 12.17785072 0.02472069 14.11178589 0.02688599 C17.47705394 0.0315487 20.84225495 0.04053972 24.20750427 0.05158997 C27.63930175 0.06180606 31.07110614 0.06638403 34.50291443 0.07142639 C41.2405633 0.08248071 47.9781803 0.09923742 54.71580505 0.12025452 C59.40796963 36.95372898 63.81169998 73.81977776 68.14426875 110.696944 C69.11823736 118.98665964 70.09717614 127.275769 71.08019054 135.56441677 C71.85297177 142.08305458 72.62129755 148.60220803 73.38626683 155.12176716 C73.8383358 158.97374183 74.29221453 162.82548077 74.75086594 166.6766777 C75.17792607 170.26354954 75.59941925 173.85103316 76.0167408 177.43905067 C76.24182505 179.36228002 76.47260575 181.28484007 76.70361328 183.20736694 C76.83798294 184.37179825 76.9723526 185.53622955 77.11079407 186.73594666 C77.228365 187.73366529 77.34593594 188.73138393 77.46706963 189.75933647 C77.79583336 194.20159853 77.71580505 198.66584347 77.71580505 203.12025452 C62.53580505 203.12025452 47.35580505 203.12025452 31.71580505 203.12025452 C30.72580505 191.95181702 30.72580505 191.95181702 29.71580505 180.55775452 C29.40256287 177.0510614 29.40256287 177.0510614 29.08299255 173.473526 C28.91868846 171.60448798 28.7546109 169.73543002 28.59080505 167.86634827 C28.46125427 166.43023193 28.46125427 166.43023193 28.3290863 164.96510315 C28.24787537 164.03202332 28.16666443 163.09894348 28.08299255 162.1375885 C28.01193298 161.33594772 27.94087341 160.53430695 27.86766052 159.70837402 C27.68043438 156.51742131 27.71580505 153.31669517 27.71580505 150.12025452 C-0.49919495 150.61525452 -0.49919495 150.61525452 -29.28419495 151.12025452 C-32.13044495 157.28712952 -34.97669495 163.45400452 -37.90919495 169.80775452 C-43.03419495 180.91192118 -48.15919495 192.01608785 -53.28419495 203.12025452 C-68.79419495 203.12025452 -84.30419495 203.12025452 -100.28419495 203.12025452 C-99.36239018 198.51123068 -98.17938485 195.57469037 -96.07325745 191.44056702 C-95.74562408 190.79191681 -95.41799072 190.1432666 -95.08042908 189.47496033 C-94.02902967 187.39545426 -92.9696723 185.32014369 -91.90919495 183.24525452 C-90.54364906 180.56215738 -89.18198637 177.87712254 -87.82325745 175.19056702 C-87.46752151 174.48741364 -87.11178558 173.78426025 -86.74526978 173.05979919 C-83.24199011 166.09991632 -79.8914206 159.06924012 -76.54208374 152.03431702 C-71.94453324 142.38442334 -67.25016541 132.7832807 -62.54066467 123.18763733 C-60.02670476 118.06493128 -57.51671473 112.94028104 -55.0068512 107.81556702 C-54.51099518 106.8031897 -54.01513916 105.79081238 -53.5042572 104.74775696 C-48.69352282 94.92154625 -43.91763704 85.07868178 -39.15187073 75.23060608 C-35.60114626 67.89433786 -32.04083138 60.56287099 -28.4677887 53.23744202 C-28.0558728 52.39289459 -27.64395691 51.54834717 -27.21955872 50.6782074 C-25.56192651 47.27986327 -23.90418284 43.88157363 -22.24604797 40.48347473 C-16.87918756 29.48275267 -11.54254904 18.46940924 -6.31617737 7.40101624 C-5.92148254 6.56844299 -5.52678772 5.73586975 -5.12013245 4.87806702 C-4.61812317 3.81289856 -4.61812317 3.81289856 -4.10597229 2.72621155 C-2.88449067 0.33913309 -2.78109639 0.14641456 0 0 Z M17.71580505 37.12025452 C17.44655212 37.82480774 17.17729919 38.52936096 16.89988708 39.25526428 C9.89240115 57.46338309 2.14993718 75.23061763 -6.13917542 92.89198303 C-6.51609528 93.69654434 -6.89301514 94.50110565 -7.28135681 95.33004761 C-7.98231932 96.82396018 -8.68601285 98.31659636 -9.39323425 99.80755615 C-11.92305574 105.18779205 -14.06441656 110.57080855 -16.28419495 116.12025452 C-2.42419495 116.12025452 11.43580505 116.12025452 25.71580505 116.12025452 C25.08291923 105.36119553 24.40650203 94.63470621 23.5243988 83.89759827 C23.41356297 82.53185329 23.30289462 81.16609472 23.19238281 79.80032349 C22.90635145 76.27078376 22.6181046 72.74142866 22.32933044 69.21211243 C22.03293858 65.58460072 21.73873272 61.95691172 21.44432068 58.32923889 C20.87023927 51.25940646 20.29380768 44.18976754 19.71580505 37.12025452 C19.05580505 37.12025452 18.39580505 37.12025452 17.71580505 37.12025452 Z " fill="#D48429" transform="translate(2541.284194946289,9.879745483398438)"/>
<path d="M0 0 C-0.81051601 7.04693959 -3.06314021 13.27971784 -5.55541992 19.86328125 C-6.31618793 21.88479959 -7.05182424 23.91440848 -7.78710938 25.9453125 C-8.26932584 27.23233666 -8.75299827 28.51881646 -9.23828125 29.8046875 C-9.888573 31.55241455 -9.888573 31.55241455 -10.55200195 33.33544922 C-12 36 -12 36 -13.99023438 36.94506836 C-17.07222497 37.02930644 -19.36663535 35.88392407 -22.1875 34.6875 C-36.55765402 28.92347155 -52.37890288 26.85514052 -67.37890625 31.78125 C-72.99205897 34.25231533 -77.25402537 38.50805074 -80 44 C-80.78115924 49.23080051 -80.59115157 53.84781708 -77.9375 58.5 C-70.62729407 68.19582092 -57.81601829 73.7227309 -47.37133789 79.37939453 C-39.29075305 83.8179638 -32.27303203 89.21834375 -26 96 C-25.44699219 96.57105469 -24.89398437 97.14210938 -24.32421875 97.73046875 C-13.61679605 109.21744685 -11.39058284 121.7039603 -11.68359375 136.87109375 C-12.4469138 154.06336078 -20.23031653 168.92038456 -32.625 180.625 C-53.42276311 197.81457419 -81.49246618 202.00128217 -107.66699219 199.77294922 C-123.90798387 198.10773362 -138.96418517 194.65343668 -153 186 C-152.31167446 181.57611318 -150.7614938 177.62356191 -149.05859375 173.51171875 C-148.6278933 172.4569207 -148.6278933 172.4569207 -148.18849182 171.3808136 C-147.27565652 169.14797783 -146.35667929 166.91773061 -145.4375 164.6875 C-144.81534728 163.16878684 -144.19359804 161.64990832 -143.57226562 160.13085938 C-142.05284243 156.41864195 -140.52790794 152.7087328 -139 149 C-135.07968784 150.28480535 -131.33071212 151.69667573 -127.5625 153.375 C-110.69853486 160.47340625 -91.54076638 164.36756381 -73.8515625 158.19140625 C-67.56062589 155.56300123 -63.43564399 152.61829852 -60.66015625 146.23828125 C-58.99425202 140.58997873 -59.18172664 135.15054216 -61.5625 129.75 C-65.59518085 122.94393787 -72.26625281 118.99223918 -79 115.1875 C-80.50525106 114.3138757 -82.01045855 113.44017632 -83.515625 112.56640625 C-86.32764509 110.94979642 -89.15124998 109.35659072 -91.984375 107.77734375 C-107.77156442 98.84234563 -121.42725865 86.82678012 -127 69 C-130.68542127 54.20884618 -127.65926269 36.65617235 -119.88671875 23.65625 C-106.80265057 5.23561571 -88.37706841 -4.54448286 -66.34375 -8.6875 C-44.14821157 -12.04480833 -20.14919108 -10.61624046 0 0 Z " fill="#D48329" transform="translate(2367,16)"/>
<path d="M0 0 C15.84 0 31.68 0 48 0 C54.89336094 13.78672188 54.89336094 13.78672188 57.84765625 20.6484375 C58.1815889 21.41648209 58.51552155 22.18452667 58.85957336 22.97584534 C59.93041152 25.44085819 60.99657847 27.90785764 62.0625 30.375 C62.80978861 32.09850576 63.55735062 33.821893 64.30517578 35.54516602 C65.81372094 39.02269997 67.32039851 42.5010342 68.82568359 45.97998047 C70.8414208 50.63694384 72.86669251 55.28970265 74.89453125 59.94140625 C75.77726666 61.96882068 76.65971161 63.99636114 77.54196167 66.02398682 C78.09033954 67.28362668 78.63925527 68.54303254 79.18875122 69.80218506 C81.95706635 76.14884471 84.65006713 82.48573031 87 89 C90.49743735 84.81130445 93.45617343 80.37047077 96.4375 75.8125 C100.57607427 69.54415174 104.82330971 63.38070895 109.25 57.3125 C114.23502309 50.47695305 119.11537048 43.57647917 123.9375 36.625 C124.60523438 35.66263428 125.27296875 34.70026855 125.9609375 33.70874023 C127.30542306 31.77019101 128.64966205 29.83147075 129.99365234 27.89257812 C133.23825245 23.21479495 136.49148797 18.54310036 139.75 13.875 C140.32226318 13.05209473 140.89452637 12.22918945 141.48413086 11.38134766 C142.02046143 10.6135498 142.55679199 9.84575195 143.109375 9.0546875 C143.57311523 8.38937012 144.03685547 7.72405273 144.51464844 7.03857422 C145.00481445 6.36584473 145.49498047 5.69311523 146 5 C146.47695313 4.10144287 146.95390625 3.20288574 147.4453125 2.27709961 C151.6498158 -1.47054969 156.33834083 -0.61369305 161.765625 -0.48828125 C163.48842682 -0.47766914 163.48842682 -0.47766914 165.24603271 -0.46684265 C168.91468411 -0.43885232 172.58180983 -0.37610052 176.25 -0.3125 C178.73695713 -0.28742334 181.22393818 -0.26460908 183.7109375 -0.24414062 C189.80781228 -0.18901025 195.90379715 -0.10533592 202 0 C200.79532578 3.09711523 199.67295019 5.72234869 197.63671875 8.35546875 C197.16886963 8.96825684 196.70102051 9.58104492 196.21899414 10.21240234 C195.71360107 10.86418457 195.20820801 11.5159668 194.6875 12.1875 C193.59494317 13.62001871 192.50384901 15.0536539 191.4140625 16.48828125 C190.84977539 17.23029785 190.28548828 17.97231445 189.70410156 18.73681641 C186.93725872 22.41140568 184.24791365 26.14068578 181.5625 29.875 C181.02254395 30.62491211 180.48258789 31.37482422 179.92626953 32.14746094 C178.28317431 34.43091948 176.64155655 36.71543517 175 39 C167.80084303 49.00778692 160.55741782 58.97942645 153.23071289 68.89428711 C149.28592959 74.23835616 145.38037592 79.60901545 141.5 85 C137.03978989 91.19654495 132.53735031 97.35972005 128 103.5 C123.26123448 109.9156715 118.5491682 116.34958406 113.875 122.8125 C113.34261719 123.54726562 112.81023437 124.28203125 112.26171875 125.0390625 C111.76027344 125.73386719 111.25882813 126.42867188 110.7421875 127.14453125 C110.3076123 127.74628174 109.87303711 128.34803223 109.42529297 128.96801758 C108.95494629 129.63857178 108.48459961 130.30912598 108 131 C107.34993484 131.87495117 106.69986969 132.74990234 106.03010559 133.65136719 C103.84560975 137.25466472 102.88867039 140.5361636 102.09301758 144.61010742 C101.86046516 145.71610039 101.86046516 145.71610039 101.62321472 146.84443665 C101.11792993 149.26239881 100.63122105 151.68370179 100.14453125 154.10546875 C99.79512008 155.79389404 99.44448989 157.48206748 99.09269714 159.16999817 C98.17249922 163.60030123 97.26778544 168.03362257 96.36663818 172.46783447 C95.267414 177.86273815 94.15068813 183.25404017 93.03584576 188.64573383 C92.1691654 192.83839895 91.30533816 197.03158253 90.45014954 201.22660828 C90.29258179 201.996521 90.13501404 202.76643372 89.97267151 203.55967712 C89.67875444 204.9962592 89.38622935 206.43312705 89.09536743 207.87033081 C88.52492482 210.65169351 87.89914399 213.30256804 87 216 C72.15 216 57.3 216 42 216 C42.6376469 210.26117792 43.30275609 205.05494185 44.50634766 199.47998047 C44.65440353 198.7876532 44.80245941 198.09532593 44.95500183 197.38201904 C45.27292158 195.89704757 45.5927111 194.41247534 45.91423416 192.92827988 C46.42332211 190.57437319 46.92556549 188.21909946 47.4258728 185.86331177 C48.84763411 179.17181539 50.27700454 172.48199924 51.72167969 165.79541016 C52.60831791 161.68932812 53.48333233 157.58091093 54.35108566 153.47079849 C54.68241832 151.91262813 55.0181157 150.35537896 55.35835648 148.79912949 C55.83399304 146.62200092 56.29476052 144.44219379 56.75244141 142.26123047 C57.0181192 141.02484833 57.283797 139.78846619 57.55752563 138.51461792 C58.19011376 133.48990751 57.69690382 128.87372997 55.53222656 124.26904297 C55.23337555 123.62121353 54.93452454 122.97338409 54.62661743 122.30592346 C54.30123993 121.62489059 53.97586243 120.94385773 53.640625 120.2421875 C53.30034271 119.51035751 52.96006042 118.77852753 52.60946655 118.02452087 C51.87853445 116.45511075 51.14345414 114.88762705 50.40460205 113.32192993 C48.83066154 109.98630261 47.27705249 106.64133306 45.72195435 103.29689026 C44.9325443 101.59981446 44.14207551 99.90323076 43.35055542 98.20713806 C40.03825959 91.10629606 36.81245581 83.97035939 33.625 76.8125 C27.40082793 62.86494659 21.10371966 48.95084612 14.79736328 35.0402832 C12.90186972 30.85788285 11.01035346 26.67370736 9.12249756 22.487854 C8.35692694 20.79107711 7.59032221 19.09476651 6.82281494 17.39886475 C5.68665316 14.88609833 4.55555924 12.37111071 3.42578125 9.85546875 C3.07960251 9.09196609 2.73342377 8.32846344 2.37675476 7.54182434 C0 2.22871228 0 2.22871228 0 0 Z " fill="#252569" transform="translate(798,3)"/>
<path d="M0 0 C14.52 0 29.04 0 44 0 C43.40110477 6.58784748 42.81527713 12.82099967 41.56446838 19.25431824 C41.42210076 20.00944602 41.27973313 20.7645738 41.13305134 21.54258424 C40.66211634 24.03351306 40.18375829 26.52295316 39.70532227 29.01245117 C39.36315113 30.81379382 39.02143805 32.61522352 38.68014526 34.41673279 C37.75721733 39.28102369 36.8277576 44.14404521 35.89695096 49.00683379 C34.9214243 54.1086469 33.95155135 59.21153488 32.98094177 64.31428528 C31.3511356 72.87809472 29.71730486 81.44112835 28.08081055 90.00366211 C26.19098392 99.89183304 24.30642191 109.78099544 22.42492062 119.67075366 C20.41779496 130.2206599 18.40714858 140.76989277 16.39530063 151.31889939 C15.81733015 154.35062245 15.239979 157.38246291 14.66275215 160.41432762 C13.75469254 165.18280713 12.84424478 169.95082483 11.9319725 174.71850014 C11.5982207 176.46462268 11.26523716 178.21089228 10.93309212 179.95732117 C10.47836752 182.34750545 10.02079591 184.73712805 9.56251526 187.12663269 C9.36800218 188.15432535 9.36800218 188.15432535 9.16955954 189.20277947 C8.27119786 193.86430325 7.15563535 198.3774586 6 203 C-8.52 203 -23.04 203 -38 203 C-36.87498995 191.74989948 -36.87498995 191.74989948 -35.87731934 186.52630615 C-35.6533548 185.34215622 -35.42939026 184.15800629 -35.19863892 182.93797302 C-34.95455292 181.67163528 -34.71046692 180.40529755 -34.45898438 179.10058594 C-34.19720956 177.72555995 -33.93581727 176.3504611 -33.67477417 174.97529602 C-32.96745817 171.25521391 -32.25474231 167.53618513 -31.54097557 163.81733608 C-30.78408049 159.86897782 -30.03205659 155.91969161 -29.27941895 151.97052002 C-28.00786279 145.30221874 -26.73308283 138.63454057 -25.45605469 131.96728516 C-23.68843301 122.73862912 -21.92690083 113.50881885 -20.16651154 104.27878094 C-13.53260862 69.50158331 -6.83475945 34.73840781 0 0 Z " fill="#D48429" transform="translate(2410,10)"/>
<path d="M0 0 C4.50595912 1.80238365 7.77271916 3.86442957 11.5625 6.75 C16.12857977 10.17587276 20.72956895 13.52901015 25.4296875 16.76953125 C26.79951782 17.7145752 26.79951782 17.7145752 28.19702148 18.67871094 C30.01069638 19.92542056 31.82787912 21.16704377 33.64868164 22.40332031 C34.47489014 22.97276367 35.30109863 23.54220703 36.15234375 24.12890625 C37.2659729 24.88796265 37.2659729 24.88796265 38.40209961 25.66235352 C38.92940674 26.10377686 39.45671387 26.5452002 40 27 C40 27.66 40 28.32 40 29 C-74.18 29 -188.36 29 -306 29 C-306 23.72 -306 18.44 -306 13 C-205.02 13 -104.04 13 0 13 C0 8.71 0 4.42 0 0 Z " fill="#292966" transform="translate(306,178)"/>
<path d="M0 0 C4.53308419 1.81323368 7.81457515 3.90534013 11.625 6.8125 C18.58860237 12.04428628 25.73836941 16.95671168 33.00439453 21.7590332 C33.78540527 22.28327881 34.56641602 22.80752441 35.37109375 23.34765625 C36.07161865 23.81179932 36.77214355 24.27594238 37.49389648 24.75415039 C38.23941772 25.37084595 38.23941772 25.37084595 39 26 C39 26.66 39 27.32 39 28 C-65.61 28 -170.22 28 -278 28 C-278 23.05 -278 18.1 -278 13 C-186.26 13 -94.52 13 0 13 C0 8.71 0 4.42 0 0 Z " fill="#292B6B" transform="translate(323,120)"/>
<path d="M0 0 C3.77161821 1.50864728 6.17988239 2.64333281 9.37109375 4.90625 C10.18674805 5.48084961 11.00240234 6.05544922 11.84277344 6.64746094 C13.12716309 7.56446777 13.12716309 7.56446777 14.4375 8.5 C15.31825195 9.12422852 16.19900391 9.74845703 17.10644531 10.39160156 C18.89055664 11.65688735 20.67328453 12.92412624 22.45458984 14.19335938 C24.76878504 15.83589193 27.09379702 17.46099701 29.42578125 19.078125 C30.70060569 19.96862853 31.97535122 20.85924505 33.25 21.75 C33.83966553 22.15541016 34.42933105 22.56082031 35.03686523 22.97851562 C36.39448052 23.9358111 37.70367083 24.96121967 39 26 C39 26.66 39 27.32 39 28 C-61.32 28 -161.64 28 -265 28 C-265 23.05 -265 18.1 -265 13 C-177.55 13 -90.1 13 0 13 C0 8.71 0 4.42 0 0 Z " fill="#292A66" transform="translate(342,59)"/>
<path d="M0 0 C7.22932405 4.46517074 14.22753004 9.19052103 21.1875 14.0625 C22.03022461 14.6517627 22.87294922 15.24102539 23.74121094 15.84814453 C35.63930036 24.21041491 35.63930036 24.21041491 39 27 C39 27.33 39 27.66 39 28 C-46.14 28 -131.28 28 -219 28 C-219 23.05 -219 18.1 -219 13 C-146.73 13 -74.46 13 0 13 C0 8.71 0 4.42 0 0 Z " fill="#2A2965" transform="translate(355,3)"/>
<path d="M0 0 C5.65951521 4.19694386 9.81374501 9.48147537 11.0859375 16.546875 C11.98657699 27.75483307 11.50196088 36.77563915 5.2109375 46.421875 C-0.99784372 52.63065622 -7.50752362 54.83044073 -16.1640625 54.984375 C-24.13449168 54.85922596 -29.73272605 53.21221674 -35.75 47.9375 C-42.43574243 40.82778366 -43.40805076 33.3373716 -43.33374023 23.91113281 C-43.0600075 15.8945485 -41.17798666 9.70647477 -35.7265625 3.671875 C-25.85940793 -5.11508581 -11.56218588 -6.83743882 0 0 Z M-23.9140625 9.546875 C-29.18811734 16.28241492 -29.49988762 23.33467201 -28.9140625 31.546875 C-27.74613325 36.65081778 -25.00203712 40.31452298 -20.9140625 43.546875 C-17.1013588 44.87303281 -15.19539966 44.62448525 -11.2890625 43.546875 C-6.28738548 40.58291825 -4.74901186 37.05172308 -2.9140625 31.546875 C-2.24772202 22.78193483 -2.61022637 16.65434695 -8.2265625 9.671875 C-13.70796643 5.33774166 -18.05939656 6.07744333 -23.9140625 9.546875 Z " fill="#231E5E" transform="translate(2367.9140625,245.453125)"/>
<path d="M0 0 C5.65951521 4.19694386 9.81374501 9.48147537 11.0859375 16.546875 C11.98657699 27.75483307 11.50196088 36.77563915 5.2109375 46.421875 C-0.99784372 52.63065622 -7.50752362 54.83044073 -16.1640625 54.984375 C-24.13449168 54.85922596 -29.73272605 53.21221674 -35.75 47.9375 C-42.43574243 40.82778366 -43.40805076 33.3373716 -43.33374023 23.91113281 C-43.0600075 15.8945485 -41.17798666 9.70647477 -35.7265625 3.671875 C-25.85940793 -5.11508581 -11.56218588 -6.83743882 0 0 Z M-23.9140625 9.546875 C-29.18811734 16.28241492 -29.49988762 23.33467201 -28.9140625 31.546875 C-27.74613325 36.65081778 -25.00203712 40.31452298 -20.9140625 43.546875 C-17.1013588 44.87303281 -15.19539966 44.62448525 -11.2890625 43.546875 C-6.28738548 40.58291825 -4.74901186 37.05172308 -2.9140625 31.546875 C-2.24772202 22.78193483 -2.61022637 16.65434695 -8.2265625 9.671875 C-13.70796643 5.33774166 -18.05939656 6.07744333 -23.9140625 9.546875 Z " fill="#231E5E" transform="translate(2032.9140625,245.453125)"/>
<path d="M0 0 C5.65951521 4.19694386 9.81374501 9.48147537 11.0859375 16.546875 C11.98657699 27.75483307 11.50196088 36.77563915 5.2109375 46.421875 C-0.99784372 52.63065622 -7.50752362 54.83044073 -16.1640625 54.984375 C-24.13449168 54.85922596 -29.73272605 53.21221674 -35.75 47.9375 C-42.43574243 40.82778366 -43.40805076 33.3373716 -43.33374023 23.91113281 C-43.0600075 15.8945485 -41.17798666 9.70647477 -35.7265625 3.671875 C-25.85940793 -5.11508581 -11.56218588 -6.83743882 0 0 Z M-23.9140625 9.546875 C-29.18811734 16.28241492 -29.49988762 23.33467201 -28.9140625 31.546875 C-27.74613325 36.65081778 -25.00203712 40.31452298 -20.9140625 43.546875 C-17.1013588 44.87303281 -15.19539966 44.62448525 -11.2890625 43.546875 C-6.28738548 40.58291825 -4.74901186 37.05172308 -2.9140625 31.546875 C-2.24772202 22.78193483 -2.61022637 16.65434695 -8.2265625 9.671875 C-13.70796643 5.33774166 -18.05939656 6.07744333 -23.9140625 9.546875 Z " fill="#231E5E" transform="translate(1590.9140625,245.453125)"/>
<path d="M0 0 C5.65951521 4.19694386 9.81374501 9.48147537 11.0859375 16.546875 C11.98657699 27.75483307 11.50196088 36.77563915 5.2109375 46.421875 C-0.99784372 52.63065622 -7.50752362 54.83044073 -16.1640625 54.984375 C-24.13449168 54.85922596 -29.73272605 53.21221674 -35.75 47.9375 C-42.43574243 40.82778366 -43.40805076 33.3373716 -43.33374023 23.91113281 C-43.0600075 15.8945485 -41.17798666 9.70647477 -35.7265625 3.671875 C-25.85940793 -5.11508581 -11.56218588 -6.83743882 0 0 Z M-23.9140625 9.546875 C-29.18811734 16.28241492 -29.49988762 23.33467201 -28.9140625 31.546875 C-27.74613325 36.65081778 -25.00203712 40.31452298 -20.9140625 43.546875 C-17.1013588 44.87303281 -15.19539966 44.62448525 -11.2890625 43.546875 C-6.28738548 40.58291825 -4.74901186 37.05172308 -2.9140625 31.546875 C-2.24772202 22.78193483 -2.61022637 16.65434695 -8.2265625 9.671875 C-13.70796643 5.33774166 -18.05939656 6.07744333 -23.9140625 9.546875 Z " fill="#231F5E" transform="translate(1423.9140625,245.453125)"/>
<path d="M0 0 C0.83789062 -0.01224609 1.67578125 -0.02449219 2.5390625 -0.03710938 C7.30961817 -0.04836069 11.14231565 0.34040042 15.625 2.1875 C14.965 5.4875 14.305 8.7875 13.625 12.1875 C9.625 13.1875 9.625 13.1875 6.625 12.1875 C-0.50272617 11.5049544 -6.94528764 11.17902587 -12.8515625 15.65234375 C-17.0328527 19.86579772 -17.54949937 24.06657833 -17.75 29.75 C-17.60773749 34.26528833 -17.04054789 37.41896677 -14.375 41.1875 C-9.90277809 45.22340758 -7.19377095 46.30737876 -1.25 46.75 C0.68875 46.894375 2.6275 47.03875 4.625 47.1875 C4.625 43.2275 4.625 39.2675 4.625 35.1875 C1.655 35.1875 -1.315 35.1875 -4.375 35.1875 C-4.375 31.8875 -4.375 28.5875 -4.375 25.1875 C2.885 25.1875 10.145 25.1875 17.625 25.1875 C17.625 35.0875 17.625 44.9875 17.625 55.1875 C7.33226854 59.30459258 -6.70376214 60.50601839 -17.25 56.4375 C-24.11601457 53.02833304 -28.56476402 48.69038089 -31.46484375 41.4765625 C-33.83868524 32.89813103 -33.57015138 22.382202 -29.69921875 14.30078125 C-25.39858146 7.43752233 -19.30950613 2.90581676 -11.52758789 0.65258789 C-7.72073993 -0.16991924 -3.88021781 0.00295748 0 0 Z " fill="#231E5D" transform="translate(2417.375,241.8125)"/>
<path d="M0 0 C0.83789062 -0.01224609 1.67578125 -0.02449219 2.5390625 -0.03710938 C7.30961817 -0.04836069 11.14231565 0.34040042 15.625 2.1875 C14.965 5.4875 14.305 8.7875 13.625 12.1875 C9.625 13.1875 9.625 13.1875 6.625 12.1875 C-0.50272617 11.5049544 -6.94528764 11.17902587 -12.8515625 15.65234375 C-17.0328527 19.86579772 -17.54949937 24.06657833 -17.75 29.75 C-17.60773749 34.26528833 -17.04054789 37.41896677 -14.375 41.1875 C-9.90277809 45.22340758 -7.19377095 46.30737876 -1.25 46.75 C0.68875 46.894375 2.6275 47.03875 4.625 47.1875 C4.625 43.2275 4.625 39.2675 4.625 35.1875 C1.655 35.1875 -1.315 35.1875 -4.375 35.1875 C-4.375 31.8875 -4.375 28.5875 -4.375 25.1875 C2.885 25.1875 10.145 25.1875 17.625 25.1875 C17.625 35.0875 17.625 44.9875 17.625 55.1875 C7.33226854 59.30459258 -6.70376214 60.50601839 -17.25 56.4375 C-24.11601457 53.02833304 -28.56476402 48.69038089 -31.46484375 41.4765625 C-33.83868524 32.89813103 -33.57015138 22.382202 -29.69921875 14.30078125 C-25.39858146 7.43752233 -19.30950613 2.90581676 -11.52758789 0.65258789 C-7.72073993 -0.16991924 -3.88021781 0.00295748 0 0 Z " fill="#231E5D" transform="translate(1356.375,241.8125)"/>
<path d="M0 0 C1.11632813 -0.020625 2.23265625 -0.04125 3.3828125 -0.0625 C11.37916901 -0.10021866 17.510663 0.38673447 23.8125 5.75 C27.02732426 9.64675668 27.21556883 13.03796236 27.16015625 17.8984375 C26.58211785 22.66527474 24.25917266 26.05807354 20.625 29.1875 C20.0475 29.538125 19.47 29.88875 18.875 30.25 C20.02548828 31.44882812 20.02548828 31.44882812 21.19921875 32.671875 C24.43607568 36.55838681 25.49683716 40.6592724 26.6875 45.5 C27.01137695 46.72203125 27.01137695 46.72203125 27.34179688 47.96875 C28.875 53.8484623 28.875 53.8484623 28.875 56.25 C24.255 56.25 19.635 56.25 14.875 56.25 C13.87136291 53.29285501 12.8719452 50.3344004 11.875 47.375 C11.58882812 46.53324219 11.30265625 45.69148438 11.0078125 44.82421875 C10.73710938 44.01855469 10.46640625 43.21289062 10.1875 42.3828125 C9.93613281 41.63918457 9.68476562 40.89555664 9.42578125 40.12939453 C8.875 38.25 8.875 38.25 8.875 36.25 C5.575 35.59 2.275 34.93 -1.125 34.25 C-1.125 41.51 -1.125 48.77 -1.125 56.25 C-5.415 56.25 -9.705 56.25 -14.125 56.25 C-14.125 38.1 -14.125 19.95 -14.125 1.25 C-9.96869799 -0.828151 -4.56656287 0.02066318 0 0 Z M-1.125 10.25 C-1.125 14.87 -1.125 19.49 -1.125 24.25 C0.4425 24.311875 2.01 24.37375 3.625 24.4375 C4.50671875 24.47230469 5.3884375 24.50710938 6.296875 24.54296875 C9.36634624 24.1941652 10.65052486 23.35396182 12.875 21.25 C13.96305146 18.8933774 13.96305146 18.8933774 13.875 16.25 C12.12386475 12.53738773 12.12386475 12.53738773 8.875 10.25 C7.16797265 10.18003986 5.45831997 10.16559846 3.75 10.1875 C2.14125 10.208125 0.5325 10.22875 -1.125 10.25 Z " fill="#231E5E" transform="translate(1957.125,242.75)"/>
<path d="M0 0 C1.11632813 -0.020625 2.23265625 -0.04125 3.3828125 -0.0625 C11.37916901 -0.10021866 17.510663 0.38673447 23.8125 5.75 C27.02732426 9.64675668 27.21556883 13.03796236 27.16015625 17.8984375 C26.58211785 22.66527474 24.25917266 26.05807354 20.625 29.1875 C20.0475 29.538125 19.47 29.88875 18.875 30.25 C20.02548828 31.44882812 20.02548828 31.44882812 21.19921875 32.671875 C24.43607568 36.55838681 25.49683716 40.6592724 26.6875 45.5 C27.01137695 46.72203125 27.01137695 46.72203125 27.34179688 47.96875 C28.875 53.8484623 28.875 53.8484623 28.875 56.25 C24.255 56.25 19.635 56.25 14.875 56.25 C13.87136291 53.29285501 12.8719452 50.3344004 11.875 47.375 C11.58882812 46.53324219 11.30265625 45.69148438 11.0078125 44.82421875 C10.73710938 44.01855469 10.46640625 43.21289062 10.1875 42.3828125 C9.93613281 41.63918457 9.68476562 40.89555664 9.42578125 40.12939453 C8.875 38.25 8.875 38.25 8.875 36.25 C5.575 35.59 2.275 34.93 -1.125 34.25 C-1.125 41.51 -1.125 48.77 -1.125 56.25 C-5.415 56.25 -9.705 56.25 -14.125 56.25 C-14.125 38.1 -14.125 19.95 -14.125 1.25 C-9.96869799 -0.828151 -4.56656287 0.02066318 0 0 Z M-1.125 10.25 C-1.125 14.87 -1.125 19.49 -1.125 24.25 C0.4425 24.311875 2.01 24.37375 3.625 24.4375 C4.50671875 24.47230469 5.3884375 24.50710938 6.296875 24.54296875 C9.36634624 24.1941652 10.65052486 23.35396182 12.875 21.25 C13.96305146 18.8933774 13.96305146 18.8933774 13.875 16.25 C12.12386475 12.53738773 12.12386475 12.53738773 8.875 10.25 C7.16797265 10.18003986 5.45831997 10.16559846 3.75 10.1875 C2.14125 10.208125 0.5325 10.22875 -1.125 10.25 Z " fill="#231E5E" transform="translate(1799.125,242.75)"/>
<path d="M0 0 C1.11632813 -0.020625 2.23265625 -0.04125 3.3828125 -0.0625 C11.37916901 -0.10021866 17.510663 0.38673447 23.8125 5.75 C27.02732426 9.64675668 27.21556883 13.03796236 27.16015625 17.8984375 C26.58211785 22.66527474 24.25917266 26.05807354 20.625 29.1875 C20.0475 29.538125 19.47 29.88875 18.875 30.25 C20.02548828 31.44882812 20.02548828 31.44882812 21.19921875 32.671875 C24.43607568 36.55838681 25.49683716 40.6592724 26.6875 45.5 C27.01137695 46.72203125 27.01137695 46.72203125 27.34179688 47.96875 C28.875 53.8484623 28.875 53.8484623 28.875 56.25 C24.255 56.25 19.635 56.25 14.875 56.25 C13.87136291 53.29285501 12.8719452 50.3344004 11.875 47.375 C11.58882812 46.53324219 11.30265625 45.69148438 11.0078125 44.82421875 C10.73710938 44.01855469 10.46640625 43.21289062 10.1875 42.3828125 C9.93613281 41.63918457 9.68476562 40.89555664 9.42578125 40.12939453 C8.875 38.25 8.875 38.25 8.875 36.25 C5.575 35.59 2.275 34.93 -1.125 34.25 C-1.125 41.51 -1.125 48.77 -1.125 56.25 C-5.415 56.25 -9.705 56.25 -14.125 56.25 C-14.125 38.1 -14.125 19.95 -14.125 1.25 C-9.96869799 -0.828151 -4.56656287 0.02066318 0 0 Z M-1.125 10.25 C-1.125 14.87 -1.125 19.49 -1.125 24.25 C0.4425 24.311875 2.01 24.37375 3.625 24.4375 C4.50671875 24.47230469 5.3884375 24.50710938 6.296875 24.54296875 C9.36634624 24.1941652 10.65052486 23.35396182 12.875 21.25 C13.96305146 18.8933774 13.96305146 18.8933774 13.875 16.25 C12.12386475 12.53738773 12.12386475 12.53738773 8.875 10.25 C7.16797265 10.18003986 5.45831997 10.16559846 3.75 10.1875 C2.14125 10.208125 0.5325 10.22875 -1.125 10.25 Z " fill="#231E5E" transform="translate(1681.125,242.75)"/>
<path d="M0 0 C1.11632813 -0.020625 2.23265625 -0.04125 3.3828125 -0.0625 C11.37916901 -0.10021866 17.510663 0.38673447 23.8125 5.75 C27.02732426 9.64675668 27.21556883 13.03796236 27.16015625 17.8984375 C26.58211785 22.66527474 24.25917266 26.05807354 20.625 29.1875 C20.0475 29.538125 19.47 29.88875 18.875 30.25 C20.02548828 31.44882812 20.02548828 31.44882812 21.19921875 32.671875 C24.43607568 36.55838681 25.49683716 40.6592724 26.6875 45.5 C27.01137695 46.72203125 27.01137695 46.72203125 27.34179688 47.96875 C28.875 53.8484623 28.875 53.8484623 28.875 56.25 C24.255 56.25 19.635 56.25 14.875 56.25 C13.87136291 53.29285501 12.8719452 50.3344004 11.875 47.375 C11.58882812 46.53324219 11.30265625 45.69148438 11.0078125 44.82421875 C10.73710938 44.01855469 10.46640625 43.21289062 10.1875 42.3828125 C9.93613281 41.63918457 9.68476562 40.89555664 9.42578125 40.12939453 C8.875 38.25 8.875 38.25 8.875 36.25 C5.575 35.59 2.275 34.93 -1.125 34.25 C-1.125 41.51 -1.125 48.77 -1.125 56.25 C-5.415 56.25 -9.705 56.25 -14.125 56.25 C-14.125 38.1 -14.125 19.95 -14.125 1.25 C-9.96869799 -0.828151 -4.56656287 0.02066318 0 0 Z M-1.125 10.25 C-1.125 14.87 -1.125 19.49 -1.125 24.25 C0.4425 24.311875 2.01 24.37375 3.625 24.4375 C4.50671875 24.47230469 5.3884375 24.50710938 6.296875 24.54296875 C9.36634624 24.1941652 10.65052486 23.35396182 12.875 21.25 C13.96305146 18.8933774 13.96305146 18.8933774 13.875 16.25 C12.12386475 12.53738773 12.12386475 12.53738773 8.875 10.25 C7.16797265 10.18003986 5.45831997 10.16559846 3.75 10.1875 C2.14125 10.208125 0.5325 10.22875 -1.125 10.25 Z " fill="#231E5E" transform="translate(1291.125,242.75)"/>
<path d="M0 0 C4.29 0 8.58 0 13 0 C13.01981934 1.02359619 13.03963867 2.04719238 13.06005859 3.10180664 C13.13652722 6.92447175 13.22517867 10.74677655 13.31738281 14.5690918 C13.35550299 16.21875865 13.3903845 17.86850382 13.421875 19.51831055 C13.4678966 21.89920921 13.52582635 24.27957652 13.5859375 26.66015625 C13.59748871 27.38960953 13.60903992 28.11906281 13.62094116 28.87062073 C13.77216222 34.19957257 14.39658664 39.23856588 17.125 43.9375 C20.27457023 45.72225646 23.53451584 45.63580455 27 45 C30.25075347 42.66612572 31.24308507 40.8286114 32 37 C32.15110957 34.16611169 32.25631534 31.35139452 32.31640625 28.515625 C32.33718735 27.70003113 32.35796844 26.88443726 32.37937927 26.04412842 C32.44461297 23.44616895 32.50363768 20.84811087 32.5625 18.25 C32.60571014 16.485667 32.64932522 14.72134387 32.69335938 12.95703125 C32.80026745 8.63812116 32.90160827 4.31911216 33 0 C37.29 0 41.58 0 46 0 C46.07453648 5.55010083 46.12878399 11.09990586 46.16479492 16.65039062 C46.17981793 18.53585897 46.20024231 20.42129275 46.22631836 22.30664062 C46.26298863 25.0274309 46.27979146 27.74775641 46.29296875 30.46875 C46.30845261 31.30241089 46.32393646 32.13607178 46.33988953 32.99499512 C46.341803 39.75252617 44.89107899 44.91824165 41.3125 50.75 C35.12855569 56.76681068 29.19123225 57.57390819 20.87304688 57.47460938 C13.92226526 57.1803618 9.77885294 55.62864467 4.6875 50.8125 C0.62221823 44.03703039 -0.44258254 37.38391941 -0.29296875 29.58984375 C-0.28872391 28.73693253 -0.28447906 27.8840213 -0.28010559 27.00526428 C-0.2634863 24.3156705 -0.22586775 21.62686231 -0.1875 18.9375 C-0.17243143 17.0996203 -0.15874686 15.26172869 -0.14648438 13.42382812 C-0.11363805 8.94892204 -0.06197498 4.4745936 0 0 Z " fill="#231F5E" transform="translate(1610,243)"/>
<path d="M0 0 C5.94 0 11.88 0 18 0 C21.37661875 9.00431666 21.37661875 9.00431666 22.62573242 12.99145508 C22.90579636 13.88210159 23.18586029 14.77274811 23.47441101 15.69038391 C23.76516006 16.62400253 24.05590912 17.55762115 24.35546875 18.51953125 C24.66196854 19.49991867 24.96846832 20.48030609 25.28425598 21.49040222 C25.92663205 23.54815677 26.56778264 25.60629424 27.20776367 27.66479492 C28.190354 30.82166937 29.17996876 33.97628717 30.16992188 37.13085938 C30.7946993 39.13528316 31.41906297 41.13983598 32.04296875 43.14453125 C32.3397905 44.08827103 32.63661224 45.0320108 32.94242859 46.00434875 C33.21303604 46.87923447 33.48364349 47.75412018 33.76245117 48.65551758 C34.00211105 49.42414627 34.24177094 50.19277496 34.48869324 50.98469543 C35 53 35 53 35 56 C30.38 56 25.76 56 21 56 C19.05527566 51.09591252 17.88420206 47.30521238 17 42 C11.72 42 6.44 42 1 42 C0.690625 43.5675 0.38125 45.135 0.0625 46.75 C-0.55214335 49.86419297 -1.22942958 52.91771831 -2 56 C-6.95 56 -11.9 56 -17 56 C-15.38381234 50.59598109 -13.76631503 45.19235638 -12.14770508 39.7890625 C-11.59951063 37.95843598 -11.05164811 36.12771002 -10.50415039 34.296875 C-7.07777553 22.84003221 -3.59113589 11.4063537 0 0 Z M8 12 C6.35 18.6 4.7 25.2 3 32 C6.96 32 10.92 32 15 32 C13.02 25.4 11.04 18.8 9 12 C8.67 12 8.34 12 8 12 Z " fill="#231E5E" transform="translate(1236,243)"/>
<path d="M0 0 C11.55 0 23.1 0 35 0 C35 3.63 35 7.26 35 11 C27.74 11 20.48 11 13 11 C13 14.63 13 18.26 13 22 C19.93 22 26.86 22 34 22 C34 25.63 34 29.26 34 33 C27.07 33 20.14 33 13 33 C13 36.96 13 40.92 13 45 C20.59 45 28.18 45 36 45 C36 48.63 36 52.26 36 56 C24.12 56 12.24 56 0 56 C0 37.52 0 19.04 0 0 Z " fill="#241E5D" transform="translate(2086,243)"/>
<path d="M0 0 C11.55 0 23.1 0 35 0 C35 3.63 35 7.26 35 11 C27.74 11 20.48 11 13 11 C13 14.63 13 18.26 13 22 C19.93 22 26.86 22 34 22 C34 25.63 34 29.26 34 33 C27.07 33 20.14 33 13 33 C13 36.96 13 40.92 13 45 C20.59 45 28.18 45 36 45 C36 48.63 36 52.26 36 56 C24.12 56 12.24 56 0 56 C0 37.52 0 19.04 0 0 Z " fill="#231E5D" transform="translate(1740,243)"/>
<path d="M0 0 C1.10794922 -0.02900391 2.21589844 -0.05800781 3.35742188 -0.08789062 C10.33207056 -0.14151004 15.95756493 0.52241201 21.9375 4.3125 C26.0218972 8.49900713 27.0919871 11.87034756 27.1875 17.625 C27.10255498 24.07232737 25.79237157 27.49884779 21.125 32.0625 C15.87375177 35.76926346 11.42779286 36.56740394 5.0625 36.4375 C2.030625 36.375625 2.030625 36.375625 -1.0625 36.3125 C-1.0625 42.9125 -1.0625 49.5125 -1.0625 56.3125 C-5.3525 56.3125 -9.6425 56.3125 -14.0625 56.3125 C-14.0625 38.1625 -14.0625 20.0125 -14.0625 1.3125 C-9.91263433 -0.76243283 -4.55965071 0.03883859 0 0 Z M-1.0625 10.3125 C-1.0625 15.5925 -1.0625 20.8725 -1.0625 26.3125 C6.1054527 26.35849761 6.1054527 26.35849761 11.9375 23.3125 C14.2718558 20.42788937 14.2718558 20.42788937 13.875 16.8125 C13.25116455 13.28439493 13.25116455 13.28439493 10.9375 11.375 C6.77516371 9.90083923 3.34357719 10.11521296 -1.0625 10.3125 Z " fill="#231E5E" transform="translate(1909.0625,242.6875)"/>
<path d="M0 0 C1.04220703 -0.01836914 1.04220703 -0.01836914 2.10546875 -0.03710938 C6.50192393 -0.04952874 10.04209235 0.56841593 14.125 2.1875 C13.465 5.8175 12.805 9.4475 12.125 13.1875 C11.17625 13.0225 10.2275 12.8575 9.25 12.6875 C0.28179719 11.33443298 0.28179719 11.33443298 -7.875 14.1875 C-7.93889493 16.58953144 -7.93889493 16.58953144 -6.875 19.1875 C-4.44300607 20.60291447 -2.27609252 21.66187756 0.3125 22.6875 C6.33636691 25.14406231 11.67988403 27.60462776 15.4765625 33.16796875 C17.17698193 38.46385336 17.11652272 44.98340642 14.75 50.0625 C11.580717 54.5667892 7.36458915 56.77224483 2.125 58.1875 C-0.94172502 58.55726712 -3.97506049 58.66517282 -7.0625 58.6875 C-7.82256348 58.69386475 -8.58262695 58.70022949 -9.36572266 58.70678711 C-14.54082773 58.59001724 -18.24323794 57.49417885 -22.875 55.1875 C-22.215 51.5575 -21.555 47.9275 -20.875 44.1875 C-19.59625 44.5175 -18.3175 44.8475 -17 45.1875 C-11.97370077 46.28328088 -6.99738959 46.9783896 -1.875 46.1875 C0.76016042 44.39558542 0.76016042 44.39558542 2.125 42.1875 C-0.06996169 37.66978775 -1.92515454 36.37824595 -6.625 34.75 C-12.56689225 32.46244342 -17.58621668 29.86507048 -21.02734375 24.3359375 C-22.70671541 20.07946555 -22.49576876 15.6659032 -21.875 11.1875 C-19.80682489 6.44437113 -16.57596231 3.35717491 -11.875 1.1875 C-7.9985258 -0.11681955 -4.04401107 0.0037101 0 0 Z " fill="#231E5D" transform="translate(2487.875,241.8125)"/>
<path d="M0 0 C0.78955078 -0.00773438 1.57910156 -0.01546875 2.39257812 -0.0234375 C3.16150391 -0.02085937 3.93042969 -0.01828125 4.72265625 -0.015625 C5.41238525 -0.01336914 6.10211426 -0.01111328 6.81274414 -0.00878906 C8.9375 0.25 8.9375 0.25 13.9375 2.25 C13.2775 5.88 12.6175 9.51 11.9375 13.25 C11.174375 13.085 10.41125 12.92 9.625 12.75 C0.11665834 11.41681114 0.11665834 11.41681114 -9 13.75 C-13.61824201 17.51999348 -15.61646119 21.04955655 -16.44140625 26.96875 C-16.70997078 33.27568472 -15.85411397 37.1945147 -12.0625 42.25 C-8.0141024 45.93036145 -4.47770514 46.38823289 0.875 46.375 C1.91527344 46.37757813 2.95554687 46.38015625 4.02734375 46.3828125 C6.51415971 46.26932023 8.56842407 45.96928571 10.9375 45.25 C12.36008812 49.07320557 13.17792276 52.16281305 12.9375 56.25 C5.40676745 60.00785057 -5.20614702 59.34966377 -13.25390625 57.52734375 C-20.90269068 54.64299298 -25.85216904 50.59645617 -29.30078125 43.1171875 C-32.5210302 35.22344906 -32.38218681 24.53164772 -29.3125 16.5625 C-25.53239695 8.71353602 -20.32536073 4.45749891 -12.37109375 1.12109375 C-8.17499198 0.01633496 -4.31794668 -0.04250645 0 0 Z " fill="#231E5E" transform="translate(2611.0625,241.75)"/>
<path d="M0 0 C0.78955078 -0.00773438 1.57910156 -0.01546875 2.39257812 -0.0234375 C3.16150391 -0.02085937 3.93042969 -0.01828125 4.72265625 -0.015625 C5.41238525 -0.01336914 6.10211426 -0.01111328 6.81274414 -0.00878906 C8.9375 0.25 8.9375 0.25 13.9375 2.25 C13.2775 5.88 12.6175 9.51 11.9375 13.25 C11.174375 13.085 10.41125 12.92 9.625 12.75 C0.11665834 11.41681114 0.11665834 11.41681114 -9 13.75 C-13.61824201 17.51999348 -15.61646119 21.04955655 -16.44140625 26.96875 C-16.70997078 33.27568472 -15.85411397 37.1945147 -12.0625 42.25 C-8.0141024 45.93036145 -4.47770514 46.38823289 0.875 46.375 C1.91527344 46.37757813 2.95554687 46.38015625 4.02734375 46.3828125 C6.51415971 46.26932023 8.56842407 45.96928571 10.9375 45.25 C12.36008812 49.07320557 13.17792276 52.16281305 12.9375 56.25 C5.40676745 60.00785057 -5.20614702 59.34966377 -13.25390625 57.52734375 C-20.90269068 54.64299298 -25.85216904 50.59645617 -29.30078125 43.1171875 C-32.5210302 35.22344906 -32.38218681 24.53164772 -29.3125 16.5625 C-25.53239695 8.71353602 -20.32536073 4.45749891 -12.37109375 1.12109375 C-8.17499198 0.01633496 -4.31794668 -0.04250645 0 0 Z " fill="#241F5D" transform="translate(2160.0625,241.75)"/>
<path d="M0 0 C0.78955078 -0.00773438 1.57910156 -0.01546875 2.39257812 -0.0234375 C3.16150391 -0.02085937 3.93042969 -0.01828125 4.72265625 -0.015625 C5.41238525 -0.01336914 6.10211426 -0.01111328 6.81274414 -0.00878906 C8.9375 0.25 8.9375 0.25 13.9375 2.25 C13.2775 5.88 12.6175 9.51 11.9375 13.25 C11.174375 13.085 10.41125 12.92 9.625 12.75 C0.11665834 11.41681114 0.11665834 11.41681114 -9 13.75 C-13.61824201 17.51999348 -15.61646119 21.04955655 -16.44140625 26.96875 C-16.70997078 33.27568472 -15.85411397 37.1945147 -12.0625 42.25 C-8.0141024 45.93036145 -4.47770514 46.38823289 0.875 46.375 C1.91527344 46.37757813 2.95554687 46.38015625 4.02734375 46.3828125 C6.51415971 46.26932023 8.56842407 45.96928571 10.9375 45.25 C12.36008812 49.07320557 13.17792276 52.16281305 12.9375 56.25 C5.40676745 60.00785057 -5.20614702 59.34966377 -13.25390625 57.52734375 C-20.90269068 54.64299298 -25.85216904 50.59645617 -29.30078125 43.1171875 C-32.5210302 35.22344906 -32.38218681 24.53164772 -29.3125 16.5625 C-25.53239695 8.71353602 -20.32536073 4.45749891 -12.37109375 1.12109375 C-8.17499198 0.01633496 -4.31794668 -0.04250645 0 0 Z " fill="#241E5D" transform="translate(1532.0625,241.75)"/>
<path d="M0 0 C0.78955078 -0.00773438 1.57910156 -0.01546875 2.39257812 -0.0234375 C3.16150391 -0.02085937 3.93042969 -0.01828125 4.72265625 -0.015625 C5.41238525 -0.01336914 6.10211426 -0.01111328 6.81274414 -0.00878906 C8.9375 0.25 8.9375 0.25 13.9375 2.25 C13.2775 5.88 12.6175 9.51 11.9375 13.25 C11.174375 13.085 10.41125 12.92 9.625 12.75 C0.11665834 11.41681114 0.11665834 11.41681114 -9 13.75 C-13.61824201 17.51999348 -15.61646119 21.04955655 -16.44140625 26.96875 C-16.70997078 33.27568472 -15.85411397 37.1945147 -12.0625 42.25 C-8.0141024 45.93036145 -4.47770514 46.38823289 0.875 46.375 C1.91527344 46.37757813 2.95554687 46.38015625 4.02734375 46.3828125 C6.51415971 46.26932023 8.56842407 45.96928571 10.9375 45.25 C12.36008812 49.07320557 13.17792276 52.16281305 12.9375 56.25 C5.40676745 60.00785057 -5.20614702 59.34966377 -13.25390625 57.52734375 C-20.90269068 54.64299298 -25.85216904 50.59645617 -29.30078125 43.1171875 C-32.5210302 35.22344906 -32.38218681 24.53164772 -29.3125 16.5625 C-25.53239695 8.71353602 -20.32536073 4.45749891 -12.37109375 1.12109375 C-8.17499198 0.01633496 -4.31794668 -0.04250645 0 0 Z " fill="#231E5E" transform="translate(1201.0625,241.75)"/>
<path d="M0 0 C14.52 0 29.04 0 44 0 C44 3.63 44 7.26 44 11 C38.72 11 33.44 11 28 11 C28 25.85 28 40.7 28 56 C23.71 56 19.42 56 15 56 C15 41.15 15 26.3 15 11 C10.05 11 5.1 11 0 11 C0 7.37 0 3.74 0 0 Z " fill="#231E5E" transform="translate(2508,243)"/>
<path d="M0 0 C14.52 0 29.04 0 44 0 C44 3.63 44 7.26 44 11 C38.72 11 33.44 11 28 11 C28 25.85 28 40.7 28 56 C23.71 56 19.42 56 15 56 C15 41.15 15 26.3 15 11 C10.05 11 5.1 11 0 11 C0 7.37 0 3.74 0 0 Z " fill="#231E5E" transform="translate(2177,243)"/>
<path d="M0 0 C4.29 0 8.58 0 13 0 C13 14.85 13 29.7 13 45 C20.59 45 28.18 45 36 45 C36 48.63 36 52.26 36 56 C24.12 56 12.24 56 0 56 C0 37.52 0 19.04 0 0 Z " fill="#231E5D" transform="translate(2288,243)"/>
<path d="M0 0 C4.29 0 8.58 0 13 0 C13.0992969 6.11974418 13.17167096 12.23901352 13.21972656 18.359375 C13.23977159 20.43888525 13.26701513 22.51833963 13.30175781 24.59765625 C13.35058948 27.59649487 13.37304028 30.59458463 13.390625 33.59375 C13.41127014 34.51490601 13.43191528 35.43606201 13.45318604 36.38513184 C13.45525836 42.42333974 12.44822122 46.96750187 9 52 C3.9152541 56.83670951 -0.29510364 57.16090131 -7.0625 57.125 C-7.79533203 57.12886719 -8.52816406 57.13273437 -9.28320312 57.13671875 C-14.74663018 57.12668491 -14.74663018 57.12668491 -17 56 C-16.85892253 54.54119891 -16.71197585 53.08296449 -16.5625 51.625 C-16.48128906 50.81289063 -16.40007812 50.00078125 -16.31640625 49.1640625 C-16 47 -16 47 -15 45 C-14.31292969 45.02320313 -13.62585937 45.04640625 -12.91796875 45.0703125 C-12.01691406 45.08835937 -11.11585938 45.10640625 -10.1875 45.125 C-8.84751953 45.15980469 -8.84751953 45.15980469 -7.48046875 45.1953125 C-4.74597286 45.18285827 -4.74597286 45.18285827 -2 43 C-1.11434414 40.34303242 -0.8549738 38.71809917 -0.79467773 35.98754883 C-0.77473251 35.18694534 -0.75478729 34.38634186 -0.73423767 33.56147766 C-0.71752518 32.70201035 -0.70081268 31.84254303 -0.68359375 30.95703125 C-0.66281265 30.0734343 -0.64203156 29.18983734 -0.62062073 28.27946472 C-0.55524246 25.45722215 -0.49629472 22.63488665 -0.4375 19.8125 C-0.39430363 17.89907894 -0.35068898 15.98566727 -0.30664062 14.07226562 C-0.19957305 9.38160563 -0.09827248 4.69085217 0 0 Z " fill="#231E5E" transform="translate(2063,243)"/>
<path d="M0 0 C4.29 0 8.58 0 13 0 C13 18.48 13 36.96 13 56 C8.71 56 4.42 56 0 56 C0 37.52 0 19.04 0 0 Z " fill="#241E5E" transform="translate(2558,243)"/>
<path d="M0 0 C4.29 0 8.58 0 13 0 C13 18.48 13 36.96 13 56 C8.71 56 4.42 56 0 56 C0 37.52 0 19.04 0 0 Z " fill="#231E5F" transform="translate(2444,243)"/>
<path d="M0 0 C4.29 0 8.58 0 13 0 C13 18.48 13 36.96 13 56 C8.71 56 4.42 56 0 56 C0 37.52 0 19.04 0 0 Z " fill="#241E5F" transform="translate(1716,243)"/>
<path d="M0 0 C4.50595912 1.80238365 7.77271916 3.86442957 11.5625 6.75 C16.12857977 10.17587276 20.72956895 13.52901015 25.4296875 16.76953125 C26.34290771 17.39956055 27.25612793 18.02958984 28.19702148 18.67871094 C30.01069638 19.92542056 31.82787912 21.16704377 33.64868164 22.40332031 C34.88799438 23.25748535 34.88799438 23.25748535 36.15234375 24.12890625 C36.89476318 24.63494385 37.63718262 25.14098145 38.40209961 25.66235352 C38.92940674 26.10377686 39.45671387 26.5452002 40 27 C40 27.66 40 28.32 40 29 C26.8 29 13.6 29 0 29 C0 19.43 0 9.86 0 0 Z " fill="#273688" transform="translate(306,178)"/>
<path d="M0 0 C3.77161821 1.50864728 6.17988239 2.64333281 9.37109375 4.90625 C10.5945752 5.76814941 10.5945752 5.76814941 11.84277344 6.64746094 C13.12716309 7.56446777 13.12716309 7.56446777 14.4375 8.5 C15.31825195 9.12422852 16.19900391 9.74845703 17.10644531 10.39160156 C18.89055664 11.65688735 20.67328453 12.92412624 22.45458984 14.19335938 C24.76878504 15.83589193 27.09379702 17.46099701 29.42578125 19.078125 C30.70060569 19.96862853 31.97535122 20.85924505 33.25 21.75 C33.83966553 22.15541016 34.42933105 22.56082031 35.03686523 22.97851562 C36.39448052 23.9358111 37.70367083 24.96121967 39 26 C39 26.66 39 27.32 39 28 C26.13 28 13.26 28 0 28 C0 18.76 0 9.52 0 0 Z " fill="#2A3688" transform="translate(342,59)"/>
<path d="M0 0 C7.23270434 4.45447084 14.2296083 9.19197581 21.1875 14.0625 C22.45158691 14.94639404 22.45158691 14.94639404 23.74121094 15.84814453 C35.63930036 24.21041491 35.63930036 24.21041491 39 27 C39 27.33 39 27.66 39 28 C26.46 28 13.92 28 1 28 C-0.0592918 24.82212459 -0.11458939 22.57411057 -0.09765625 19.23828125 C-0.09443359 18.12001953 -0.09121094 17.00175781 -0.08789062 15.84960938 C-0.07951172 14.68236328 -0.07113281 13.51511719 -0.0625 12.3125 C-0.05573242 10.54422852 -0.05573242 10.54422852 -0.04882812 8.74023438 C-0.03703273 5.82677211 -0.0205727 2.91341137 0 0 Z " fill="#273688" transform="translate(355,3)"/>
<path d="M0 0 C1.32 0 2.64 0 4 0 C4 0.66 4 1.32 4 2 C94.42 2.33 184.84 2.66 278 3 C278 3.33 278 3.66 278 4 C186.26 4 94.52 4 0 4 C0 2.68 0 1.36 0 0 Z " fill="#2B2C58" transform="translate(45,144)"/>
<path d="M0 0 C7.26 0 14.52 0 22 0 C22 2.97 22 5.94 22 9 C14.74 9 7.48 9 0 9 C0 6.03 0 3.06 0 0 Z " fill="#242054" transform="translate(2241,273)"/>
<path d="M0 0 C7.26 0 14.52 0 22 0 C22 2.97 22 5.94 22 9 C14.74 9 7.48 9 0 9 C0 6.03 0 3.06 0 0 Z " fill="#241E5D" transform="translate(1848,273)"/>
<path d="M0 0 C7.26 0 14.52 0 22 0 C22 2.97 22 5.94 22 9 C14.74 9 7.48 9 0 9 C0 6.03 0 3.06 0 0 Z " fill="#242054" transform="translate(1457,273)"/>
<path d="M0 0 C41.25 0 82.5 0 125 0 C124.34 2.97 123.68 5.94 123 9 C122.67 9 122.34 9 122 9 C121.505 5.535 121.505 5.535 121 2 C81.07 1.67 41.14 1.34 0 1 C0 0.67 0 0.34 0 0 Z " fill="#29265A" transform="translate(1428,182)"/>
<path d="M0 0 C36.3 0 72.6 0 110 0 C110 0.33 110 0.66 110 1 C108.79143845 1.00808685 107.58287689 1.01617371 106.33769226 1.02450562 C94.96295147 1.10190064 83.58833128 1.18962303 72.21374798 1.28752708 C66.36558606 1.33752993 60.51744256 1.38385962 54.66918945 1.421875 C49.02812752 1.45867738 43.38721821 1.50502357 37.74628639 1.55806351 C35.59128298 1.57663432 33.43624683 1.59173228 31.28119469 1.60334396 C28.26892757 1.62016041 25.25701205 1.64918434 22.24487305 1.68115234 C20.90051933 1.68439262 20.90051933 1.68439262 19.52900696 1.68769836 C18.70871002 1.69886185 17.88841309 1.71002533 17.04325867 1.7215271 C16.33071269 1.72705786 15.61816671 1.73258862 14.88402843 1.73828697 C12.6685665 1.90683048 12.6685665 1.90683048 10 4 C3.67741935 4.4516129 3.67741935 4.4516129 0 2 C0 1.34 0 0.68 0 0 Z " fill="#272758" transform="translate(1650,88)"/>
<path d="M0 0 C36.3 0 72.6 0 110 0 C109.34 3.96 108.68 7.92 108 12 C107.67 12 107.34 12 107 12 C107 9.36 107 6.72 107 4 C102.13448076 1.46261214 97.41841648 1.69350066 92.0690918 1.68115234 C91.07349747 1.67110672 90.07790314 1.6610611 89.05213928 1.65071106 C85.7678382 1.61986906 82.48361869 1.6028409 79.19921875 1.5859375 C76.91949257 1.56722669 74.63977332 1.54765335 72.36006165 1.5272522 C66.36453334 1.4759159 60.36898258 1.43629805 54.37335205 1.39910889 C48.25340208 1.35907874 42.13354564 1.30798185 36.01367188 1.2578125 C24.00918028 1.1610354 12.00463588 1.0766362 0 1 C0 0.67 0 0.34 0 0 Z " fill="#28275A" transform="translate(1450,88)"/>
<path d="M0 0 C4.875 0.875 4.875 0.875 6 2 C9.08378773 2.10600796 12.14530223 2.14677451 15.22973633 2.14526367 C16.19881424 2.14862228 17.16789215 2.1519809 18.16633606 2.15544128 C21.3882473 2.16498448 24.61010674 2.16689621 27.83203125 2.16796875 C30.06304445 2.17117947 32.29405744 2.1745434 34.52507019 2.17805481 C39.21015918 2.18405485 43.8952297 2.18589386 48.58032227 2.18530273 C54.5896449 2.18520117 60.59884921 2.19884337 66.60814381 2.21607494 C71.21917771 2.22718443 75.83018295 2.22922225 80.44122887 2.22869301 C82.65684097 2.2298751 84.87245377 2.23430964 87.08805275 2.24202538 C90.18614641 2.25180208 93.28398243 2.2489561 96.38208008 2.24291992 C97.30120178 2.24853943 98.22032349 2.25415894 99.16729736 2.25994873 C100.01276627 2.25575424 100.85823517 2.25155975 101.72932434 2.24723816 C102.46177274 2.24778293 103.19422113 2.24832769 103.94886494 2.24888897 C106.31141258 1.96221255 107.94295284 1.16858866 110 0 C109.67 1.32 109.34 2.64 109 4 C71.38 4 33.76 4 -5 4 C-3.68 3.67 -2.36 3.34 -1 3 C-0.67 2.01 -0.34 1.02 0 0 Z " fill="#272859" transform="translate(1465,36)"/>
<path d="M0 0 C4.44607497 1.77842999 5.9797308 2.64414533 9 6 C6.69 6.66 4.38 7.32 2 8 C1.67 14.93 1.34 21.86 1 29 C0.67 29 0.34 29 0 29 C0 19.43 0 9.86 0 0 Z " fill="#2B337D" transform="translate(306,178)"/>
<path d="M0 0 C2.83837891 0.72412109 2.83837891 0.72412109 6 2 C8.52263617 2.22227519 11.0542567 2.35330216 13.5859375 2.4140625 C14.28772125 2.43342865 14.989505 2.4527948 15.71255493 2.4727478 C17.93324999 2.53207569 20.15399823 2.57873917 22.375 2.625 C23.88934434 2.66322302 25.40366794 2.70227722 26.91796875 2.7421875 C30.61178831 2.83773734 34.3057647 2.92193937 38 3 C38 3.33 38 3.66 38 4 C23.81 4 9.62 4 -5 4 C-3.35 2.68 -1.7 1.36 0 0 Z " fill="#2A2C56" transform="translate(1865,36)"/>
<path d="M0 0 C2.16874252 0.50603992 3.99967627 0.99983813 6 2 C6 2.66 6 3.32 6 4 C-4.23 4 -14.46 4 -25 4 C-25 3.67 -25 3.34 -25 3 C-16.75 3 -8.5 3 0 3 C0 2.01 0 1.02 0 0 Z " fill="#434E81" transform="translate(356,144)"/>
<path d="M0 0 C5.28 0 10.56 0 16 0 C16 3.63 16 7.26 16 11 C15.67 11 15.34 11 15 11 C15 7.7 15 4.4 15 1 C8.61100772 1.35491111 8.61100772 1.35491111 3 4 C2.01 4 1.02 4 0 4 C0 2.68 0 1.36 0 0 Z " fill="#24214D" transform="translate(2106,288)"/>
<path d="M0 0 C2.64 0 5.28 0 8 0 C6.74381926 3.76854223 5.33985294 4.07958456 2 6 C1.67 6.66 1.34 7.32 1 8 C1.99 8.33 2.98 8.66 4 9 C2.68 9 1.36 9 0 9 C0 6.03 0 3.06 0 0 Z " fill="#242248" transform="translate(1848,273)"/>
<path d="M0 0 C6.875 3.75 6.875 3.75 8 6 C5.36 6 2.72 6 0 6 C0 4.02 0 2.04 0 0 Z " fill="#595A90" transform="translate(386,25)"/>
<path d="M0 0 C0 1.65 0 3.3 0 5 C-2.31 5.66 -4.62 6.32 -7 7 C-3.86206897 0 -3.86206897 0 0 0 Z " fill="#29265A" transform="translate(1030,17)"/>
<path d="M0 0 C0.99 0 1.98 0 3 0 C2.67 2.64 2.34 5.28 2 8 C1.01 8 0.02 8 -1 8 C-1.04241723 5.66705225 -1.04092937 3.33297433 -1 1 C-0.67 0.67 -0.34 0.34 0 0 Z " fill="#26224F" transform="translate(2141,264)"/>
<path d="M0 0 C1.65 0 3.3 0 5 0 C5 0.66 5 1.32 5 2 C7.31 2 9.62 2 12 2 C12 2.33 12 2.66 12 3 C7.71 3 3.42 3 -1 3 C-0.67 2.01 -0.34 1.02 0 0 Z " fill="#232150" transform="translate(1909,276)"/>
<path d="M0 0 C0.33 0 0.66 0 1 0 C1.3125 2.8125 1.3125 2.8125 1 6 C-1.375 7.8125 -1.375 7.8125 -4 9 C-4.99 9.495 -4.99 9.495 -6 10 C-4.63201951 6.0100569 -2.79608023 3.15686477 0 0 Z " fill="#28265C" transform="translate(933,24)"/>
<path d="M0 0 C2.4375 0.8125 2.4375 0.8125 5 2 C5.33 2.99 5.66 3.98 6 5 C3.69 5 1.38 5 -1 5 C-0.67 3.35 -0.34 1.7 0 0 Z " fill="#7874A7" transform="translate(340,202)"/>
<path d="M0 0 C0.99 0.66 1.98 1.32 3 2 C1.3811004 3.03048037 -0.24532489 4.04914678 -1.875 5.0625 C-2.77992187 5.63097656 -3.68484375 6.19945313 -4.6171875 6.78515625 C-5.40351562 7.18605469 -6.18984375 7.58695313 -7 8 C-7.66 7.67 -8.32 7.34 -9 7 C-8.43410156 6.57847656 -7.86820313 6.15695313 -7.28515625 5.72265625 C-6.55167969 5.17480469 -5.81820313 4.62695312 -5.0625 4.0625 C-4.33160156 3.51722656 -3.60070313 2.97195312 -2.84765625 2.41015625 C-1.0865547 1.13092062 -1.0865547 1.13092062 0 0 Z " fill="#29265D" transform="translate(1341,121)"/>
<path d="M0 0 C0.98120464 3.05263664 0.98120464 4.94736336 0 8 C-2.97 7.505 -2.97 7.505 -6 7 C-6 6.34 -6 5.68 -6 5 C-4.35 5 -2.7 5 -1 5 C-0.67 3.35 -0.34 1.7 0 0 Z " fill="#24214F" transform="translate(2623,247)"/>
<path d="M0 0 C2.97 0 5.94 0 9 0 C6 3 6 3 2.8125 3.1875 C1.4203125 3.0946875 1.4203125 3.0946875 0 3 C0 2.01 0 1.02 0 0 Z " fill="#282857" transform="translate(1073,184)"/>
<path d="M0 0 C1.89213369 2.38573379 3.02391783 4.07175348 4 7 C1.37886292 7 -0.50935112 6.68707555 -3 6 C-3 5.34 -3 4.68 -3 4 C-2.01 4 -1.02 4 0 4 C0 2.68 0 1.36 0 0 Z " fill="#C9882E" transform="translate(2347,120)"/>
<path d="M0 0 C0.33 0 0.66 0 1 0 C1 3.63 1 7.26 1 11 C-0.32 10.67 -1.64 10.34 -3 10 C-2.01 6.7 -1.02 3.4 0 0 Z " fill="#242248" transform="translate(2119,265)"/>
<path d="M0 0 C0.33 0 0.66 0 1 0 C1.08086147 1.79093191 1.13912702 3.58289628 1.1875 5.375 C1.22230469 6.37273437 1.25710938 7.37046875 1.29296875 8.3984375 C1.19628906 9.25695312 1.09960938 10.11546875 1 11 C0.01 11.66 -0.98 12.32 -2 13 C-1.34 8.71 -0.68 4.42 0 0 Z " fill="#282857" transform="translate(1402,92)"/>
<path d="M0 0 C0.66 0.33 1.32 0.66 2 1 C0.02 3.31 -1.96 5.62 -4 8 C-4.99 7.67 -5.98 7.34 -7 7 C-4.69 4.69 -2.38 2.38 0 0 Z " fill="#23214D" transform="translate(1559,246)"/>
<path d="M0 0 C0.66 0.66 1.32 1.32 2 2 C-0.25 4.5625 -0.25 4.5625 -3 7 C-5.3125 6.8125 -5.3125 6.8125 -7 6 C-2.25 2 -2.25 2 0 2 C0 1.34 0 0.68 0 0 Z M-9 7 C-7 8 -7 8 -7 8 Z " fill="#28275D" transform="translate(1102,173)"/>
<path d="M0 0 C2.5 1.375 2.5 1.375 5 3 C5 3.66 5 4.32 5 5 C3.02 5 1.04 5 -1 5 C-0.67 3.35 -0.34 1.7 0 0 Z " fill="#6B6A9F" transform="translate(376,82)"/>
<path d="M0 0 C0.99 0 1.98 0 3 0 C3.1875 2.375 3.1875 2.375 3 5 C2.01 5.66 1.02 6.32 0 7 C0 4.69 0 2.38 0 0 Z " fill="#24224A" transform="translate(1352,267)"/>
<path d="M0 0 C2.64 0 5.28 0 8 0 C7.67 2.31 7.34 4.62 7 7 C6.67 7 6.34 7 6 7 C6 5.35 6 3.7 6 2 C3.03 1.505 3.03 1.505 0 1 C0 0.67 0 0.34 0 0 Z " fill="#2A294A" transform="translate(1552,88)"/>
<path d="M0 0 C0.33 0 0.66 0 1 0 C1.08090971 1.62418745 1.13914995 3.24951745 1.1875 4.875 C1.22230469 5.77992187 1.25710938 6.68484375 1.29296875 7.6171875 C1.19628906 8.40351562 1.09960938 9.18984375 1 10 C0.01 10.66 -0.98 11.32 -2 12 C-1.34 8.04 -0.68 4.08 0 0 Z " fill="#2D2C51" transform="translate(1810,59)"/>
</svg>
