<svg width="1005" height="565" viewBox="0 0 1005 565" fill="none" xmlns="http://www.w3.org/2000/svg">
<g clip-path="url(#clip0_1915_289)">
<path d="M1.99987 0.999906C22.4122 0.952903 42.8246 0.91778 63.237 0.896282C72.7177 0.886029 82.1984 0.872084 91.6791 0.849027C99.9555 0.828909 108.232 0.816147 116.508 0.811729C120.879 0.809153 125.249 0.803225 129.62 0.788446C217.369 0.503531 217.369 0.503532 247 25.9999C247.834 26.7128 248.668 27.4256 249.527 28.1601C262.011 39.1041 271.094 51.9298 278 66.9999C278.357 67.7463 278.714 68.4926 279.082 69.2616C292.762 98.6205 292 132.592 281.187 162.562C276.988 173.467 270.487 183.083 263 192C262.037 193.181 262.037 193.181 261.055 194.387C249.7 207.731 234.668 216.74 220 226C222.411 239.269 232.271 251.199 239.579 262.238C243.741 268.525 247.81 274.846 251.687 281.312C257.777 291.438 264.394 301.206 271 311C277.205 320.212 283.35 329.432 289 339C289.456 339.772 289.913 340.544 290.383 341.34C292.771 345.69 293.838 349.065 293 354C290.348 357.414 288.858 358.84 284.56 359.642C283.243 359.649 281.925 359.656 280.567 359.663C279.836 359.673 279.105 359.683 278.352 359.694C275.945 359.721 273.54 359.712 271.133 359.699C269.453 359.705 267.773 359.712 266.093 359.721C262.574 359.733 259.055 359.726 255.536 359.707C251.038 359.684 246.542 359.711 242.043 359.752C238.574 359.777 235.105 359.775 231.635 359.764C229.977 359.762 228.32 359.77 226.662 359.787C212.099 359.913 212.099 359.913 207.578 356.157C206.161 354.606 206.161 354.606 205 353C204.576 352.431 204.153 351.861 203.717 351.274C202.524 349.585 201.48 347.848 200.437 346.062C200.026 345.382 199.614 344.702 199.191 344.001C198.28 342.494 197.375 340.983 196.474 339.471C194.329 335.875 192.145 332.303 189.965 328.728C188.164 325.774 186.367 322.817 184.57 319.859C177.922 308.933 171.183 298.061 164.379 287.23C157.268 275.906 150.279 264.523 143.434 253.036C139.531 246.502 135.533 240.04 131.437 233.625C127.936 228.136 124.594 222.639 121.558 216.875C119.449 212.983 117.191 209.185 114.937 205.375C114.504 204.635 114.07 203.896 113.623 203.134C111.866 200.14 110.102 197.161 108.246 194.226C105.128 189.163 104.068 184.964 105 179C107.125 176.874 111.881 177.764 114.828 177.719C115.728 177.7 116.628 177.682 117.555 177.663C120.453 177.604 123.352 177.551 126.25 177.5C148.459 177.598 148.459 177.598 170.187 173.75C171.339 173.414 171.339 173.414 172.513 173.071C184.722 169.386 194.455 163.893 200.875 152.375C207.348 137.882 208.453 119.945 203 105C198.233 94.1217 192.214 86.9493 181.1 82.3769C162.111 75.5446 139.546 77.4575 119.649 77.3304C115.391 77.3001 111.133 77.2537 106.875 77.2089C98.5833 77.1239 90.2917 77.0561 81.9999 76.9999C82.0003 77.5916 82.0006 78.1833 82.001 78.793C82.0234 113.832 82.0405 148.87 82.0509 183.909C82.0522 188.112 82.0535 192.316 82.0548 196.519C82.0551 197.356 82.0553 198.193 82.0556 199.055C82.06 212.62 82.0678 226.186 82.077 239.751C82.0864 253.662 82.0919 267.572 82.094 281.483C82.0953 290.072 82.0997 298.661 82.1078 307.251C82.1131 313.134 82.1147 319.017 82.1134 324.9C82.1127 328.299 82.1137 331.698 82.1191 335.096C82.124 338.774 82.1229 342.452 82.1201 346.13C82.123 347.213 82.126 348.297 82.129 349.413C82.127 350.393 82.125 351.372 82.1229 352.381C82.1233 353.231 82.1237 354.081 82.1241 354.956C81.9999 357 81.9999 357 80.9999 359C77.0034 360.332 73.145 360.182 68.9764 360.203C68.0793 360.209 67.1821 360.214 66.2578 360.22C64.353 360.23 62.4482 360.236 60.5433 360.24C57.6705 360.25 54.7983 360.281 51.9257 360.312C23.6092 360.476 23.6092 360.476 13.1014 351.351C-1.79609 335.951 0.569573 309.33 0.643427 289.615C0.644304 286.878 0.640656 284.141 0.637232 281.404C0.631635 274.774 0.641847 268.145 0.65752 261.515C0.675204 253.758 0.676482 246 0.677135 238.243C0.678819 224.368 0.694574 210.494 0.718622 196.62C0.741804 183.235 0.756038 169.851 0.759638 156.466C0.759861 155.644 0.760084 154.822 0.760313 153.975C0.760756 152.318 0.761198 150.661 0.761639 149.004C0.761859 148.186 0.762078 147.368 0.762304 146.525C0.76252 145.709 0.762736 144.893 0.762959 144.052C0.76669 131.2 0.778054 118.348 0.790435 105.495C0.794823 100.88 0.798288 96.2647 0.80105 91.6495C0.840692 27.243 0.840692 27.2429 1.99987 0.999906Z" fill="#275953"/>
<path d="M554 68.0001C565.075 67.9073 576.149 67.8363 587.225 67.7929C592.368 67.772 597.51 67.7438 602.653 67.6984C607.62 67.6548 612.586 67.631 617.553 67.6206C619.445 67.6132 621.336 67.5989 623.227 67.5772C625.884 67.548 628.54 67.5442 631.197 67.546C632.36 67.5244 632.36 67.5244 633.547 67.5024C640.46 67.5542 645.544 69.8406 650.719 74.3907C653.093 77.1069 655.323 79.8726 657.5 82.7501C658.383 83.9116 659.266 85.073 660.148 86.2345C660.844 87.1539 660.844 87.1539 661.554 88.0919C663.536 90.7073 665.533 93.3115 667.529 95.9164C669.753 98.8202 671.973 101.727 674.193 104.634C675.429 106.252 676.664 107.87 677.9 109.487C685.898 119.954 693.853 130.45 701.744 140.998C706.771 147.712 711.86 154.373 717 161C721.163 154.744 724.856 148.455 728.141 141.699C734.055 129.744 740.702 118.105 747.5 106.633C749.067 103.883 750.481 101.091 751.875 98.2501C764.149 73.5053 764.149 73.5053 772 70.0001C777.069 68.3106 781.65 67.7189 786.955 67.7731C787.717 67.7728 788.478 67.7725 789.263 67.7722C791.758 67.7736 794.252 67.7891 796.746 67.8048C798.485 67.8085 800.224 67.8114 801.962 67.8134C806.521 67.821 811.08 67.8406 815.638 67.8628C820.297 67.8833 824.956 67.8924 829.615 67.9025C838.744 67.9239 847.872 67.958 857 68.0001C856.078 72.1319 854.262 75.6467 852.316 79.379C851.946 80.0985 851.575 80.8179 851.193 81.5591C849.987 83.8958 848.775 86.2292 847.562 88.5626C846.727 90.178 845.892 91.7936 845.057 93.4093C840.663 101.905 836.245 110.388 831.768 118.84C827.788 126.364 823.898 133.934 820 141.5C814.848 151.5 809.665 161.483 804.41 171.43C799.568 180.599 794.79 189.803 790 199C789.141 200.649 789.141 200.649 788.264 202.331C786.509 205.699 784.754 209.068 783 212.438C782.46 213.474 781.92 214.509 781.364 215.577C780.358 217.51 779.356 219.445 778.359 221.382C777.493 223.05 776.609 224.71 775.703 226.356C773.601 229.958 773.601 229.958 773.227 233.979C774.119 236.313 775.253 237.916 776.809 239.871C777.385 240.603 777.962 241.335 778.556 242.089C779.487 243.252 779.487 243.252 780.438 244.438C781.731 246.075 783.024 247.713 784.316 249.352C784.951 250.151 785.585 250.951 786.239 251.775C788.476 254.602 790.679 257.453 792.875 260.313C793.664 261.34 794.453 262.367 795.266 263.426C800.826 270.688 806.363 277.968 811.903 285.246C815.268 289.665 818.634 294.083 822 298.5C826.071 303.843 830.142 309.186 834.211 314.531C842.774 325.781 842.774 325.781 851.375 337C852.133 337.986 852.891 338.972 853.672 339.988C855.382 342.201 857.101 344.406 858.828 346.606C859.296 347.204 859.763 347.803 860.245 348.42C861.144 349.572 862.047 350.72 862.955 351.865C866 355.775 866 355.775 866 358C855.334 358.139 844.668 358.246 834.001 358.311C829.047 358.342 824.094 358.385 819.14 358.453C814.355 358.518 809.571 358.554 804.785 358.569C802.964 358.58 801.143 358.602 799.323 358.634C782.101 358.93 782.101 358.93 775.561 353.579C773.182 351.173 771.098 348.753 769.125 346C768.284 344.852 767.441 343.705 766.598 342.559C765.96 341.679 765.96 341.679 765.309 340.781C763.132 337.819 760.845 334.944 758.562 332.063C757.64 330.892 756.718 329.722 755.797 328.551C755.337 327.968 754.878 327.385 754.404 326.784C752.981 324.976 751.56 323.166 750.141 321.356C746.095 316.198 742.046 311.045 737.938 305.938C734.991 302.268 732.109 298.551 729.25 294.813C725.562 289.991 721.804 285.231 718 280.5C714.279 275.873 710.603 271.219 707 266.5C702.831 261.049 698.567 255.68 694.27 250.329C689.421 244.289 684.636 238.205 680 232C679.42 233.039 678.84 234.078 678.242 235.149C671.142 247.834 671.142 247.834 667.812 253.25C665.741 256.652 663.929 260.106 662.188 263.688C659.855 268.457 657.268 272.978 654.5 277.5C651.896 281.761 649.423 285.998 647.25 290.5C642.35 300.601 636.559 310.252 631 320C624.887 330.654 624.887 330.654 619.25 341.563C615.874 348.453 612.034 355.072 608.236 361.736C604.186 368.857 600.252 376.033 596.375 383.25C591.152 392.961 585.74 402.544 580.138 412.041C579.385 413.338 578.647 414.645 577.926 415.961C576.126 419.242 574.468 421.931 571.562 424.313C570.729 425.018 570.729 425.018 569.879 425.738C565.232 428.859 560.933 429.284 555.456 429.227C554.714 429.227 553.972 429.228 553.207 429.228C550.767 429.227 548.327 429.211 545.887 429.195C544.19 429.192 542.493 429.189 540.796 429.187C536.339 429.179 531.883 429.16 527.426 429.137C522.874 429.117 518.323 429.108 513.771 429.098C504.848 429.076 495.924 429.042 487 429C489.209 423.393 491.958 418.149 494.75 412.813C495.263 411.822 495.776 410.831 496.305 409.811C499.262 404.144 502.38 398.627 505.705 393.169C507.243 390.593 508.585 387.958 509.875 385.25C512.088 380.732 514.473 376.348 517 372C519.479 367.732 521.83 363.435 524 359C526.79 353.307 529.906 347.831 533.074 342.344C537.219 335.147 541.098 327.82 544.934 320.455C545.647 319.085 545.647 319.085 546.375 317.688C546.852 316.772 547.329 315.856 547.82 314.912C550.551 309.692 553.351 304.53 556.312 299.438C559.237 294.402 561.879 289.291 564.438 284.063C566.182 280.642 568.072 277.319 570 274C572.371 269.916 574.632 265.816 576.688 261.563C579.681 255.436 583.058 249.546 586.438 243.625C590.614 236.303 594.599 228.972 598.293 221.395C600.632 216.743 603.181 212.222 605.731 207.684C610.584 199.018 615.244 190.249 619.91 181.482C620.526 180.327 621.142 179.171 621.777 177.981C622.326 176.948 622.875 175.916 623.441 174.852C625 172 625 172 626.826 169.376C628.286 167.103 628.286 167.103 627.378 164.953C626.924 164.308 626.469 163.664 626 163C625.534 162.323 625.067 161.646 624.586 160.948C624.045 160.227 623.503 159.505 622.945 158.762C622.337 157.949 621.728 157.137 621.101 156.3C620.449 155.438 619.797 154.576 619.125 153.688C618.452 152.793 617.778 151.899 617.085 150.978C612.603 145.049 608.021 139.214 603.346 133.438C599.32 128.448 595.47 123.341 591.644 118.197C586.081 110.734 580.342 103.409 574.615 96.0719C568.979 88.841 563.403 81.5641 557.875 74.2501C557.13 73.2653 556.385 72.2804 555.617 71.2657C554 69.0001 554 69.0001 554 68.0001Z" fill="#275852"/>
<path d="M333.673 68.3719C334.343 68.3648 335.012 68.3577 335.702 68.3504C337.945 68.3328 340.186 68.351 342.429 68.369C344.037 68.3639 345.645 68.3566 347.254 68.3473C351.622 68.3288 355.989 68.3418 360.357 68.3614C364.927 68.3778 369.497 68.369 374.067 68.3639C381.743 68.3594 389.419 68.3753 397.095 68.4032C405.969 68.4352 414.843 68.4352 423.717 68.418C432.252 68.4021 440.787 68.4089 449.323 68.4259C452.956 68.4328 456.588 68.4318 460.221 68.4244C464.5 68.4167 468.778 68.4288 473.057 68.4562C474.627 68.4631 476.198 68.4632 477.768 68.456C479.912 68.4473 482.055 68.4633 484.199 68.4855C485.998 68.4897 485.998 68.4897 487.834 68.494C491.634 69.1016 493.279 70.3295 495.999 73.0001C499.058 78.624 498.368 84.8923 498.374 91.1251C498.399 92.2982 498.423 93.4712 498.449 94.6798C498.482 104.666 496.82 114.116 489.687 121.57C480.242 129.573 467.649 129.295 455.916 129.336C453.586 129.344 451.258 129.365 448.928 129.388C443.154 129.444 437.379 129.48 431.604 129.516C426.701 129.547 421.798 129.586 416.895 129.636C414.603 129.656 412.312 129.664 410.021 129.672C408.618 129.685 407.215 129.699 405.812 129.713C404.59 129.72 403.368 129.728 402.109 129.735C399.161 129.986 397.48 130.452 395 132C394.784 153.413 394.784 153.413 395.375 174.813C395.405 175.521 395.436 176.229 395.468 176.959C395.68 180.461 395.998 181.998 398 185C400.922 185.3 403.635 185.406 406.561 185.385C407.447 185.39 408.334 185.396 409.247 185.401C411.176 185.411 413.106 185.414 415.035 185.411C418.091 185.406 421.147 185.42 424.203 185.439C430.698 185.476 437.192 185.49 443.687 185.5C451.196 185.512 458.704 185.534 466.212 185.58C469.219 185.594 472.225 185.59 475.231 185.585C477.084 185.594 478.938 185.604 480.791 185.615C481.623 185.609 482.455 185.603 483.312 185.597C488.594 185.652 492.32 186.492 496.999 189C498.505 192.011 498.183 195.126 498.203 198.43C498.208 199.175 498.214 199.921 498.22 200.689C498.229 202.275 498.236 203.86 498.24 205.445C498.249 207.831 498.28 210.216 498.312 212.602C498.458 233.19 498.458 233.19 493.574 239.983C485.124 248.149 471.602 246.325 460.726 246.379C458.952 246.395 457.179 246.412 455.405 246.431C450.761 246.476 446.116 246.511 441.471 246.543C434.017 246.595 426.563 246.66 419.108 246.731C416.507 246.754 413.907 246.77 411.306 246.786C409.718 246.799 408.129 246.813 406.541 246.827C405.818 246.829 405.095 246.832 404.35 246.834C401.294 246.866 398.923 247.026 396 248C395.924 254.354 395.871 260.707 395.835 267.061C395.82 269.224 395.799 271.386 395.773 273.548C395.737 276.653 395.72 279.758 395.707 282.863C395.691 283.832 395.676 284.801 395.66 285.799C395.659 286.7 395.659 287.601 395.659 288.529C395.652 289.321 395.646 290.114 395.639 290.931C395.884 293.027 395.884 293.027 396.997 294.756C400.232 296.766 403.688 296.413 407.383 296.385C408.239 296.39 409.094 296.396 409.976 296.401C411.835 296.411 413.695 296.414 415.555 296.411C418.502 296.406 421.449 296.42 424.396 296.439C430.66 296.476 436.923 296.49 443.187 296.5C450.429 296.512 457.671 296.534 464.913 296.58C467.809 296.594 470.705 296.59 473.601 296.585C475.39 296.594 477.18 296.604 478.969 296.615C479.768 296.609 480.566 296.603 481.389 296.597C486.874 296.656 491.009 297.669 495.999 300C499.314 304.971 498.332 310.953 498.315 316.776C498.312 319.03 498.335 321.283 498.361 323.537C498.403 332.85 498.261 342.036 492.499 349.813C485.429 356.913 476.859 358.57 467.156 358.667C465.786 358.655 464.415 358.643 463.045 358.631C461.572 358.636 460.099 358.644 458.626 358.653C454.659 358.671 450.693 358.659 446.727 358.639C442.564 358.622 438.402 358.631 434.24 358.636C427.261 358.641 420.282 358.625 413.302 358.597C405.235 358.565 397.169 358.565 389.102 358.582C381.327 358.598 373.553 358.591 365.778 358.574C362.474 358.567 359.17 358.568 355.866 358.576C351.98 358.584 348.096 358.571 344.211 358.544C342.785 358.537 341.36 358.537 339.935 358.544C337.99 358.553 336.046 358.535 334.101 358.515C333.013 358.512 331.925 358.509 330.804 358.506C327.332 357.88 326.179 356.713 324 354C322.799 351.599 322.871 350.109 322.865 347.426C322.861 346.457 322.856 345.488 322.852 344.489C322.852 343.417 322.852 342.344 322.852 341.239C322.849 340.106 322.845 338.972 322.841 337.805C322.83 333.981 322.826 330.157 322.823 326.333C322.817 323.602 322.81 320.871 322.803 318.14C322.783 309.925 322.773 301.711 322.764 293.497C322.759 289.631 322.754 285.765 322.749 281.898C322.732 269.051 322.717 256.203 322.71 243.355C322.708 240.02 322.706 236.685 322.704 233.349C322.704 232.521 322.703 231.692 322.703 230.838C322.695 217.404 322.669 203.97 322.637 190.536C322.604 176.751 322.586 162.966 322.582 149.18C322.58 141.438 322.572 133.695 322.546 125.952C322.524 119.359 322.516 112.766 322.526 106.173C322.531 102.809 322.526 99.4444 322.509 96.0796C322.492 92.4334 322.499 88.7881 322.512 85.1419C322.495 83.5433 322.495 83.5433 322.479 81.9123C322.516 77.601 322.631 74.7219 324.613 70.843C327.785 68.394 329.681 68.3739 333.673 68.3719Z" fill="#275852"/>
<path d="M786.954 67.7729C787.716 67.7726 788.478 67.7723 789.263 67.772C791.757 67.7734 794.251 67.7889 796.746 67.8046C798.484 67.8084 800.223 67.8112 801.962 67.8132C806.521 67.8208 811.079 67.8404 815.638 67.8626C820.297 67.8831 824.956 67.8922 829.615 67.9023C838.743 67.9237 847.871 67.9578 857 68C856.077 72.1317 854.261 75.6465 852.316 79.3789C851.76 80.458 851.76 80.458 851.192 81.559C849.986 83.8956 848.774 86.2291 847.562 88.5625C846.727 90.1779 845.891 91.7934 845.057 93.4091C840.663 101.905 836.245 110.388 831.767 118.84C827.788 126.364 823.897 133.934 820 141.5C814.847 151.5 809.664 161.483 804.41 171.43C799.567 180.599 794.79 189.803 790 199C789.427 200.099 788.854 201.198 788.264 202.331C786.508 205.699 784.754 209.068 783 212.437C782.46 213.473 781.92 214.509 781.364 215.577C780.358 217.51 779.356 219.445 778.359 221.382C777.493 223.05 776.609 224.709 775.703 226.356C773.6 229.958 773.6 229.958 773.226 233.978C774.119 236.312 775.252 237.916 776.808 239.871C777.385 240.603 777.962 241.335 778.556 242.089C779.177 242.864 779.797 243.639 780.437 244.437C781.73 246.075 783.023 247.713 784.316 249.352C784.95 250.151 785.585 250.951 786.238 251.774C788.476 254.602 790.679 257.453 792.875 260.312C793.663 261.34 794.452 262.367 795.265 263.426C800.826 270.688 806.363 277.968 811.903 285.246C815.267 289.665 818.633 294.082 822 298.5C826.071 303.843 830.142 309.186 834.21 314.531C842.773 325.78 842.773 325.78 851.375 337C852.132 337.986 852.89 338.972 853.671 339.988C855.382 342.201 857.101 344.406 858.828 346.605C859.529 347.504 859.529 347.504 860.244 348.42C861.143 349.571 862.047 350.72 862.954 351.865C866 355.775 866 355.775 866 358C855.333 358.139 844.667 358.246 834 358.311C829.046 358.342 824.093 358.384 819.14 358.453C814.355 358.518 809.57 358.554 804.785 358.569C802.964 358.58 801.143 358.602 799.322 358.634C782.1 358.93 782.1 358.93 775.561 353.579C773.181 351.173 771.098 348.753 769.125 346C768.283 344.852 767.441 343.705 766.597 342.559C765.959 341.679 765.959 341.679 765.309 340.781C763.131 337.819 760.845 334.944 758.562 332.062C757.64 330.892 756.718 329.722 755.796 328.551C755.107 327.676 755.107 327.676 754.404 326.784C752.981 324.976 751.56 323.166 750.14 321.355C746.095 316.198 742.046 311.045 737.937 305.937C734.99 302.267 732.109 298.551 729.25 294.812C725.561 289.991 721.804 285.231 718 280.5C714.279 275.873 710.603 271.219 707 266.5C702.83 261.048 698.566 255.68 694.269 250.329C690.465 245.589 686.694 240.826 683 236C682.423 235.364 681.847 234.729 681.253 234.074C680 232 680 232 680.144 229.535C681.045 226.865 682.161 224.804 683.687 222.437C685.845 218.963 687.789 215.498 689.562 211.812C693.08 204.629 697.079 197.729 701.04 190.782C704.382 184.906 707.631 178.998 710.75 173C713.553 167.611 716.519 162.37 719.687 157.187C722.803 152.087 725.597 146.939 728.21 141.559C734.182 129.681 740.723 118.068 747.5 106.633C749.066 103.883 750.481 101.091 751.875 98.25C764.149 73.5052 764.149 73.5052 772 70C777.069 68.3105 781.65 67.7187 786.954 67.7729Z" fill="#EE4E44"/>
<path d="M771 234C778.971 241.804 785.571 250.684 792.212 259.612C796.012 264.711 799.893 269.742 803.813 274.75C809.435 281.939 814.93 289.215 820.387 296.529C825.158 302.91 830.026 309.209 834.935 315.483C839.249 321.007 843.466 326.597 847.653 332.217C851.916 337.923 856.301 343.527 860.723 349.109C861.85 350.54 861.85 350.54 863 352C863.597 352.748 864.194 353.495 864.809 354.266C866 356 866 356 866 358C855.334 358.139 844.668 358.246 834.001 358.311C829.047 358.342 824.094 358.384 819.141 358.453C814.355 358.518 809.571 358.554 804.785 358.569C802.964 358.58 801.144 358.602 799.323 358.634C782.101 358.93 782.101 358.93 775.562 353.579C773.182 351.173 771.098 348.753 769.125 346C768.284 344.852 767.441 343.705 766.598 342.559C766.173 341.972 765.747 341.385 765.309 340.781C763.132 337.819 760.845 334.944 758.563 332.062C757.643 330.895 756.724 329.727 755.805 328.559C754.384 326.755 752.962 324.952 751.54 323.149C751.055 322.534 750.57 321.919 750.071 321.285C749.351 320.372 749.351 320.372 748.616 319.441C747.229 317.677 745.848 315.907 744.469 314.137C742.977 312.241 741.462 310.363 739.907 308.52C739.339 307.832 738.772 307.145 738.188 306.438C737.707 305.879 737.226 305.321 736.731 304.746C736 303 736 303 736.81 300.673C737.902 298.221 739.061 295.851 740.321 293.48C740.769 292.632 741.217 291.784 741.679 290.91C742.156 290.011 742.634 289.113 743.125 288.188C746.418 281.947 749.688 275.701 752.813 269.375C758.69 257.49 764.878 245.76 771 234Z" fill="#C33028"/>
<path d="M554 68.0001C565.075 67.9073 576.149 67.8363 587.225 67.7929C592.368 67.772 597.51 67.7438 602.653 67.6984C607.62 67.6548 612.586 67.631 617.553 67.6206C619.445 67.6132 621.336 67.5989 623.227 67.5772C625.884 67.548 628.54 67.5442 631.197 67.546C632.36 67.5244 632.36 67.5244 633.547 67.5024C640.43 67.554 645.511 69.8269 650.68 74.34C653.288 77.3305 655.74 80.393 658.125 83.5626C658.769 84.4086 658.769 84.4086 659.426 85.2716C660.622 86.8445 661.811 88.4222 663 90.0001C663.616 90.6898 664.232 91.3794 664.867 92.09C666 94.0001 666 94.0001 665.973 96.1915C664.538 100.333 662.518 104.087 660.438 107.938C659.764 109.2 659.764 109.2 659.077 110.488C655.753 116.689 652.303 122.81 648.785 128.902C642.159 140.4 636.136 152.237 630 164C627 164 627 164 625.581 162.618C625.092 161.972 624.604 161.326 624.102 160.66C623.269 159.573 623.269 159.573 622.419 158.464C621.827 157.671 621.235 156.879 620.625 156.063C620.007 155.252 619.389 154.44 618.753 153.605C617.464 151.911 616.179 150.214 614.897 148.515C612.574 145.435 610.227 142.374 607.88 139.313C606.259 137.2 604.643 135.083 603.027 132.965C599.491 128.33 595.936 123.709 592.379 119.09C590.802 117.042 589.226 114.992 587.652 112.942C583.428 107.44 579.186 101.953 574.917 96.485C569.603 89.6736 564.323 82.8386 559.125 75.9376C558.607 75.2527 558.089 74.5678 557.555 73.8622C554 69.1201 554 69.1201 554 68.0001Z" fill="#2B4544"/>
<path d="M800.75 498.5C806.906 501.594 810.014 506.355 812.375 512.687C814.36 523.213 813.504 532.67 807.867 541.844C805.014 545.699 801.629 547.953 797 549C791.868 549.605 786.911 550.052 782.438 547.125C780.915 545.798 779.428 544.428 778 543C777.67 550.26 777.34 557.52 777 565C772.71 565 768.42 565 764 565C764 542.89 764 520.78 764 498C767.96 498 771.92 498 776 498C776.33 499.65 776.66 501.3 777 503C777.928 502.195 778.856 501.391 779.812 500.562C785.685 495.473 793.742 495.803 800.75 498.5Z" fill="#24564F"/>
<path d="M838.375 396.75C843.258 397.087 847.108 398.474 850.938 401.562C852 403 852 403 852 405C852.66 405 853.32 405 854 405C854.248 404.402 854.495 403.804 854.75 403.188C856.628 399.901 858.691 398.389 862.312 397.312C868.245 396.623 873.434 396.672 879 399C882.635 402.316 885.793 405.764 886.12 410.879C886.118 411.583 886.116 412.287 886.114 413.012C886.113 414.213 886.113 414.213 886.113 415.439C886.108 416.298 886.103 417.157 886.098 418.043C886.096 418.927 886.095 419.81 886.093 420.721C886.088 423.543 886.075 426.365 886.062 429.188C886.057 431.101 886.053 433.014 886.049 434.928C886.038 439.619 886.021 444.309 886 449C881.71 449 877.42 449 873 449C872.985 447.93 872.971 446.861 872.956 445.759C872.898 441.785 872.821 437.812 872.738 433.839C872.704 432.12 872.676 430.401 872.654 428.683C872.62 426.21 872.568 423.738 872.512 421.266C872.505 420.499 872.499 419.732 872.492 418.942C872.404 415.709 872.206 413.369 870.616 410.519C868.409 408.445 866.995 408.433 864 408.438C862.701 408.405 862.701 408.405 861.375 408.371C858.837 408.79 858.837 408.79 857.384 411.03C855.646 414.761 855.523 418.108 855.488 422.145C855.47 422.914 855.452 423.684 855.434 424.477C855.38 426.922 855.346 429.367 855.312 431.812C855.279 433.476 855.245 435.139 855.209 436.803C855.124 440.868 855.057 444.934 855 449C850.38 449 845.76 449 841 449C840.985 447.895 840.971 446.79 840.956 445.651C840.898 441.553 840.821 437.455 840.738 433.357C840.704 431.583 840.676 429.809 840.654 428.034C840.62 425.485 840.568 422.936 840.512 420.387C840.505 419.593 840.499 418.799 840.492 417.981C840.4 413.772 840.4 413.772 838.714 410.003C835.663 408.218 832.371 408.375 829 409C826.031 411.207 825.171 412.486 824 416C823.847 418.511 823.743 420.999 823.684 423.512C823.663 424.24 823.642 424.968 823.621 425.718C823.555 428.041 823.496 430.364 823.438 432.688C823.394 434.264 823.351 435.84 823.307 437.416C823.2 441.277 823.098 445.139 823 449C818.71 449 814.42 449 810 449C810 432.17 810 415.34 810 398C814.29 398 818.58 398 823 398C823.33 399.65 823.66 401.3 824 403C824.887 402.196 825.774 401.391 826.688 400.562C830.534 397.381 833.451 397.115 838.375 396.75Z" fill="#24564F"/>
<path d="M654 379C658.62 379 663.24 379 668 379C668.33 388.24 668.66 397.48 669 407C674.208 401.795 674.208 401.795 679.188 396.375C679.773 395.723 680.358 395.07 680.961 394.398C682.571 392.504 684.02 390.609 685.477 388.601C692.32 379.675 692.32 379.675 697.304 378.419C702.596 377.881 707.741 378.316 713 379C708.737 386.457 702.035 391.925 695.826 397.744C694.939 398.603 694.051 399.462 693.137 400.347C692.319 401.121 691.501 401.894 690.659 402.691C688.735 404.872 688.735 404.872 689.086 407.556C689.989 409.972 690.939 411.703 692.484 413.758C693.26 414.807 693.26 414.807 694.052 415.877C694.612 416.619 695.173 417.36 695.75 418.125C696.928 419.72 698.103 421.316 699.277 422.914C699.887 423.742 700.496 424.57 701.125 425.423C704.26 429.731 707.294 434.108 710.312 438.5C710.881 439.318 711.45 440.137 712.036 440.981C712.557 441.74 713.077 442.499 713.613 443.281C714.075 443.952 714.537 444.623 715.013 445.314C716 447 716 447 716 449C701.218 451.198 701.218 451.198 696.199 447.769C692.253 443.765 689.603 438.871 686.875 434C685.999 432.551 685.118 431.105 684.23 429.664C682.083 426.147 680.022 422.591 678 419C674.11 420.874 671.623 422.451 669 426C668.246 429.933 668.209 433.816 668.188 437.812C668.162 438.887 668.137 439.961 668.111 441.068C668.053 443.712 668.023 446.356 668 449C663.38 449 658.76 449 654 449C654 425.9 654 402.8 654 379Z" fill="#24554F"/>
<path d="M653 479C669.5 479 686 479 703 479C703 482.96 703 486.92 703 491C691.45 491 679.9 491 668 491C668 496.28 668 501.56 668 507C678.56 507 689.12 507 700 507C700 510.63 700 514.26 700 518C689.44 518 678.88 518 668 518C668 523.61 668 529.22 668 535C679.88 535 691.76 535 704 535C704 539.29 704 543.58 704 548C687.17 548 670.34 548 653 548C653 525.23 653 502.46 653 479Z" fill="#295953"/>
<path d="M934.999 399C938.162 401.682 941.666 404.656 942.278 408.956C942.291 409.695 942.305 410.434 942.318 411.196C942.338 412.037 942.358 412.878 942.379 413.744C942.39 414.647 942.402 415.55 942.414 416.481C942.433 417.409 942.452 418.337 942.472 419.293C942.532 422.258 942.578 425.223 942.624 428.188C942.663 430.198 942.702 432.207 942.742 434.217C942.838 439.145 942.922 444.072 942.999 449C938.379 449 933.759 449 928.999 449C928.999 447.68 928.999 446.36 928.999 445C928.44 445.361 927.881 445.722 927.304 446.094C919.973 450.337 913.379 451.132 904.999 450C900.927 448.523 898.247 445.667 895.999 442C894.22 436.663 894.167 431.838 896.499 426.688C902.454 420.287 909.028 419.441 917.364 418.683C920.984 418.343 923.883 417.944 926.999 416C927.25 412.584 927.25 412.584 926.999 409C922.968 406.312 919.732 406.444 914.999 407C912.459 408.068 912.459 408.068 910.999 410C910.669 411.32 910.339 412.64 909.999 414C905.709 414 901.419 414 896.999 414C896.999 407.259 897.626 406.276 901.968 401.77C910.371 394.45 925.077 395.142 934.999 399Z" fill="#275852"/>
<path d="M892 500C896.71 504.207 900.239 508.886 902 515C902 518.63 902 522.26 902 526C890.45 526 878.9 526 867 526C869.16 534.173 869.16 534.173 871.625 537.062C875.421 538.561 878.986 538.653 883 538C885.708 536.753 887.88 535.12 890 533C891.853 532.928 893.708 532.916 895.563 532.937C896.575 532.946 897.586 532.955 898.629 532.965C899.803 532.982 899.803 532.982 901 533C899.489 538.77 897.063 542.966 892.094 546.265C885.3 549.761 878.046 550.157 870.633 548.457C863.19 545.915 859.678 541.979 856.016 535.316C852.809 528.003 852.902 519.197 855.563 511.75C858.371 505.553 862.462 500.845 868.75 498.062C876.187 495.742 885.279 495.737 892 500Z" fill="#255750"/>
<path d="M994 400C998.829 405.551 999.704 410.59 999.488 417.75C999.481 418.649 999.474 419.548 999.467 420.473C999.439 423.317 999.376 426.158 999.312 429C999.287 430.939 999.265 432.878 999.244 434.817C999.189 439.545 999.103 444.272 999 449C994.71 449 990.42 449 986 449C985.97 447.441 985.97 447.441 985.94 445.851C985.864 441.989 985.775 438.128 985.683 434.266C985.644 432.596 985.61 430.926 985.578 429.255C985.532 426.852 985.474 424.45 985.414 422.047C985.403 421.302 985.391 420.557 985.379 419.79C985.274 416.091 985.173 413.084 983 410C979.547 408.273 975.776 408.51 972 409C968.703 411.308 967.708 413.143 967 417C966.85 419.47 966.744 421.919 966.684 424.391C966.663 425.095 966.642 425.8 966.621 426.526C966.555 428.767 966.496 431.009 966.438 433.25C966.394 434.774 966.351 436.297 966.307 437.82C966.2 441.547 966.098 445.273 966 449C961.71 449 957.42 449 953 449C953 432.5 953 416 953 399C956.96 399 960.92 399 965 399C965 400.98 965 402.96 965 405C965.66 405 966.32 405 967 405C967.248 404.402 967.495 403.804 967.75 403.188C969.597 399.955 971.641 398.427 975.188 397.313C982.067 396.548 987.887 396.238 994 400Z" fill="#23544E"/>
<path d="M945 500C948.718 502.848 949.829 504.198 950.812 508.813C950.874 509.865 950.936 510.916 951 512C947.04 512 943.08 512 939 512C938.34 510.68 937.68 509.36 937 508C934.499 506.75 932.726 506.867 929.938 506.875C929.039 506.873 928.141 506.87 927.215 506.867C925.026 506.753 925.026 506.753 924 508C923.959 509.666 923.957 511.334 924 513C929.627 515.542 935.253 517.347 941.215 518.93C946.008 520.323 948.657 522.127 952 526C952.33 526.33 952.66 526.66 953 527C953.656 532.611 953.576 537.72 950.41 542.531C946.533 546.57 940.412 548.841 934.926 549.203C926.365 549.314 920.025 549.31 913.188 543.688C910.185 539.999 908 536.839 908 532C912.29 532 916.58 532 921 532C921.66 533.65 922.32 535.3 923 537C926.239 539.16 927.249 539.273 931 539.25C932.299 539.258 932.299 539.258 933.625 539.266C936.266 539.154 936.266 539.154 939 537C939.667 534.543 939.667 534.543 939 532C935.564 529.514 932.434 528.473 928.312 527.625C921.306 525.956 914.43 524.056 909.812 518.25C908.584 513.335 908.44 508.644 911.086 504.16C918.933 494.435 934.487 494.457 945 500Z" fill="#265851"/>
<path d="M996 500C999.166 502.703 1000.82 505.269 1001.81 509.375C1001.87 510.241 1001.94 511.107 1002 512C998.04 512 994.08 512 990 512C989.34 510.68 988.68 509.36 988 508C985.512 506.756 983.773 506.867 981 506.875C979.67 506.871 979.67 506.871 978.312 506.867C975.973 506.849 975.973 506.849 974 508C974 509.98 974 511.96 974 514C974.727 514.17 975.454 514.34 976.203 514.516C979.48 515.305 982.74 516.143 986 517C987.075 517.278 988.15 517.557 989.258 517.844C995.013 519.517 999.469 521.107 1003.07 526.074C1004.79 529.653 1004.56 532.053 1004 536C1002.18 541.154 999.469 543.906 995 547C986.628 550.516 976.626 549.938 968.129 547.047C963.772 544.904 961.797 541.632 959.688 537.312C959 535 959 535 959 532C963.29 532 967.58 532 972 532C972.66 533.65 973.32 535.3 974 537C977.251 539.167 978.292 539.272 982.062 539.25C982.94 539.255 983.818 539.26 984.723 539.266C987.198 539.216 987.198 539.216 989 537C989.167 533.916 989.167 533.916 989 531C984.368 528.695 980.069 526.882 974.938 526.062C969.047 525.015 963.986 522.78 960.438 517.812C959.539 512.039 959.638 506.883 963.125 502.062C972.548 495.302 985.666 494.259 996 500Z" fill="#255750"/>
<path d="M710 498C715.183 497.34 719.842 497.01 725 498C728.363 501.224 730.217 504.725 732 509C732.99 508.67 733.98 508.34 735 508C735.788 506.33 736.532 504.639 737.25 502.938C738.773 500.191 738.773 500.191 741 498C746.127 497.092 750.85 497.41 756 498C751.119 505.749 746.108 513.398 741 521C745.327 528.021 749.896 534.774 754.798 541.403C758 545.788 758 545.788 758 548C747.817 549.69 747.817 549.69 743 548C739.599 545.007 737.67 541.046 735.637 537.063C735.097 536.052 734.556 535.041 734 534C733.34 534 732.68 534 732 534C731.116 535.654 730.237 537.31 729.385 538.98C724.963 547.311 724.963 547.311 721.11 548.663C716.683 549.242 712.395 548.73 708 548C708.979 546.458 709.958 544.917 710.938 543.375C711.565 542.381 712.193 541.387 712.84 540.363C714.368 537.983 715.917 535.633 717.504 533.293C717.918 532.673 718.333 532.053 718.76 531.415C719.577 530.194 720.404 528.98 721.242 527.773C723.398 524.604 723.398 524.604 723.949 520.91C722.723 518.442 721.332 516.176 719.812 513.875C716.412 508.656 713.174 503.36 710 498Z" fill="#285953"/>
<path d="M852 497C852 500.96 852 504.92 852 509C850.453 509.247 848.906 509.495 847.312 509.75C842.926 510.62 840.183 511.714 837 515C835.524 517.953 835.777 520.684 835.684 523.976C835.663 524.662 835.642 525.347 835.621 526.053C835.555 528.244 835.496 530.434 835.438 532.625C835.394 534.109 835.351 535.594 835.307 537.078C835.199 540.719 835.1 544.359 835 548C830.38 548 825.76 548 821 548C821 531.5 821 515 821 498C825.29 498 829.58 498 834 498C834.33 500.31 834.66 502.62 835 505C835.557 504.237 836.114 503.474 836.688 502.687C841.453 497.149 845.009 496.644 852 497Z" fill="#2D5D57"/>
<path d="M779 397C779 401.29 779 405.58 779 410C776.958 410.165 774.916 410.33 772.812 410.5C769.447 410.772 767.058 411.054 764.487 413.352C759.654 419.755 760.221 427.308 760.188 435C760.164 436.361 760.139 437.721 760.111 439.082C760.053 442.388 760.023 445.694 760 449C755.71 449 751.42 449 747 449C747 432.5 747 416 747 399C750.96 399 754.92 399 759 399C759 401.64 759 404.28 759 407C759.66 407 760.32 407 761 407C761.206 406.257 761.412 405.515 761.625 404.75C763.654 400.691 766.799 398.825 771 397.25C773.647 396.919 776.332 397 779 397Z" fill="#245750"/>
<path d="M722 398C726.62 398 731.24 398 736 398C736 414.83 736 431.66 736 449C731.38 449 726.76 449 722 449C722 432.17 722 415.34 722 398Z" fill="#285953"/>
<path d="M785 399C789.29 399 793.58 399 798 399C798 415.5 798 432 798 449C793.71 449 789.42 449 785 449C785 432.5 785 416 785 399Z" fill="#20514A"/>
<path d="M790.484 506.441C794.211 507.269 795.729 509.187 797.941 512.176C801.085 517.592 800.744 524.41 799.504 530.395C798.46 533.573 797.286 535.739 794.812 538C791.085 539.325 787.908 539.712 784 539C779.918 536.604 778.396 534.445 777 530C776.699 526.406 776.699 526.406 776.688 522.5C776.671 521.211 776.654 519.922 776.637 518.594C777.097 514.037 778.634 511.747 781.387 508.227C784.219 506.073 787.042 506.356 790.484 506.441Z" fill="#FAFBFA"/>
<path d="M928 425C928.857 434.631 928.857 434.631 926.188 438.625C922.117 441.658 919.476 441.569 914.524 441.406C912 441 912 441 909 439C908.122 432.192 908.122 432.192 910.75 428.625C916.011 425.994 922.111 425 928 425Z" fill="#F7F8F8"/>
<path d="M722 398C726.62 398 731.24 398 736 398C736 414.83 736 431.66 736 449C731.38 449 726.76 449 722 449C722 432.17 722 415.34 722 398ZM724 400C724 415.84 724 431.68 724 448C727.3 448 730.6 448 734 448C734 432.16 734 416.32 734 400C730.7 400 727.4 400 724 400Z" fill="#416964"/>
<path d="M882 507C885.035 508.291 886.475 509.224 888.312 511.937C889 514 889 514 889 518C881.74 518 874.48 518 867 518C868 512 868 512 870 509.125C874.066 506.245 877.163 506.192 882 507Z" fill="#F0F2F2"/>
<path d="M722 379C726.62 379 731.24 379 736 379C736 382.63 736 386.26 736 390C731.38 390 726.76 390 722 390C722 386.37 722 382.74 722 379Z" fill="#285953"/>
<path d="M785 379C789.29 379 793.58 379 798 379C798 382.63 798 386.26 798 390C793.71 390 789.42 390 785 390C785 386.37 785 382.74 785 379Z" fill="#204F46"/>
<path d="M722 379C726.62 379 731.24 379 736 379C736 382.63 736 386.26 736 390C731.38 390 726.76 390 722 390C722 386.37 722 382.74 722 379ZM724 380C724 382.64 724 385.28 724 388C727.3 388 730.6 388 734 388C734 385.36 734 382.72 734 380C730.7 380 727.4 380 724 380Z" fill="#365C54"/>
<path d="M741 498C745.95 498 750.9 498 756 498C754.515 500.475 754.515 500.475 753 503C752.67 502.34 752.34 501.68 752 501C750.375 500.973 748.75 500.954 747.125 500.938C746.22 500.926 745.315 500.914 744.383 500.902C741.983 500.838 741.983 500.838 740 502C740.33 500.68 740.66 499.36 741 498Z" fill="#35605A"/>
<path d="M710 498C714.95 498 719.9 498 725 498C725 498.66 725 499.32 725 500C718.565 500.495 718.565 500.495 712 501C711.34 500.01 710.68 499.02 710 498Z" fill="#37615C"/>
<path d="M862 398C862 398.66 862 399.32 862 400C856.524 405 856.524 405 854 405C855.523 401.319 857.68 398 862 398Z" fill="#34615B"/>
</g>
<defs>
<clipPath id="clip0_1915_289">
<rect width="1005" height="565" fill="white"/>
</clipPath>
</defs>
</svg>
