<svg id="Layer_1" data-name="Layer 1" xmlns="http://www.w3.org/2000/svg" viewBox="0 0 100 75"><defs><style>.cls-1{fill:#862880;fill-rule:evenodd;}.cls-2{fill:#ee6825;}</style></defs><title>logo sapx 100x</title><polygon class="cls-1" points="15.05 61.3 10.75 61.3 10.19 64.15 13.87 64.15 13.64 65.33 9.95 65.33 9.36 68.26 13.75 68.26 13.51 69.44 7.76 69.44 9.64 60.12 15.29 60.12 15.05 61.3"/><polygon class="cls-1" points="18.67 66.1 20.21 69.44 18.74 69.44 17.77 67.09 15.99 69.44 14.43 69.44 17.23 66.01 15.75 62.8 17.21 62.8 18.11 65.03 19.78 62.8 21.32 62.8 18.67 66.1"/><path class="cls-1" d="M27.25,66.11a5.23,5.23,0,0,1-1.1,2.72,2.33,2.33,0,0,1-1.73.69,1.72,1.72,0,0,1-1.57-.82l-.69,3.41H20.89l1.86-9.31H24l-.16.71a2.16,2.16,0,0,1,1.74-.79,1.73,1.73,0,0,1,1.84,2,6.86,6.86,0,0,1-.16,1.44Zm-2.12-2.26h0c-1.14,0-1.53,1-1.77,2.26a7.15,7.15,0,0,0-.15,1.14c0,.56.17,1.14,1,1.14,1.13,0,1.53-1,1.77-2.28A6.93,6.93,0,0,0,26.12,65C26.12,64.43,25.94,63.85,25.13,63.85Z"/><path class="cls-1" d="M32.84,64.3a1,1,0,0,0-.83-.44,1.75,1.75,0,0,0-1.62,1.55l-.82,4H28.31l1.31-6.64h1.24l-.15.74a2.24,2.24,0,0,1,1.78-.82,1.72,1.72,0,0,1,1.41.63Z"/><path class="cls-1" d="M39.11,66.48H35a4.62,4.62,0,0,0-.06.64,1.17,1.17,0,0,0,1.26,1.32,2.37,2.37,0,0,0,1.72-.73l.71.84a3.58,3.58,0,0,1-2.55,1,2.17,2.17,0,0,1-2.36-2.31c0-2.11,1-4.48,3.32-4.48A2.16,2.16,0,0,1,39.3,65a7.51,7.51,0,0,1-.19,1.44ZM37,63.77h0c-.83,0-1.48.57-1.82,1.83H38a4.31,4.31,0,0,0,.05-.56C38.09,64.19,37.6,63.77,37,63.77Z"/><path class="cls-1" d="M44.84,64.28a1.9,1.9,0,0,0-1.41-.51c-1,0-1.39.54-1.39,1s.26.56.78.64l.88.13c1.18.18,1.61.73,1.61,1.67a2.09,2.09,0,0,1-.68,1.52,3.39,3.39,0,0,1-2.31.73,3.08,3.08,0,0,1-2.49-1l.91-.82a2,2,0,0,0,1.68.7c1.11,0,1.62-.57,1.62-1.08s-.3-.61-.77-.69l-.88-.13c-1.29-.2-1.62-.87-1.62-1.47a2.25,2.25,0,0,1,.64-1.59,3,3,0,0,1,2.16-.75,2.87,2.87,0,0,1,2.14.78Z"/><path class="cls-1" d="M50.94,64.28a1.84,1.84,0,0,0-1.39-.51c-1,0-1.4.54-1.4,1s.26.56.78.64l.87.13c1.18.18,1.62.73,1.62,1.67a2.07,2.07,0,0,1-.69,1.52,3.36,3.36,0,0,1-2.3.73,3.11,3.11,0,0,1-2.5-1l.92-.82a2,2,0,0,0,1.69.7c1.09,0,1.61-.57,1.61-1.08s-.3-.61-.78-.69l-.87-.13c-1.29-.2-1.62-.87-1.62-1.47a2.29,2.29,0,0,1,.64-1.59,3,3,0,0,1,2.16-.75,2.87,2.87,0,0,1,2.14.78Z"/><path class="cls-1" d="M61.59,62.86c0-1-.49-1.64-1.45-1.64a2.11,2.11,0,0,0-1.53.67c-.45.45-.68,1.16-1,2.89a13.05,13.05,0,0,0-.3,2.08,1.41,1.41,0,0,0,1.5,1.47,2.29,2.29,0,0,0,2.1-1.63h1.39a3.7,3.7,0,0,1-3.57,2.81A2.55,2.55,0,0,1,56,66.94a12.51,12.51,0,0,1,.31-2.16c.36-2,.58-2.88,1.4-3.69A3.6,3.6,0,0,1,60.19,60a2.58,2.58,0,0,1,2.75,2.82Z"/><path class="cls-1" d="M69,66.11a4.48,4.48,0,0,1-1.22,2.66,2.82,2.82,0,0,1-2,.75,2.07,2.07,0,0,1-2.19-2.2,6.83,6.83,0,0,1,.14-1.21,4.39,4.39,0,0,1,1.21-2.64,2.86,2.86,0,0,1,2-.75,2.07,2.07,0,0,1,2.19,2.2A9.16,9.16,0,0,1,69,66.11Zm-2.19-2.26h0a1.46,1.46,0,0,0-1,.43A3.26,3.26,0,0,0,65,66.11a5.73,5.73,0,0,0-.13,1.12,1,1,0,0,0,1.05,1.16,1.41,1.41,0,0,0,1-.44,3.26,3.26,0,0,0,.79-1.84,6.41,6.41,0,0,0,.13-1.1A1,1,0,0,0,66.76,63.85Z"/><path class="cls-1" d="M75,69.44H73.8l.12-.7a2.37,2.37,0,0,1-1.84.78,1.72,1.72,0,0,1-1.77-1.86,3.51,3.51,0,0,1,.09-.7l.83-4.16H72.5l-.81,4.07a2.44,2.44,0,0,0-.06.52.92.92,0,0,0,1,1,1.68,1.68,0,0,0,1.66-1.54l.79-4h1.28Z"/><path class="cls-1" d="M81.59,64.3a1,1,0,0,0-.84-.44,1.77,1.77,0,0,0-1.62,1.55l-.81,4H77.05l1.32-6.64h1.24l-.15.74a2.26,2.26,0,0,1,1.78-.82,1.73,1.73,0,0,1,1.41.63Z"/><path class="cls-1" d="M83.76,69.44H82.48l1.34-6.64h1.27l-1.33,6.64Zm1.64-8.11H84l.23-1.15h1.36Z"/><path class="cls-1" d="M91.38,66.48H87.27a3.48,3.48,0,0,0-.07.64,1.19,1.19,0,0,0,1.27,1.32,2.34,2.34,0,0,0,1.71-.73l.71.84a3.57,3.57,0,0,1-2.53,1A2.18,2.18,0,0,1,86,67.2c0-2.11,1-4.48,3.33-4.48A2.16,2.16,0,0,1,91.57,65a8.4,8.4,0,0,1-.19,1.44Zm-2.13-2.71h0c-.83,0-1.48.57-1.83,1.83H90.3a3.06,3.06,0,0,0,0-.56C90.35,64.19,89.87,63.77,89.25,63.77Z"/><path class="cls-1" d="M97,64.3a1,1,0,0,0-.84-.44,1.76,1.76,0,0,0-1.62,1.55l-.81,4H92.5l1.32-6.64h1.24l-.15.74a2.24,2.24,0,0,1,1.78-.82,1.72,1.72,0,0,1,1.41.63Z"/><path class="cls-1" d="M0,53.65S20.06,15.16,71.66,8.27L72,2.89,100,26.3S42.34,6.59,0,53.65Z"/><path class="cls-2" d="M32.31,36.15l-5.12,3.17a3.37,3.37,0,0,0-1.45-1.83A5.64,5.64,0,0,0,23,37a4,4,0,0,0-2.56.71,2.33,2.33,0,0,0-.9,1.92,2,2,0,0,0,.94,1.64,10.48,10.48,0,0,0,3.09,1.33,10.74,10.74,0,0,1,4.89,2.72A6.2,6.2,0,0,1,30,49.63a8,8,0,0,1-2.84,6.48c-1.89,1.58-4.55,2.37-8,2.37a13.84,13.84,0,0,1-5.78-1,8.15,8.15,0,0,1-3.59-3.25L15,51a5.11,5.11,0,0,0,4.74,2.33,4.72,4.72,0,0,0,2.86-.73,2.32,2.32,0,0,0,1-1.94,1.93,1.93,0,0,0-.92-1.6,14.66,14.66,0,0,0-3.34-1.49q-6.14-2.07-6.13-7.15a8,8,0,0,1,2.63-6.17q2.69-2.45,8.17-2.45Q30.28,31.75,32.31,36.15Z"/><path class="cls-2" d="M37.69,53.66,35.47,58.1H28.58l14.08-26h6l4,26H46.24l-.53-4.44Zm7.42-5.2-.9-7.67-3.88,7.67Z"/><path class="cls-2" d="M66,49.33H62.5L60.81,58.1H54.56l5-26h9.79a9.18,9.18,0,0,1,6.16,1.92,6.67,6.67,0,0,1,2.24,5.34,9,9,0,0,1-3.13,7.32Q71.54,49.34,66,49.33Zm-1.2-12-1.32,6.82h2.41a7,7,0,0,0,4.22-1A3.8,3.8,0,0,0,71.43,40c0-1.76-1.4-2.64-4.18-2.64Z"/><path class="cls-2" d="M86.18,50.05,80.31,58.1h-7l9.86-13.59-4-12.38h6.66l2.26,7.41,5-7.41H100L91,44.89,95.67,58.1H89.12Z"/></svg>