<svg width="1050" height="423" viewBox="0 0 1050 423" fill="none" xmlns="http://www.w3.org/2000/svg">
<g clip-path="url(#clip0_1914_272)">
<path d="M171 0C171 34.98 171 69.96 171 106C172.32 106.33 173.64 106.66 175 107C176.849 107.993 176.849 107.993 178.774 109.23C179.504 109.696 180.235 110.162 180.988 110.643C181.776 111.152 182.564 111.662 183.375 112.188C184.622 112.985 184.622 112.985 185.895 113.799C187.678 114.94 189.46 116.083 191.241 117.228C195.818 120.167 200.41 123.082 205 126C206.865 127.187 208.729 128.375 210.594 129.562C215.555 132.72 220.526 135.863 225.5 139C236.96 146.229 248.384 153.512 259.812 160.791C270.135 167.367 280.465 173.932 290.817 180.461C297.715 184.814 304.597 189.192 311.475 193.578C312.308 194.109 313.141 194.64 314 195.188C314.841 195.752 315.683 196.316 316.549 196.898C319.162 198.576 321.841 199.871 324.665 201.157C337.357 207.358 337.357 207.358 340.097 213.431C341.816 220.485 341.435 227.691 341.207 234.895C341.197 237.215 341.194 239.535 341.198 241.855C341.185 246.7 341.109 251.538 340.983 256.382C340.824 262.582 340.793 268.774 340.806 274.976C340.807 279.759 340.756 284.541 340.689 289.324C340.659 291.61 340.643 293.895 340.638 296.181C340.543 313.958 340.543 313.958 336.811 318.897C334.242 320.728 331.935 321.878 329 323C327.603 323.839 326.219 324.7 324.859 325.598C323.491 326.422 322.121 327.243 320.75 328.062C313.796 332.265 306.911 336.565 300.063 340.938C299.135 341.53 298.207 342.122 297.252 342.732C295.396 343.917 293.541 345.102 291.686 346.288C287.569 348.912 283.442 351.52 279.313 354.125C278.541 354.612 277.768 355.099 276.973 355.601C275.424 356.578 273.876 357.555 272.327 358.532C268.384 361.02 264.442 363.51 260.5 366C258.917 367 257.333 368 255.75 369C254.966 369.495 254.183 369.99 253.375 370.5C251 372 248.625 373.5 246.25 375C245.467 375.495 244.683 375.99 243.876 376.499C242.289 377.502 240.702 378.504 239.114 379.507C235.217 381.968 231.321 384.43 227.426 386.895C216.552 393.774 205.649 400.609 194.731 407.418C191.141 409.658 187.56 411.908 183.988 414.176C183.243 414.647 182.497 415.119 181.729 415.605C180.365 416.469 179.003 417.336 177.644 418.208C173.224 421 173.224 421 171 421C171.073 419.073 171.073 419.073 171.148 417.108C171.596 404.958 171.925 392.81 172.14 380.654C172.254 374.405 172.409 368.162 172.66 361.917C172.9 355.88 173.031 349.849 173.087 343.807C173.128 341.513 173.207 339.218 173.326 336.926C173.92 326.185 173.92 326.185 171 316C165.609 310.181 158.607 306.645 151.538 303.245C148.41 301.711 145.596 299.932 142.707 297.992C134.314 292.646 125.916 287.309 117.5 282C106.041 274.771 94.6158 267.488 83.1886 260.209C73.6354 254.124 64.0798 248.043 54.5001 242C47.6815 237.697 40.8682 233.386 34.0626 229.062C33.2544 228.55 32.4461 228.038 31.6134 227.51C29.9047 226.423 28.2106 225.314 26.5304 224.183C23.8207 222.427 21.0257 221.02 18.1206 219.613C4.76973 212.72 4.76974 212.72 1.82246 206.524C-0.040014 199.515 0.245773 192.342 0.414177 185.148C0.405767 182.839 0.391121 180.53 0.370567 178.221C0.350188 173.399 0.400461 168.584 0.502556 163.763C0.627924 157.604 0.582806 151.46 0.485512 145.301C0.428032 140.538 0.457715 135.779 0.513557 131.017C0.5305 128.748 0.521628 126.479 0.485664 124.211C0.287946 107.046 0.287946 107.046 4.79137 101.988C9.09996 98.4998 13.8154 96.12 18.8893 93.9429C21.687 92.6931 24.1857 91.0945 26.7267 89.3906C27.5375 88.8718 28.3483 88.3529 29.1837 87.8184C29.9894 87.3008 30.795 86.7832 31.6251 86.25C39.388 81.2864 47.1803 76.3734 55.0001 71.5C64.6215 65.5015 74.1985 59.4364 83.7579 53.3398C91.0549 48.6869 98.3754 44.0712 105.695 39.4546C107.986 38.0092 110.274 36.5616 112.563 35.1133C119.342 30.8238 126.126 26.5413 132.934 22.2969C133.952 21.6619 134.971 21.0268 136.02 20.3726C138.077 19.0909 140.134 17.81 142.191 16.5298C146.891 13.5982 151.571 10.6452 156.199 7.60156C156.985 7.08537 157.77 6.56918 158.58 6.03735C160.028 5.0806 161.473 4.11788 162.913 3.14819C167.673 0 167.673 0 171 0ZM162 111C161.161 111.533 160.321 112.065 159.456 112.614C151.457 117.694 143.478 122.806 135.499 127.918C129.379 131.839 123.254 135.752 117.121 139.652C115.275 140.826 113.429 142 111.584 143.176C107.572 145.733 103.556 148.282 99.5196 150.801C98.8534 151.22 98.1872 151.639 97.5008 152.071C95.7665 153.161 94.028 154.245 92.2892 155.328C91.1561 156.156 91.1561 156.156 90.0001 157C90.0001 157.66 90.0001 158.32 90.0001 159C91.9853 160.52 91.9853 160.52 94.5821 162.055C95.5674 162.663 96.5526 163.272 97.5677 163.899C99.174 164.877 99.174 164.877 100.813 165.875C103.032 167.243 105.25 168.612 107.469 169.98C109.132 171.002 109.132 171.002 110.828 172.044C115.177 174.726 119.497 177.452 123.813 180.188C125.349 181.159 126.885 182.13 128.422 183.102C131.538 185.073 134.652 187.048 137.766 189.023C145.854 194.151 153.963 199.241 162.125 204.25C162.902 204.728 163.679 205.207 164.479 205.699C167.545 207.961 167.545 207.961 171 209C171 175.01 171 141.02 171 106C168.2 106 164.409 109.465 162 111ZM172 212C172 245.66 172 279.32 172 314C175.536 312.585 178.203 311.387 181.344 309.418C182.167 308.905 182.989 308.392 183.837 307.864C185.155 307.034 185.155 307.034 186.5 306.188C188.402 305 190.305 303.812 192.207 302.625C193.175 302.019 194.142 301.413 195.139 300.789C199.48 298.075 203.834 295.381 208.188 292.688C209.031 292.165 209.874 291.642 210.743 291.104C215.75 288.003 220.765 284.915 225.785 281.836C226.954 281.119 228.122 280.402 229.29 279.685C231.536 278.306 233.784 276.93 236.032 275.555C242.109 271.827 248.106 268.011 254 264C251.144 260.94 248.274 258.761 244.695 256.602C243.648 255.964 242.601 255.327 241.522 254.671C240.401 253.996 239.28 253.321 238.125 252.625C235.76 251.188 233.398 249.746 231.035 248.305C230.44 247.942 229.845 247.58 229.233 247.206C223.632 243.789 218.09 240.284 212.563 236.75C211.673 236.182 210.783 235.613 209.867 235.028C208.11 233.905 206.353 232.782 204.596 231.658C188.951 219.456 188.951 219.456 172 212Z" fill="#E22728"/>
<path d="M171 106C174.001 106.697 176.174 107.559 178.774 109.23C179.504 109.696 180.235 110.162 180.988 110.643C181.776 111.152 182.564 111.662 183.375 112.188C184.622 112.985 184.622 112.985 185.895 113.799C187.678 114.94 189.46 116.083 191.241 117.228C195.818 120.167 200.41 123.082 205 126C206.865 127.187 208.729 128.375 210.594 129.562C215.555 132.72 220.526 135.863 225.5 139C236.96 146.229 248.384 153.512 259.812 160.791C270.135 167.367 280.465 173.932 290.817 180.461C297.715 184.814 304.597 189.192 311.475 193.578C312.308 194.109 313.141 194.64 314 195.188C315.262 196.034 315.262 196.034 316.549 196.898C319.162 198.576 321.841 199.871 324.665 201.157C337.357 207.358 337.357 207.358 340.097 213.431C341.816 220.485 341.435 227.691 341.207 234.895C341.197 237.215 341.194 239.535 341.198 241.855C341.185 246.7 341.109 251.538 340.983 256.382C340.824 262.582 340.793 268.774 340.806 274.976C340.807 279.759 340.756 284.541 340.689 289.324C340.659 291.61 340.643 293.895 340.638 296.181C340.543 313.958 340.543 313.958 336.811 318.897C334.242 320.728 331.935 321.878 329 323C327.603 323.839 326.219 324.7 324.859 325.598C323.491 326.422 322.121 327.243 320.75 328.062C313.796 332.265 306.911 336.565 300.063 340.938C299.135 341.53 298.207 342.122 297.252 342.732C295.396 343.917 293.541 345.102 291.686 346.288C287.569 348.912 283.442 351.52 279.313 354.125C278.541 354.612 277.768 355.099 276.973 355.601C275.424 356.578 273.876 357.555 272.327 358.532C268.384 361.02 264.442 363.51 260.5 366C258.917 367 257.333 368 255.75 369C254.966 369.495 254.183 369.99 253.375 370.5C251 372 248.625 373.5 246.25 375C245.075 375.742 245.075 375.742 243.876 376.499C242.289 377.502 240.702 378.504 239.114 379.507C235.217 381.968 231.321 384.43 227.426 386.895C216.552 393.774 205.649 400.609 194.731 407.418C191.141 409.658 187.56 411.908 183.988 414.176C183.243 414.647 182.497 415.119 181.729 415.605C180.365 416.469 179.003 417.336 177.644 418.208C173.224 421 173.224 421 171 421C170.908 407.379 170.836 393.758 170.793 380.136C170.772 373.812 170.744 367.487 170.698 361.163C170.655 355.061 170.631 348.96 170.621 342.859C170.613 340.529 170.599 338.198 170.577 335.868C170.548 332.61 170.544 329.352 170.546 326.093C170.532 325.125 170.517 324.158 170.502 323.161C170.543 316.611 170.543 316.611 172.904 313.455C174.946 312.038 176.95 310.657 179.098 309.406C179.889 308.94 180.68 308.473 181.495 307.993C182.766 307.254 182.766 307.254 184.063 306.5C190.88 302.475 197.638 298.383 204.313 294.125C212.349 289.009 220.467 284.04 228.613 279.102C236.789 274.141 244.909 269.097 253 264C248.715 260.381 244.124 257.457 239.375 254.5C237.664 253.427 235.953 252.354 234.242 251.281C233.371 250.736 232.499 250.191 231.601 249.629C227.56 247.098 223.53 244.548 219.5 242C217.917 241 216.334 240 214.75 239C211.583 237 208.417 235 205.25 233C204.465 232.504 203.68 232.008 202.871 231.497C201.302 230.506 199.733 229.515 198.165 228.524C193.985 225.883 189.803 223.246 185.617 220.613C184.74 220.061 183.863 219.509 182.959 218.939C181.266 217.873 179.572 216.808 177.877 215.744C177.121 215.268 176.365 214.792 175.586 214.301C174.916 213.88 174.246 213.459 173.556 213.025C172 212 172 212 171 211C170.905 209.634 170.878 208.263 170.88 206.894C170.878 206.009 170.877 205.124 170.876 204.212C170.879 203.234 170.883 202.256 170.887 201.248C170.886 200.224 170.886 199.199 170.886 198.144C170.887 194.74 170.895 191.337 170.902 187.934C170.904 185.581 170.906 183.228 170.907 180.876C170.911 174.669 170.92 168.463 170.931 162.257C170.942 155.93 170.946 149.603 170.951 143.275C170.962 130.85 170.979 118.425 171 106Z" fill="#7E7F7F"/>
<path d="M171 106C174.001 106.697 176.174 107.559 178.773 109.23C179.504 109.696 180.235 110.162 180.988 110.643C181.776 111.152 182.563 111.662 183.375 112.188C184.622 112.985 184.622 112.985 185.894 113.799C187.678 114.94 189.46 116.083 191.241 117.228C195.818 120.167 200.41 123.082 205 126C206.864 127.187 208.729 128.375 210.594 129.562C215.555 132.72 220.526 135.863 225.5 139C236.959 146.229 248.384 153.512 259.811 160.791C270.135 167.367 280.464 173.932 290.817 180.461C297.81 184.874 304.786 189.316 311.76 193.758C320.825 199.53 329.91 205.269 339 211C335.284 215.264 330.661 217.855 325.875 220.75C324.497 221.593 324.497 221.593 323.091 222.454C321.103 223.67 319.113 224.884 317.122 226.097C311.801 229.34 306.495 232.609 301.187 235.875C300.105 236.54 299.023 237.205 297.908 237.891C288.283 243.813 278.694 249.794 269.117 255.793C268.244 256.334 267.371 256.874 266.472 257.431C264.864 258.451 263.28 259.508 261.724 260.604C261.034 261.081 260.344 261.559 259.633 262.051C259.046 262.477 258.46 262.902 257.856 263.341C256 264 256 264 253.562 263.299C251.063 262.032 248.721 260.683 246.367 259.164C245.049 258.319 245.049 258.319 243.704 257.457C242.771 256.852 241.837 256.248 240.875 255.625C238.887 254.349 236.899 253.073 234.91 251.797C233.418 250.837 233.418 250.837 231.895 249.857C227.714 247.175 223.515 244.523 219.312 241.875C217.756 240.893 216.2 239.911 214.644 238.93C213.88 238.447 213.115 237.965 212.327 237.468C207.604 234.489 202.884 231.506 198.164 228.524C193.984 225.883 189.802 223.246 185.617 220.613C184.74 220.061 183.863 219.509 182.959 218.939C181.266 217.873 179.572 216.808 177.877 215.744C177.121 215.268 176.365 214.792 175.586 214.301C174.916 213.88 174.246 213.459 173.556 213.025C172 212 172 212 171 211C170.905 209.634 170.878 208.263 170.88 206.894C170.878 206.009 170.877 205.124 170.875 204.212C170.879 203.234 170.883 202.256 170.886 201.248C170.886 200.224 170.886 199.199 170.886 198.144C170.887 194.74 170.894 191.337 170.902 187.934C170.904 185.581 170.906 183.228 170.907 180.876C170.91 174.669 170.92 168.463 170.931 162.257C170.941 155.93 170.946 149.603 170.951 143.275C170.962 130.85 170.979 118.425 171 106Z" fill="#4D4D4D"/>
<path d="M89.3767 158.233C92.1885 159.055 94.182 160.141 96.6328 161.738C97.9509 162.588 97.9509 162.588 99.2957 163.456C100.696 164.375 100.696 164.375 102.125 165.312C104.113 166.598 106.101 167.883 108.09 169.168C109.582 170.137 109.582 170.137 111.105 171.126C115.278 173.827 119.481 176.478 123.688 179.125C125.244 180.107 126.8 181.088 128.355 182.07C129.12 182.553 129.885 183.035 130.673 183.532C133.029 185.018 135.384 186.505 137.738 187.992C138.919 188.738 138.919 188.738 140.123 189.498C141.694 190.491 143.265 191.484 144.836 192.478C149.009 195.118 153.19 197.744 157.383 200.352C158.26 200.899 159.137 201.447 160.041 202.012C161.733 203.068 163.426 204.12 165.123 205.168C165.879 205.641 166.635 206.114 167.414 206.602C168.084 207.017 168.754 207.433 169.444 207.862C171 209 171 209 172 211C172.092 212.394 172.122 213.792 172.12 215.189C172.122 216.505 172.122 216.505 172.124 217.849C172.121 218.814 172.117 219.779 172.114 220.774C172.114 221.789 172.114 222.803 172.114 223.849C172.113 227.214 172.105 230.58 172.098 233.945C172.096 236.274 172.094 238.603 172.093 240.932C172.09 247.07 172.08 253.209 172.069 259.348C172.058 265.608 172.054 271.869 172.049 278.129C172.038 290.419 172.021 302.71 172 315C168.999 314.303 166.826 313.441 164.227 311.77C163.496 311.304 162.765 310.838 162.012 310.357C161.224 309.848 160.436 309.338 159.625 308.812C158.378 308.015 158.378 308.015 157.105 307.201C155.322 306.06 153.54 304.917 151.759 303.772C147.182 300.833 142.59 297.918 138 295C136.135 293.812 134.271 292.625 132.406 291.437C127.445 288.28 122.474 285.137 117.5 282C106.04 274.771 94.6157 267.488 83.1885 260.209C72.8651 253.633 62.5355 247.068 52.1829 240.539C45.1896 236.125 38.2142 231.684 31.2397 227.242C22.1753 221.47 13.0901 215.731 4 210C6.52846 207.184 9.37591 205.423 12.6094 203.48C13.4413 202.978 13.4413 202.978 14.2899 202.465C16.1076 201.369 17.9288 200.278 19.75 199.187C21.022 198.421 22.2937 197.655 23.5652 196.887C26.1464 195.33 28.7288 193.775 31.312 192.222C36.4907 189.105 41.6519 185.959 46.8125 182.812C48.6614 181.686 50.5103 180.56 52.3594 179.434C53.274 178.877 54.1886 178.319 55.1309 177.746C58.1951 175.881 61.2614 174.02 64.3281 172.16C65.3712 171.527 66.4143 170.893 67.489 170.241C69.4807 169.032 71.473 167.824 73.4661 166.616C74.3654 166.07 75.2648 165.524 76.1914 164.961C77.032 164.453 77.8727 163.944 78.7388 163.421C80.6807 162.201 82.5012 160.906 84.3398 159.539C87 158 87 158 89.3767 158.233Z" fill="#A61D21"/>
<path d="M591 211C599.25 209.472 607.909 208.261 616 211C622.42 216.342 625.792 224.369 629.362 231.754C631.858 236.701 634.886 241.258 637.938 245.875C638.932 247.41 639.921 248.949 640.902 250.492C641.513 251.441 641.513 251.441 642.136 252.41C643 254 643 254 643 256C643.66 256 644.32 256 645 256C645.042 255.257 645.085 254.513 645.129 253.747C645.743 244.454 647.071 235.369 648.562 226.188C648.799 224.705 649.036 223.223 649.271 221.74C649.841 218.159 650.421 214.58 651 211C659.91 211 668.82 211 678 211C676.454 221.866 674.907 232.732 673.358 243.598C672.639 248.643 671.92 253.689 671.202 258.734C670.51 263.604 669.816 268.473 669.121 273.342C668.856 275.2 668.592 277.057 668.328 278.915C667.958 281.517 667.587 284.119 667.215 286.722C667.106 287.489 666.998 288.257 666.886 289.047C666.359 292.723 665.777 296.368 665 300C660.981 300.292 656.964 300.469 652.938 300.625C651.804 300.709 650.67 300.793 649.502 300.879C641.258 301.119 641.258 301.119 637.838 298.077C635.986 295.47 634.481 292.833 633 290C631.998 288.353 630.989 286.709 629.973 285.07C628.999 283.424 628.029 281.775 627.062 280.125C623.023 273.294 618.867 266.63 614.328 260.117C613 258 613 258 613 256C612.34 256 611.68 256 611 256C610.902 256.998 610.804 257.996 610.703 259.024C609.292 272.764 607.154 286.357 605 300C596.09 300 587.18 300 578 300C584.822 249.867 584.822 249.867 587.875 229.063C587.978 228.357 588.081 227.651 588.187 226.924C588.474 224.961 588.764 222.998 589.055 221.035C589.214 219.956 589.374 218.878 589.539 217.766C589.922 215.465 590.389 213.249 591 211Z" fill="#191919"/>
<path d="M602 331C608.313 330.949 614.626 330.914 620.939 330.89C623.081 330.88 625.224 330.867 627.366 330.849C661.773 330.576 661.773 330.576 671.812 339.5C672.895 340.737 672.895 340.737 674 342C674.557 342.598 675.114 343.196 675.688 343.812C680.143 351.238 679.634 359.738 677.875 367.875C675.258 377.526 670.355 385.317 662 391C661.34 391 660.68 391 660 391C660.358 391.731 660.717 392.462 661.086 393.216C662.709 396.537 664.323 399.862 665.938 403.187C666.501 404.338 667.065 405.488 667.646 406.674C668.185 407.786 668.723 408.897 669.277 410.043C669.775 411.064 670.272 412.085 670.785 413.137C672 416 672 416 673 421C662.44 421 651.88 421 641 421C638.555 415.499 636.442 410.709 634.75 405.062C634.415 403.96 634.08 402.858 633.734 401.723C633 399 633 399 633 397C629.37 397.33 625.74 397.66 622 398C621.795 399.409 621.59 400.818 621.379 402.27C621.107 404.117 620.835 405.965 620.562 407.812C620.428 408.741 620.293 409.67 620.154 410.627C620.022 411.52 619.89 412.412 619.754 413.332C619.633 414.154 619.513 414.976 619.389 415.823C619 418 619 418 618 421C608.43 421 598.86 421 589 421C590.642 404.707 593.005 388.527 595.368 372.327C595.953 368.32 596.532 364.312 597.11 360.303C597.558 357.197 598.009 354.09 598.461 350.984C598.676 349.505 598.89 348.025 599.103 346.546C599.4 344.493 599.699 342.441 600 340.389C600.17 339.224 600.339 338.059 600.514 336.859C601 334 601 334 602 331ZM628 354C627.66 356.187 627.329 358.374 627 360.562C626.814 361.781 626.629 362.999 626.438 364.254C626.014 367.876 625.925 371.357 626 375C637.786 375.691 637.786 375.691 647.875 370.375C649.615 366.702 650.134 363.055 650 359C648.932 356.46 648.932 356.46 647 355C643.237 353.746 639.728 353.893 635.812 353.937C634.688 353.944 634.688 353.944 633.541 353.951C631.694 353.963 629.847 353.981 628 354Z" fill="#191919"/>
<path d="M871 336C879.698 342.174 886.13 350.148 888.625 360.625C890.39 376.511 886.598 390.309 876.66 402.984C866.029 414.559 851.563 420.861 835.984 422.273C823.24 422.707 810.34 419.561 800.68 410.926C791.785 401.522 789.475 391.684 789.723 378.988C790.61 366.235 796.697 353.804 806 345C823.483 330.723 850.381 324.41 871 336ZM826.73 362.988C822.021 368.463 820.283 374.404 820.617 381.574C821.482 387.051 823.604 390.734 827.688 394.437C832.486 396.701 836.871 397.828 842.109 396.441C848.363 393.715 853.1 388.86 856.102 382.762C858.501 376.27 859.242 370.239 856.375 363.75C853.726 359.002 850.323 356.774 845.188 355.062C837.767 354.917 832.035 357.938 826.73 362.988Z" fill="#191919"/>
<path d="M785 211C791.883 210.923 798.765 210.871 805.648 210.835C807.984 210.82 810.321 210.8 812.657 210.773C846.141 210.409 846.141 210.409 856 220C861.98 226.295 862.454 232.961 862.312 241.328C861.351 252.621 856.57 261.164 848.125 268.5C847.09 269.342 846.051 270.179 845 271C845.6 274.678 846.632 277.642 848.285 280.976C848.957 282.353 848.957 282.353 849.643 283.758C850.593 285.677 851.544 287.596 852.494 289.515C852.941 290.431 853.387 291.346 853.848 292.289C854.26 293.121 854.673 293.953 855.098 294.811C856 297 856 297 856 300C845.44 300 834.88 300 824 300C819.5 288.75 819.5 288.75 817.75 283.375C817.415 282.351 817.08 281.328 816.734 280.273C816.492 279.523 816.25 278.773 816 278C812.37 277.67 808.74 277.34 805 277C804.867 278.157 804.734 279.315 804.598 280.508C804.419 282.047 804.241 283.586 804.062 285.125C803.975 285.885 803.888 286.646 803.799 287.429C803.712 288.177 803.625 288.925 803.535 289.695C803.457 290.376 803.378 291.057 803.297 291.758C802.932 294.515 802.457 297.257 802 300C792.43 300 782.86 300 773 300C774.125 284.249 774.125 284.249 775.016 278.064C775.112 277.387 775.208 276.71 775.307 276.013C775.616 273.84 775.933 271.668 776.25 269.496C776.471 267.959 776.691 266.421 776.911 264.884C777.369 261.692 777.83 258.502 778.293 255.311C778.886 251.23 779.473 247.148 780.058 243.066C780.62 239.146 781.185 235.227 781.75 231.308C781.857 230.568 781.963 229.827 782.073 229.064C782.375 226.966 782.679 224.869 782.984 222.771C783.157 221.581 783.329 220.391 783.507 219.164C783.934 216.423 784.429 213.715 785 211ZM812 234C811.497 236.77 810.997 239.541 810.5 242.312C810.357 243.098 810.214 243.884 810.066 244.693C809.931 245.45 809.796 246.208 809.656 246.988C809.531 247.685 809.405 248.381 809.275 249.099C808.928 251.174 808.928 251.174 809 254C811.71 254.136 814.413 254.234 817.125 254.312C817.886 254.354 818.646 254.396 819.43 254.439C823.596 254.529 826.195 254.289 829.492 251.605C832.61 248.366 833.164 246.925 833.25 242.562C833.276 241.78 833.302 240.997 833.328 240.191C832.923 237.482 832.115 236.678 830 235C826.812 233.406 823.371 233.898 819.875 233.937C818.744 233.944 818.744 233.944 817.59 233.951C815.727 233.963 813.863 233.981 812 234Z" fill="#191919"/>
<path d="M501.884 210.875C502.582 210.879 503.279 210.883 503.998 210.886C504.73 210.886 505.462 210.886 506.215 210.886C508.645 210.887 511.074 210.894 513.504 210.902C515.184 210.904 516.864 210.906 518.544 210.907C522.975 210.91 527.405 210.92 531.836 210.931C536.353 210.941 540.871 210.946 545.389 210.951C554.259 210.962 563.13 210.979 572 211C571.01 218.26 570.02 225.52 569 233C553.82 233.33 538.64 233.66 523 234C522.34 237.63 521.68 241.26 521 245C534.86 245 548.72 245 563 245C562.01 252.26 561.02 259.52 560 267C546.14 267 532.28 267 518 267C517.67 269.97 517.34 272.94 517 276C516.67 276.66 516.34 277.32 516 278C531.51 278 547.02 278 563 278C562 291 562 291 560 300C534.92 300 509.84 300 484 300C485.149 286.208 485.149 286.208 486.107 279.677C486.213 278.935 486.319 278.194 486.428 277.43C486.771 275.032 487.12 272.635 487.469 270.238C487.712 268.554 487.955 266.869 488.197 265.185C488.702 261.683 489.21 258.181 489.72 254.679C490.375 250.183 491.022 245.685 491.667 241.188C492.165 237.723 492.667 234.258 493.17 230.793C493.411 229.134 493.65 227.474 493.888 225.814C494.219 223.508 494.555 221.204 494.893 218.9C494.99 218.211 495.088 217.523 495.189 216.814C496.009 211.284 496.263 210.888 501.884 210.875Z" fill="#191919"/>
<path d="M778.074 339.438C780.183 341.148 780.876 342.57 782 345C779.63 347.089 777.253 349.17 774.875 351.25C774.21 351.837 773.545 352.423 772.86 353.027C769.062 356.341 765.267 359.315 761 362C760.262 361.567 759.523 361.134 758.762 360.688C750.726 356.277 744.537 354.33 735.524 356.633C728.66 359.181 724.982 363.892 721.863 370.356C720.037 375.951 719.998 382.651 721.688 388.297C723.871 392.555 726.579 394.44 731 396C737.616 397.816 742.616 395.97 749 394C749.66 390.37 750.32 386.74 751 383C744.73 383 738.46 383 732 383C733.65 381.35 735.3 379.7 737 378C737.691 377.117 738.382 376.234 739.094 375.324C744.354 369.56 748.311 367.753 756.235 367.356C763.503 367.268 770.746 367.534 778 368C777.423 377.12 776.379 386.093 775 395.125C774.733 396.931 774.733 396.931 774.461 398.774C773.136 407.591 773.136 407.591 772 411C756.812 420.216 736.755 424.406 719.375 420.813C709.278 418.261 700.591 413.303 694.813 404.438C688.934 394.085 687.694 383.213 690.254 371.703C694.121 357.693 701.813 346.988 714 339C734.578 327.857 757.833 327.246 778.074 339.438Z" fill="#191919"/>
<path d="M539.375 330.437C540.793 330.483 542.211 330.524 543.629 330.56C547.089 330.659 550.544 330.814 554 331C557.003 342.29 560.002 353.582 562.996 364.875C564.387 370.118 565.779 375.361 567.173 380.603C568.519 385.66 569.861 390.717 571.2 395.775C571.712 397.707 572.226 399.639 572.74 401.571C573.46 404.271 574.175 406.972 574.889 409.673C575.104 410.476 575.319 411.278 575.54 412.105C576.341 415.151 577 417.836 577 421C566.77 421 556.54 421 546 421C545.01 417.04 544.02 413.08 543 409C531.78 408.67 520.56 408.34 509 408C508.34 409.98 507.68 411.96 507 414C505.68 416.31 504.36 418.62 503 421C493.1 421 483.2 421 473 421C477.701 411.149 482.984 401.781 488.527 392.38C492.52 385.589 496.381 378.744 500.125 371.812C504.136 364.395 508.205 357.016 512.375 349.687C512.851 348.846 513.327 348.005 513.817 347.138C514.277 346.333 514.737 345.528 515.211 344.699C515.803 343.66 515.803 343.66 516.408 342.6C516.933 341.742 517.459 340.884 518 340C518.32 339.249 518.64 338.497 518.97 337.723C523.434 328.814 530.573 329.95 539.375 330.437ZM532 364C530.327 367.288 528.663 370.581 527 373.875C526.285 375.281 526.285 375.281 525.555 376.715C525.104 377.611 524.652 378.507 524.188 379.43C523.769 380.257 523.35 381.084 522.918 381.937C521.864 383.928 521.864 383.928 522 386C527.28 386 532.56 386 538 386C536.907 378.585 535.73 371.292 534 364C533.34 364 532.68 364 532 364Z" fill="#191919"/>
<path d="M917.094 210.433C918.336 210.459 919.577 210.485 920.855 210.512C921.517 210.519 922.179 210.526 922.86 210.533C924.971 210.561 927.078 210.624 929.188 210.688C930.619 210.713 932.051 210.736 933.482 210.756C936.989 210.811 940.494 210.897 944 211C946.089 216.361 947.829 221.67 949.268 227.236C949.576 228.406 949.576 228.406 949.89 229.6C950.56 232.147 951.223 234.697 951.887 237.246C952.353 239.026 952.819 240.806 953.286 242.586C954.26 246.299 955.23 250.014 956.198 253.729C957.442 258.5 958.691 263.271 959.941 268.04C961.133 272.588 962.322 277.136 963.512 281.684C963.74 282.555 963.968 283.426 964.203 284.323C964.843 286.772 965.482 289.221 966.12 291.67C966.407 292.768 966.407 292.768 966.701 293.888C968 298.885 968 298.885 968 300C957.44 300 946.88 300 936 300C935.01 294.06 935.01 294.06 934 288C929.266 287.871 924.539 287.814 919.803 287.823C918.195 287.816 916.587 287.79 914.979 287.743C912.658 287.679 910.345 287.687 908.023 287.707C907.311 287.672 906.598 287.637 905.864 287.602C903.455 287.564 903.455 287.564 900 289C898.02 292.63 896.04 296.26 894 300C884.1 300 874.2 300 864 300C867.712 292.577 871.407 285.341 875.562 278.188C876.622 276.35 877.68 274.511 878.738 272.672C879.278 271.736 879.818 270.799 880.374 269.834C883.024 265.216 885.636 260.576 888.25 255.938C893.349 246.902 898.479 237.884 903.625 228.875C903.973 228.266 904.321 227.656 904.679 227.028C905.674 225.287 906.669 223.546 907.664 221.805C908.236 220.804 908.808 219.804 909.397 218.773C909.926 217.858 910.455 216.943 911 216C911.634 214.598 911.634 214.598 912.28 213.168C914 211 914 211 917.094 210.433ZM923 243C921.163 246.644 919.331 250.291 917.5 253.938C916.975 254.979 916.451 256.02 915.91 257.092C915.414 258.081 914.918 259.071 914.406 260.09C913.945 261.007 913.485 261.923 913.01 262.867C911.929 264.758 911.929 264.758 912 266C917.61 266 923.22 266 929 266C928.384 262.54 927.758 259.082 927.125 255.625C926.951 254.64 926.777 253.656 926.598 252.641C926.424 251.7 926.25 250.759 926.07 249.789C925.913 248.92 925.756 248.051 925.594 247.155C925.138 244.809 925.138 244.809 923 243Z" fill="#191919"/>
<path d="M482 220C482.99 221.485 482.99 221.485 484 223C483.115 223.575 483.115 223.575 482.212 224.162C479.537 225.899 476.862 227.637 474.188 229.375C473.259 229.978 472.33 230.582 471.373 231.203C470.48 231.783 469.588 232.363 468.668 232.961C467.846 233.495 467.024 234.029 466.177 234.58C464.445 235.71 462.721 236.853 461 238C455.503 237.514 450.423 235.581 445.219 233.84C441.946 232.986 439.364 232.702 436 233C435.01 233.66 434.02 234.32 433 235C433.23 236.949 433.23 236.949 434 239C438.268 242.093 443.945 243.313 448.95 244.807C458.521 247.665 466.224 250.506 472 259C474.924 265.777 474.403 272.735 472.129 279.649C468.183 288.523 461.399 294.446 452.531 298.211C432.676 304.401 413.152 301.173 394.988 291.781C392.097 290.058 389.567 288.172 387 286C388.219 282.342 389.152 282.023 392.402 280.117C393.292 279.59 394.183 279.063 395.1 278.52C396.036 277.977 396.973 277.434 397.938 276.875C399.336 276.049 399.336 276.049 400.764 275.207C407.412 271.294 407.412 271.294 410 270C412.075 270.861 414.112 271.815 416.125 272.813C423.867 276.484 430.368 278.585 439 278C439.99 277.34 440.98 276.68 442 276C442.25 273.416 442.25 273.416 442 271C436.656 268.65 431.299 266.764 425.67 265.236C416.708 262.785 409.573 260.27 403.438 252.938C400.598 247.036 401.061 239.639 402.66 233.441C406.501 223.848 413.747 217.292 423 213C441.482 205.755 465.547 209.326 482 220Z" fill="#191919"/>
<path d="M470.75 337.75C474.568 340.589 477.113 343.151 480 347C473.73 353.27 467.46 359.54 461 366C458 365 458 365 456.312 362.688C452.767 358.567 448.932 356.461 443.539 355.613C437.618 355.349 432.703 356.266 428 360C422.641 365.74 420.345 372.208 420 380C420.448 385.273 422.238 389.238 426 393C430.776 395.89 435.586 395.802 441 395C447.038 392.672 452.479 389.343 458 386C459.604 388.083 461.209 390.167 462.812 392.25C463.264 392.837 463.716 393.423 464.182 394.028C466.473 397.005 468.755 399.987 471 403C469.496 407.252 466.408 409.132 462.75 411.438C462.133 411.83 461.516 412.223 460.881 412.627C447.822 420.632 433.042 424.18 417.937 420.875C407.82 418.048 400.011 412.663 394 404C388.051 392.413 387.531 380.351 391.027 367.879C395.842 353.628 404.622 343.563 417.871 336.461C434.531 328.559 454.796 327.598 470.75 337.75Z" fill="#191919"/>
<path d="M691 211C717.4 211 743.8 211 771 211C770 225 770 225 768 234C755.625 234.495 755.625 234.495 743 235C742.733 236.898 742.465 238.796 742.19 240.751C741.307 247.014 740.42 253.277 739.531 259.539C738.993 263.337 738.455 267.134 737.921 270.933C737.405 274.596 736.886 278.26 736.365 281.923C736.166 283.322 735.969 284.722 735.772 286.121C735.498 288.078 735.219 290.034 734.94 291.99C734.703 293.662 734.703 293.662 734.462 295.368C734 298 734 298 733 300C723.43 300 713.86 300 704 300C705.503 285.563 707.496 271.232 709.625 256.875C709.953 254.645 710.282 252.414 710.609 250.184C711.402 244.788 712.201 239.394 713 234C704.75 234 696.5 234 688 234C688.99 226.41 689.98 218.82 691 211Z" fill="#191919"/>
<path d="M995.776 210.887C996.985 210.892 998.195 210.897 999.441 210.903C1000.75 210.906 1002.05 210.909 1003.4 210.912C1004.79 210.921 1006.17 210.929 1007.56 210.938C1008.96 210.943 1010.35 210.947 1011.74 210.951C1015.16 210.963 1018.58 210.98 1022 211C1021.04 218.007 1020.08 225.014 1019.12 232.021C1018.79 234.399 1018.47 236.777 1018.14 239.155C1017.67 242.595 1017.2 246.036 1016.73 249.477C1016.58 250.52 1016.44 251.563 1016.29 252.638C1015.22 260.43 1014.11 268.214 1013 276C1025.21 276 1037.42 276 1050 276C1049.36 281.131 1048.71 286.254 1048 291.375C1047.83 292.579 1047.67 293.783 1047.5 295.024C1047 298 1047 298 1046 300C1024.22 300 1002.44 300 980 300C981.149 286.208 981.149 286.208 982.107 279.677C982.213 278.936 982.319 278.194 982.428 277.431C982.771 275.033 983.12 272.636 983.469 270.239C983.712 268.554 983.955 266.87 984.197 265.185C984.702 261.683 985.21 258.181 985.72 254.679C986.375 250.183 987.022 245.686 987.667 241.188C988.165 237.723 988.667 234.258 989.17 230.794C989.411 229.134 989.65 227.474 989.888 225.814C990.219 223.509 990.555 221.204 990.893 218.9C990.99 218.212 991.088 217.523 991.189 216.814C992.045 211.039 992.045 211.039 995.776 210.887Z" fill="#191919"/>
</g>
<defs>
<clipPath id="clip0_1914_272">
<rect width="1050" height="423" fill="white"/>
</clipPath>
</defs>
</svg>
