<svg width="794" height="216" viewBox="0 0 794 216" fill="none" xmlns="http://www.w3.org/2000/svg">
<path fill-rule="evenodd" clip-rule="evenodd" d="M72.0378 202.143C111.534 202.143 143.546 205.205 143.546 208.946C143.546 212.688 111.534 215.712 72.0378 215.712C32.5795 215.712 0.566895 212.688 0.566895 208.946C0.566895 205.205 32.5795 202.143 72.0378 202.143Z" fill="#CAC9C9"/>
<path fill-rule="evenodd" clip-rule="evenodd" d="M68.145 1.41268L203.452 58.8615C207.345 60.5245 209.197 65.0599 207.534 68.9528L150.085 204.26C148.422 208.153 143.887 210.005 139.994 208.342L4.68676 150.893C0.793851 149.268 -1.05812 144.695 0.604874 140.802L58.0537 5.49457C59.7167 1.60166 64.2521 -0.212517 68.145 1.41268Z" fill="#921D26"/>
<path fill-rule="evenodd" clip-rule="evenodd" d="M200.089 66.0803C200.353 66.7984 200.391 67.6299 200.051 68.3858L144.492 199.309C143.849 200.82 142.073 201.539 140.561 200.858L9.67598 145.299C8.92007 144.997 8.35314 144.392 8.05078 143.674L200.089 66.0803Z" fill="#70161E"/>
<path fill-rule="evenodd" clip-rule="evenodd" d="M68.2204 13.3183L194.797 67.0632C195.591 67.4033 195.931 68.2726 195.628 69.0663L141.883 195.643C141.581 196.399 140.674 196.777 139.88 196.436L13.3417 142.692C12.548 142.389 12.2078 141.482 12.5102 140.726L66.2551 14.1498C66.5574 13.3561 67.4645 13.0159 68.2204 13.3183Z" fill="#D5232B"/>
<path fill-rule="evenodd" clip-rule="evenodd" d="M195.628 67.8945C195.78 68.2725 195.78 68.6882 195.628 69.0662L141.883 195.643C141.581 196.398 140.674 196.776 139.88 196.436L13.3417 142.691C12.926 142.54 12.6614 142.238 12.5103 141.86L195.628 67.8945Z" fill="#A11F24"/>
<path fill-rule="evenodd" clip-rule="evenodd" d="M172.384 71.6741L93.8456 111.246L86.022 76.1717L172.384 71.6741Z" fill="white"/>
<path fill-rule="evenodd" clip-rule="evenodd" d="M37.7197 139.555L116.258 99.9451L124.044 135.057L37.7197 139.555Z" fill="#E6E6E6"/>
<path fill-rule="evenodd" clip-rule="evenodd" d="M93.8457 111.246L116.258 99.9451L117.921 107.391L93.8457 111.246Z" fill="#B3B3B3"/>
<path fill-rule="evenodd" clip-rule="evenodd" d="M311.66 58.8994V82.8616H306.104C306.104 82.8616 296.655 81.4632 296.655 85.6207C296.655 89.7781 300.813 91.1388 306.557 95.7498C312.34 100.361 321.335 110.943 321.335 123.151C321.335 135.359 313.247 151.044 287.924 151.044C262.564 151.044 264.642 148.285 264.642 148.285V121.337C264.642 121.337 273.184 124.096 281.008 124.096C288.831 124.096 290.23 121.564 290.23 119.032C290.23 116.499 263.735 100.361 263.735 84.26C263.735 77.8726 265.323 55.9136 294.123 55.9136C305.461 56.1026 311.66 58.8994 311.66 58.8994Z" fill="#D5232B"/>
<path fill-rule="evenodd" clip-rule="evenodd" d="M330.558 55.9136H359.811V151.044H330.558V55.9136Z" fill="#D5232B"/>
<path fill-rule="evenodd" clip-rule="evenodd" d="M487.9 126.855H515.263V151.044H487.9H460.498V55.9136H487.9H515.263V80.1026H487.9V91.3655H511.862V115.555H487.9V126.855Z" fill="#D5232B"/>
<path fill-rule="evenodd" clip-rule="evenodd" d="M527.773 55.9136H528.907H555.251H563.906C584.126 55.9136 600.643 72.4301 600.643 92.6506C600.643 112.833 585.865 129.388 565.644 129.388H556.989V151.044H527.773V55.9136ZM556.989 81.2364V104.027H558.614C564.888 104.027 570.029 98.9246 570.029 92.6506C570.029 86.3766 564.888 81.2364 558.614 81.2364H556.989Z" fill="#D5232B"/>
<path fill-rule="evenodd" clip-rule="evenodd" d="M420.85 55.7622C433.436 55.7622 444.888 60.6756 453.392 68.6504L436.687 89.9669C432.869 85.4693 427.2 82.6346 420.85 82.6346C409.398 82.6346 400.101 91.8945 400.101 103.346C400.101 114.798 409.398 124.096 420.85 124.096C427.2 124.096 432.869 121.224 436.687 116.764L453.392 138.043C444.888 146.017 433.436 150.931 420.85 150.931C394.583 150.931 373.266 129.614 373.266 103.346C373.266 77.0787 394.583 55.7622 420.85 55.7622Z" fill="#D5232B"/>
<path fill-rule="evenodd" clip-rule="evenodd" d="M639.874 55.9136L689.802 151.044H589.984L639.874 55.9136Z" fill="#D5232B"/>
<path fill-rule="evenodd" clip-rule="evenodd" d="M627.856 151.044H608.693L640.668 102.288L663.912 127.649L627.856 151.044Z" fill="#E6E6E6"/>
<path fill-rule="evenodd" clip-rule="evenodd" d="M627.478 122.395L640.668 102.288L645.581 107.655L627.478 122.395Z" fill="#B3B3B3"/>
<path fill-rule="evenodd" clip-rule="evenodd" d="M646.942 69.293L653.745 82.2945L627.477 122.395L613.19 106.824L625.587 83.1638L646.942 69.293Z" fill="white"/>
<path fill-rule="evenodd" clip-rule="evenodd" d="M700.082 55.9136H729.336H746.721V81.0096H729.336V151.044H700.082V81.0096H682.696V55.9136H700.082Z" fill="#D5232B"/>
<path fill-rule="evenodd" clip-rule="evenodd" d="M529.587 172.928L530.268 168.203H503.622L502.904 172.928H508.271H518.022H529.587ZM501.128 184.531L497.915 205.999H525.354L526.073 201.312H504L505.814 189.104H524.825L525.506 184.531H518.589H506.495H501.128ZM560.239 185.74L579.742 168.203H572.712L549.581 189.104L552.718 168.203H547.313L541.606 205.999H546.973L548.447 196.172L556.422 189.066L568.743 205.999H574.791L560.164 185.854L560.239 185.74ZM598.791 206.414C608.202 206.414 614.551 201.992 614.211 194.66C613.644 183.17 594.444 186.95 594.066 179.013C593.877 175.006 597.695 172.361 603.893 172.361C607.71 172.361 611.376 173.381 614.287 175.384L616.214 170.962C613.039 168.921 608.58 167.788 603.931 167.788C594.709 167.788 588.435 172.247 588.813 179.504C589.38 191.599 608.58 187.555 608.958 195.416C609.147 199.536 605.14 201.841 599.055 201.841C594.369 201.841 589.569 200.178 586.583 197.532L584.428 201.841C587.301 204.449 593.008 206.414 598.791 206.414ZM647.924 168.203H633.865L628.158 205.999H633.562L635.263 194.547H645.354C656.277 194.547 662.816 188.953 662.324 179.277C661.984 172.247 656.731 168.203 647.924 168.203ZM645.241 189.86H636.019L638.589 172.928H647.66C653.367 172.928 656.731 175.233 656.958 179.769C657.26 186.421 652.951 189.86 645.241 189.86ZM708.397 179.277C708.057 172.247 702.765 168.203 693.921 168.203H679.824L674.117 205.999H679.559L681.298 194.433H691.389H692.41L699.553 205.999H705.26L697.776 193.677C704.806 191.863 708.775 186.799 708.397 179.277ZM691.313 189.86H681.978L684.548 172.928H693.657C699.439 172.928 702.803 175.233 703.03 179.769C703.332 186.421 699.024 189.86 691.313 189.86ZM752.58 172.928L753.26 168.203H726.614L725.896 172.928H731.263H752.58ZM724.158 184.531L720.907 205.999H748.384L749.065 201.312H726.992L728.806 189.104H747.817L748.498 184.531H729.524H724.158ZM776.277 206.414C785.65 206.414 792.038 201.992 791.66 194.66C791.093 183.17 771.931 186.95 771.515 179.013C771.326 175.006 775.143 172.361 781.342 172.361C785.197 172.361 788.863 173.381 791.773 175.384L793.701 170.962C790.526 168.921 786.028 167.788 781.417 167.788C772.158 167.788 765.921 172.247 766.261 179.504C766.866 191.599 786.028 187.555 786.406 195.416C786.633 199.536 782.627 201.841 776.542 201.841C771.817 201.841 767.055 200.178 764.069 197.532L761.915 201.841C764.787 204.449 770.495 206.414 776.277 206.414Z" fill="#999999"/>
</svg>
