<?xml version="1.0" encoding="UTF-8"?>
<svg version="1.1" xmlns="http://www.w3.org/2000/svg" width="471" height="257">
<path d="M0 0 C155.43 0 310.86 0 471 0 C471 84.81 471 169.62 471 257 C315.57 257 160.14 257 0 257 C0 172.19 0 87.38 0 0 Z " fill="#0166CA" transform="translate(0,0)"/>
<path d="M0 0 C5.80873481 3.71681189 11.22218115 7.92553164 16.6875 12.125 C18.56578657 13.5659123 20.44466644 15.00605164 22.32421875 16.4453125 C23.15010498 17.07969238 23.97599121 17.71407227 24.8269043 18.36767578 C26.51156542 19.63311161 28.24687755 20.8312517 30 22 C28.46474163 26.54180601 24.72696294 28.70590476 21 31.375 C19.5508959 32.43587993 18.10302749 33.49844933 16.65625 34.5625 C15.89699219 35.119375 15.13773438 35.67625 14.35546875 36.25 C9.60184899 39.78171086 4.9554563 43.45246463 0.29296875 47.10302734 C-0.41214844 47.6542627 -1.11726563 48.20549805 -1.84375 48.7734375 C-2.86879639 49.57769165 -2.86879639 49.57769165 -3.91455078 50.39819336 C-5.3488653 51.49987184 -6.80171836 52.57769613 -8.26904297 53.63500977 C-8.99236816 54.15635498 -9.71569336 54.6777002 -10.4609375 55.21484375 C-11.11368652 55.6749585 -11.76643555 56.13507324 -12.43896484 56.60913086 C-14.30465114 58.04617767 -14.30465114 58.04617767 -15.125 61.1875 C-15.23359095 64.20992399 -15.23359095 64.20992399 -13 67 C-9.1895993 67.77191343 -7.1898779 67.66523207 -3.78076172 65.75927734 C-1.25954556 63.98283483 1.15419853 62.11423352 3.5625 60.1875 C4.44292969 59.50478027 5.32335937 58.82206055 6.23046875 58.11865234 C8.83323921 56.09496037 11.41801709 54.05011185 14 52 C15.33112018 50.95586871 16.66305605 49.91277582 17.99609375 48.87109375 C23.85933324 44.28990737 23.85933324 44.28990737 29.67236328 39.64550781 C31.29237194 38.33382491 32.92591048 37.04089552 34.5625 35.75 C35.95662109 34.62851563 35.95662109 34.62851563 37.37890625 33.484375 C40 32 40 32 42.46484375 31.98046875 C45.77734544 33.31261504 48.28746611 35.29977925 51 37.5625 C52.2303929 38.55769558 53.46226345 39.55106604 54.6953125 40.54296875 C55.37239258 41.09001465 56.04947266 41.63706055 56.74707031 42.20068359 C61.07363918 45.65612492 65.47553313 49.01322339 69.875 52.375 C70.75414062 53.05248291 71.63328125 53.72996582 72.5390625 54.42797852 C77.54408002 58.25330962 82.59980193 61.75486937 88 65 C88.76699219 64.3915625 89.53398437 63.783125 90.32421875 63.15625 C105.03963916 51.51948325 119.97410288 40.17311069 135.10717773 29.08544922 C141.0756842 24.70458423 146.96323938 20.22621303 152.83081055 15.71142578 C159.80262165 10.35817431 166.88842634 5.16546617 174 0 C180.77071192 4.32918642 187.03205725 9.33720315 193.38867188 14.24414062 C194.29294922 14.93830078 195.19722656 15.63246094 196.12890625 16.34765625 C196.94431885 16.97679932 197.75973145 17.60594238 198.59985352 18.25415039 C200.99180288 19.99403747 203.44173194 21.51817877 206 23 C204.59700279 27.20899163 201.53388356 28.81422996 198.0625 31.3125 C196.58869763 32.3942736 195.11608427 33.47766856 193.64453125 34.5625 C192.87705566 35.12710938 192.10958008 35.69171875 191.31884766 36.2734375 C187.58018057 39.05716604 183.917091 41.93553772 180.25 44.8125 C173.80899504 49.8518246 167.30413654 54.79630692 160.75 59.6875 C154.76915401 64.15395957 148.81266371 68.64507858 142.9375 73.25 C142.37192383 73.69174561 141.80634766 74.13349121 141.22363281 74.58862305 C137.33618067 77.51446504 137.33618067 77.51446504 134 81 C134.23477199 84.64541845 134.23477199 84.64541845 135 88 C139.44087283 89.21442847 139.44087283 89.21442847 143.80371094 88.16699219 C145.74378835 86.82010009 147.55806611 85.38402951 149.375 83.875 C150.78511501 82.76036449 152.19527271 81.64578299 153.60546875 80.53125 C154.68900635 79.65726563 154.68900635 79.65726563 155.79443359 78.765625 C159.37343762 75.90052016 163.03552789 73.14600305 166.6875 70.375 C171.63188092 66.59229776 176.56650689 62.79688511 181.5 59 C183.66646525 57.3330706 185.83310938 55.66637619 188 54 C188.67063477 53.48405273 189.34126953 52.96810547 190.03222656 52.43652344 C194.35770276 49.11088643 198.6924558 45.79794808 203.03759766 42.49804688 C204.82986068 41.12987993 206.60948093 39.74695677 208.38671875 38.359375 C209.35222656 37.62203125 210.31773437 36.8846875 211.3125 36.125 C212.13363281 35.48820312 212.95476562 34.85140625 213.80078125 34.1953125 C216 33 216 33 217.90917969 33.26342773 C220.21615072 34.07614744 221.72797312 35.08535433 223.65234375 36.58984375 C224.34078369 37.12262939 225.02922363 37.65541504 225.73852539 38.2043457 C226.82701782 39.06225708 226.82701782 39.06225708 227.9375 39.9375 C228.68443115 40.51781982 229.4313623 41.09813965 230.20092773 41.69604492 C231.72931441 42.88374061 233.25576479 44.07393218 234.78027344 45.26660156 C238.02614766 47.80132517 241.29462796 50.30625335 244.5625 52.8125 C246.37556971 54.20759527 248.18777917 55.60380204 250 57 C248.6665977 60.07212276 247.36503953 61.78527741 244.68359375 63.77734375 C244.01038086 64.28418701 243.33716797 64.79103027 242.64355469 65.31323242 C241.91555664 65.84924072 241.18755859 66.38524902 240.4375 66.9375 C238.88916665 68.09875001 237.34099411 69.26021445 235.79296875 70.421875 C234.99810059 71.01419922 234.20323242 71.60652344 233.38427734 72.21679688 C229.64956301 75.00999302 225.95063376 77.84940409 222.25 80.6875 C220.82820773 81.77484777 219.40633428 82.8620894 217.984375 83.94921875 C213.45221055 87.41746948 208.9293726 90.89770255 204.41015625 94.3828125 C201.80208483 96.38974664 199.18195374 98.38028376 196.55859375 100.3671875 C195.79289062 100.94855469 195.0271875 101.52992187 194.23828125 102.12890625 C192.73887521 103.26682561 191.23765781 104.40236335 189.734375 105.53515625 C183.10633625 109.97626102 183.10633625 109.97626102 179.5625 116.5625 C179.84514685 118.99926829 179.84514685 118.99926829 181.125 120.8125 C183.89693158 122.56805667 185.76223579 122.34185132 189 122 C191.76782914 120.25066062 191.76782914 120.25066062 194.375 117.75 C195.42904804 116.81923048 196.48651388 115.89232104 197.546875 114.96875 C198.10568359 114.48019531 198.66449219 113.99164063 199.24023438 113.48828125 C202.26146341 110.93314637 205.44266796 108.59909698 208.625 106.25 C214.45318212 101.92527729 220.21795225 97.52997059 225.9375 93.0625 C231.97837775 88.3463303 238.03614889 83.65411795 244.125 79 C244.79909912 78.48445557 245.47319824 77.96891113 246.16772461 77.43774414 C247.46006586 76.45110766 248.75596304 75.46910853 250.05566406 74.4921875 C251.4235734 73.44238063 252.76755874 72.36102436 254.09277344 71.2578125 C254.78145508 70.69835937 255.47013672 70.13890625 256.1796875 69.5625 C256.79312012 69.04816406 257.40655273 68.53382812 258.03857422 68.00390625 C260 67 260 67 262.44311523 67.13256836 C265.37039177 68.12565664 267.29126843 69.4200244 269.73046875 71.31640625 C271.05981445 72.34024414 271.05981445 72.34024414 272.41601562 73.38476562 C273.33060547 74.10341797 274.24519531 74.82207031 275.1875 75.5625 C276.08275391 76.25408203 276.97800781 76.94566406 277.90039062 77.65820312 C280.61128191 79.75840987 283.30559299 81.87870601 286 84 C286.9585791 84.73976074 287.9171582 85.47952148 288.90478516 86.24169922 C289.81921387 86.95471191 290.73364258 87.66772461 291.67578125 88.40234375 C292.92161987 89.36708618 292.92161987 89.36708618 294.19262695 90.35131836 C294.78906006 90.8953833 295.38549316 91.43944824 296 92 C296 92.66 296 93.32 296 94 C294.58911133 95.25830078 294.58911133 95.25830078 292.58203125 96.6953125 C291.83252197 97.23841064 291.0830127 97.78150879 290.31079102 98.34106445 C289.48635498 98.92976318 288.66191895 99.51846191 287.8125 100.125 C286.06654889 101.39032878 284.32180123 102.65731943 282.578125 103.92578125 C281.66353516 104.5904541 280.74894531 105.25512695 279.80664062 105.93994141 C275.17888669 109.33668703 270.62059947 112.82313658 266.0625 116.3125 C264.28264201 117.67329471 262.50269709 119.03397573 260.72265625 120.39453125 C259.90039551 121.02311035 259.07813477 121.65168945 258.23095703 122.29931641 C254.59033304 125.07460495 250.9217731 127.81162037 247.25390625 130.55078125 C243.70271399 133.2138871 240.18059473 135.91491555 236.65429688 138.61083984 C228.03288052 145.20086208 219.36161508 151.71133183 210.60986328 158.12719727 C205.10863158 162.16587811 199.68255388 166.28774893 194.2890625 170.46875 C187.92012649 175.39182999 181.44862692 180.1821555 175 185 C171.93737122 183.58219623 169.38845659 181.8916452 166.71875 179.83203125 C165.88730469 179.19394531 165.05585938 178.55585938 164.19921875 177.8984375 C162.86310547 176.86589844 162.86310547 176.86589844 161.5 175.8125 C159.59426398 174.34959061 157.68800154 172.88736677 155.78125 171.42578125 C154.81445312 170.68408691 153.84765625 169.94239258 152.8515625 169.17822266 C148.58966295 165.92268603 144.29636715 162.70983083 140 159.5 C132.16976084 153.64358844 124.38338024 147.73176717 116.61157227 141.7980957 C108.77553099 135.81902719 100.89578982 129.89982808 93 124 C92.30003906 123.37738281 91.60007813 122.75476563 90.87890625 122.11328125 C89.02904212 120.80336487 89.02904212 120.80336487 86.6640625 120.98828125 C83.0022539 122.37890944 80.3228407 124.68337774 77.375 127.1875 C71.66728677 131.89498011 65.85474604 136.39330127 59.875 140.75 C52.87729093 145.86071052 45.94715967 151.05040245 39.0625 156.3125 C38.16942139 156.99505859 37.27634277 157.67761719 36.35620117 158.38085938 C34.6550876 159.68112215 32.95399594 160.9814136 31.25292969 162.28173828 C26.52611166 165.8867822 21.76240674 169.4421655 17 173 C14.08258137 175.18649772 11.16632205 177.37454 8.25 179.5625 C6.85939375 180.60549375 5.46877038 181.64846468 4.078125 182.69140625 C2.55445313 183.83416016 2.55445313 183.83416016 1 185 C-2.22907954 183.51946611 -4.8907971 181.67955819 -7.703125 179.515625 C-8.60160156 178.82726562 -9.50007813 178.13890625 -10.42578125 177.4296875 C-11.35777344 176.71039063 -12.28976563 175.99109375 -13.25 175.25 C-15.08833999 173.838279 -16.92687877 172.42681683 -18.765625 171.015625 C-20.08723633 169.99952148 -20.08723633 169.99952148 -21.43554688 168.96289062 C-24.93753099 166.2823925 -28.46381373 163.6351509 -32 161 C-30.63291294 157.81898421 -29.21214954 156.09146852 -26.46484375 154.00390625 C-25.38662354 153.17536133 -25.38662354 153.17536133 -24.28662109 152.33007812 C-23.51141113 151.74677734 -22.73620117 151.16347656 -21.9375 150.5625 C-21.13908691 149.95212891 -20.34067383 149.34175781 -19.51806641 148.71289062 C-17.84934019 147.43829227 -16.17806999 146.1670183 -14.50439453 144.89892578 C-12.09917486 143.0751981 -9.70234885 141.24108392 -7.30859375 139.40234375 C-4.49728042 137.24411779 -1.68471999 135.08760262 1.1328125 132.9375 C2.0772522 132.21300659 2.0772522 132.21300659 3.04077148 131.47387695 C4.42061608 130.43585554 5.8178063 129.42069439 7.22680664 128.42260742 C7.94989014 127.90545166 8.67297363 127.3882959 9.41796875 126.85546875 C10.07563232 126.39551514 10.7332959 125.93556152 11.41088867 125.46166992 C13.36490588 123.90542723 13.36490588 123.90542723 14.1875 120.3125 C14.25656204 117.10539139 14.25656204 117.10539139 12.875 115.0625 C10.30890726 113.60838078 8.9377822 113.63797868 6 114 C3.82801425 115.38700177 1.96706565 116.74187945 0 118.375 C-1.16122223 119.30368071 -2.32268707 120.23205814 -3.484375 121.16015625 C-4.07154297 121.63598145 -4.65871094 122.11180664 -5.26367188 122.60205078 C-7.89118086 124.71750585 -10.57099299 126.7628577 -13.25 128.8125 C-14.31785356 129.63392582 -15.38555702 130.45554681 -16.453125 131.27734375 C-19.10589755 133.31576593 -21.76310498 135.34831344 -24.421875 137.37890625 C-25.56027832 138.24841919 -25.56027832 138.24841919 -26.72167969 139.13549805 C-28.20629826 140.26900719 -29.69130526 141.40200783 -31.17675781 142.53442383 C-31.86092773 143.05673584 -32.54509766 143.57904785 -33.25 144.1171875 C-33.90097656 144.60928711 -34.55195312 145.10138672 -35.22265625 145.60839844 C-36.76773415 146.81814349 -38.23606444 148.12467492 -39.6875 149.4453125 C-42 151 -42 151 -44.40966797 150.76391602 C-47.10427697 149.96924763 -48.59101497 149.08899516 -50.7578125 147.33203125 C-51.45583984 146.77580078 -52.15386719 146.21957031 -52.87304688 145.64648438 C-53.61619141 145.04126953 -54.35933594 144.43605469 -55.125 143.8125 C-56.74045352 142.5251648 -58.35769795 141.24007434 -59.9765625 139.95703125 C-60.80704102 139.29783691 -61.63751953 138.63864258 -62.49316406 137.95947266 C-66.42964516 134.88251538 -70.46153763 131.94104505 -74.5 129 C-81.50117107 123.88529927 -88.37998152 118.63928133 -95.19091797 113.27416992 C-99.18914968 110.13864005 -103.22974764 107.08504608 -107.3515625 104.11328125 C-108.67220703 103.15905273 -108.67220703 103.15905273 -110.01953125 102.18554688 C-111.72688651 100.9581453 -113.44025607 99.73905717 -115.16015625 98.52929688 C-115.92457031 97.97951172 -116.68898438 97.42972656 -117.4765625 96.86328125 C-118.4987085 96.14072144 -118.4987085 96.14072144 -119.54150391 95.40356445 C-120.02280762 94.94038818 -120.50411133 94.47721191 -121 94 C-121 93.01 -121 92.02 -121 91 C-119.3737793 89.4128418 -119.3737793 89.4128418 -117.07421875 87.69921875 C-116.22448486 87.05903809 -115.37475098 86.41885742 -114.49926758 85.75927734 C-113.57138428 85.07559082 -112.64350098 84.3919043 -111.6875 83.6875 C-110.73705811 82.9754541 -109.78661621 82.2634082 -108.80737305 81.52978516 C-101.89042453 76.35944799 -94.9258058 71.25235119 -87.95776367 66.15112305 C-82.5650378 62.19151562 -77.26438713 58.12834548 -72 54 C-65.19966598 48.66716115 -58.29725979 43.49771635 -51.32299805 38.39501953 C-45.26710395 33.95580144 -39.2781421 29.4346678 -33.3125 24.875 C-26.93288779 19.99895666 -20.54737969 15.13214 -14.125 10.3125 C-13.50149658 9.84376465 -12.87799316 9.3750293 -12.2355957 8.89208984 C-8.19876109 5.86762928 -4.11347426 2.91940948 0 0 Z " fill="#FCFCFD" transform="translate(148,10)"/>
<path d="M0 0 C138.27 0 276.54 0 419 0 C419 4.29 419 8.58 419 13 C280.73 13 142.46 13 0 13 C0 8.71 0 4.42 0 0 Z " fill="#EC3237" transform="translate(26,198)"/>
<path d="M0 0 C4.26814231 2.34255057 7.19658983 5.46619312 9 10 C9.7500384 15.90289963 9.45404174 20.99759473 6 26 C1.07675067 30.44293232 -1.95185622 31.36182654 -8.45703125 31.27734375 C-12.23091373 30.86575288 -14.24007187 29.55798217 -17 27 C-20.99082501 21.67889999 -20.78712807 15.37573734 -20 9 C-15.90037702 0.34524039 -9.06446009 -1.62096926 0 0 Z " fill="#F4F6FA" transform="translate(93,215)"/>
<path d="M0 0 C1.06347656 -0.00257813 2.12695312 -0.00515625 3.22265625 -0.0078125 C5.9375 0.125 5.9375 0.125 7.9375 1.125 C7.9375 2.775 7.9375 4.425 7.9375 6.125 C5.26502505 6.98019198 3.35501847 7.10381885 0.5 7 C-3.51195605 7.14077039 -5.17413471 7.32158663 -8.0625 10.125 C-9.52380608 14.56019214 -9.66078304 17.92843392 -7.5625 22.125 C-4.41280927 24.64475258 -2.03732902 24.89568294 1.9375 25.125 C1.9375 23.145 1.9375 21.165 1.9375 19.125 C0.6175 19.125 -0.7025 19.125 -2.0625 19.125 C-2.0625 17.145 -2.0625 15.165 -2.0625 13.125 C1.5675 13.125 5.1975 13.125 8.9375 13.125 C8.9375 18.735 8.9375 24.345 8.9375 30.125 C2.80964267 32.16761911 -4.39298785 31.88771776 -10.5625 30.125 C-14.57000882 26.91899295 -17.46214868 23.15507508 -18.4765625 18.03515625 C-18.67396125 13.36039501 -17.62831072 9.97371608 -15.0625 6.125 C-10.36496297 1.37612376 -6.61872562 -0.01608439 0 0 Z " fill="#F2F5FA" transform="translate(149.0625,214.875)"/>
<path d="M0 0 C-0.33 1.98 -0.66 3.96 -1 6 C-3.97 6 -6.94 6 -10 6 C-10.33 7.32 -10.66 8.64 -11 10 C-10.39671875 10.15855469 -9.7934375 10.31710938 -9.171875 10.48046875 C-5.2776209 11.61733971 -2.48846969 12.58131169 0.625 15.25 C2.53098349 19.06196698 2.29796685 20.9618809 1 25 C-1.15020236 27.73133813 -1.93117779 28.72084607 -5 30 C-9.57390838 30.5188136 -14.78917218 31.10541391 -19 29 C-19 27.02 -19 25.04 -19 23 C-14.71 23 -10.42 23 -6 23 C-8.08496904 18.75130317 -8.08496904 18.75130317 -11.9375 17 C-17.43940295 14.41380606 -17.43940295 14.41380606 -19 11 C-19.5625 7.5625 -19.5625 7.5625 -19 4 C-13.95998814 -2.23369888 -7.37929659 -2.45976553 0 0 Z " fill="#F3F6FA" transform="translate(443,216)"/>
<path d="M0 0 C-0.33 1.98 -0.66 3.96 -1 6 C-4.63 6 -8.26 6 -12 6 C-11.31726806 9.13810307 -11.31726806 9.13810307 -8.78515625 10.31640625 C-7.88667969 10.72761719 -6.98820313 11.13882813 -6.0625 11.5625 C-1.18449198 13.81550802 -1.18449198 13.81550802 1 16 C1.62975836 19.08218276 1.57508919 21.91155803 1 25 C-1.78273501 28.78761154 -1.78273501 28.78761154 -5 30 C-14.82515991 31.08742004 -14.82515991 31.08742004 -19 29 C-19 27.02 -19 25.04 -19 23 C-18.34 22.67 -17.68 22.34 -17 22 C-16.34 22.33 -15.68 22.66 -15 23 C-13.45976004 23.06950541 -11.91665012 23.08452357 -10.375 23.0625 C-9.55773437 23.05347656 -8.74046875 23.04445312 -7.8984375 23.03515625 C-7.27195313 23.02355469 -6.64546875 23.01195312 -6 23 C-7.37943122 19.57643755 -8.56462021 18.3884036 -11.9375 16.9375 C-14.86444698 15.66277356 -16.99759023 14.53353675 -19 12 C-19.46061269 8.82689033 -19.69832854 7.01630983 -19 4 C-14.03023923 -2.27759255 -7.34735993 -2.44911998 0 0 Z " fill="#F4F6FA" transform="translate(248,216)"/>
<path d="M0 0 C1.125 4.75 1.125 4.75 0 7 C-1.01320313 6.93039063 -1.01320313 6.93039063 -2.046875 6.859375 C-7.55576337 6.58772382 -7.55576337 6.58772382 -12.625 8.4375 C-14.69251226 12.29059104 -14.73682337 15.72799219 -14 20 C-12.81426975 22.76922685 -12.81426975 22.76922685 -10 24 C-6.638716 24.31083974 -3.36436216 24.23113939 0 24 C0.33 25.98 0.66 27.96 1 30 C-3.18611152 32.09305576 -8.44132948 31.42364608 -13 31 C-17.881441 28.73361668 -20.70028068 25.86479088 -23 21 C-23.77379561 15.70186881 -23.67768515 11.43356475 -21.375 6.5625 C-14.74809044 -0.58758663 -9.36644661 -0.50028498 0 0 Z " fill="#F2F5F9" transform="translate(393,215)"/>
<path d="M0 0 C7.92 0 15.84 0 24 0 C24 2.31 24 4.62 24 7 C21.36 7 18.72 7 16 7 C16 14.92 16 22.84 16 31 C13.36 31 10.72 31 8 31 C8 22.75 8 14.5 8 6 C5.36 6 2.72 6 0 6 C0 4.02 0 2.04 0 0 Z " fill="#E9EDF7" transform="translate(278,215)"/>
<path d="M0 0 C2.64 0 5.28 0 8 0 C8 7.92 8 15.84 8 24 C11.63 24 15.26 24 19 24 C19 26.31 19 28.62 19 31 C12.73 31 6.46 31 0 31 C0 20.77 0 10.54 0 0 Z " fill="#E4EBF6" transform="translate(26,215)"/>
<path d="M0 0 C3.0625 0.5 3.0625 0.5 5.4375 2.375 C7.72793498 6.77968266 7.86729825 10.63014938 7.0625 15.5 C5.4375 18.125 5.4375 18.125 3.0625 19.5 C0.0625 20.125 0.0625 20.125 -2.9375 19.5 C-5.68800566 16.82002013 -6.87009331 14.85866608 -7.0625 10.98046875 C-6.59637722 4.34793006 -6.59637722 4.34793006 -4.5625 1.73046875 C-2.9375 0.5 -2.9375 0.5 0 0 Z " fill="#0668CA" transform="translate(86.9375,220.5)"/>
<path d="M0 0 C2.31 0 4.62 0 7 0 C7 9.57 7 19.14 7 29 C4.69 29 2.38 29 0 29 C0 19.43 0 9.86 0 0 Z " fill="#FDFDFD" transform="translate(332,216)"/>
<path d="M0 0 C2.31 0 4.62 0 7 0 C7 9.57 7 19.14 7 29 C4.69 29 2.38 29 0 29 C0 19.43 0 9.86 0 0 Z " fill="#FDFDFD" transform="translate(190,216)"/>
</svg>
