<svg width="264" height="113" viewBox="0 0 264 113" fill="none" xmlns="http://www.w3.org/2000/svg">
<path fill-rule="evenodd" clip-rule="evenodd" d="M177.734 32.5625L177.847 47.7184L202.641 47.6806L177.961 57.0538L178.187 72.2097L162.805 62.7987L136.65 71.3405L151.882 56.1468L137.86 47.6806L162.654 47.7184L177.734 32.5625Z" fill="#D8232C"/>
<path fill-rule="evenodd" clip-rule="evenodd" d="M181.778 65.2554L194.25 53.4254L216.285 44.4302H203.699L213.224 35.3593C213.224 35.3593 247.466 35.0947 247.391 35.3593C247.315 35.6239 263.038 35.3971 263.227 42.5782C263.416 49.7215 237.45 56.6002 237.45 56.6002L244.367 71.1136H222.559L217.079 58.679H208.008L194.817 71.1136H181.967L181.778 65.2554ZM213.942 51.9514L222.71 43.1829H235.485C235.485 43.1829 248.449 44.7325 231.479 51.6869C231.479 51.6869 228.342 52.4428 225.356 52.4428H214.509C214.509 52.4428 213.866 52.216 213.942 51.9514ZM96.7387 43.0317H115.674C116.279 43.1829 116.506 43.5987 116.392 44.1656L89.3308 70.8491H108.493L136.688 43.0317H158.723L167 35.3215H104.978L96.7387 43.0317ZM8.78906 68.3924L18.1623 59.3971C18.1623 59.3971 20.241 58.5278 21.7906 59.3971C23.3024 60.2286 32.7135 65.5955 52.8206 63.1388C52.8206 63.1388 57.0914 62.6475 58.9434 60.1152C58.9434 60.1152 59.208 59.1325 56.9024 58.4522C56.9024 58.4522 33.9607 54.7483 30.9371 51.0821C30.9371 51.0821 27.8379 47.6806 34.7544 42.616C34.7544 42.616 51.4977 28.8585 97.1544 37.2113L88.6883 45.6018C88.6883 45.6018 86.7229 46.0932 85.6269 45.5262C85.6269 45.5262 77.1229 39.8191 56.1843 42.7294C56.1843 42.7294 50.2883 43.4853 51.1198 45.7152C51.9513 47.9829 66.6914 49.4569 66.6914 49.4569C66.6914 49.4569 80.7891 50.8176 79.4662 57.4317C78.1812 64.0081 61.0977 68.6947 61.0977 68.6947C61.0977 68.6947 41.1418 74.7042 8.78906 68.3924Z" fill="#0827A4"/>
<path fill-rule="evenodd" clip-rule="evenodd" d="M75.8379 84.6819L68.5056 93.0347C68.0143 91.863 67.2584 90.9938 66.2757 90.4646C65.2552 89.9355 63.8946 89.6709 62.2316 89.6709C59.0946 89.6709 55.882 90.389 52.6316 91.9008C49.3434 93.3749 46.6599 95.3402 44.5434 97.7213C42.5403 99.989 41.8977 101.841 42.5781 103.315C43.2584 104.789 45.1103 105.507 48.1718 105.507C49.8725 105.507 51.6867 105.243 53.6521 104.713C55.6174 104.184 57.8851 103.315 60.3796 102.143L53.0096 110.458C50.7796 111.063 48.6631 111.517 46.6977 111.781C44.7324 112.084 42.8426 112.235 41.104 112.235C39.5166 112.235 38.0804 112.121 36.8332 111.932H30.2568L26.8552 110.421H17.5576L0.474121 108.871H23.4159H30.7481C30.5214 108.569 30.3324 108.266 30.1812 107.926L26.8552 106.452H17.5576L0.474121 104.902H23.4159H29.7277C29.7277 104.865 29.7277 104.827 29.7277 104.751C29.8033 104.222 29.9544 103.693 30.1812 103.126L26.8552 101.614H17.5576L0.474121 100.102H23.4159H31.7686C31.9954 99.7623 32.2222 99.4221 32.4867 99.0819H30.2568L26.8552 97.5701H17.5576L0.474121 96.0583H23.4159H35.208C35.6237 95.6048 36.0773 95.189 36.5308 94.7733H30.2568L26.8552 93.2615H17.5576L0.474121 91.7497H23.4159H40.4237C41.1418 91.2583 41.8599 90.767 42.6536 90.3134H30.2568L26.8552 88.7638H17.5576L0.474121 87.252H23.4159H43.2962H48.5497C48.7387 87.1764 48.8899 87.1008 49.0788 86.9875C49.9103 86.6473 50.7418 86.3071 51.5355 86.0048H30.2568L26.8552 84.4552H17.5576L0.474121 82.9434H23.4159H43.2962H66.2379H66.2757C66.5403 82.9434 66.767 82.9434 67.0316 82.9434C68.808 82.9434 70.3954 83.0945 71.8694 83.3969C73.3056 83.6615 74.6285 84.115 75.8379 84.6819ZM78.1056 101.085H88.9529L93.0348 91.9008C93.1481 91.5985 93.3749 91.1449 93.7151 90.5402C94.0552 89.8977 94.471 89.104 95.0001 88.1213C94.1686 88.8016 93.3371 89.4819 92.5434 90.0867C91.7875 90.7292 91.0316 91.2961 90.2757 91.9008L78.1056 101.085ZM53.5387 111.517L92.1277 83.6237H105.81L94.8867 111.517H84.0395L86.4584 106.528H70.9245L64.4237 111.517H53.5387ZM98.704 111.517L123.46 83.6237H134.874C139.334 83.6237 142.32 83.7371 143.832 84.0394C145.343 84.304 146.439 84.7953 147.12 85.4756C147.876 86.2315 148.14 87.2142 147.876 88.3859C147.573 89.5575 146.817 90.8804 145.57 92.3166C143.643 94.4709 141.337 96.2095 138.616 97.5701C135.857 98.9308 132.871 99.8378 129.545 100.254L130.49 111.517H118.169L118.66 100.594L108.984 111.517H98.704ZM122.024 96.8142H124.027C126.37 96.8142 128.336 96.5119 129.923 95.9827C131.51 95.4158 132.833 94.5087 133.891 93.3371C135.139 91.9386 135.517 90.956 135.025 90.3512C134.534 89.7465 133.098 89.4819 130.717 89.4819H128.525L122.024 96.8142ZM162.805 101.274L167.983 95.4158H189.45C189.299 95.6048 189.11 95.7938 188.921 96.0205C188.732 96.2473 188.43 96.5875 188.052 97.041C183.781 101.841 178.679 105.583 172.669 108.228C166.698 110.874 160.386 112.197 153.81 112.197C150.559 112.197 147.951 111.857 146.062 111.176C144.134 110.496 142.773 109.438 142.055 108.039C141.337 106.717 141.262 105.129 141.828 103.315C142.395 101.501 143.529 99.5733 145.306 97.5701C147.158 95.4914 149.388 93.6016 151.92 91.8252C154.49 90.0867 157.438 88.5371 160.688 87.1386C163.901 85.778 167.113 84.7197 170.326 84.0394C173.539 83.3213 176.676 82.9812 179.662 82.9812C183.592 82.9812 186.578 83.5103 188.657 84.6064C190.698 85.6646 191.832 87.2898 191.983 89.4064L179.737 92.5812C179.548 91.5229 178.981 90.6914 178.036 90.1623C177.091 89.6709 175.731 89.3686 173.992 89.3686C170.704 89.3686 167.454 90.1623 164.241 91.6741C161.028 93.1859 158.232 95.2646 155.926 97.9103C153.545 100.556 152.638 102.635 153.167 104.147C153.696 105.696 155.624 106.452 158.874 106.452C161.633 106.452 164.392 105.961 167.076 105.016C169.759 104.071 171.951 102.824 173.652 101.274H162.805ZM235.296 97.6079C233.52 99.6489 231.328 101.501 228.72 103.277C226.112 105.016 223.202 106.603 219.913 107.964C216.663 109.362 213.413 110.421 210.125 111.139C206.836 111.895 203.775 112.272 200.94 112.272C198.106 112.272 195.687 111.895 193.721 111.139C191.756 110.421 190.395 109.362 189.639 107.964C188.808 106.603 188.619 105.016 189.11 103.239C189.602 101.501 190.736 99.6111 192.512 97.6079C194.288 95.6426 196.48 93.7528 199.088 91.9764C201.734 90.2378 204.682 88.6504 207.97 87.252C211.183 85.8914 214.395 84.8331 217.684 84.0772C220.972 83.3591 224.033 82.9812 226.906 82.9812C229.74 82.9812 232.159 83.3591 234.125 84.0772C236.09 84.8331 237.488 85.8914 238.282 87.252C239.076 88.6504 239.189 90.2001 238.698 91.9764C238.206 93.7528 237.073 95.6426 235.296 97.6079ZM206.647 105.81C209.671 105.81 212.846 105.054 216.21 103.504C219.573 101.954 222.295 99.989 224.373 97.6079C226.452 95.3024 227.17 93.3371 226.565 91.7497C225.961 90.2001 224.147 89.4064 221.161 89.4064C218.137 89.4064 214.962 90.2001 211.599 91.7497C208.235 93.2993 205.513 95.2646 203.435 97.6079C201.318 100.027 200.562 101.992 201.129 103.504C201.734 105.054 203.548 105.81 206.647 105.81Z" fill="#0827A4"/>
<path d="M69.1479 18.578L71.9448 0.700858H76.7448L75.5354 8.18432L82.3385 0.700858H88.4991L79.6928 9.54495L85.7779 18.578H80.1464L75.1196 10.7166L73.8724 18.578H69.1479ZM88.9527 2.59062C88.9527 1.9481 89.1794 1.38117 89.633 0.927629C90.0865 0.474086 90.6157 0.247314 91.2582 0.247314C91.9385 0.247314 92.5054 0.474086 92.959 0.927629C93.4125 1.34338 93.6015 1.91031 93.6015 2.59062C93.6015 3.23314 93.3747 3.80007 92.9212 4.25361C92.4676 4.70716 91.9385 4.93393 91.2582 4.93393C90.6157 4.93393 90.0865 4.70716 89.633 4.25361C89.1794 3.76228 88.9527 3.23314 88.9527 2.59062ZM86.685 18.578L88.6125 6.25676H92.9968L91.0314 18.578H86.685ZM94.2818 18.578L96.2094 6.25676H100.405L100.102 8.3355C100.48 7.5796 100.972 6.97487 101.652 6.55913C102.294 6.14338 103.013 5.9544 103.882 5.9544C103.957 5.9544 104.071 5.9544 104.184 5.9544C104.298 5.9922 104.487 6.02999 104.713 6.06779L103.844 9.9229C103.579 9.84731 103.315 9.80952 103.088 9.77172C102.861 9.73393 102.635 9.73393 102.408 9.73393C101.576 9.73393 100.934 9.9985 100.442 10.5276C99.9511 11.0568 99.6109 11.8505 99.4598 12.9465L98.5527 18.578H94.2818ZM107.17 2.59062C107.17 1.9481 107.397 1.38117 107.85 0.927629C108.304 0.474086 108.833 0.247314 109.476 0.247314C110.156 0.247314 110.723 0.474086 111.176 0.927629C111.63 1.34338 111.857 1.91031 111.857 2.59062C111.857 3.23314 111.63 3.80007 111.176 4.25361C110.723 4.70716 110.156 4.93393 109.476 4.93393C108.833 4.93393 108.304 4.70716 107.85 4.25361C107.397 3.76228 107.17 3.23314 107.17 2.59062ZM104.902 18.578L106.83 6.25676H111.214L109.287 18.578H104.902ZM112.499 18.578L114.464 6.25676H118.282L118.017 8.29771C118.584 7.46621 119.227 6.86149 119.869 6.44574C120.55 6.06779 121.268 5.84102 122.061 5.84102C122.968 5.84102 123.724 6.02999 124.291 6.40794C124.896 6.7859 125.35 7.39062 125.765 8.25991C126.37 7.42842 127.013 6.7859 127.655 6.40794C128.298 6.02999 129.016 5.84102 129.809 5.84102C131.057 5.84102 132.001 6.21897 132.644 6.89928C133.287 7.5796 133.627 8.56228 133.627 9.88511C133.627 10.2253 133.627 10.6032 133.589 10.9812C133.551 11.3591 133.513 11.7371 133.438 12.115L132.379 18.578H128.335L129.356 12.0394C129.356 11.9638 129.394 11.8505 129.394 11.7371C129.394 11.6615 129.394 11.4725 129.394 11.2835C129.394 10.641 129.28 10.1875 129.016 9.88511C128.751 9.54495 128.335 9.39377 127.806 9.39377C127.088 9.39377 126.559 9.65834 126.143 10.1875C125.765 10.7166 125.501 11.6237 125.312 12.8709L124.442 18.578H120.361L121.381 12.0394C121.419 12.0394 121.419 11.9638 121.419 11.8883C121.494 11.5103 121.494 11.2457 121.494 11.0946C121.494 10.5276 121.381 10.1119 121.116 9.84731C120.814 9.54495 120.436 9.39377 119.907 9.39377C119.227 9.39377 118.698 9.65834 118.32 10.1497C117.942 10.6788 117.639 11.5481 117.45 12.8709L116.543 18.578H112.499ZM159.479 1.53235L158.685 6.48353C157.967 5.87881 157.249 5.42527 156.417 5.1229C155.624 4.82054 154.792 4.66936 153.923 4.66936C152.449 4.66936 151.201 5.1985 150.257 6.21897C149.312 7.27724 148.82 8.56228 148.82 10.1875C148.82 11.6237 149.236 12.7576 150.03 13.5513C150.824 14.345 151.957 14.7229 153.431 14.7229C154.074 14.7229 154.716 14.6473 155.397 14.4961C156.077 14.345 156.795 14.1182 157.513 13.8158L156.757 18.4268C156.153 18.6158 155.472 18.767 154.754 18.8804C153.998 18.9938 153.205 19.0316 152.373 19.0316C149.803 19.0316 147.762 18.2379 146.25 16.6505C144.701 15.1009 143.945 12.9843 143.945 10.3764C143.945 9.1292 144.134 7.91976 144.55 6.7859C144.927 5.61424 145.494 4.59377 146.288 3.64889C147.157 2.55283 148.291 1.72133 149.614 1.1544C150.975 0.549677 152.449 0.28511 154.112 0.28511C155.057 0.28511 156.001 0.398496 156.871 0.587472C157.74 0.814244 158.609 1.11661 159.479 1.53235ZM168.927 10.9434C168.89 10.3009 168.701 9.77172 168.285 9.35598C167.869 8.97802 167.34 8.78905 166.66 8.78905C166.055 8.78905 165.526 8.97802 165.035 9.35598C164.581 9.73393 164.203 10.2631 163.976 10.9434H168.927ZM163.674 13.4379V13.7402C163.674 14.5339 163.863 15.1009 164.279 15.5166C164.657 15.9324 165.261 16.1213 166.017 16.1213C166.546 16.1213 167.076 16.0079 167.529 15.7812C168.02 15.5544 168.512 15.2142 169.079 14.7229L171.422 17.0662C170.704 17.7465 169.91 18.2379 169.003 18.578C168.096 18.9182 167.038 19.0694 165.942 19.0694C163.901 19.0694 162.351 18.5402 161.217 17.482C160.121 16.4237 159.554 14.9119 159.554 12.9843C159.554 10.8678 160.235 9.167 161.557 7.84416C162.88 6.52133 164.581 5.84102 166.698 5.84102C168.587 5.84102 170.137 6.44574 171.271 7.61739C172.442 8.75125 173.009 10.3009 173.009 12.2284C173.009 12.4174 173.009 12.7198 172.934 13.1733C172.934 13.2867 172.934 13.4001 172.896 13.4379H163.674ZM184.953 12.1528C184.953 11.3591 184.726 10.7166 184.235 10.2253C183.743 9.73393 183.101 9.50716 182.345 9.50716C181.476 9.50716 180.72 9.84731 180.153 10.5276C179.586 11.1701 179.283 12.0016 179.283 13.0221C179.283 13.778 179.548 14.4205 180.039 14.8741C180.493 15.3654 181.135 15.5922 181.891 15.5922C182.798 15.5922 183.516 15.252 184.083 14.6095C184.65 13.967 184.953 13.1355 184.953 12.1528ZM173.614 24.0205L176.411 6.25676H180.531L180.266 7.95755C180.871 7.27724 181.513 6.7481 182.269 6.37015C182.987 6.02999 183.743 5.84102 184.575 5.84102C186.011 5.84102 187.183 6.37015 188.09 7.42842C188.997 8.52448 189.413 9.88511 189.413 11.5859C189.413 13.7024 188.808 15.4788 187.598 16.8772C186.351 18.3135 184.839 18.9938 182.987 18.9938C182.156 18.9938 181.4 18.8426 180.72 18.4646C180.039 18.1245 179.435 17.5953 178.83 16.8394C178.83 17.2174 178.83 17.5953 178.792 17.8977C178.792 18.2379 178.754 18.5402 178.716 18.767L177.885 24.0205H173.614ZM195.762 12.8709C195.762 13.6646 195.989 14.2694 196.48 14.7607C196.972 15.252 197.576 15.4788 198.37 15.4788C199.239 15.4788 199.957 15.1387 200.562 14.4583C201.129 13.8158 201.394 12.9465 201.394 11.9638C201.394 11.2079 201.167 10.5654 200.676 10.0741C200.222 9.62054 199.579 9.39377 198.786 9.39377C197.916 9.39377 197.198 9.69613 196.631 10.3764C196.027 11.019 195.762 11.8505 195.762 12.8709ZM200.562 16.915C199.957 17.6331 199.315 18.1623 198.597 18.5024C197.841 18.8426 197.085 19.0316 196.216 19.0316C194.817 19.0316 193.646 18.5024 192.738 17.4442C191.831 16.3481 191.378 14.9875 191.378 13.2867C191.378 11.1324 191.983 9.39377 193.23 7.95755C194.439 6.55913 195.989 5.84102 197.841 5.84102C198.672 5.84102 199.466 6.02999 200.109 6.37015C200.789 6.7481 201.394 7.27724 201.961 8.03314L202.225 6.25676H206.345L204.417 18.578H200.373L200.562 16.915ZM208.197 18.578L209.633 9.39377H207.592L208.083 6.25676H210.124L210.691 2.66621H215.038L214.471 6.25676H216.663L216.172 9.39377H213.942L212.505 18.578H208.197Z" fill="#0827A4"/>
</svg>
