<svg width="794" height="164" viewBox="0 0 794 164" fill="none" xmlns="http://www.w3.org/2000/svg">
<path fill-rule="evenodd" clip-rule="evenodd" d="M49.0964 137.214C61.8334 149.384 78.9924 156.792 97.7389 156.792C116.448 156.792 133.607 149.384 146.495 137.214H155.906C141.506 153.58 120.756 163.709 97.7389 163.709C74.7216 163.709 53.972 153.58 39.5342 137.214H49.0964ZM62.3247 137.214C64.7058 138.877 67.3137 140.465 69.9594 141.75C71.7358 140.087 73.7767 138.537 75.7798 137.214H83.7924C83.4145 137.328 83.0743 137.592 82.8098 137.706C81.5247 138.31 80.3153 139.029 79.1436 139.747C77.3295 140.805 75.6665 142.128 74.0035 143.564C81.2602 146.663 89.3861 148.326 97.7389 148.326C106.092 148.326 114.18 146.663 121.474 143.564C119.774 142.128 118.111 140.805 116.334 139.747C115.125 139.029 113.953 138.31 112.63 137.706C112.403 137.592 112.026 137.328 111.685 137.214H119.66C121.701 138.537 123.704 140.087 125.518 141.75C128.126 140.314 130.772 138.877 133.153 137.214H139.578C136.139 139.973 132.435 142.468 128.504 144.509C127.181 145.227 125.859 145.945 124.574 146.512C116.334 150.103 107.263 152.143 97.7389 152.143C88.1767 152.143 79.1436 150.103 70.9043 146.512C69.5814 145.945 68.2964 145.227 66.9735 144.509C63.0428 142.468 59.3389 139.973 55.8617 137.214H62.3247Z" fill="#FF0000"/>
<path fill-rule="evenodd" clip-rule="evenodd" d="M31.0682 110.757C35.1501 120.886 41.3485 129.957 49.0966 137.214H39.5344C32.7312 129.579 27.3643 120.66 23.8115 110.757H31.0682ZM40.0257 110.757C43.2383 117.787 47.6603 124.099 53.0273 129.466C55.8619 126.253 59.1123 123.268 62.4383 120.773C60.7753 117.674 59.3391 114.348 58.0162 110.757H61.8336C62.9296 113.516 64.1013 116.238 65.4241 118.619C66.747 117.901 67.9186 117.069 69.2414 116.351L64.2147 110.757H72.5674L74.495 113.743C75.4399 113.365 76.3848 113.025 77.443 112.534C77.2162 111.967 77.1029 111.362 76.9895 110.757H80.0887C80.2021 110.984 80.2021 111.362 80.3155 111.589C81.2603 111.362 82.3564 110.984 83.3013 110.757H112.139C113.122 110.984 114.18 111.362 115.125 111.589C115.238 111.362 115.238 110.984 115.389 110.757H118.489C118.375 111.362 118.224 111.967 117.997 112.534C122.306 114.197 126.237 116.238 130.054 118.619C131.339 116.238 132.549 113.516 133.607 110.757H137.424C136.139 114.348 134.703 117.674 133.04 120.773C136.366 123.268 139.578 126.253 142.451 129.466C147.818 124.099 152.202 117.787 155.452 110.757H159.61C156.019 118.883 151.03 126.253 144.945 132.452C144.114 133.283 143.169 134.115 142.186 134.946C141.355 135.664 140.523 136.496 139.578 137.214H133.153C135.421 135.664 137.689 133.888 139.692 132.112C137.084 129.126 134.098 126.48 130.999 124.212C127.786 129.353 123.969 133.775 119.66 137.214H111.686C110.476 136.76 109.304 136.269 108.095 135.778C107.037 135.551 106.092 135.211 104.996 134.946C102.728 134.493 100.234 134.228 97.7391 134.228C95.2446 134.228 92.7123 134.493 90.4446 134.946C89.3863 135.211 88.4414 135.551 87.3454 135.778C86.1737 136.269 84.9643 136.76 83.7926 137.214H75.78C71.5092 133.775 67.6918 129.353 64.4792 124.212C61.38 126.48 58.3942 129.126 55.7485 132.112C57.7895 133.888 60.0572 135.664 62.3249 137.214H55.8619C54.917 136.496 54.0855 135.664 53.254 134.946C52.3092 134.115 51.3643 133.283 50.495 132.452C44.4477 126.253 39.421 118.883 35.8304 110.757H40.0257ZM171.667 110.757C168.076 120.66 162.709 129.579 155.906 137.214H146.495C154.13 129.957 160.328 120.886 164.372 110.757H171.667ZM67.4273 122.209C70.7911 127.576 74.7218 131.998 79.1438 135.324C81.0336 134.228 83.0745 133.397 85.0777 132.679C82.4698 128.521 80.2021 123.041 78.4257 116.729C77.821 116.956 77.2162 117.069 76.6115 117.447L77.443 118.619H73.7769C71.6225 119.715 69.4682 120.886 67.4273 122.209ZM116.334 135.324C120.756 131.998 124.687 127.576 128.013 122.209C124.574 119.942 120.87 118.165 117.052 116.729C115.238 123.041 113.008 128.521 110.363 132.679C112.404 133.397 114.407 134.228 116.334 135.324ZM81.2603 115.746C83.0745 122.323 85.3422 127.803 87.9501 131.847C91.0493 131.016 94.3753 130.562 97.7391 130.562C101.065 130.562 104.391 131.016 107.49 131.847C110.136 127.803 112.404 122.323 114.18 115.746C108.926 114.083 103.446 113.252 97.7391 113.252C91.9942 113.252 86.5139 114.083 81.2603 115.746Z" fill="#FF0000"/>
<path fill-rule="evenodd" clip-rule="evenodd" d="M62.0981 71.0347L59.5658 75.0032L74.2304 75.6835C74.3438 74.1339 74.495 72.5843 74.6083 71.0347H77.7075C77.5942 72.5843 77.5942 74.1339 77.443 75.8347L97.8524 76.7795L103.446 71.0347H110.363L103.711 81.2016L109.909 91.3307H103.937L97.3611 85.3591L77.3296 86.1906C77.5942 95.1481 78.539 103.501 80.0886 110.758H76.9894C75.4398 103.35 74.495 95.1481 74.2304 86.304L58.0162 87.0221L72.5674 110.758H64.2146L61.6068 107.885H60.8887C61.2288 108.83 61.4934 109.813 61.8335 110.758H58.0162C57.6761 109.813 57.4115 108.83 57.0713 107.885H56.1264L52.7627 103.501L55.7485 103.236C55.6351 102.405 55.4083 101.687 55.295 100.855L54.0855 99.6835H48.832L45.0146 94.7701L49.4367 94.4299L43.1249 87.5134C39.9123 87.5134 36.9264 87.6268 34.054 87.6268L30.2367 87.8536L25.8146 87.967L19.0493 88.4583C14.1359 88.6851 9.75164 88.9496 5.44298 89.063C3.40204 89.063 -1.47355 89.4032 0.41621 85.3591C1.96582 82.1465 5.66975 77.7244 9.14692 76.0614C12.9642 74.2851 15.5721 73.0756 19.3894 72.9622C27.7422 72.7355 45.0146 74.7386 45.0146 74.7386L48.3784 71.0347H62.0981ZM120.87 71.0347C121.097 73.0756 121.21 75.2299 121.21 77.3843H117.997C117.997 75.2299 117.884 73.0756 117.771 71.0347H120.87ZM141.506 71.0347C141.733 73.0756 141.96 75.2299 142.073 77.3843H138.407C138.256 75.2299 138.029 73.0756 137.802 71.0347H141.506ZM164.637 71.0347C164.863 73.0756 165.09 75.2299 165.317 77.3843H161.537C161.273 75.2299 161.046 73.0756 160.668 71.0347H164.637ZM175.824 71.0347C176.051 73.0756 176.315 75.2299 176.429 77.3843H169.739C169.626 75.2299 169.399 73.0756 169.021 71.0347H175.824ZM23.8115 110.758C22.0351 105.617 20.5989 100.402 19.7674 94.7701H26.5327C27.5154 100.402 29.065 105.731 31.0682 110.758H23.8115ZM35.8304 110.758C33.7138 105.731 32.0509 100.402 31.0682 94.7701H34.8855C35.9816 100.402 37.7579 105.731 40.0257 110.758H35.8304ZM83.3012 110.758C87.9501 109.548 92.7123 108.981 97.739 108.981C102.728 108.981 107.49 109.548 112.139 110.758H83.3012ZM115.389 110.758C116.826 103.728 117.771 95.715 117.997 87.2866H121.21C120.983 95.715 120.038 103.614 118.489 110.758H115.389ZM133.607 110.758C136.252 103.728 137.915 95.715 138.407 87.2866H142.073C141.619 95.6016 139.956 103.614 137.424 110.758H133.607ZM155.452 110.758C158.778 103.614 160.933 95.6016 161.537 87.2866H165.317C164.75 95.6016 162.709 103.501 159.61 110.758H155.452ZM164.372 110.758C167.358 103.501 169.134 95.4882 169.739 87.2866H176.429C175.937 95.4882 174.274 103.35 171.667 110.758H164.372ZM120.87 80.4835H200.882V84.1496H120.87V80.4835Z" fill="#FF0000"/>
<path fill-rule="evenodd" clip-rule="evenodd" d="M48.3781 71.0347L50.7592 68.3134L46.2237 67.9354L50.0411 63.0599H55.408C55.6348 61.8882 56.0127 60.6788 56.2395 59.4693L54.0852 59.3559L57.4111 54.9717H57.6757C58.9608 50.8898 60.6615 47.2236 62.4379 43.8599C59.1119 41.252 55.8615 38.3795 53.0269 35.1669C44.5608 43.6331 38.3623 54.5937 35.6033 66.8772H31.6726C38.4757 35.6205 65.4237 12.3764 97.7387 12.3764C131.339 12.3764 159.383 37.7748 164.636 71.0347H160.668C158.438 57.0882 151.862 44.578 142.451 35.1669C139.578 38.3795 136.365 41.252 133.039 43.8599C137.197 51.6079 140.183 60.9055 141.506 71.0347H137.802C136.592 61.6236 133.871 53.1575 130.054 45.9008C126.236 48.3953 122.306 50.4362 117.997 51.9858C119.433 57.8063 120.378 64.1181 120.869 71.0347H117.77C117.279 64.4961 116.334 58.411 115.125 52.9307C109.644 54.7071 103.824 55.6898 97.7387 55.6898C91.6537 55.6898 85.7954 54.7071 80.3151 52.9307C79.1434 58.411 78.1608 64.4961 77.7072 71.0347H74.608C75.0615 64.1181 76.0442 57.8063 77.4426 51.9858C76.4978 51.6079 75.5529 51.2677 74.7214 50.8898L62.0978 71.0347H48.3781ZM103.446 71.0347L103.71 70.6945H110.476L110.362 71.0347H103.446ZM169.021 71.0347C163.767 35.2803 133.871 7.84096 97.7387 7.84096C63.0426 7.84096 34.0537 33.126 27.1371 66.8772H20.334C27.2505 29.1953 59.3387 0.811035 97.7387 0.811035C137.537 0.811035 170.457 31.3496 175.824 71.0347H169.021ZM64.4789 40.3071C67.6915 35.1669 71.5088 30.7449 75.7797 27.4189C73.7765 25.9827 71.7356 24.5465 69.9592 22.8835C64.819 25.378 60.0568 28.7417 55.7482 32.5213C58.3938 35.3937 61.3797 38.0394 64.4789 40.3071ZM79.1434 24.9244C80.3151 25.6047 81.5245 26.3228 82.8096 26.9276C84.2458 27.6457 85.7954 28.2504 87.4584 28.7417C88.4411 29.0819 89.386 29.3087 90.4442 29.5732C92.8253 30.0268 95.2442 30.4047 97.7387 30.4047C100.233 30.4047 102.614 30.0268 104.995 29.5732C106.091 29.3087 107.036 29.0819 107.981 28.7417C109.644 28.2504 111.194 27.6457 112.63 26.9276C113.953 26.3228 115.125 25.6047 116.334 24.9244C118.11 23.715 119.773 22.3921 121.474 20.9559C114.18 18.0079 106.091 16.3071 97.7387 16.3071C89.386 16.3071 81.26 18.0079 74.0033 20.9559C75.6663 22.3921 77.3293 23.715 79.1434 24.9244ZM79.1434 29.3087C74.7214 32.6725 70.7907 37.0567 67.4269 42.4236C68.9765 43.4063 70.4127 44.2378 72.1135 45.0693L72.7938 44.2378H78.8789L76.9891 47.337L78.4253 47.9039C80.2017 41.4788 82.5828 36.1118 85.2285 31.9543C83.0741 31.2362 81.0332 30.4047 79.1434 29.3087ZM65.4237 45.9008C63.9875 48.7354 62.6647 51.7213 61.493 54.9717H63.0426L69.2411 48.1685C67.9182 47.4504 66.7466 46.7323 65.4237 45.9008ZM128.013 42.4236C124.687 37.0567 120.756 32.6725 116.334 29.3087C114.406 30.4047 112.403 31.2362 110.249 31.9543C112.857 36.1118 115.238 41.4788 117.052 47.9039C120.869 46.5055 124.573 44.578 128.013 42.4236ZM119.66 27.4189C123.969 30.7449 127.786 35.1669 130.999 40.3071C134.098 38.0394 137.084 35.3937 139.691 32.5213C135.421 28.7417 130.621 25.378 125.518 22.8835C123.704 24.5465 121.701 25.9827 119.66 27.4189ZM87.9497 32.7858C85.3419 36.7165 83.0741 42.1969 81.26 48.8866C86.5135 50.5496 91.9938 51.3811 97.7387 51.3811C103.446 51.3811 108.926 50.5496 114.18 48.8866C112.403 42.1969 110.136 36.7165 107.49 32.7858C104.391 33.6173 101.065 33.9575 97.7387 33.9575C94.3749 33.9575 91.0489 33.6173 87.9497 32.7858Z" fill="#FF0000"/>
<path fill-rule="evenodd" clip-rule="evenodd" d="M663.27 148.553L679.597 49H698.079C686.854 45.7874 679.219 39.4378 679.219 32.0677C679.219 21.5606 694.867 12.9811 714.293 12.9811C733.607 12.9811 749.216 21.5606 749.216 32.0677C749.216 39.4378 741.582 45.7874 730.394 49H745.059L728.58 148.553H663.27ZM464.127 148.553L487.749 12.9811H553.21L529.475 148.553H464.127ZM380.07 148.553L396.397 49H415.03C403.805 45.7874 396.057 39.4378 396.057 32.0677C396.057 21.5606 411.78 12.9811 431.093 12.9811C450.407 12.9811 466.167 21.5606 466.167 32.0677C466.167 39.4378 458.419 45.7874 447.194 49H461.859L445.418 148.553H380.07ZM256.782 148.553L274.319 50.1717H232.328L239.018 11.9229H385.437L378.407 50.1717H339.78L322.13 148.553H256.782Z" fill="#0632AD"/>
<path fill-rule="evenodd" clip-rule="evenodd" d="M773.443 22.6566V28.2503H775.711C777.147 28.2503 778.205 28.1369 778.81 27.6456C779.377 27.1542 779.755 26.4739 779.755 25.4913C779.755 24.5464 779.377 23.8283 778.659 23.3747C778.092 22.8834 776.996 22.6566 775.446 22.6566H773.443ZM768.681 19.5574H776.278C779.037 19.5574 781.191 20.0109 782.627 20.9558C784.026 21.9385 784.63 23.3747 784.63 25.2645C784.63 26.5873 784.29 27.6456 783.572 28.5905C782.741 29.422 781.796 30.1401 780.36 30.4046L784.744 39.2109H779.528L775.711 31.2361H773.443V39.2109H768.681V19.5574ZM775.938 15.022C773.897 15.022 772.12 15.3621 770.344 16.0802C768.681 16.7983 767.131 17.7432 765.695 19.1794C764.259 20.6157 763.163 22.2787 762.331 24.055C761.613 25.8692 761.16 27.759 761.16 29.6865C761.16 31.6897 761.613 33.5038 762.331 35.2802C763.049 37.0566 764.145 38.6062 765.43 40.0424C766.867 41.4787 768.416 42.5369 770.344 43.255C772.12 44.0865 774.01 44.4645 775.938 44.4645C777.827 44.4645 779.641 44.0865 781.418 43.4062C783.345 42.5369 784.895 41.592 786.445 40.1558C787.73 38.8708 788.826 37.3212 789.544 35.507C790.375 33.7306 790.715 31.9542 790.715 30.0267C790.715 27.8724 790.375 25.9826 789.657 24.2062C788.939 22.392 787.843 20.8424 786.558 19.4062C785.122 18.0078 783.459 16.7983 781.645 16.0802C779.868 15.3621 777.978 15.022 775.938 15.022ZM775.938 12.0361C778.319 12.0361 780.7 12.4897 782.854 13.359C785.008 14.3038 786.898 15.5889 788.561 17.4031C790.262 18.9527 791.547 20.8424 792.378 22.9968C793.21 25.1511 793.701 27.4188 793.701 29.7999C793.701 32.181 793.21 34.4487 792.265 36.6031C791.434 38.7574 790.111 40.6472 788.448 42.3101C786.785 43.9731 784.744 45.1826 782.627 46.1275C780.473 46.959 778.205 47.4503 775.938 47.4503C773.556 47.4503 771.289 46.959 769.134 46.0141C766.98 45.1826 765.09 43.8598 763.314 42.0834C761.764 40.4204 760.441 38.4928 759.61 36.4897C758.778 34.3353 758.287 32.0676 758.287 29.7999C758.287 28.1369 758.514 26.5873 758.892 25.0377C759.345 23.4881 759.95 22.0519 760.895 20.6157C762.445 17.8566 764.599 15.7401 767.245 14.3038C769.852 12.7542 772.725 12.0361 775.938 12.0361Z" fill="#FF0000"/>
<path fill-rule="evenodd" clip-rule="evenodd" d="M594.596 14.9087H670.413L605.897 80.5969L647.888 148.553H569.047L529.135 83.0914L594.596 14.9087Z" fill="#FF0000"/>
</svg>
