<svg width="794" height="237" viewBox="0 0 794 237" fill="none" xmlns="http://www.w3.org/2000/svg">
<path fill-rule="evenodd" clip-rule="evenodd" d="M93.7323 159.079C75.4016 159.154 57.1087 159.23 38.8157 159.268C26.0787 138.934 13.3039 118.562 0.566929 98.2285C18.4819 98.2285 36.3969 98.2285 54.3118 98.2285C64.063 113.006 73.7764 127.822 83.4898 142.6C78.8031 132.244 74.1543 121.851 69.4677 111.495C79.8614 95.2426 90.2173 79.0285 100.611 62.7765C104.202 57.145 109.002 53.0631 115.994 53.0631C130.961 53.0631 145.928 53.0631 160.894 53.0631C138.52 88.4017 116.107 123.74 93.7323 159.079ZM171.326 159.079C153.033 159.154 134.702 159.23 116.409 159.268C112.819 153.561 109.266 147.816 105.676 142.109L136.479 102.008L161.083 142.6C156.435 132.244 151.748 121.851 147.099 111.495C157.455 95.2426 176.353 65.3844 186.709 49.1324C190.337 43.5009 195.099 39.419 202.091 39.419C217.096 39.419 232.063 39.419 247.03 39.419C224.617 74.7576 193.701 123.74 171.326 159.079ZM53.9339 90.6316C35.9811 90.6316 17.9906 90.6316 0 90.6316C10.9606 58.808 31.4079 31.2174 69.6567 14.5119C126.614 -10.3574 189.09 -0.984129 240.983 31.0663C195.099 16.6285 151.559 18.5182 119.131 29.9324C90.5197 39.9859 68.485 59.7907 53.9339 90.6316ZM310.639 159.457H270.879L269.82 142.298H239.546L228.17 159.457H187.767L241.587 75.4379C246.161 68.3324 251.112 65.2332 259.616 65.2332H306.293L310.639 159.457ZM268.989 121.624H252.132L265.965 98.6064H268.044L268.989 121.624ZM551.357 159.457H511.597L510.576 142.298H480.265L468.888 159.457H428.523L482.306 75.4379C486.879 68.3324 491.83 65.2332 500.334 65.2332H547.011L551.357 159.457ZM509.707 121.624H492.85L506.683 98.6064H508.762L509.707 121.624ZM792.076 159.457H752.353L751.294 142.298H721.02L709.606 159.457H669.241L723.024 75.4379C727.635 68.3324 732.548 65.2332 741.09 65.2332H787.729L792.076 159.457ZM750.463 121.624H733.606L747.402 98.6064H749.518L750.463 121.624ZM345.373 65.4222H387.213L378.18 97.2836H399.005L408.038 65.4222H449.839L423.269 159.457H381.43L390.614 127.028H369.789L360.605 159.457H318.765L345.373 65.4222ZM587.074 65.4222H628.157L627.666 67.2363L628.271 65.2332L637.569 109.378L649.928 65.4222H691.011L664.592 159.457H623.849L623.735 159.835L623.622 159.457H623.546L623.584 159.23L614.211 115.085L601.776 159.457H560.693L587.074 65.4222Z" fill="#0061AE"/>
<path d="M516.812 221.857H556.271L558.69 210.405H536.164L537.524 203.942H558.652L561.109 192.49H539.981L541.417 185.724H563.527L565.946 174.272H526.979L516.812 221.857ZM565.909 186.367L572.636 202.77L557.556 221.857H574.11L582.047 210.405L584.882 221.857H602.079L595.124 202.506L607.937 186.367H591.987L585.222 196.987L582.992 186.367H565.909ZM601.474 236.181H617.726L621.732 217.283H621.883C622.715 219.211 623.887 220.572 625.361 221.403C626.835 222.235 628.649 222.688 630.841 222.688C633.373 222.688 635.641 222.197 637.682 221.214C639.685 220.232 641.424 218.909 642.935 217.283C644.447 215.658 645.732 213.731 646.715 211.576C647.735 209.384 648.491 207.079 648.983 204.698C649.55 202.09 649.814 199.633 649.738 197.328C649.701 195.022 649.285 192.981 648.529 191.205C647.735 189.466 646.488 188.106 644.863 187.085C643.2 186.027 641.008 185.535 638.324 185.535C635.641 185.535 633.335 186.065 631.408 187.161C629.442 188.257 627.628 190.146 625.927 192.83H625.814L627.175 186.367H612.094L601.474 236.181ZM624.075 204.282C624.264 203.45 624.453 202.619 624.756 201.75C625.02 200.88 625.361 200.087 625.776 199.406C626.23 198.688 626.759 198.121 627.401 197.668C628.006 197.214 628.762 196.987 629.631 196.987C630.538 196.987 631.181 197.214 631.635 197.668C632.088 198.121 632.353 198.726 632.504 199.444C632.617 200.162 632.617 200.994 632.542 201.901C632.466 202.808 632.315 203.715 632.088 204.698C631.899 205.643 631.672 206.55 631.408 207.457C631.105 208.326 630.765 209.12 630.312 209.8C629.858 210.48 629.329 211.009 628.724 211.425C628.12 211.841 627.401 212.03 626.532 212.03C625.625 212.03 624.945 211.841 624.529 211.425C624.075 211.009 623.773 210.443 623.622 209.724C623.471 209.006 623.471 208.175 623.584 207.23C623.698 206.323 623.849 205.302 624.075 204.282ZM657.487 186.367L649.89 221.857H666.142L668.901 208.969C669.165 207.646 669.657 206.436 670.337 205.302C671.055 204.169 671.849 203.148 672.794 202.279C673.738 201.447 674.759 200.767 675.855 200.276C676.989 199.822 678.085 199.558 679.219 199.558C679.937 199.558 680.617 199.633 681.26 199.709C681.94 199.784 682.431 199.935 682.772 200.124L685.795 185.876C685.115 185.649 684.283 185.535 683.225 185.535C681.94 185.535 680.731 185.762 679.597 186.216C678.501 186.669 677.405 187.312 676.422 188.106C675.401 188.899 674.457 189.806 673.55 190.865C672.68 191.961 671.849 193.132 671.093 194.38H670.979L672.68 186.367H657.487ZM699.25 200.729C699.364 200.049 699.553 199.293 699.855 198.499C700.12 197.668 700.498 196.912 700.989 196.194C701.442 195.476 702.009 194.909 702.69 194.417C703.37 193.964 704.201 193.699 705.146 193.699C706.053 193.699 706.734 193.964 707.15 194.417C707.603 194.909 707.868 195.476 707.981 196.194C708.132 196.912 708.132 197.668 708.057 198.499C707.981 199.293 707.868 200.049 707.716 200.729H699.25ZM720.151 208.213L720.605 206.096C721.247 203.11 721.512 200.351 721.436 197.819C721.361 195.324 720.831 193.132 719.849 191.318C718.828 189.504 717.354 188.106 715.313 187.085C713.31 186.027 710.664 185.535 707.414 185.535C700.573 185.535 695.093 187.009 690.935 189.995C686.778 192.981 684.057 197.441 682.772 203.45C681.449 209.649 682.205 214.373 685.001 217.699C687.836 221.025 692.636 222.688 699.477 222.688C702.312 222.688 705.033 222.499 707.641 222.197C710.249 221.857 712.705 221.365 715.049 220.609L717.014 211.425C715.578 212.143 713.877 212.71 711.874 213.088C709.871 213.466 707.754 213.693 705.524 213.693C704.315 213.693 703.219 213.58 702.198 213.428C701.178 213.277 700.309 213.013 699.59 212.597C698.835 212.181 698.305 211.614 697.965 210.934C697.625 210.216 697.55 209.309 697.738 208.213H720.151ZM720.68 220.609C722.872 221.252 725.064 221.743 727.332 222.121C729.6 222.499 731.905 222.688 734.287 222.688C736.214 222.688 738.293 222.461 740.561 222.083C742.828 221.706 744.983 221.025 747.024 220.043C749.064 219.06 750.879 217.737 752.466 216.112C754.053 214.449 755.112 212.332 755.641 209.8C756.132 207.57 756.057 205.794 755.414 204.471C754.772 203.148 753.827 202.128 752.579 201.372C751.332 200.616 749.934 200.087 748.384 199.784C746.835 199.444 745.361 199.18 744 198.991C742.639 198.802 741.543 198.575 740.674 198.31C739.805 198.046 739.427 197.63 739.578 196.987C739.691 196.42 739.956 196.005 740.334 195.702C740.712 195.362 741.203 195.135 741.77 194.946C742.337 194.758 742.979 194.644 743.66 194.606C744.34 194.569 745.02 194.531 745.701 194.531C747.553 194.531 749.291 194.72 750.954 195.06C752.617 195.438 754.242 195.929 755.83 196.572L757.871 187.047C755.943 186.594 754.016 186.216 752.088 185.951C750.123 185.687 748.12 185.535 746.079 185.535C744.038 185.535 741.921 185.687 739.616 185.989C737.348 186.254 735.194 186.858 733.153 187.728C731.15 188.559 729.335 189.806 727.786 191.356C726.236 192.943 725.178 194.984 724.649 197.517C724.157 199.784 724.233 201.636 724.838 202.997C725.48 204.395 726.387 205.491 727.635 206.247C728.882 207.003 730.28 207.57 731.83 207.948C733.379 208.326 734.816 208.628 736.176 208.855C737.499 209.12 738.595 209.422 739.464 209.762C740.296 210.102 740.636 210.632 740.485 211.35C740.409 211.803 740.145 212.181 739.729 212.483C739.275 212.786 738.746 213.013 738.142 213.202C737.537 213.391 736.857 213.504 736.176 213.58C735.458 213.655 734.778 213.693 734.06 213.693C731.981 213.693 729.902 213.391 727.861 212.824C725.858 212.257 724.157 211.463 722.835 210.48L720.68 220.609ZM756.51 220.609C758.702 221.252 760.894 221.743 763.162 222.121C765.43 222.499 767.735 222.688 770.116 222.688C772.044 222.688 774.123 222.461 776.39 222.083C778.658 221.706 780.812 221.025 782.853 220.043C784.894 219.06 786.746 217.737 788.296 216.112C789.883 214.449 790.942 212.332 791.471 209.8C791.962 207.57 791.887 205.794 791.244 204.471C790.601 203.148 789.657 202.128 788.409 201.372C787.2 200.616 785.764 200.087 784.214 199.784C782.664 199.444 781.19 199.18 779.83 198.991C778.469 198.802 777.373 198.575 776.504 198.31C775.635 198.046 775.257 197.63 775.408 196.987C775.521 196.42 775.786 196.005 776.164 195.702C776.542 195.362 777.033 195.135 777.6 194.946C778.205 194.758 778.809 194.644 779.49 194.606C780.17 194.569 780.85 194.531 781.531 194.531C783.383 194.531 785.121 194.72 786.784 195.06C788.447 195.438 790.072 195.929 791.66 196.572L793.701 187.047C791.773 186.594 789.846 186.216 787.918 185.951C785.953 185.687 783.95 185.535 781.909 185.535C779.868 185.535 777.751 185.687 775.446 185.989C773.178 186.254 771.024 186.858 768.983 187.728C766.979 188.559 765.165 189.806 763.616 191.356C762.066 192.943 761.008 194.984 760.479 197.517C759.987 199.784 760.063 201.636 760.668 202.997C761.31 204.395 762.255 205.491 763.464 206.247C764.712 207.003 766.11 207.57 767.66 207.948C769.209 208.326 770.646 208.628 772.006 208.855C773.329 209.12 774.425 209.422 775.294 209.762C776.126 210.102 776.504 210.632 776.315 211.35C776.239 211.803 775.975 212.181 775.559 212.483C775.105 212.786 774.576 213.013 773.972 213.202C773.367 213.391 772.687 213.504 772.006 213.58C771.288 213.655 770.608 213.693 769.89 213.693C767.811 213.693 765.732 213.391 763.691 212.824C761.688 212.257 759.987 211.463 758.664 210.48L756.51 220.609Z" fill="#E62129"/>
</svg>
